<svg xmlns="http://www.w3.org/2000/svg" xmlns:xlink="http://www.w3.org/1999/xlink" width="635.489" height="376.301" viewBox="0 0 635.489 376.301">
  <defs>
    <clipPath id="clip-path">
      <rect id="Rectangle_104" data-name="Rectangle 104" width="624" height="193" transform="translate(716 368.041)" fill="#001c3d" stroke="#707070" stroke-width="1"/>
    </clipPath>
    <clipPath id="clip-path-2">
      <rect id="Rectangle_100" data-name="Rectangle 100" width="76.25" height="153.56" fill="none" stroke="#00c29a" stroke-width="15"/>
    </clipPath>
    <clipPath id="clip-path-3">
      <rect id="Rectangle_102" data-name="Rectangle 102" width="76.25" height="153.56" fill="none" stroke="#00c29a" stroke-width="20"/>
    </clipPath>
  </defs>
  <g id="Group_5523" data-name="Group 5523" transform="translate(20600.489 -591.666)">
    <g id="Group" transform="translate(-20599.418 575.654)">
      <path id="Path" d="M306.349,164.083H123.736l124.094-1.438c22.941-1.995,39.106-24.5,30.391-45.8-1.506-3.68.069-4.705-1.8-8.255-19.508-36.733-53.332-66.656-91.66-84.039.949-.179,1.9-.31,2.882-.44a194.2,194.2,0,0,0-22.012-9.376c-3.99-1.424-8.028-2.71-12.059-3.838-19.818-5.586-46.6-3.034-55.031,18.91-7.092,18.422,2.325,40.675,20.038,48.743L150.4,90.713c-.268-.4-.509-.8-.757-1.218l27.667,10.573a3.288,3.288,0,0,1-1.548,5.964l-67.192,7.34c-9.685.977-21.813,5.028-28.953,11.694-5.207,4.815-9.6,11.371-9.555,19.667a102.5,102.5,0,0,0-13.07,1.837c-6.583,1.417-13.283,3.859-13.758,7.869-.936,8.048,10.5,9.685,17.713,9.685l-45.62-.179c4.9,0,5.5-.041,8.75-3.274s6.879-5.723,6.879-10.621l.4-15.7c0-3.233.77-5.847-2.463-5.847H0a6.129,6.129,0,0,0,5.675-3.439.172.172,0,0,0,.041-.089c1.445-2.683,1.775-6.542,1.506-10.194l.337-1.2.867-3.192,18.353-10.8a4.4,4.4,0,0,0,.4-.261c9.575-5.854,10.772-16.317,7.491-25.672-.069-.179-.11-.337-.179-.488-.151-.4-.289-.777-.461-1.156a34.938,34.938,0,0,0-3.24-6.1c-4.74-7.4-11.618-13.434-18.153-15.01a25.183,25.183,0,0,0-5.586-.619C29.792,28.968,55.994,10.017,86.942,3.716a179.7,179.7,0,0,1,81.831,2.132c31.257,8.317,59.406,25.582,81.727,48.9,30.047,31.347,44.1,67.97,55.849,109.332Z" transform="translate(280.41 227.223)" fill="#001c3d"/>
      <path id="Path-2" data-name="Path" d="M52.836,9.368a10.566,10.566,0,0,1-5.008,4.815A24.709,24.709,0,0,1,42,16.247c-3.329.557-4.506-1.548-6.631-3.611a15.56,15.56,0,0,0-4.127-2.862,6.879,6.879,0,0,0-5.875-.089,3.549,3.549,0,0,0-2.1,3.24c.138,2.525,3.618,4.519,5.586,5.565a48.475,48.475,0,0,0,7.979,2.944c6.721,2.064-4.471,6.363-6.824,6.631a48.042,48.042,0,0,1-15.133-.358,51.02,51.02,0,0,1,3.281,9.974c.777,3.281,1.685,7.23,1.046,10.532a13.4,13.4,0,0,1-6.631,8.715L0,4.5a37.263,37.263,0,0,1,29.813-.977,8.846,8.846,0,0,0,9.335-2.064L40.434.213A9.3,9.3,0,0,1,45.8.639c3.047,1.149,8.688,4.843,7.037,8.729Z" transform="translate(228.227 287.69)" fill="#00c29a"/>
      <path id="Path-3" data-name="Path" d="M246.193,0H194.3a19.949,19.949,0,0,1-19.839,17.823H0a17.844,17.844,0,0,0,17.8,17.8H246.18A17.885,17.885,0,0,0,264,17.823V5.854A5.854,5.854,0,0,0,258.149,0Z" transform="translate(47.774 355.687)" fill="none" stroke="#000" stroke-miterlimit="10" stroke-width="2"/>
      <path id="Path-4" data-name="Path" d="M213.829,8.282a19.824,19.824,0,0,1,3.24,7.044l24.585,102.5a19.26,19.26,0,0,1,.42,6.8,19.949,19.949,0,0,1-19.839,17.823H44.534a19.983,19.983,0,0,1-19.419-15.319L.558,24.633A19.949,19.949,0,0,1,19.977,0H197.65a19.845,19.845,0,0,1,15.292,7.161Z" transform="translate(0 231.028)" fill="none" stroke="#000" stroke-miterlimit="10" stroke-width="2"/>
      <ellipse id="Oval" cx="19.213" cy="21.593" rx="19.213" ry="21.593" transform="translate(96.309 294.945) rotate(-17.5)" fill="#f2aa18"/>
      <path id="Path-5" data-name="Path" d="M88.051,13.076C72.375,15.7,60.323,22.865,52.233,37.7c-7.243,13.276-8.09,29.476-.365,42.649L20.329,68.258C2.066,59.894-4.359,41.307,2.96,22.218,11.662-.523,39.274-3.165,59.711,2.627c4.162,1.169,8.317,2.5,12.43,3.976Q80.2,9.492,88.051,13.076Z" transform="translate(380.976 237.66)" fill="#001c3d"/>
      <g id="Group-2" data-name="Group" transform="translate(101.718 0.001)">
        <g id="Group-3" data-name="Group" transform="translate(172.212 223.433)">
          <path id="Path-6" data-name="Path" d="M0,132.26H4.877a9.032,9.032,0,0,0,7.312-3.439.227.227,0,0,0,.048-.089,11.935,11.935,0,0,0,2.236-8.3l-.4-3.1-.33-2.5,1.2-.688,18.75-11.064,1.266-.729c9.156-5.386,9.816-15.429,6.225-24.943-.062-.172-.11-.33-.172-.488-.158-.4-.316-.77-.468-1.149a43.916,43.916,0,0,0-3.24-6.1c-4.74-7.409-11.611-13.434-18.153-15.01a24.764,24.764,0,0,0-5.586-.619c-3.921,0-8.255.75-10.531,3.013C27.357,33.129,55.774,10.669,89.954,3.7a179.709,179.709,0,0,1,81.858,2.174c31.257,8.317,59.433,25.6,81.755,48.922q1.764,1.836,3.439,3.728c27.976,30.748,45.82,69.586,57.094,109.332" fill="none" stroke="#000" stroke-miterlimit="10" stroke-width="2"/>
          <path id="Path-7" data-name="Path" d="M0,.49H336.581" transform="translate(8.578 167.388)" fill="none" stroke="#000" stroke-miterlimit="10" stroke-width="2"/>
          <path id="Path-8" data-name="Path" d="M0,.49H38.191" transform="translate(93.311 167.382)" fill="none" stroke="#000" stroke-miterlimit="10" stroke-width="2"/>
          <g id="Group-4" data-name="Group" transform="translate(49.713 11.976)">
            <path id="Path-9" data-name="Path" d="M48.693,70.186c-17.72-8.069-27.13-30.322-20.045-48.737C37.1-.5,63.875-3.053,83.679,2.532q6.067,1.7,12.059,3.838c44.527,15.821,84.988,48.668,107.083,90.285,1.864,3.522,3.35,7.14,4.856,10.827a34.14,34.14,0,0,1-28.63,46.962L54.96,155.9H16.769a16.158,16.158,0,0,1-15.3-10.951c-4.189-12.382,1.224-21.723,8.069-28.086a44.88,44.88,0,0,1,26.14-11.4l69.71-7.044a3.3,3.3,0,0,0,1.562-5.971Z" transform="translate(26.83)" fill="none" stroke="#000" stroke-miterlimit="10" stroke-width="2"/>
            <path id="Path-10" data-name="Path" d="M15.685,0C9.322,3.66,2.78,9.39.593,16.647-1.925,25,3.984,32.6,10.7,36.946" transform="translate(39.057 118.984)" fill="none" stroke="#000" stroke-miterlimit="10" stroke-width="2"/>
            <path id="Path-11" data-name="Path" d="M8.752,0C2.816,5.648-2.33,12.808,1.1,21.324A15.821,15.821,0,0,0,5.56,27.35" transform="translate(52.813 128.573)" fill="none" stroke="#000" stroke-miterlimit="10" stroke-width="2"/>
            <path id="Path-12" data-name="Path" d="M7.874,0S-5.8,10.16,2.886,16.255" transform="translate(65.338 139.621)" fill="none" stroke="#000" stroke-miterlimit="10" stroke-width="2"/>
            <path id="Path-13" data-name="Path" d="M38.13,18.422l.241.977H16.317C9.108,19.4-.88,18.291.062,10.243S26.821,0,26.821,0" transform="translate(0 136.504)" fill="none" stroke="#000" stroke-miterlimit="10" stroke-width="2"/>
          </g>
        </g>
      </g>
      <g id="Group-5" data-name="Group" transform="translate(227.745 280.453)">
        <g id="Group-6" data-name="Group">
          <path id="Path-14" data-name="Path" d="M6.28,17.025S4.85,4.437,0,0" transform="translate(53.655 40.778)" fill="none" stroke="#000" stroke-miterlimit="10" stroke-width="2"/>
          <path id="Path-15" data-name="Path" d="M0,12.616a37.311,37.311,0,0,1,30.267-1.169,8.86,8.86,0,0,0,9.348-2.064L49.2,0" fill="none" stroke="#000" stroke-miterlimit="10" stroke-width="2"/>
          <path id="Path-16" data-name="Path" d="M0,.131l8,3.6a1.376,1.376,0,0,0,1.844-.88L11.1,0" transform="translate(30.459 65.961)" fill="none" stroke="#000" stroke-miterlimit="10" stroke-width="2"/>
        </g>
        <path id="Path-17" data-name="Path" d="M1.307,0A9.121,9.121,0,0,1,0,9.424" transform="translate(30.459 50.202)" fill="none" stroke="#000" stroke-miterlimit="10" stroke-width="2"/>
        <g id="Group-7" data-name="Group" transform="translate(15.374 42.532)">
          <path id="Path-18" data-name="Path" d="M8.984,9.273c1.259-1.864,1.252-6.37.929-8.179C9.706-.055,7.773-.468,7.567.688,7,3.914,3.364,8.874,0,9.273" transform="translate(25.555 23.429)" fill="none" stroke="#000" stroke-miterlimit="10" stroke-width="2"/>
          <circle id="Oval-2" data-name="Oval" cx="10.27" cy="10.27" r="10.27" transform="translate(8.117 0)" fill="none" stroke="#000" stroke-miterlimit="10" stroke-width="2"/>
          <path id="Path-19" data-name="Path" d="M14.948,0l-1.83,5.145A10.263,10.263,0,0,0,0,11.378" transform="translate(0 19.942)" fill="none" stroke="#000" stroke-miterlimit="10" stroke-width="2"/>
        </g>
      </g>
      <circle id="Oval-3" data-name="Oval" cx="8.695" cy="8.695" r="8.695" transform="translate(252.812 324.56)" fill="#fff" opacity="0.53"/>
      <path id="Path-20" data-name="Path" d="M0,56.88a13.341,13.341,0,0,0,6.624-8.709c.647-3.309-.261-7.25-1.039-10.532A50.9,50.9,0,0,0,2.3,27.666a48.042,48.042,0,0,0,15.133.351c2.346-.261,13.544-4.54,6.824-6.624a47.588,47.588,0,0,1-7.973-2.951c-1.981-1.025-5.455-3.02-5.579-5.551a3.529,3.529,0,0,1,2.064-3.254,6.879,6.879,0,0,1,5.875.1A15.133,15.133,0,0,1,22.776,12.6c2.132,2.064,3.3,4.127,6.638,3.6a23.993,23.993,0,0,0,5.813-2.064A10.573,10.573,0,0,0,40.248,9.32c1.665-3.873-3.99-7.567-7.058-8.674a9.328,9.328,0,0,0-5.359-.44" transform="translate(240.753 288.412)" fill="none" stroke="#000" stroke-miterlimit="10" stroke-width="2"/>
      <path id="Path-21" data-name="Path" d="M.977.142.688.63A4.891,4.891,0,0,0,0,.273Z" transform="translate(468.05 251.069)" fill="#353642" stroke="#707070" stroke-width="2"/>
      <g id="Group_5334" data-name="Group 5334" transform="translate(214.89 17.012)">
        <path id="Path-22" data-name="Path" d="M0,96.253V97.6c.223,18.589,6.752,35.912,14.483,50.9,5.179,10.02,11.324,21.156,9.868,33.442-.619,5.417-2.757,10.33-3.289,15.765s1.493,12.215,5.334,12.5c2.441.177,4.516-2.3,6.449-4.426,11.429-12.658,26.285-17.394,40.731-18.226s28.874,1.894,43.326,2.478c20.839.885,42.007-2.868,61.254-14.287,17.246-10.215,33.049-26.98,43.426-49.375,10.2-21.988,4.169-53.916-6.709-73.036-10.2-17.943-24.971-29.423-40.124-37.514C133.994-5.923,87.477-5.428,47.285,18.392,35.354,25.474,23.813,34.68,14.868,48A89.208,89.208,0,0,0,0,96.253Z" fill="none" stroke="#000" stroke-miterlimit="10" stroke-width="2"/>
      </g>
    </g>
    <g id="Group_5522" data-name="Group 5522" transform="translate(-21237 246)">
      <g id="Mask_Group_19" data-name="Mask Group 19" transform="translate(-68 -21.041)" clip-path="url(#clip-path)">
        <g id="Group_306" data-name="Group 306" transform="translate(710.885 284.885)">
          <text id="_4" data-name="4" transform="translate(1.72 268.155)" fill="#001c3d" font-size="255" font-family="SegoeUI, Segoe UI" letter-spacing="0.2em"><tspan x="0" y="0">4</tspan></text>
          <text id="_4-2" data-name="4" transform="translate(473.72 268.155)" fill="#001c3d" font-size="255" font-family="SegoeUI, Segoe UI" letter-spacing="0.2em"><tspan x="0" y="0">4</tspan></text>
          <g id="Group_305" data-name="Group 305" transform="translate(199.244 53.643)">
            <g id="Group_304" data-name="Group 304" transform="translate(128.156) rotate(45)">
              <g id="Mask_Group_41" data-name="Mask Group 41" transform="translate(0 27.68)" clip-path="url(#clip-path-2)">
                <g id="Path_108" data-name="Path 108" transform="translate(0 2.118)">
                  <path id="Path_1" data-name="Path 1" d="M64.779,139.517a64.729,64.729,0,0,1,0-127.592C64.914,45.987,64.938,100.877,64.779,139.517Z" fill="#00c29a"/>
                  <path id="Path_2" data-name="Path 2" d="M53.827,26.666a53.718,53.718,0,0,0,0,98.111c.086-31.29.076-69.1,0-98.111M75.721,0c.192,33.112.252,107.467,0,151.442A75.721,75.721,0,0,1,75.721,0Z" fill="#00c29a"/>
                </g>
              </g>
              <g id="Mask_Group_42" data-name="Mask Group 42" transform="translate(97.198)" clip-path="url(#clip-path-3)">
                <g id="Path_109" data-name="Path 109" transform="translate(0.362 2.118)">
                  <path id="Path_3" data-name="Path 3" d="M11.109,139.517c-.159-38.64-.135-93.53,0-127.592a64.828,64.828,0,0,1,53.778,63.8A64.829,64.829,0,0,1,11.109,139.517Z" fill="#00c29a"/>
                  <path id="Path_4" data-name="Path 4" d="M22.062,26.666c-.078,29.009-.088,66.821,0,98.111A53.8,53.8,0,0,0,53.888,75.721,53.8,53.8,0,0,0,22.062,26.666M.167,0a75.721,75.721,0,0,1,0,151.442C-.085,107.467-.025,33.112.167,0Z" fill="#00c29a"/>
                </g>
              </g>
            </g>
          </g>
        </g>
      </g>
    </g>
  </g>
</svg>
