<svg xmlns="http://www.w3.org/2000/svg" width="435.999" height="506.042" viewBox="0 0 435.999 506.042">
  <g id="Group_5321" data-name="Group 5321" transform="translate(8904.001 20919.002)">
    <g id="Group_5289" data-name="Group 5289" transform="translate(-8904 -20899.545)">
      <g id="Group_5090" data-name="Group 5090">
        <path id="Path_1644" data-name="Path 1644" d="M4659.52,5482.56l-1.687.043c-.657-2.854-.349-14.409-.083-17.889.727-9.5,3.574-19.143,13.013-23.049,16.231-6.718,26.129,6.639,20.1,27.1-2.809,9.521-7.175,17.091-10.516,25.892-.38,1-.626,2.615-1.738,2.575-1.676-.059-.65-2.236-.3-3.157,5.273-13.69,18.552-34.876,9.1-47.817-5.491-7.515-18.707-4.229-23.665,4.115-6.5,10.943-2.769,26.188-4.219,32.188Zm-8.5-110.624a19.137,19.137,0,0,0-6.486-9.247c-6.006-5.18-8.847-3.95-8.282-6.816,1.684-.811,13.693,5.688,16.767,15.24,2.991,9.294-1.819,19.391-1.824,28.878-.011,25.05,32.468,19.937,40.8,28.269,1.87,1.871,2.838,4.919,3.806,7.849.489,1.482.9,2.966,1.413,4.41.473,1.334,1.593,2.89,1.017,4.143-2.6,2.731-4.391-11.709-7.959-15.254-6.73-6.686-41.147-2.705-41.159-29.416,0-8.953,4.607-19.643,1.907-28.062Zm-4.166-53.013c-1.717-.614-.927-1.788-.239-3.37a37.922,37.922,0,0,1,6.91-9.687,40.052,40.052,0,0,1,13.182-8.665c16.047-5.88,25.573,7.6,22.733,16.891-1.635,5.35-5.784,9.943-6.1,16-.734,14.048,18.061,27.03,30.66,14.979a19.1,19.1,0,0,0,2.47-3.062c.961-1.47.828-2.892,2.8-2.2,1.019,2.931-5.62,9.219-10.653,10.959-11.654,4.028-22.978-3.593-26.528-14.561-2.2-6.789.126-11.787,2.811-17.028,3.172-6.194,4.616-10.155.226-16.016-3.126-4.175-8.23-6.563-15.431-4.726-6.088,1.554-10.216,5.057-13.739,8.117a34.908,34.908,0,0,0-7.119,9.183c-.668,1.365-.638,2.535-1.979,3.185Zm74.243-39.848c.056,2.085-1.551,1.5-2.553,3.839-2.711,6.321,4.766,20.971,2.894,26.5-1.578,4.66-13.464,5.329-18.915-12.876-1.646-5.5-3.262-16.04-.873-21.491.862-1.967,2.907-1.853,1.811,1.211-3.356,9.374,2.518,35.126,14.184,33.727,5.813-.7-2.6-15.524-1.705-25.06.29-3.074,2.62-7.434,5.16-5.854Zm-53.851,223.142a4.565,4.565,0,0,1,2.29-.443c1.323-1.23,4.175-1.665,6.029-2.285,2.173-.726,4.14-1.387,6.321-2.128,2.115-.719,11.235-4.126,12.7-4.049.76-.715,1-.663,2.081-.914l4.37-1.52c0-4.434.275-8.183.28-12.827.006-3.667.7-8.168.09-12.6l-.366-19.151c.013-2.35-.3-3.833-.3-6.4.021-16.965-1.485-26-4.246-41.488a55.8,55.8,0,0,1-1.021-5.7l-6.139-8.113c-9.376-12.429-20.6-28.823-29.109-41.965-1.859-2.871-3.723-5.725-5.606-8.677-1.123-1.759-5.263-7.048-4.7-8.919,1.424-.212,1.552.08,2.233,1.194l10.272,15.955c4,6.154,7.892,11.96,12.059,17.935,6.88,9.862,14.594,21.2,22.206,30.527,1.607,1.972,3.253,3.252,1.429,4.1,4.031,6,9.021,12.392,13.4,18.934,1.063-.562,1.646-1.136,2.68-1.748a5.707,5.707,0,0,1,1.705-1.415l9.8-7.415c1.631-1.233,3.241-2.472,4.954-3.78,1.179-.9,4.017-3.29,5.133-3.7a5.246,5.246,0,0,1,1.649-1.324c.58-.466,1.241-.959,1.749-1.3a33.43,33.43,0,0,0-1.041-5.076,31.753,31.753,0,0,1-1-5.071c-1.542.5-1.712.474-2.151-1.1-.306-1.1-.479-1.965-.773-3.008-.548-1.93-1.057-3.707-1.626-5.672-4.707-16.237-12.692-37.91-22.194-51.21-3.177-4.446-6.634-8.315-11.257-10.887-1.706-.948-4.747-1.195-3.769-3.154,2.382-1.07,8.094,3.525,9.369,4.548,6.971,5.594,12.867,16.953,17,25.24,2.881,5.777,1.262,4.928,5.325,8.944,5.123,5.063,8.983,8.7,14.044,14.221,2.22,2.42,4.715,4.373,5.39,5.1,1.242,1.332.051,1.331.831,2.555-.881-3.993,2.22-9.186,3.863-11.481,5.051-7.049,15.5-14.241,9.11-25.842-5.578-10.131-24.537-18.235-23.5-30.459.267-3.134,4.261-10.457,6.043-8.592,1.063,1.041-.255,1.57-.9,2.327-4.856,5.681-3.509,10.469.771,15.851.609.767,1.2,1.214,1.849,1.931,2.693,2.992,5.166,4.79,7.882,7.278a67.482,67.482,0,0,1,7.6,7.548c12.645,16.422-5.4,25.5-9.6,35.333-1.02,2.393-.775,4.229-1.423,6.11.869.477,6.008,4.474,8.819,6.19,1.054.644,2.172.826,2.454,2.356a8.112,8.112,0,0,0,1.4.773l5.1,2.477c6.239,2.5,9.867,3.428,16.182,1.235a35.1,35.1,0,0,0,9.424-5.723,43.308,43.308,0,0,0,3.774-3.508c3.252-3.89,10.271-12.762,11.155-17.2-3.944-1.588.9-12.507-5.7-21.008A13.509,13.509,0,0,0,4798,5331a10.615,10.615,0,0,0-5.466-1.138c-17.43.777-14.524,32.571-8.747,45.948.485,1.124.709,1.3.069,2.141-1.848.72-2.478-2.318-3.033-3.854-4.41-12.18-5.842-30.945,1.436-41.163,3.74-5.252,13.815-7.622,19.564-1.689,9.194,9.489,3.642,17.208,6.416,21.842.266-.306.114.021.461-.706.074-.156.263-.712.311-.854.317-.906.427-1.08.723-1.9.41-1.136.847-2.409,1.235-3.717a50.056,50.056,0,0,0,1.617-8.288c.528-4.664.792-14.069-.268-18.285-5.91,1.418-8.587,1.63-14.507-.393-10.852-3.709-53.038-27.812-66.926-35.319-2.12-1.145-9.471-5.2-11.2-5.688l-.293-.306h-.29l-8.8-2.264c-3.02-.776-6.09-1.6-9.027-2.334l-17.175-3.8a4.2,4.2,0,0,1-.478-.1l-.642-.229c-4.626,1.112-7.915,3.988-11.08,6.1-6.1,4.075-6.633-2.287-5.51-7.566-25.018,0-35.675,28.764-26.511,44.558,6.154,10.606,5.941,7.585,3.282,12.047a53.086,53.086,0,0,0-7.08,27c.018,2.044-.3,2.768-.3,4.647v4.681l2.424,31.658a603.8,603.8,0,0,0,11.92,65.567c2.633,11.131,6.785,27.522,10.387,38.262.567,1.689,2.241,5.982,2.37,7.536a11.541,11.541,0,0,0,4.366-1.187Z" transform="translate(-4476.277 -5105.662)" fill="#004234" fill-rule="evenodd"/>
        <path id="Path_1646" data-name="Path 1646" d="M7021.04,1206.16l6.418-.7c5.4-2.028,15.05-11.039,16.861-16.206-1.333-2.5-2.282-2.992-2.691-6.88-.136-1.293-.013-3.4-.208-4.473-.256-1.409-3.471-3.132-.416-6.56,1.571-1.764.047-10.243,1.592-12.263l1.794.239a22.176,22.176,0,0,0,11.821-3.061c3.121-1.787,7.111-4.341,9.994-.415,2.114,1.657,2.138,3.01,2.015,6.321-.1,2.737-.293,5.43-.381,8.157.181.543,2.175.965,2.019,3.734-.163,2.888-2.148,2.225-2.616,4.228-.052.221-.1,1.069-.126,1.348-.745,9.389-2.685,6.739-2.213,11.465.462,4.624,1.462,8.669,5.077,11.478,4.646.166,8.225-.938,15.114,1.281,5.428,1.748,9.4,3.93,13.074,7.9a14.3,14.3,0,0,1,.9,1.137c5.407,6.7,6.9,9.983,11.525,16.148,6.1,8.141,11.685,11.643,21.187,3.957a35.577,35.577,0,0,0,12.4-21.39c2.286-13.156-.269-31.552-7.828-41.537a41.471,41.471,0,0,0-6.005-6.521c-8.184-7.278-22.376-11.132-34.2-12.4a68.8,68.8,0,0,0-15.971-.342c-2.514.154-5.537.874-7.865.874a8.3,8.3,0,0,1-.479-1.851c-2.808-10.492-15.184-11.936-24.345-9.573-4.727,1.219-9.382,4.008-11.309,7.918-1.086,2.207.194,1.447-2,2.656-10.719,5.893-20.522,17.62-23.624,29.394-2.366,8.982-.873,15.3,5.172,21.344Z" transform="translate(-6768.307 -1119.529)" fill="#00c29a" fill-rule="evenodd"/>
        <path id="Path_1648" data-name="Path 1648" d="M7017.57,3063.68l-9.028,1.158c-1.119.275-.588-.542-.866.58l-.318,2.4c-1.066,12.292-2.2,22.873-.857,35.428l.3,2.37c.017,1.777,2.33,10.522,2.9,12.817a45.81,45.81,0,0,0,1.165,4.493c6.082,1.706,12.572,3.974,18.548,6.089,2.943,1.042,6.14,2.364,9.036,3.194,2.322.667,25.655.034,29.152-1.34,2.2-.864,2.936,1.15.767,1.945-4.67,1.71-17.507,1.521-23.15,1.735l33.217,12.522c-.6-8.906-7.046-29.236-8.285-47.639-.745-11.077.594-28.694,16.222-25.02,4.759,1.119,6.5,3.461,8.973,4.937-.87-2.99-7.1-8.862-10.208-10.717-3.756-2.244-11.5-5.3-15.719-5.177l-.765.213-.17,1.582c.036,7.288-2.324,14.86-5.739,19.7-3.336,4.73-10.385,7.562-18.473,6.962-.058.846-.411,1.682-1.4,1.231-.714-.324-.779-.963-1.089-1.789-5.933-1.136-10.675-5.612-13.121-9.071-2.61-3.69-6.149-10.512-4.938-16.766l.266-2.542Z" transform="translate(-6764.836 -2977.051)" fill="#f2aa18" fill-rule="evenodd"/>
        <path id="Path_1650" data-name="Path 1650" d="M86.1,756.674c-11.747,0-16.223-2.356-25.385-6.076l-6.277-3.336c-1.071-.638-1.809-1.121-2.831-1.83A52.89,52.89,0,0,1,39.162,733.7c-.923-1.236-3.366-4.448-3.745-5.868l8.229-9.249,2.913-2.913A151.96,151.96,0,0,1,65.6,699.754c1.273-.84,2.143-1.529,3.434-2.392,13.154-8.792,29.189-10.652,42.459-.74l4.533,3.915a41.627,41.627,0,0,1,5.139,7.1c10.916,19.927,1.768,38.844-19.947,46.09-3.9,1.3-10.074,2.95-15.111,2.95ZM197.266,1052.06h-3.1c-.2-.012-.382-.026-.53-.043l-12.561-.839c-6.115-.04-12.494-1.139-18.657-1.443-6.757-.333-17.242-1.29-23.134-3.667-16.959-6.841-27.011-17.87-30.007-36.7a150.664,150.664,0,0,1-1.335-18.765l.31-6.113c.337-27.28.657-55.765-22.964-70.569-7.741-4.851-19.692-8.377-28.277-11.632-.8-.3-1.485-.659-2.454-1.042A79.217,79.217,0,0,1,43.4,895.8c-.748-.442-1.267-.743-1.988-1.217a80.59,80.59,0,0,1-27.165-29.349L9.685,856.4a90.031,90.031,0,0,1-5.543-14.56c-6.206-20.823-5.062-44.859.942-63.646.6-1.878.958-3.219,1.661-5.039,3.067-7.934,6.076-15.762,10.483-23.018l7.643-12.166c.973-1.463,1.809-2.467,2.8-3.9,3.159-4.59,5.529-5.57,4.273-7.986A44.509,44.509,0,0,1,28.3,716.3c-3.337-13.217-1.725-28.235,2.195-40.578l3.669-9.732a110.644,110.644,0,0,1,6.8-13.012l10.1-13.5c3.022-3.609,4.134-4.066,6.571-6.538l3.541-3.159a188.477,188.477,0,0,1,26-17.409,340.232,340.232,0,0,1,31.393-15.217c9.546-4.009,19-7.745,28.9-11.012,3.464-1.144,6.741-2.244,10.053-3.348,2.7-.9,4.055-.652,4.339-2.361.193-1.164-.045-1.6.96-2.253a2.436,2.436,0,0,1,2.53-.084c.208-2.5,1.818-2.039,4.37-2.039-.2-2.34-1.161-4.3-1.559-6.62-.336-1.964.407-4.892,3.4-3.687,2.63,1.058,5.086,8.059,5.149,10.889a10.392,10.392,0,0,0,3.145-.641c1.075-.557.3.158.871-1.168a36.444,36.444,0,0,1,3.14-6.182c.883-1.31,2.62-3.493,4.344-1.769,1.434,1.434.443,4.5.443,6.557a39.646,39.646,0,0,0,6.059-1.515l11.6-2.97c2.873-.651,4.777-1.932,4.777.99-1.721.911-13.581,3.618-16.372,4.311-5.38,1.336-6.441,1.038-6.951,3.245l-2.021,8.175c1.791-1.2,2.347-2.91,4.952-1.165,0,2.533-1.373,5.888-1.984,8.5-.66,2.827-1.06,6.184-1.434,9.053-.625,4.795,3.133,32.391,3.8,37.413.345,2.614,2.243,15.823,2.243,18.44l6.62.371a51.867,51.867,0,0,0,6.488.212c2.232,0,4.8.12,6.993,0,1.326-.072,1.587-.307,3.2-.3l20.815-3.072a48.206,48.206,0,0,0,5.421-1.289l-.318,2.4c-10.092,1.784-11.781,3.262-23.878,4.063-5.927.393-22.169.885-27.12-.6-.683-2.464-4.288-33.551-4.651-36.7-.608-5.264-2.063-13.63-1.917-18.682.241-8.311,2.063-11.738,3.113-17.746-3.428,2.4-3.423,6.893-6.244,6.224-.443-2.461,5.233-16.423,4.946-23.99-.7.191-.659.229-1.561,1.763l-3.2,7.29c-.374,1-2.934,9.654-4.139,9.833-1.645-.289-1.373-1.728-1.678-3.576a40.2,40.2,0,0,0-.929-4.5l-2.075.551c.352,2.65.747,5.766,1.336,8.264A3.628,3.628,0,0,1,170,592.8l-1.836,1.905c.862,3.781,1.749,4.544,1.6,9.03-.686,20.481-2.167,53.981,1.539,72.079,1.386,6.768,2.081,8.117,11.045,10.533a124.251,124.251,0,0,0,18.489,3.145c13.252,1.46,27.348,2.018,40.826,2.178l.3,2.37c-1.451,0-1.444-.257-2.913-.3-.944-.028-1.969.009-2.923.01-6.614,0-11.443-.578-17.488-.573l-11.082-.862c-3.833-.3-7.326-.708-10.809-1.134-6.718-.821-23.958-2.947-26.288-9.835-2.182-6.452-3.416-19.518-3.369-26.927.014-2.221-.309-3.237-.3-5.529.041-7.883-.242-16.064-.008-23.9.043-1.438.267-1.456.31-2.894.084-2.8-.25-5.877.159-8.58l.426-11.541c-.066-2.49-4.364-15.877-5.547-18.341-1.672.8-4.879,1.674-6.737,2.294-8.624,2.874-17.307,5.868-25.723,9.234-8.313,3.325-16.58,6.649-24.632,10.616L93.386,611.6c-12.115,6.306-24.126,13.608-34.156,22.94-.872.811-1.43,1.119-2.335,2.035a86.771,86.771,0,0,0-8.291,9.187,89.129,89.129,0,0,0-6.974,10.5c-4.442,8.153-7.816,15.337-10.3,24.659a98.718,98.718,0,0,0-2.089,11.02,70.66,70.66,0,0,0,.466,20.322c1.3,7.257,3.584,10.385,4.247,13.231,1.055-.282.846-.461,1.421-1.2a110.953,110.953,0,0,1,8.7-9.36c.9-.9,1.694-1.8,2.624-2.62.621-.547.83-.583,1.458-1.164l3.928-3.647a12.476,12.476,0,0,1,1.426-1.2c.516-.417.671-.628,1.248-1.082,3.849-3.025,7.536-6.06,11.583-8.808,5.364-3.643,11.133-6.655,17.684-7.951a36.16,36.16,0,0,1,25.074,3.827c9.637,5.595,16.43,14.45,18.5,27.239,1.309,8.1-.612,14.543-4.118,20.62A16.032,16.032,0,0,1,122.4,741.7a28.588,28.588,0,0,1-6,6.53,47.96,47.96,0,0,1-13.156,7.236A49.9,49.9,0,0,1,68.8,756.2a62.772,62.772,0,0,1-7.366-2.83c-1.3-.624-2.393-1.051-3.593-1.65a60.528,60.528,0,0,1-9.363-5.784c-5.8-4.356-11.061-9.521-14.523-16.064-1.082.725-3,3.52-3.954,4.785a175.778,175.778,0,0,0-16.05,26.772A91.674,91.674,0,0,0,8.942,773.6a132.884,132.884,0,0,0-5.361,20.566c-2.52,15.271-2.017,32.434,2.519,46.3L10.656,853.1c2.836,7.2,10.654,20.664,16.38,26.442l4.373,4.366c.844.743,1.353,1.462,2.216,2.153s1.354,1.134,2.247,1.831C47.281,896.8,60.1,900.93,73.41,905.992c1.222.465,2.01.708,3.163,1.206a65.515,65.515,0,0,1,16.191,9.445c9.682,7.815,14.814,22.354,16.6,34.964l1.217,15.97c-.065,11.377-.593,22.469,0,33.505,1.037,19.481,8.563,34.181,26.922,41.826a47.737,47.737,0,0,0,6.356,2.383c7.315,1.7,29.579,3.373,38.966,3.856,2.623.135,5.525.042,8.115.333,1.869.209,6.141-.157,7.617.831-.03,1.342-.176,1.651-1.284,1.748ZM166.31,584.707c.789,2.419,2.4,5.945,1.36,7.663l-2.7-7.2c-.961-2.75-.384-2.142-.21-2.394C165.8,582.716,165.4,581.915,166.31,584.707Zm5.589,1.99c.094.3,2.182,3.788-1.038,4.174a12.8,12.8,0,0,1-1.552-5.119c-.8-4.692-1.445-4.17.692-4.5.983,1.465,1.326,3.648,1.9,5.448Zm7.132-8.011a4.357,4.357,0,0,1-.4,1.64l-.766,1.564-.345-2.906a7.321,7.321,0,0,1,1.51-.3Zm-10.346.7c-.042.031-.186.11-.271.156-.777-.572-.616-.388-.681-1.347,1.4.054.969-.065,1.459.784ZM179.031,578.686Zm-6.472-.552c-.48-2.8-2.579-7.732-2.236-10.465,2.343.749,3.927,6.8,4.466,9.929Z" transform="translate(-0.002 -565.475)" fill-rule="evenodd"/>
        <path id="Path_1651" data-name="Path 1651" d="M5772.84,4616c-.19-2.729,5-16.317,5.675-17.261l8.2,4.519c-.393.99-5.617,5.946-6.562,6.936C5778.2,4612.24,5774.9,4616.54,5772.84,4616Zm.683,2.464h-.5a2.478,2.478,0,0,1-1.433-.646l-.94-1.1c0-3.229.1-3.542,1.042-5.95,1.52-3.891,3.753-11.888,5.659-14.733,1.665.037,2.38,1.18,2.959.6.789-.789-1.2-1.453-1.793-1.766,0-2.737,3.543-10.168,4.7-13.067.848-2.119,1.731-4.21,2.618-6.414,1.288-3.2,8.32-12.719,10.508-16l22.779-34.609c.659-.985,1.09-1.631,1.749-2.621,1.234-1.85,2.219-3.486,3.437-5.3l13.927-21.32c6.489-9.772,12.579-19.794,19.106-29.542l8.68-13.46c4.313-6.444,9.919-14.8,13.854-21.393l29.439-45.719c.591-.891,1.052-1.741,1.686-2.685l20.742-32.276c.611-.912,1.071-1.688,1.69-2.679s1.092-1.6,1.712-2.658c.606-1.028,1.065-1.656,1.726-2.643,6.535-9.765,12.419-19.926,18.992-29.657l20.683-32.336c4.167-6.208,9.363-16.1,15.252-20,6.183-4.091,15.75.58,16.261,7.245.393,5.132-1.934,9.464-4.419,13.336-.606.943-1.123,1.683-1.752,2.618l-22.492,34.9c-.649.992-1.042,1.726-1.685,2.685l-27.731,43.056c-.662.986-1.121,1.616-1.727,2.644l-34.57,53.7c-1.167,1.759-2.236,3.493-3.44,5.3l-32.856,51.041c-5.934,9.066-13.793,20.743-19.068,29.579l-12.1,18.774c-5.942,8.874-11.412,18.051-17.363,26.916l-10.369,16.14c-.627.936-1.145,1.675-1.75,2.619l-6.814,10.665c-5.307,7.906-3.195,5.207-10.5,11.639-.843.743-1.352,1.463-2.217,2.153l-4.632,4.106c-3.974,4.072-3.991-.13-5.315,1.677,3.588.835,2.254,2.563.51,4.3l-6.849,6.842c-1.49,1.591-4.66,5.781-7.4,6.031Zm204.76-336.319c.831-2.312,7.417-11.683,9.176-14.045,1.281-1.721,4.046-4.918,5.74-5.912a8.608,8.608,0,0,1,8.741.3c8.918,5.91.655,15.917-3.66,22.836a63.33,63.33,0,0,1-4.539,6.861l-10.907-7.138c-1.044,1.217-7.206,10.246-7.677,11.514.448.207,10.4,6.336,11.146,7.287a54.245,54.245,0,0,1-3.09,4.863l-9.03,13.973c-4.063,6.268-8.035,12.317-11.977,18.616l-48.158,74.779c-7.875,12.617-16.183,24.735-24.1,37.358l-78.3,121.533c-3.362,5.2-5.726,10.083-9.873,13.435l-11.875,10.786c-1.88-.661-6.5-4.276-9.063-5.451.531-2.216,5.2-13.073,6.662-16.7,1.361-3.368,12.387-19.1,15.049-23.117,13.715-20.7,29.05-43.718,42.407-64.784,1.938-3.057,3.873-6.1,5.963-9.184,4.082-6.023,7.925-12.362,11.994-18.6s8.063-12.367,12-18.586c7.926-12.513,16.271-24.8,24.1-37.351,3.936-6.306,7.891-12.349,11.954-18.645l47.847-74.488c2.032-3.112,4.072-6.31,6.008-9.441,1.008-1.629,1.9-3,2.945-4.632a35.373,35.373,0,0,1,3.03-4.467l2.635,1.4,7.516-11.4Z" transform="translate(-5572.104 -4131.881)" fill-rule="evenodd"/>
        <path id="Path_1652" data-name="Path 1652" d="M7517.37,2655.43c-1.211,6.253,2.33,13.075,4.938,16.766,2.446,3.459,16.206,18.673,34.088,2.666,3.415-4.842,5.775-12.414,5.739-19.7l-1.875-1.684a13.751,13.751,0,0,1-1.534-1.669,45.531,45.531,0,0,1-2.873-3.539c-1.882-2.812-2.6-5.846-2.871-9.942-2.844,1.439-4.363,2.781-8.563,2.7-4.753-.095-6.356-2-8.5-2.748C7534.14,2643.66,7523.33,2653.34,7517.37,2655.43Z" transform="translate(-7258.485 -2566.953)" fill="#f8f8f9" fill-rule="evenodd"/>
        <path id="Path_1653" data-name="Path 1653" d="M6964.87,9007.72c9.6,16.394,12.7,26.615,10.8,46.014-.471,4.787-2.418,13.871.31,17.377,4.976-.747,25.046-39.75,24.671-41.773-.146-.79-1.857-4.314-2.3-5.332-1.509-3.438-2.985-6.885-4.528-10.333-2.258-5.049-7.329-16.24-9.054-20.847-1.116.41-3.955,2.8-5.132,3.7-1.714,1.307-3.324,2.546-4.956,3.778Z" transform="translate(-6725.233 -8702.866)" fill="#f8f8f9" fill-rule="evenodd"/>
        <path id="Path_1654" data-name="Path 1654" d="M5617.09,11840.5c.045,4.321,1.106,10.348,1.434,15.019.378,5.4.558,10.891.579,16.324s-1.163,29.247.1,32.273c4.343-2.072,15.952-24.5,19.522-31.066,1.428-2.627,2.806-5.491,4.224-8.313,2.5-4.971,2.643-3.591,1.875-9.8-.5-4.091-2.67-20.13-2.681-22.9-1.464-.078-10.583,3.33-12.7,4.049-2.181.74-4.147,1.4-6.32,2.128C5621.27,11838.9,5618.41,11839.3,5617.09,11840.5Z" transform="translate(-5423.824 -11444.439)" fill="#f8f8f9" fill-rule="evenodd"/>
        <path id="Path_1656" data-name="Path 1656" d="M5514.64,3452.6c-3.3-3.88,2.644-12.128,4.327-13.78,6.92-6.783,19.774-9.452,29.755-9.891,7.117-.312,10.845.552,17.092,2.449,23.325,7.081,43.244,14.827,65.346,23.218,3.506,1.331,6.191,3.152,6.672.844,1.248-5.992-14.409-52.748-5.833-67.6,6.315-10.936,23.046-3.087,30.7,18.9,6.032,17.336,10.28,50.547,6.488,69.818-2.08,10.574-6.869,21.268-19.01,20.1-9.83-.95-30.149-13.591-40.232-18.808-4.277-2.213-8.521-4.61-12.584-6.935-8.3-4.747-16.936-9.363-25.491-13.843-7.93-4.152-17.713-9.848-27.217-12.082-18.667-4.387-26.43,7.106-30.013,7.61Zm53.6-22.645c-13.421-5.858-36.071-3.846-47.32,4.7-4.616,3.508-6.237,5.966-8.6,11.2-1.121,5.279-.588,11.64,5.509,7.564,3.166-2.115,6.456-4.992,11.082-6.1,10.283-2.478,17.111-.287,26.222,3.778,1.516.677,8.766,3.978,9.9,4.952h.292l.291.306c1.732.485,9.083,4.544,11.2,5.689,13.886,7.507,56.075,31.609,66.925,35.318,5.92,2.023,8.6,1.811,14.507.393a9.6,9.6,0,0,0,2.861-1.553,22.081,22.081,0,0,0,2.591-2.069l3.7-5.328c5.373-9.739,5.436-23.749,5.419-35.383l-1.046-12.937c-1.616-11.312-3.733-26.923-8.117-37.326a56.944,56.944,0,0,0-6.531-11.821l-4.416-4.955c-2.468-1.476-4.214-3.817-8.973-4.936-15.627-3.675-16.966,13.943-16.221,25.02,1.238,18.4,7.688,38.733,8.285,47.638l-33.216-12.521c5.644-.214,18.48-.025,23.15-1.735,2.17-.8,1.434-2.809-.768-1.946-3.5,1.374-26.83,2.007-29.153,1.34-2.894-.831-6.092-2.153-9.035-3.194-5.969-2.119-12.459-4.389-18.539-6.089Z" transform="translate(-5322.208 -3284.077)" fill-rule="evenodd"/>
        <path id="Path_1657" data-name="Path 1657" d="M8010.05,1583.51c-5.588,1.515-5.345-2.4-3.142-5.756,1.3-1.971,3.363-2.171,2.6-.078-.49,1.349-1.666,1.7-2.053,3.985l2.73.189Zm2.647-6.282a1.783,1.783,0,0,1-.146-1.671c1.687-.027,1.69.735,1.007,1.764Zm-8.539-.767c-1.44-2.232,2.274-2.263.875.051Zm-4.907-10.131c-.356,5.373-.8,10.533-.861,15.954-.074,6.073-.217,10.5,3.534,13.6a11.735,11.735,0,0,0,12.964,1.211c3.984-2.186,4.772-6.579,5.14-12.189-.06-.054-.161-.2-.193-.144-.01.017-1.37-.755-1.248-1.546.346-2.266,3.367.873,3.967-1.854.556-2.521-1.641-1.64-2.933-2.263-.278-2.634.871-.373,1.076-3.2l.368-13.048c-2.883-3.926-6.873-1.372-9.993.415a22.179,22.179,0,0,1-11.822,3.064Z" transform="translate(-7723.17 -1526.543)" fill="#f8f8f9" fill-rule="evenodd"/>
        <path id="Path_1659" data-name="Path 1659" d="M6936.94,8955.66c1.725,4.607,6.8,15.8,9.055,20.85,1.542,3.446,3.019,6.894,4.527,10.334.447,1.016,2.157,4.54,2.3,5.331.376,2.023-19.695,41.026-24.672,41.772-2.727-3.5-.78-12.59-.31-17.377,1.908-19.4-1.2-29.621-10.794-46.012a5.735,5.735,0,0,0-1.7,1.413c2.268,3.136,6.888,13.34,8.213,17.364,6.953,21.114-2.374,38.748,2.451,45.324,3.28,4.471,7.764-3.053,10.129-6.3l11.776-20.562c1.433-2.865,2.942-5.537,4.374-8.443,2.9-5.891,3.471-6.09,2.028-9.318l-13.68-31.184a31.725,31.725,0,0,0-2.043-4.519,5.234,5.234,0,0,0-1.65,1.321Z" transform="translate(-6677.409 -8665.713)" fill-rule="evenodd"/>
        <path id="Path_1660" data-name="Path 1660" d="M5577.84,11806.5c.011,2.765,2.176,18.808,2.681,22.895.767,6.214.62,4.835-1.875,9.8-1.417,2.823-2.8,5.687-4.225,8.313-3.569,6.566-15.178,29-19.521,31.065-1.259-3.025-.076-26.842-.1-32.273s-.2-10.923-.58-16.324c-.328-4.671-1.388-10.7-1.435-15.018a4.577,4.577,0,0,0-2.29.442,45.319,45.319,0,0,1,.635,4.921c.158,1.405.462,3.468.528,5.008.06,1.413.17,3.642.374,5.161.62,4.626.484,22.078.5,27.462.02,5.226-1.243,16.886.118,20.857,1.456,4.245,4.323.8,5.932-.823a27.687,27.687,0,0,0,2.442-3.092c2.292-3.107,4.521-7.055,6.527-10.369.769-1.269,1.287-2.217,2.044-3.493l9.739-18.227c1.136-2.288,2.724-5.016,3.687-7.4.912-2.257-3.106-24.5-3.106-29.824C5578.84,11805.8,5578.6,11805.7,5577.84,11806.5Z" transform="translate(-5359.527 -11418.807)" fill-rule="evenodd"/>
        <path id="Path_1661" data-name="Path 1661" d="M7541.44,1624.33l-1.794-.239c-1.544,2.02-.02,10.5-1.592,12.263-3.055,3.428.16,5.152.416,6.561.2,1.075.073,3.179.21,4.473.409,3.887,1.357,4.384,2.69,6.88-1.811,5.167-11.457,14.178-16.86,16.206l-.266,2.542c5.962-2.09,16.768-11.771,18.555-17.155,2.14.746,3.743,2.654,8.5,2.748,4.2.083,5.719-1.259,8.562-2.7.273,4.1.989,7.13,2.872,9.942a45.232,45.232,0,0,0,2.873,3.539,13.721,13.721,0,0,0,1.534,1.668l1.875,1.684.17-1.582.765-.214-2.914-3.365c-3.614-2.809-4.615-6.854-5.077-11.478-.472-4.725,1.469-2.075,2.213-11.464.022-.279.074-1.128.127-1.348.467-2,2.452-1.34,2.616-4.228.156-2.769-1.838-3.191-2.019-3.734.086-2.727.278-5.42.379-8.157.124-3.311.1-4.664-2.014-6.321l-.367,13.048c-.207,2.823-1.355.562-1.078,3.2,1.292.623,3.489-.259,2.934,2.263-.6,2.727-3.621-.412-3.968,1.854-.122.791,1.239,1.563,1.248,1.546.033-.057.133.09.194.144-.371,5.61-1.158,10-5.142,12.189a11.733,11.733,0,0,1-12.962-1.211c-3.751-3.1-3.609-7.527-3.536-13.6C7540.64,1634.86,7541.08,1629.7,7541.44,1624.33Z" transform="translate(-7265.359 -1584.537)" fill-rule="evenodd"/>
        <path id="Path_1662" data-name="Path 1662" d="M6404.9,6511.45c.448-2.292-3.371-13.212-4.138-16.3a6.6,6.6,0,0,0-.814-2.4l-5.425-15.052c2.566,2.353,4.535,4.585,6.991,7.094l7.041,7.386c3.425,3.556,14.634,13.309,18.775,14.273a2.907,2.907,0,0,0,.728-.874c-.281-1.532-1.4-1.713-2.454-2.356-2.812-1.717-7.95-5.714-8.818-6.191-.857.873-.887.855-1.7,0-.781-1.224.412-1.223-.832-2.555-.675-.724-3.17-2.676-5.389-5.1-5.061-5.518-8.921-9.158-14.044-14.221-4.063-4.017-2.444-3.167-5.326-8.945-4.133-8.287-10.031-19.645-17-25.239-1.276-1.025-6.988-5.619-9.37-4.549-.979,1.96,2.063,2.207,3.767,3.155,4.624,2.573,8.082,6.441,11.258,10.886,9.5,13.3,17.488,34.973,22.194,51.211.569,1.964,1.079,3.74,1.625,5.67.3,1.045.468,1.908.775,3.009C6403.19,6511.92,6403.36,6511.96,6404.9,6511.45Z" transform="translate(-6144.013 -6234.268)" fill-rule="evenodd"/>
        <path id="Path_1663" data-name="Path 1663" d="M4928.85,6113.7c1.337-.645,1.314-1.822,1.984-3.185a34.868,34.868,0,0,1,7.119-9.184c3.523-3.061,7.651-6.563,13.739-8.117,7.2-1.838,12.3.552,15.43,4.726,4.391,5.861,2.947,9.823-.226,16.017-2.685,5.241-5.008,10.239-2.811,17.028,3.553,10.968,14.875,18.589,26.529,14.56,5.032-1.74,11.671-8.029,10.654-10.959-1.975-.685-1.843.737-2.8,2.206a19.122,19.122,0,0,1-2.472,3.064c-12.6,12.051-31.395-.93-30.66-14.979.316-6.062,4.465-10.655,6.1-16,2.839-9.29-6.687-22.771-22.734-16.893a40.1,40.1,0,0,0-13.181,8.665,37.98,37.98,0,0,0-6.912,9.688C4927.92,6111.92,4927.13,6113.09,4928.85,6113.7Z" transform="translate(-4758.271 -5900.448)" fill="#fff" fill-rule="evenodd"/>
        <path id="Path_1664" data-name="Path 1664" d="M4647.68,7835.58c-.563,2.867,2.277,1.637,8.282,6.816a19.142,19.142,0,0,1,6.486,9.248c2.692,8.419-1.912,19.11-1.908,28.055.01,26.711,34.429,22.729,41.159,29.415,3.569,3.545,5.363,17.986,7.959,15.254.575-1.253-.544-2.808-1.016-4.141-.512-1.445-.926-2.928-1.415-4.412-.967-2.929-1.935-5.978-3.806-7.848-8.332-8.332-40.811-3.219-40.8-28.269,0-9.487,4.816-19.584,1.825-28.879C4661.38,7841.27,4649.37,7834.77,4647.68,7835.58Z" transform="translate(-4487.704 -7585.379)" fill="#fff" fill-rule="evenodd"/>
        <path id="Path_1665" data-name="Path 1665" d="M5267.61,10322.7c1.45-6-2.285-21.244,4.219-32.188,4.958-8.343,18.173-11.629,23.666-4.115,9.458,12.941-3.822,34.128-9.1,47.816-.354.921-1.381,3.1.295,3.158,1.113.04,1.359-1.576,1.739-2.575,3.341-8.8,7.707-16.37,10.516-25.893,6.034-20.458-3.864-33.815-20.1-27.1-9.438,3.907-12.286,13.544-13.012,23.05-.267,3.48-.575,15.035.083,17.89Z" transform="translate(-5084.363 -9945.848)" fill="#fff" fill-rule="evenodd"/>
        <path id="Path_1666" data-name="Path 1666" d="M7582.06,6050.55c.808.858.84.877,1.7,0,.648-1.881.4-3.717,1.423-6.11,4.191-9.837,22.24-18.91,9.6-35.332a67.2,67.2,0,0,0-7.6-7.548c-2.715-2.487-5.187-4.286-7.881-7.279-.645-.717-1.239-1.165-1.849-1.93-4.28-5.382-5.628-10.171-.771-15.852.646-.756,1.967-1.285.9-2.327-1.781-1.865-5.777,5.458-6.044,8.592-1.035,12.224,17.922,20.328,23.5,30.458,6.389,11.6-4.06,18.793-9.109,25.843C7584.28,6041.37,7581.18,6046.56,7582.06,6050.55Z" transform="translate(-7310.983 -5787.795)" fill="#fff" fill-rule="evenodd"/>
        <path id="Path_1667" data-name="Path 1667" d="M8775.21,7047.82c1.3-.123,1.426-.786.873-1.937-2.775-4.634,2.778-12.352-6.417-21.842-5.749-5.932-15.824-3.562-19.564,1.689-7.277,10.217-5.846,28.982-1.435,41.163.556,1.536,1.186,4.574,3.033,3.854.641-.84.416-1.017-.07-2.141-5.778-13.377-8.684-45.17,8.748-45.949a10.61,10.61,0,0,1,5.465,1.138,13.464,13.464,0,0,1,3.67,3.016C8776.11,7035.31,8771.26,7046.23,8775.21,7047.82Z" transform="translate(-8444.112 -6798.461)" fill="#fff" fill-rule="evenodd"/>
        <path id="Path_1668" data-name="Path 1668" d="M5091.18,7007.03l.276.319c1.074,1.243,1.125,1.615,2.368,1.722,1.825-.852.179-2.132-1.43-4.1-7.612-9.327-15.325-20.666-22.205-30.528-4.167-5.975-8.055-11.782-12.059-17.936l-10.272-15.954c-.681-1.114-.81-1.408-2.233-1.2-.562,1.872,3.578,7.162,4.7,8.92,1.884,2.953,3.748,5.806,5.607,8.677,8.513,13.142,19.734,29.536,29.11,41.965Z" transform="translate(-4871.972 -6719.988)" fill-rule="evenodd"/>
        <path id="Path_1669" data-name="Path 1669" d="M6535.95,5455.56c-2.542-1.584-4.872,2.773-5.159,5.852-.89,9.536,7.52,24.362,1.706,25.061-11.667,1.4-17.54-24.354-14.184-33.728,1.1-3.064-.948-3.179-1.81-1.211-2.389,5.452-.773,15.993.873,21.49,5.452,18.206,17.337,17.538,18.915,12.877,1.872-5.531-5.6-20.18-2.894-26.5C6534.4,5457.06,6536.01,5457.64,6535.95,5455.56Z" transform="translate(-6291.125 -5282.147)" fill="#fff" fill-rule="evenodd"/>
        <path id="Path_1673" data-name="Path 1673" d="M4951.45,639.685l2.229-.537c-.539-3.132-2.123-9.179-4.466-9.929C4948.87,631.954,4950.97,636.88,4951.45,639.685Z" transform="translate(-4778.892 -627.027)" fill="#fff" fill-rule="evenodd"/>
        <path id="Path_1674" data-name="Path 1674" d="M4901.17,1033.61c3.22-.386,1.132-3.877,1.038-4.174-.573-1.8-.916-3.979-1.9-5.446-2.136.33-1.491-.191-.691,4.5a12.8,12.8,0,0,0,1.553,5.12Z" transform="translate(-4730.312 -1008.215)" fill="#fff" fill-rule="evenodd"/>
        <path id="Path_1675" data-name="Path 1675" d="M8208.96,2015.76l.138-1.659-2.729-.19c.388-2.281,1.563-2.636,2.054-3.985.76-2.093-1.308-1.893-2.6.078C8203.62,2013.36,8203.38,2017.27,8208.96,2015.76Z" transform="translate(-7922.083 -1958.791)" fill-rule="evenodd"/>
        <path id="Path_1676" data-name="Path 1676" d="M4782.15,1073.68c1.041-1.717-.571-5.243-1.36-7.663-.912-2.791-.515-1.991-1.553-1.928-.174.251-.751-.356.209,2.394Z" transform="translate(-4614.481 -1046.783)" fill="#fff" fill-rule="evenodd"/>
        <path id="Path_1684" data-name="Path 1684" d="M8406.88,1991.69l.863.093c.682-1.029.677-1.791-1.01-1.764a1.784,1.784,0,0,0,.146,1.671Z" transform="translate(-8117.356 -1941.006)" fill-rule="evenodd"/>
        <path id="Path_1685" data-name="Path 1685" d="M8157.22,1969.21l.876.051C8159.5,1966.94,8155.78,1966.97,8157.22,1969.21Z" transform="translate(-7876.235 -1919.289)" fill-rule="evenodd"/>
        <path id="Path_1686" data-name="Path 1686" d="M4875.71,936.457c.085-.046.229-.125.271-.156l.506-.408c-.489-.849-.058-.73-1.458-.784C4875.1,936.069,4874.94,935.885,4875.71,936.457Z" transform="translate(-4707.297 -922.391)" fill="#fff" fill-rule="evenodd"/>
      </g>
    </g>
    <g id="Group_5291" data-name="Group 5291" transform="translate(-8809.789 -20835.861)">
      <path id="Path" d="M25.044.813a19.474,19.474,0,1,0,11.569,9.4A19.474,19.474,0,0,0,25.044.813Z" fill="#00c29a"/>
      <g id="Group_5280" data-name="Group 5280" transform="translate(10.659 9.898)">
        <circle id="Oval" cx="4.639" cy="4.639" r="4.639" transform="translate(4.07 0)" fill="#fff"/>
        <path id="Path-2" data-name="Path" d="M0,8.709a8.71,8.71,0,0,1,17.419,0Z" transform="translate(0 10.793)" fill="#fff"/>
      </g>
    </g>
    <g id="Group_5292" data-name="Group 5292" transform="translate(-8830.078 -20669.494)">
      <path id="Path-3" data-name="Path" d="M5.7,5.945A19.884,19.884,0,1,0,33.827,5.7,19.884,19.884,0,0,0,5.7,5.945Z" fill="#2a8c78"/>
      <path id="Icon_weather-time-3" data-name="Icon weather-time-3" d="M4.488,13.312A9.283,9.283,0,0,1,5.766,8.553,9.493,9.493,0,0,1,20.655,6.6a9.27,9.27,0,0,1,2.018,3.027,9.462,9.462,0,0,1-12.4,12.393,9.316,9.316,0,0,1-5.045-5.028,9.111,9.111,0,0,1-.739-3.677Zm2.085,0a7.145,7.145,0,0,0,2.178,5.2,7.1,7.1,0,0,0,5.213,2.178,7.148,7.148,0,0,0,3.691-.992,7.459,7.459,0,0,0,2.7-2.69,7.324,7.324,0,0,0,0-7.39,7.38,7.38,0,0,0-10.082-2.7,7.571,7.571,0,0,0-2.707,2.7,7.119,7.119,0,0,0-.993,3.694Zm6.659,0v-5.6a.7.7,0,0,1,1.4,0v4.893H17.81a.689.689,0,0,1,.7.7.707.707,0,0,1-.2.5.655.655,0,0,1-.5.21H14.073a.645.645,0,0,1-.151.008.676.676,0,0,1-.689-.706Z" transform="translate(5.93 6.588)" fill="#fff"/>
    </g>
    <g id="Group_5293" data-name="Group 5293" transform="translate(-8682.999 -20919)">
      <path id="Path_1655" data-name="Path 1655" d="M6431.04,18.976a18.953,18.953,0,0,0,5.9,14.2,19.181,19.181,0,0,0,13.578,5.4c17.858-.235,25.3-21.3,13.812-32.793C6452.19-6.344,6431.04,1.813,6431.04,18.976Z" transform="translate(-6431.041 -0.001)" fill="#00c29a" fill-rule="evenodd"/>
      <path id="Path_2620" data-name="Path 2620" d="M23.52,105.4s10.772-3.843,7.971-11.326c-1.874-5.008-7.547-2.945-8.09.039a4.2,4.2,0,0,0-8.068,0C12.534,101.6,23.114,105.22,23.52,105.4Z" transform="translate(-3.928 -78.782)" fill="#fff" fill-rule="evenodd"/>
    </g>
  </g>
</svg>
