<svg xmlns="http://www.w3.org/2000/svg" width="405.82" height="554.615" viewBox="0 0 405.82 554.615">
  <g id="Group_5518" data-name="Group 5518" transform="translate(-1194.18 -291.805)">
    <g id="Group_5354" data-name="Group 5354" transform="translate(2255.589 14095.49)">
      <path id="Path" d="M57.689,0H0V6.152a28.844,28.844,0,0,0,57.689,0Z" transform="translate(-714.283 -13440.986)" fill="#00c29a"/>
      <g id="Group" transform="translate(-905.926 -13802.686)">
        <path id="Path-2" data-name="Path" d="M14.7,4.029A28.709,28.709,0,0,1,0,0" transform="translate(14.146 392.236)" fill="none" stroke="#b2ede0" stroke-miterlimit="10" stroke-width="2"/>
        <path id="Path-3" data-name="Path" d="M.092,48.09,0,28.849A28.853,28.853,0,0,1,28.844,0H220.483" fill="none" stroke="#b2ede0" stroke-miterlimit="10" stroke-width="2"/>
        <path id="Path-4" data-name="Path" d="M.49,338.566V0" transform="translate(191.158 28.849)" fill="none" stroke="#b2ede0" stroke-miterlimit="10" stroke-width="2"/>
      </g>
      <path id="Path-5" data-name="Path" d="M0,74.6H57.689V28.844A28.844,28.844,0,1,0,0,28.844V81.288" transform="translate(-714.278 -13802.681)" fill="#00c29a"/>
      <g id="Group-2" data-name="Group" transform="translate(-877.077 -13802.681)">
        <path id="Path-6" data-name="Path" d="M0,74.6H57.689V28.844A28.844,28.844,0,1,0,0,28.844V81.288" transform="translate(162.799)" fill="none" stroke="#b2ede0" stroke-miterlimit="10" stroke-width="2"/>
        <path id="Path-7" data-name="Path" d="M0,0V5.72A28.844,28.844,0,0,0,28.845,34.565" transform="translate(162.794 361.694)" fill="none" stroke="#b2ede0" stroke-miterlimit="10" stroke-width="2"/>
        <path id="Path-8" data-name="Path" d="M13.414.49H0" transform="translate(0 395.769)" fill="none" stroke="#b2ede0" stroke-miterlimit="10" stroke-width="2"/>
        <path id="Path-9" data-name="Path" d="M110.418,0h57.689V5.72a28.859,28.859,0,0,1-28.849,28.85H0" transform="translate(52.38 361.69)" fill="none" stroke="#b2ede0" stroke-miterlimit="10" stroke-width="2"/>
        <path id="Path-10" data-name="Path" d="M46.6.49H0" transform="translate(83.92 126.338)" fill="none" stroke="#b2ede0" stroke-miterlimit="10" stroke-width="2"/>
        <path id="Path-11" data-name="Path" d="M46.6.49H0" transform="translate(83.92 144.406)" fill="none" stroke="#b2ede0" stroke-miterlimit="10" stroke-width="2"/>
        <path id="Path-12" data-name="Path" d="M46.6.49H0" transform="translate(83.92 162.479)" fill="none" stroke="#b2ede0" stroke-miterlimit="10" stroke-width="2"/>
        <path id="Path-13" data-name="Path" d="M46.6.49H0" transform="translate(83.92 180.546)" fill="none" stroke="#b2ede0" stroke-miterlimit="10" stroke-width="2"/>
        <path id="Path-14" data-name="Path" d="M46.6.49H0" transform="translate(83.92 198.614)" fill="none" stroke="#b2ede0" stroke-miterlimit="10" stroke-width="2"/>
        <path id="Path-15" data-name="Path" d="M46.6.49H0" transform="translate(83.92 216.682)" fill="none" stroke="#b2ede0" stroke-miterlimit="10" stroke-width="2"/>
        <path id="Path-16" data-name="Path" d="M46.6.49H0" transform="translate(83.92 277.047)" fill="none" stroke="#b2ede0" stroke-miterlimit="10" stroke-width="2"/>
        <path id="Path-17" data-name="Path" d="M46.6.49H0" transform="translate(83.92 285.472)" fill="none" stroke="#b2ede0" stroke-miterlimit="10" stroke-width="2"/>
        <path id="Path-18" data-name="Path" d="M46.6.49H0" transform="translate(83.92 293.898)" fill="none" stroke="#b2ede0" stroke-miterlimit="10" stroke-width="2"/>
        <path id="Path-19" data-name="Path" d="M46.6.49H0" transform="translate(83.92 302.323)" fill="none" stroke="#b2ede0" stroke-miterlimit="10" stroke-width="2"/>
        <rect id="Rectangle" width="87.527" height="224.133" rx="20.58" transform="translate(63.07 103.137)" fill="none" stroke="#b2ede0" stroke-miterlimit="10" stroke-width="2"/>
      </g>
      <g id="Group-3" data-name="Group" transform="translate(-834.862 -13749.394)">
        <path id="Path-20" data-name="Path" d="M36.863.49H0" transform="translate(4.843 31.35)" fill="none" stroke="#b2ede0" stroke-miterlimit="10" stroke-width="2"/>
        <path id="Path-21" data-name="Path" d="M30.914.49H0" transform="translate(10.791 10.122)" fill="none" stroke="#b2ede0" stroke-miterlimit="10" stroke-width="2"/>
        <path id="Path-22" data-name="Path" d="M35.234.49H0" transform="translate(6.472 20.739)" fill="none" stroke="#b2ede0" stroke-miterlimit="10" stroke-width="2"/>
        <path id="Path-23" data-name="Path" d="M41.706.49H0" transform="translate(0 -0.49)" fill="none" stroke="#b2ede0" stroke-miterlimit="10" stroke-width="2"/>
      </g>
      <circle id="Oval" cx="5.711" cy="5.711" r="5.711" transform="translate(-765.272 -13747.964)" fill="#00c29a"/>
      <path id="Path-24" data-name="Path" d="M0,14.461a14.461,14.461,0,1,1,28.922,0Z" transform="translate(-774.023 -13733.449)" fill="#00c29a"/>
      <rect id="Rectangle-2" data-name="Rectangle" width="38.86" height="38.86" rx="9.3" transform="translate(-778.992 -13752.903)" fill="none" stroke="#b2ede0" stroke-miterlimit="10" stroke-width="2"/>
      <path id="Path-25" data-name="Path" d="M19.022.864,23.249,9.43a1.576,1.576,0,0,0,1.188.858l9.448,1.372a1.576,1.576,0,0,1,.873,2.686l-6.84,6.666a1.585,1.585,0,0,0-.451,1.4l1.614,9.41A1.576,1.576,0,0,1,26.8,33.48l-8.455-4.445a1.566,1.566,0,0,0-1.454,0L8.434,33.48a1.576,1.576,0,0,1-2.283-1.663l1.614-9.41a1.571,1.571,0,0,0-.451-1.4L.474,14.346a1.576,1.576,0,0,1,.873-2.686L10.8,10.288a1.566,1.566,0,0,0,1.183-.858L16.21.864a1.576,1.576,0,0,1,2.812,0Z" transform="translate(-777.173 -13460.568)" fill="#00c29a"/>
      <path id="Path-26" data-name="Path" d="M0,.49H32.1" transform="translate(-822.093 -13438.669)" fill="none" stroke="#b2ede0" stroke-miterlimit="10" stroke-width="2"/>
    </g>
    <g id="Group_5355" data-name="Group 5355" transform="translate(8555.551 21223.814)">
      <path id="Icon_awesome-globe-africa" data-name="Icon awesome-globe-africa" d="M110.984.563A110.984,110.984,0,1,0,221.968,111.547,110.984,110.984,0,0,0,110.984.563ZM182.586,97v3.1a6.933,6.933,0,0,1-3.835,6.2l-6.887,3.446a6.93,6.93,0,0,1-6.95-.434l-8.149-5.433a6.945,6.945,0,0,0-6.041-.81l-1.186.394a6.933,6.933,0,0,0-3.576,10.427l5.925,8.888a6.931,6.931,0,0,0,5.768,3.088h3.674a6.937,6.937,0,0,1,6.936,6.935v5.076a6.944,6.944,0,0,1-1.387,4.162l-8.386,11.179a6.969,6.969,0,0,0-1.266,2.878L155.3,166.318a6.951,6.951,0,0,1-2.13,3.831,71.425,71.425,0,0,0-11.188,13.05l-5.831,8.749a12.418,12.418,0,0,1-21.44-1.334,35.31,35.31,0,0,1-3.728-15.793V161.444a6.937,6.937,0,0,0-6.935-6.936H92.466a24.447,24.447,0,0,1-24.448-24.449v-6.291A24.457,24.457,0,0,1,77.8,104.212l12.342-9.259a24.463,24.463,0,0,1,14.67-4.891h.4a24.4,24.4,0,0,1,10.933,2.582l6.587,3.294a6.93,6.93,0,0,0,5.294.376L149.2,89.257A6.935,6.935,0,0,0,147,75.741h-4.515a6.934,6.934,0,0,1-4.9-2.032l-3.1-3.1a6.933,6.933,0,0,0-4.9-2.032h-40.3a6.937,6.937,0,0,1-6.936-6.935V59.675a6.941,6.941,0,0,1,5.25-6.731l6.468-1.616a6.948,6.948,0,0,0,4.09-2.882l3.616-5.419a6.931,6.931,0,0,1,5.768-3.088h10.834A6.937,6.937,0,0,0,125.309,33V23.292a89.628,89.628,0,0,1,72.462,66.774h-8.248A6.937,6.937,0,0,0,182.586,97Z" transform="translate(-7359.551 -20600.715)" fill="#00c29a"/>
      <path id="Path_2629" data-name="Path 2629" d="M-7323.81-20671.8s-16.367,42.885-14.088,53.037,5.593,48.066,28.383,48.273,151.656,0,151.656,0,9.782,9.479,11.346,27.016c.9,10.055-.064,22.131,0,34.7.159,31.24-.3,64.361,0,69.807.622,11.188,22.894-58.176,22.894-58.176l-58.438-140.3h-123.9Z" fill="#fff"/>
      <g id="Group-4" data-name="Group" transform="translate(-7559.709 -21001.773)">
        <path id="Path-27" data-name="Path" d="M0,187.675c0,1.354.045,2.707.083,4.035C.862,215.454,6.5,231.064,9.9,238.439a22.039,22.039,0,0,1-1.124-9.826,65.625,65.625,0,0,1,1.066-6.7A68.755,68.755,0,0,1,27.377,188.85l.083-.077c1.168-1.213,2.069-2.03,2.554-2.464l.217-.223.223-.179,99.017-94.2a110.781,110.781,0,0,0,1.175-12.239c4.98.76,10.432,1.334,16.4,1.724,4.693.287,9.743.453,15.112.472,49.359.166,70.561,7.789,78.785,12.284a3.1,3.1,0,0,0,4.59-2.707V50.307a55,55,0,0,0-21.61-6.007c-23.706-2.049-49.748-1.915-71.972-11.441-16.6-7.119-31.584-21.331-48.522-28.507C95.129.846,86.446-.961,76.85.52A54.624,54.624,0,0,0,49.4,13.583c-.1.077-.185.185-.287.262C40.36,21.455,33.445,31.358,28.1,41.49,11.218,73.374,1.168,114.324.287,150.824v.409c0,1.641-.038,3.262-.038,4.884Z" transform="translate(221.137 180.848)" fill="#f2aa18" stroke="#707070" stroke-width="2"/>
        <path id="Path-28" data-name="Path" d="M0,22.512v9.66H70.415v-9.66a20.266,20.266,0,0,0-.121-2.273A22.512,22.512,0,0,0,47.858,0H22.512A22.5,22.5,0,0,0,0,22.512Z" transform="translate(282.192 88.065)" fill="#001c3d"/>
        <g id="Group-5" data-name="Group" transform="translate(285.342 120.218)">
          <path id="Path-29" data-name="Path" d="M0,8.159,9.756,32.746H71.047a6.525,6.525,0,0,0,4.616-1.915A6.634,6.634,0,0,0,77.578,26.2a6.538,6.538,0,0,0-5.21-6.384l-27.83-5.7L40.848,0Z" transform="translate(93.677 278.141)" fill="#00c29a" stroke="#707070" stroke-width="2"/>
          <path id="Path-30" data-name="Path" d="M53.352,45.068,33.56,18.253V0H.814A.83.83,0,0,0,.131,1.277l37.8,54.8a9.475,9.475,0,1,0,15.423-11.01Z" transform="translate(127.933 443.097)" fill="#00c29a" stroke="#707070" stroke-width="2"/>
          <path id="Path-31" data-name="Path" d="M2.059,13.982A63.73,63.73,0,0,1,4.888,32.708c13.842,0,16.446-6.748,15.38-12.079-1.188-5.925.594-14.193,8.855-15.38s5.931,11.83,4.948,27.192a31.5,31.5,0,0,0,1.615,9.717,20.086,20.086,0,0,0,9.13,11.179,26.713,26.713,0,0,0,13.49,3.339s8.076-20.092,2.439-21.752S42.148,18.847,45.1,1.085C45.161.7,45.225.351,45.308,0H.01A42.489,42.489,0,0,0,2.059,13.982Z" fill="#00c29a" stroke="#707070" stroke-width="2"/>
        </g>
        <g id="Group-6" data-name="Group" transform="translate(221.207 88.059)">
          <path id="Path-32" data-name="Path" d="M.551,0V.409C.551,2.05.513,3.671.513,5.293L.289,36.909c0,1.334.038,2.65.077,3.958" transform="translate(-0.289 243.632)" fill="none" stroke="#000" stroke-miterlimit="10" stroke-width="2"/>
          <path id="Path-33" data-name="Path" d="M0,0A61.713,61.713,0,0,0,52,28.4H165.646c10.56,0,15.808,5.248,15.808,11.709V160.6" transform="translate(9.839 314.666)" fill="none" stroke="#000" stroke-miterlimit="10" stroke-width="2"/>
          <path id="Path-34" data-name="Path" d="M53.352,45.068,33.56,18.253V0H.814A.83.83,0,0,0,.131,1.277l37.8,54.8a9.475,9.475,0,1,0,15.423-11.01Z" transform="translate(192.068 475.256)" fill="none" stroke="#000" stroke-miterlimit="10" stroke-width="2"/>
          <path id="Path-35" data-name="Path" d="M0,0,12.941,1.947" transform="translate(129.867 278.709)" fill="none" stroke="#000" stroke-miterlimit="10" stroke-width="2"/>
          <path id="Path-36" data-name="Path" d="M28.328,0C55.354,10.483,71.1,36.219,67.861,64L54.268,181.313H0" transform="translate(191.273 293.942)" fill="none" stroke="#000" stroke-miterlimit="10" stroke-width="2"/>
          <path id="Path-37" data-name="Path" d="M101.75,70.6l7.85,19.792,6.3,15.891,15.016,37.79,9.755,24.587h61.291a6.525,6.525,0,0,0,4.616-1.915,6.634,6.634,0,0,0,1.915-4.635,6.538,6.538,0,0,0-5.21-6.384l-27.83-5.7-3.69-14.11,25.283-4.533-4.322-11.83L156.075,19.314c-7.661-21.069-36.3-25.6-52.532-10.132l-.945.9L0,107.681" transform="translate(26.898 174.386)" fill="none" stroke="#000" stroke-miterlimit="10" stroke-width="2"/>
          <path id="Path-38" data-name="Path" d="M0,78.287A50.4,50.4,0,0,0,45.689,49.163L62.44,13.944,69.08,0" transform="translate(67.42 264.778)" fill="none" stroke="#000" stroke-miterlimit="10" stroke-width="2"/>
          <path id="Path-39" data-name="Path" d="M80.47,55.389s7.815,17.762,49.933,24.1q7.47,1.143,16.4,1.724,7.023.428,15.112.472c49.359.166,70.561,7.789,78.785,12.284a3.1,3.1,0,0,0,4.6-2.707V73.189a25.094,25.094,0,0,1,8.485,10.419,54.75,54.75,0,0,1,4.552,16.4,89.776,89.776,0,0,1,.843,12.858,4,4,0,0,0,1.168,2.828,3.92,3.92,0,0,0,2.828,1.188,4,4,0,0,0,3.958-3.339c1.915-11.3,5.7-48.311-21.835-63.238A55.036,55.036,0,0,0,223.681,44.3c-23.7-2.049-49.742-1.915-71.972-11.441-16.632-7.119-31.6-21.35-48.522-28.507C94.918.846,86.2-.961,76.608.52A54.624,54.624,0,0,0,49.154,13.583c-8.9,7.661-15.9,17.672-21.311,27.907C10.969,73.374.919,114.324.038,150.824v.409c0,1.641-.038,3.262-.038,4.884" transform="translate(0.236 92.789)" fill="none" stroke="#000" stroke-miterlimit="10" stroke-width="2"/>
          <path id="Path-40" data-name="Path" d="M30.837,37.112l-.057-.128a18.409,18.409,0,0,1-1.622-9.711C30.128,11.9,32.5-1.112,24.216.075S14.167,9.537,15.374,15.449C16.44,20.787,13.848,27.58,0,27.541" transform="translate(69.055 37.331)" fill="none" stroke="#000" stroke-miterlimit="10" stroke-width="2"/>
          <path id="Path-41" data-name="Path" d="M0,34.9c1.092-4,10.56-3.435,6.314-12.092C3.895,17.87,3.76,9.449,5.28,0" transform="translate(124.881 32.178)" fill="none" stroke="#000" stroke-miterlimit="10" stroke-width="2"/>
          <path id="Path-42" data-name="Path" d="M15.067,0A42.98,42.98,0,0,0,17.11,13.963,63.366,63.366,0,0,1,19.952,32.7l-.23,11.179A32.12,32.12,0,0,1,5.555,70.051,36.239,36.239,0,0,0,0,74.469" transform="translate(49.078 32.178)" fill="none" stroke="#000" stroke-miterlimit="10" stroke-width="2"/>
          <path id="Path-43" data-name="Path" d="M0,32.446a31.1,31.1,0,0,0,1.622,9.711c5.42,15.5,22.6,14.512,22.6,14.512s8.089-20.086,2.445-21.746S8.07,18.847,11.026,1.085c.057-.377.134-.741.211-1.085" transform="translate(98.213 32.159)" fill="none" stroke="#000" stroke-miterlimit="10" stroke-width="2"/>
          <path id="Path-44" data-name="Path" d="M.4.49H.517" transform="translate(131.055 19.749)" fill="none" stroke="#000" stroke-miterlimit="10" stroke-width="2"/>
          <path id="Path-45" data-name="Path" d="M0,8.159,40.822,0" transform="translate(157.812 310.319)" fill="none" stroke="#000" stroke-miterlimit="10" stroke-width="2"/>
          <path id="Path-46" data-name="Path" d="M.49,22.882V0" transform="translate(245.045 143.096)" fill="none" stroke="#000" stroke-miterlimit="10" stroke-width="2"/>
          <path id="Path-47" data-name="Path" d="M2.3,0C-1.314,6.257-.471,18.911,3.443,18.662a4.955,4.955,0,0,0,3.409-2.254" transform="translate(251.733 176.385)" fill="none" stroke="#000" stroke-miterlimit="10" stroke-width="2"/>
          <path id="Path-48" data-name="Path" d="M70.421,32.178V22.525A22.524,22.524,0,0,0,47.876,0H22.531A22.512,22.512,0,0,0,0,22.525v9.653H95.6" transform="translate(61.151)" fill="none" stroke="#000" stroke-miterlimit="10" stroke-width="2"/>
          <path id="Path-49" data-name="Path" d="M32.909,32.156C33.356,5.934,18.423.578,16.635.029a.549.549,0,0,0-.351,0C14.5.578-.437,5.934.01,32.156" transform="translate(79.733 0.022)" fill="none" stroke="#000" stroke-miterlimit="10" stroke-width="2"/>
        </g>
        <path id="Path-50" data-name="Path" d="M10.094,4.871A5.05,5.05,0,0,0,0,4.871Z" transform="translate(312.352 83.06)"/>
        <path id="Path-51" data-name="Path" d="M5.516,0,0,11.652" transform="translate(324.642 173.541)" fill="none" stroke="#000" stroke-miterlimit="10" stroke-width="2"/>
        <path id="Path-52" data-name="Path" d="M11.894.157S3.282-1.395,0,5.264" transform="translate(337.718 129.912)" fill="none" stroke="#000" stroke-miterlimit="10" stroke-width="2"/>
        <ellipse id="Oval-2" data-name="Oval" cx="2.656" cy="2.26" rx="2.656" ry="2.26" transform="matrix(0.821, -0.572, 0.572, 0.821, 340.672, 137.058)"/>
        <g id="Group-7" data-name="Group" transform="translate(221.194 156.584)">
          <path id="Path-53" data-name="Path" d="M0,0S3.275,4.616,9.96,2.969" transform="translate(117.258)" fill="none" stroke="#000" stroke-miterlimit="10" stroke-width="2"/>
          <g id="Group-8" data-name="Group" transform="translate(0 103.729)">
            <path id="Path-54" data-name="Path" d="M21.791,0A67.386,67.386,0,0,0,.129,42.674C-1.059,53.994,6.066,64.349,17.45,64.349H54.793" transform="translate(8.65 106.455)" fill="none" stroke="#000" stroke-miterlimit="10" stroke-width="2"/>
            <path id="Path-55" data-name="Path" d="M12.482,60.014S-.568,39.961.019,0" transform="translate(0 103.844)" fill="none" stroke="#000" stroke-miterlimit="10" stroke-width="2"/>
            <path id="Path-56" data-name="Path" d="M0,12.239A110.572,110.572,0,0,0,1.168,0" transform="translate(129.484)" fill="none" stroke="#000" stroke-miterlimit="10" stroke-width="2"/>
          </g>
        </g>
        <path id="Path-57" data-name="Path" d="M2.859.475S2.124-.9,1.25,1.024-3.181,18.818,7.762,23.44s33.921,1.986,33.921,1.986S14.549,19.667,2.859.475Z" transform="translate(229.796 404.619)"/>
      </g>
      <path id="Path_2630" data-name="Path 2630" d="M14449.1,7825.73c9.7-2.117,17.47,5.214,18.917,12.919a16.413,16.413,0,0,1-12.547,19.269C14435,7862.32,14427.4,7830.47,14449.1,7825.73Zm-21.214,17.629c0,15,12.43,30.872,23.258,40.308,3.541,3.085,9.366,7.805,14.671,7.805,7.308,0,11.943-24.955,11.943-32.661,0-11.464.148-20.841-6.387-30.493-10.133-14.958-33.36-12.391-41.266,4.615a25.5,25.5,0,0,0-2.2,10.427Z" transform="matrix(0.966, -0.259, 0.259, 0.966, -23321.279, -24713.939)" fill="#00c29a" fill-rule="evenodd"/>
    </g>
  </g>
</svg>
