<svg xmlns="http://www.w3.org/2000/svg" width="436.003" height="372.558" viewBox="0 0 436.003 372.558">
  <g id="Login_1" transform="translate(-5 285.899)">
    <g id="Group_5327" data-name="Group 5327" transform="translate(0 -312)">
      <path id="Path_2633" data-name="Path 2633" d="M118.064,128.666c-.571-1.319-2.831-.511-2.358.821a292.285,292.285,0,0,1,14.371,59.82c.238,1.64,2.687,1.086,2.491-.519-1.8-14.775-8.31-45.816-14.5-60.122Zm48.653,174.708c-4.541-1.266-7.48-2.117-12.094-3.1a1.311,1.311,0,0,0-.728,2.518c3.981,1.377,10.144,2.164,10.525,3.054.15.356-9.293,33.077-10.906,35.6-1.364,2.127-3.563.355-5.38-.417-2.028-.86-3.52-1.2-5.554-2.045-1.915-.8-2.819,2.333-.9,3.12,2.288.938,4.059,1.328,6.352,2.243,3.834,1.528,6.615,2.911,8.3-2.087,4.094-12.088,7.633-24.794,11.4-37.03a1.522,1.522,0,0,0-1.022-1.849ZM82.441,268.747c22.47,11.594,46.74,19.058,70.857,26.985-5.7,9.308-17.182,35.657-17.182,58.32-26.783-6.891-118.654-47.33-127.358-69.815S7.318,167.1,21.82,147.154c9.94-13.668,37.9-26.656,57.666-32.459,15.715,16.9,44.227,72.359,54.64,97.548-.168,21.27.035,42.59,1.654,63.8.12,1.565,2.368,1.225,2.373-.274.054-22.778-.622-45.577-.547-68.41.1-30.947,5.5-60.441,2.308-91.888A230.116,230.116,0,0,1,179.7,126.3c0,12.057-1.573,132.689-1.792,167.241-28.012-1.513-65.183-14.683-90.6-26.839-11.775-5.631-20.419-10.033-19.328-24.127,1.389-17.955,1.218-36.066,3.8-53.88a1.242,1.242,0,0,0-2.455-.362c-3.422,16.65-4.287,39.814-4.744,56.944-.308,11.542,7.781,18.263,17.857,23.462Zm57.611-49.2a1.32,1.32,0,0,0,2.388,1.12,259.28,259.28,0,0,0,14.584-33.551c3.488-9.58,6.391-14.265-1.673-22.312-3.47-3.466-4.253-4.383-.165-5.444a23.47,23.47,0,0,0,7-2.939c2.585-2.016,1.917-5,.779-7.633a155.584,155.584,0,0,0-12.3-23.539c-.892-1.353-2.754.035-2.031,1.4,2.612,4.927,11.535,20.413,12.366,25.215.559,3.248-6.438,4.511-9.114,5.5-5.617,2.058-2.681,5.625.371,8.556,7.868,7.561,5.787,9.764,2.394,19.179-4.273,11.864-9.334,23-14.593,34.451ZM74.336,128.3c.462-1.418,2.706-.636,2.371.786-1.176,4.972-3.473,14.653-2.96,19.7.254,2.5,2.1,3.509,4.16,4.247,3.536,1.275,7.176,2.285,10.75,3.442,8.49,2.747,6.334,6.615,5.8,14.007-.843,11.619-1.682,11.648,7.336,19.267,8.654,7.313,17.567,15.85,26.534,22.553,1.44,1.077-.343,3.171-1.744,2.147-9.573-7-21.726-17.731-30.467-25.73-6.42-5.877-4.962-11.4-4.4-19.2.37-5.146,2.278-8.2-3.551-10.129-3.608-1.189-7.254-2.243-10.839-3.491-2.509-.875-5.07-2.23-5.976-5.031C69.842,146.213,72.856,132.85,74.336,128.3Z" transform="translate(0 44.607)" fill="#001c3d" fill-rule="evenodd"/>
      <path id="Path_2634" data-name="Path 2634" d="M69.962,79.875c1.176.886,2.428-.579,2.921-1.52,3.769-7.2,6.315-17.871,4.671-25.925-.271-1.328-2.527-1.424-2.5.077.15,9.259-.215,15.787-4.622,24.226-4.566-4.05-12.59-4.073-13.805,2.631-1.08,5.967,1.813,15.7,6.142,19.986A6.044,6.044,0,0,0,69.278,101c1.773,15.212,4.36,30.363,4.978,46.621a1.3,1.3,0,0,0,2.569-.1c1-14.4-3.12-34.593-5.3-48.956-.226-1.491-1.606-2.085-2.61-1.264-2.392,1.955-4.4-.8-5.58-2.783-1.989-3.332-4.584-10.909-3.317-14.828C61.562,74.913,67.336,77.9,69.962,79.875Zm30.279,51.7c11.245,2.93,22.193.207,26.725-11.609,7.124-18.57.31-56.514-8.647-74.98-.732-1.511-2.833-.3-2.255,1.2,8.008,20.585,14.053,45.613,9.828,67.532-2.807,14.561-12.7,18.794-26.173,14.93-3.264-.937-6.465-2.213-9.549-3.365-1.475-.55-2.067,1.673-.7,2.29a80.574,80.574,0,0,0,8.107,3.224c.646,4.981.2,15.313.362,17.989.09,1.484,2.3,1.413,2.556-.018.525-2.918.086-14.371-.253-17.188ZM97.267,26.123c-1.458.056-1.38,2.351.015,2.527,6.749.849,17.017,2.768,16.06,11.98a1.2,1.2,0,0,0,2.374.3c2.132-10.048-10.074-15.14-18.45-14.814Zm7.8,16.151a1.206,1.206,0,1,1-2.1,1.177A26.866,26.866,0,0,0,78.934,31.633C71.857,31.9,54.947,36.218,53.58,44.52c-.271,1.64-3.073,1.24-2.875-.391,1.2-9.877,18.858-14.79,27.1-15.363,10.418-.723,22.384,3.667,27.256,13.508ZM86.91,46.655c1.186.761.1,2.834-1.171,2.2-7.7-3.837-17.271-5.449-25.227-1.285-9.463,4.95-7.346,15.173-2.3,22.6a1.382,1.382,0,0,1-2.15,1.732c-6.4-7.569-7.367-20.3,1.833-26.107,8.42-5.321,20.807-4.413,29.018.855Zm33.642,29.974c1.305.934.637,1.923-.547,2.031a16.419,16.419,0,0,0-4.341.28c-1.215.3-2.133-.956-.654-2.081a5.7,5.7,0,0,1,5.542-.23Zm-19.361,1.11c2.544.642,2.64,2.8-.15,2.607a15.709,15.709,0,0,0-5.9,1c-1.152.356-1.762-1.022-.72-1.955a8.387,8.387,0,0,1,6.766-1.64ZM121,67.705c.774,1.254-.22,2.275-1.335,1.481-3.052-2.18-5.234-1.525-7.415.777a1.3,1.3,0,0,1-2.027-1.57C112.109,64.485,118.819,64.174,121,67.705Zm-18.913,1.03c1.6,1-.066,3.458-1.654,2.431a7.543,7.543,0,0,0-10.4,2.224,1.248,1.248,0,0,1-2.06-1.4c2.724-5.061,9.416-6.184,14.109-3.251Zm19.1,38.8c2.8,2.255,2.042,3.007-1.135,2.219a36.043,36.043,0,0,0-6.05-1.5,1.242,1.242,0,0,1-.122-2.424,7.076,7.076,0,0,1,3.873-.244,11.375,11.375,0,0,1,3.434,1.955Zm-11.592-1.4a1.3,1.3,0,0,1,.4,2.3,40.113,40.113,0,0,1-5.728,2.079c-1.9.722-3.428,1.473-5.336,2.315-2.255.994-4.068.382-1.434-1.616,1.8-1.37,3.44-3.291,5.528-4.193,1.687-.729,5.125-1.555,6.576-.884Zm1.382-30.693a59.53,59.53,0,0,1,5.375,24.127c-.027,5.864-3.449,5.128-7.531,3.669a17.555,17.555,0,0,1-4.922-2.344,1.255,1.255,0,0,1,1.1-2.146c1.446.436,2.786,1.2,4.2,1.747,2.488.95,4.428,1.328,4.4-.809A61.886,61.886,0,0,0,108.7,76.158c-.6-1.449,1.648-2.067,2.279-.716Zm126.29,277.964c1.8-2.167,3.082.164,2.066,1.484-3.7,4.8-14.175,5.112-19.846,5.743-19.374,2.146-23.578,6.916-40.369,14.912a70.159,70.159,0,0,1-35.988,6.979c-4.718-.289-2.5-3.211.137-3.085,10.645.508,22.172-.889,37.451-8.585,15.088-7.6,20.687-11.24,37.866-13.172,5.061-.568,15.441-.382,18.684-4.276ZM339.5,94.717a1.394,1.394,0,0,0-1.409,2.3c2.21,2.969,3.8,4.374,4.247,8.42.329,2.935,2.753,3.565,3.39-.048.666-3.774-2.631-9.52-6.229-10.666Zm-12.84-2.445c6.035-.8,11.317,9.914,11.073,15.268-.188,4.16-2.843,5.229-3.64.247-.6-3.81-3.007-12.314-7.438-12.9a1.325,1.325,0,0,1,0-2.616Zm.5,15.486c.053-7.946-5.713-18.361-14.873-16.06-1.105.278-1.4,2.336.012,2.527,8.31,1.129,9.717,7.176,10.878,14.253C324.135,114.306,327.122,113.612,327.16,107.758Zm-28.4-12.575c7.88-6.515,18.944,4.007,16.839,14.068-.46,2.2-2.876.914-3.04-.967-.432-4.981-3.759-13.983-12.5-10.935-1.17.409-2.3-1.337-1.3-2.165ZM415.628,223.391c-.367-29.018,1.174-59.342,0-87.979-.8-19.546-1.3-31.011-23.2-33.719-13.07-1.616-29.881-.335-42.564-.254a1.317,1.317,0,0,0-.018,2.631c13.271.66,28.6.25,40.708.979,19.308,1.162,22.055,11.266,22.088,32.349.044,28.9-.752,57.774-.487,86.716.272,29.867,2.639,63.054,1.773,92.535-.855,29.127-14.515,27.965-34.862,28.466-61.318,1.532-126.328.41-187.487.865-1.4.011-1.4,2.472,0,2.485,58.6.6,125.574,2.183,184.565.535,27.3-.764,39.4.332,41.4-31.423,1.643-26.233-1.72-78.244-1.922-94.178ZM302.57,101.274c-34.25-.383-70.722-1.424-104.862-.229-16.633.582-36.3,6.7-36.3,26.584-.035,53.353-.319,106.7-.235,160.062.018,12.384-.956,28.123.432,39.963.644,5.483,2.439,9.307,6.479,12.454,1.168.911,3.458-.61,1.911-2.155-3.75-3.73-4.811-7.57-5.145-12.35-.9-13.186-.033-28.6-.026-42.076.024-51.925-.15-103.856-.15-155.775,0-19.469,20.783-23.092,36.15-23.28,33.8-.415,67.658.429,101.472.256,2.2-.012,2.518-3.428.272-3.458Zm13.063,183.742a4.3,4.3,0,0,1,4.634,4.766c-.471,4.151-5.286,4.136-7.217,1.394a3.846,3.846,0,0,1,2.589-6.164Zm-16.173.286a3.726,3.726,0,0,1,2.165,5.96c-2.066,2.809-7.169,1.3-7.358-1.633a4.429,4.429,0,0,1,5.193-4.327Zm-14.26,2.2a3.948,3.948,0,0,1-1.015,5.589,4.168,4.168,0,0,1-6.026-3.694A3.854,3.854,0,0,1,285.2,287.5Zm-19.015-.613c2.765,1.019,3.9,4.428,1.156,5.984a5.713,5.713,0,0,1-6.1-.179c-3.307-2.625-.428-7.787,4.943-5.808Zm-20.615-.4a4.174,4.174,0,0,1,5.065,4.21c-.207,3.766-4.638,3.9-6.939,2.021a3.563,3.563,0,0,1,1.873-6.229Zm-15.412.559a3.893,3.893,0,0,1,3.063,5.5c-1.269,2.888-6.234,3.4-7.39-.277a4.044,4.044,0,0,1,4.327-5.22Zm132.223,17.331c.68-8.86-.487-23.528.2-28.9.188-1.484,2.46-2.069,2.806-.35.063.31.628,21.98.277,28.61-.191,3.62.218,3.954-3.8,4.186-29.721,1.7-60.381,1.531-90.21,1.955-19.3.275-38.1.752-57.4.338-2.956-.063-2.282-1.168-2.46-3.623-.535-7.4,0-17.14-.134-29.36a2.124,2.124,0,0,1,1.992-1.882c41.225-1.639,97.934-1.591,144.379-2.333a1.621,1.621,0,0,1-.011,3.239c-48.8-.284-104.561,2.821-143.166,1.621-.308,10.1.212,20.852-.15,29.58,30.221-.923,60.14-.846,90.413-1.493,19.188-.41,38.156-1.532,57.272-1.582Zm-.6-57.735c1.069-9.206-.492-19.21-.024-28.141-48.8.4-98.421.5-147.24.552-.337,7.9-.078,22.059-.435,29.425-.083,1.709-2.64,1.891-2.706.12-.322-8.758-.507-19.8-.141-28.664.15-3.706.624-3.715,4.029-3.792,45.075-1,99.8-1.89,144.788-.752,3.7.1,4.283.226,4.8,4.21.659,5.085,1.141,24.91.138,28.965a1.738,1.738,0,0,1-1.666,1.41c-48.682,1.108-95.835,1.9-142.871,1.292-1.735-.021-1.531-2.634.15-2.651,47.091-.51,94.548-1.688,141.179-1.988Zm-172.35,84.43c6.558-1.616,7.33,3.007,3.043,7.193a39.743,39.743,0,0,0-8.806,12.646c-.78,1.761-3.608.716-2.821-1.052A46.252,46.252,0,0,1,190.79,335.7c2.036-2.034,1.87-2.183-.719-1.523-14.183,3.608-24.167,23.214-39.756,22.062-5.375-.4-4.431-2.76,0-2.857C165.253,353.046,174.915,334.65,189.431,331.072Z" transform="translate(23.008)" fill-rule="evenodd"/>
      <path id="Icon_material-security" data-name="Icon material-security" d="M31.4,1.5,4.5,13.456V31.39c0,16.589,11.478,32.1,26.9,35.868C46.825,63.493,58.3,47.98,58.3,31.39V13.456Zm0,32.85H52.325C50.74,46.664,42.521,57.634,31.4,61.072V34.379H10.478V17.342L31.4,8.046Z" transform="translate(276.178 132.381)" fill="#f2aa18"/>
    </g>
  </g>
</svg>
