<svg xmlns="http://www.w3.org/2000/svg" width="284.777" height="181.291" viewBox="0 0 284.777 181.291">
  <g id="Group" transform="translate(-48.225 -382.934)">
    <path id="Path" d="M140.53,75.269H56.761l56.925-.66c10.524-.915,17.939-11.237,13.941-21.009-.691-1.688.032-2.158-.824-3.787-8.949-16.85-24.464-30.577-42.047-38.551.435-.082.874-.142,1.322-.2a89.084,89.084,0,0,0-10.1-4.3C74.151,6.107,72.3,5.517,70.449,5,61.358,2.438,49.074,3.608,45.2,13.674c-3.253,8.45,1.067,18.658,9.192,22.36l14.594,5.579c-.123-.183-.233-.366-.347-.559L81.336,45.9a1.508,1.508,0,0,1-.71,2.736L49.8,52.006c-4.443.448-10.006,2.307-13.281,5.364a12.239,12.239,0,0,0-4.383,9.022,47.017,47.017,0,0,0-6,.843c-3.02.65-6.093,1.77-6.311,3.61-.429,3.692,4.818,4.443,8.125,4.443L7.03,75.205c2.247,0,2.524-.019,4.014-1.5S14.2,71.078,14.2,68.831l.183-7.2c0-1.483.353-2.682-1.13-2.682H0a2.812,2.812,0,0,0,2.6-1.578.079.079,0,0,0,.019-.041,8.979,8.979,0,0,0,.691-4.676l.155-.549.4-1.464,8.419-4.954a2.016,2.016,0,0,0,.183-.12c4.392-2.685,4.941-7.485,3.436-11.776-.032-.082-.05-.155-.082-.224-.069-.183-.133-.357-.211-.53a16.027,16.027,0,0,0-1.486-2.8c-2.174-3.4-5.33-6.163-8.327-6.885a11.552,11.552,0,0,0-2.562-.284C13.666,13.289,25.686,4.6,39.882,1.7a82.434,82.434,0,0,1,37.538.978A80.93,80.93,0,0,1,114.91,25.11c13.783,14.38,20.23,31.179,25.619,50.153Z" transform="translate(177.639 488.203)" fill="#001c3d"/>
    <path id="Path-2" data-name="Path" d="M24.237,4.3a4.847,4.847,0,0,1-2.3,2.209,11.334,11.334,0,0,1-2.673.947c-1.527.256-2.067-.71-3.042-1.657a7.138,7.138,0,0,0-1.893-1.313,3.155,3.155,0,0,0-2.695-.041,1.628,1.628,0,0,0-.966,1.486C10.731,7.089,12.328,8,13.23,8.484a22.237,22.237,0,0,0,3.66,1.351c3.083.947-2.051,2.919-3.13,3.042a22.038,22.038,0,0,1-6.942-.164,23.4,23.4,0,0,1,1.505,4.575,12.249,12.249,0,0,1,.48,4.831,6.145,6.145,0,0,1-3.042,4L0,2.063a17.093,17.093,0,0,1,13.676-.448A4.058,4.058,0,0,0,17.958.669L18.548.1a4.266,4.266,0,0,1,2.461.2c1.4.527,3.985,2.221,3.228,4Z" transform="translate(153.702 515.941)" fill="#00c29a"/>
    <path id="Path-3" data-name="Path" d="M112.935,0H89.13a9.151,9.151,0,0,1-9.1,8.176H0a8.185,8.185,0,0,0,8.166,8.166H112.929A8.2,8.2,0,0,0,121.1,8.176V2.685A2.685,2.685,0,0,0,118.419,0Z" transform="translate(70.924 547.133)" fill="none" stroke="#000" stroke-miterlimit="10" stroke-width="1.5"/>
    <path id="Path-4" data-name="Path" d="M98.089,3.8a9.094,9.094,0,0,1,1.486,3.23l11.278,47.017a8.835,8.835,0,0,1,.192,3.121,9.151,9.151,0,0,1-9.1,8.176H20.429a9.167,9.167,0,0,1-8.908-7.027L.256,11.3A9.151,9.151,0,0,1,9.164,0h81.5a9.1,9.1,0,0,1,7.015,3.285Z" transform="translate(49.009 489.949)" fill="none" stroke="#000" stroke-miterlimit="10" stroke-width="1.5"/>
    <ellipse id="Oval" cx="8.813" cy="9.905" rx="8.813" ry="9.905" transform="translate(93.188 519.269) rotate(-17.5)" fill="#00c29a"/>
    <path id="Path-5" data-name="Path" d="M40.391,6C33.2,7.2,27.671,10.49,23.96,17.3c-3.323,6.09-3.711,13.521-.167,19.564L9.326,31.312C.948,27.475-2,18.948,1.358,10.192,5.35-.24,18.016-1.452,27.391,1.205c1.909.536,3.815,1.149,5.7,1.824q3.7,1.325,7.3,2.969Z" transform="translate(223.771 492.991)" fill="#001c3d"/>
    <g id="Group-2" data-name="Group" transform="translate(95.669 383.971)">
      <path id="Path-6" data-name="Path" d="M0,105.984a44.972,44.972,0,0,1,22.637-15.55A67.015,67.015,0,1,1,151.059,53.461,68.475,68.475,0,0,1,152.448,65.8a59.459,59.459,0,0,1,7.93-2.209,58.559,58.559,0,0,1,55.713,96.141" fill="none" stroke="#b2ede0" stroke-miterlimit="10" stroke-width="2"/>
      <g id="Group-3" data-name="Group" transform="translate(78.998 102.494)">
        <path id="Path-7" data-name="Path" d="M0,60.671H2.237a4.143,4.143,0,0,0,3.354-1.578.1.1,0,0,0,.022-.041,5.475,5.475,0,0,0,1.026-3.806l-.183-1.423L6.3,52.675l.549-.316,8.6-5.074.581-.334c4.2-2.471,4.5-7.078,2.856-11.442-.028-.079-.05-.151-.079-.224-.073-.183-.145-.353-.215-.527a20.145,20.145,0,0,0-1.486-2.8c-2.174-3.4-5.326-6.163-8.327-6.885a11.36,11.36,0,0,0-2.562-.284c-1.8,0-3.787.344-4.831,1.382C12.549,15.2,25.585,4.894,41.264,1.7a82.437,82.437,0,0,1,37.55,1,80.987,80.987,0,0,1,37.5,22.442c.54.562,1.067,1.13,1.578,1.71,12.837,14.1,21.022,31.916,26.194,50.148" fill="none" stroke="#000" stroke-miterlimit="10" stroke-width="1.5"/>
        <path id="Path-8" data-name="Path" d="M0,.49H154.4" transform="translate(3.935 76.52)" fill="none" stroke="#000" stroke-miterlimit="10" stroke-width="1.5"/>
        <path id="Path-9" data-name="Path" d="M0,.49H17.519" transform="translate(42.804 76.517)" fill="none" stroke="#000" stroke-miterlimit="10" stroke-width="1.5"/>
        <g id="Group-4" data-name="Group" transform="translate(22.805 5.493)">
          <path id="Path-10" data-name="Path" d="M22.337,32.2c-8.129-3.7-12.445-13.909-9.2-22.357C17.017-.23,29.3-1.4,38.386,1.162q2.783.779,5.532,1.761C64.343,10.18,82.9,25.247,93.039,44.338c.855,1.616,1.537,3.275,2.228,4.967A15.661,15.661,0,0,1,82.133,70.847l-56.922.666H7.692A7.412,7.412,0,0,1,.673,66.489c-1.921-5.679.563-9.964,3.7-12.883a20.588,20.588,0,0,1,11.991-5.229l31.978-3.231a1.511,1.511,0,0,0,.716-2.739Z" transform="translate(12.307)" fill="none" stroke="#000" stroke-miterlimit="10" stroke-width="1.5"/>
          <path id="Path-11" data-name="Path" d="M7.2,0C4.276,1.679,1.275,4.307.272,7.636c-1.155,3.834,1.556,7.318,4.635,9.312" transform="translate(17.916 54.581)" fill="none" stroke="#000" stroke-miterlimit="10" stroke-width="1.5"/>
          <path id="Path-12" data-name="Path" d="M4.015,0C1.292,2.591-1.069,5.876.506,9.782a7.258,7.258,0,0,0,2.045,2.764" transform="translate(24.227 58.98)" fill="none" stroke="#000" stroke-miterlimit="10" stroke-width="1.5"/>
          <path id="Path-13" data-name="Path" d="M3.612,0s-6.27,4.661-2.288,7.456" transform="translate(29.972 64.047)" fill="none" stroke="#000" stroke-miterlimit="10" stroke-width="1.5"/>
          <path id="Path-14" data-name="Path" d="M17.491,8.45l.11.448H7.485C4.178,8.9-.4,8.39.028,4.7S12.3,0,12.3,0" transform="translate(0 62.618)" fill="none" stroke="#000" stroke-miterlimit="10" stroke-width="1.5"/>
        </g>
      </g>
    </g>
    <g id="Group-5" data-name="Group" transform="translate(153.481 512.621)">
      <g id="Group-6" data-name="Group">
        <path id="Path-15" data-name="Path" d="M2.881,7.81S2.225,2.035,0,0" transform="translate(24.613 18.706)" fill="none" stroke="#000" stroke-miterlimit="10" stroke-width="1.5"/>
        <path id="Path-16" data-name="Path" d="M0,5.787a17.115,17.115,0,0,1,13.884-.536A4.064,4.064,0,0,0,18.172,4.3l4.4-4.3" fill="none" stroke="#000" stroke-miterlimit="10" stroke-width="1.45"/>
        <path id="Path-17" data-name="Path" d="M0,.06,3.67,1.71a.631.631,0,0,0,.846-.4L5.093,0" transform="translate(13.972 30.258)" fill="none" stroke="#000" stroke-miterlimit="10" stroke-width="2"/>
      </g>
      <path id="Path-18" data-name="Path" d="M.6,0A4.184,4.184,0,0,1,0,4.323" transform="translate(14.755 22.029)" fill="none" stroke="#000" stroke-miterlimit="10" stroke-width="1.5"/>
      <g id="Group-7" data-name="Group" transform="translate(7.053 19.51)">
        <path id="Path-19" data-name="Path" d="M4.121,4.254A6.749,6.749,0,0,0,4.547.5C4.452-.025,3.566-.215,3.471.316,3.212,1.8,1.543,4.071,0,4.254" transform="translate(11.723 10.748)" fill="none" stroke="#000" stroke-miterlimit="10" stroke-width="2"/>
        <circle id="Oval-2" data-name="Oval" cx="4.711" cy="4.711" r="4.711" transform="translate(3.723 0)" fill="none" stroke="#000" stroke-miterlimit="10" stroke-width="1.5"/>
        <path id="Path-20" data-name="Path" d="M6.857,0,6.018,2.36A4.708,4.708,0,0,0,0,5.219" transform="translate(0 9.148)" fill="none" stroke="#000" stroke-miterlimit="10" stroke-width="2"/>
      </g>
    </g>
    <path id="Path-21" data-name="Path" d="M0,26.092A6.12,6.12,0,0,0,3.039,22.1a12.183,12.183,0,0,0-.476-4.831,23.351,23.351,0,0,0-1.5-4.575A22.038,22.038,0,0,0,8,12.852c1.076-.12,6.213-2.083,3.13-3.039A21.83,21.83,0,0,1,7.472,8.46c-.909-.47-2.5-1.385-2.559-2.546A1.619,1.619,0,0,1,5.86,4.421a3.155,3.155,0,0,1,2.7.047,6.942,6.942,0,0,1,1.893,1.313c.978.947,1.511,1.893,3.045,1.65a11.006,11.006,0,0,0,2.666-.947,4.85,4.85,0,0,0,2.3-2.209C19.226,2.5,16.633.8,15.225.3A4.279,4.279,0,0,0,12.767.1" transform="translate(159.448 516.272)" fill="none" stroke="#000" stroke-miterlimit="10" stroke-width="1.5"/>
    <g id="Group_5334" data-name="Group 5334" transform="translate(5946.009 8806.474)">
      <path id="Path-22" data-name="Path" d="M7.5,43.453c3.171,5.4,3.026,9.244,2.2,15.476A2.839,2.839,0,0,0,14,61.713c18.3-10.514,35.388-2.2,57.212-7.354,8.014-1.881,18-5.78,24.854-12.049a20.44,20.44,0,0,0,3.487-11.418C99.551,13.842,76.249,0,47.511,0,29.093,0,12.913,5.683,3.663,14.245l-.026.026A20.339,20.339,0,0,0,0,25.638c-.014,6.118,4.535,12.751,7.5,17.815Z" transform="translate(-5798.493 -8394.963)" fill="#f2aa18"/>
      <path id="Path-23" data-name="Path" d="M0,30.9v.432C.1,37.3,3.1,42.861,6.644,47.672c2.376,3.217,5.2,6.792,4.527,10.736-.284,1.739-1.265,3.316-1.509,5.061s.685,3.922,2.447,4.012a4.822,4.822,0,0,0,2.958-1.421C20.31,62,27.124,60.477,33.751,60.21s13.245.608,19.875.8c9.559.284,19.27-.921,28.1-4.587a43.958,43.958,0,0,0,19.92-15.851c4.677-7.059,1.912-17.309-3.078-23.447C93.89,11.361,87.113,7.675,80.162,5.078A80.663,80.663,0,0,0,21.691,5.9C16.218,8.178,10.924,11.133,6.82,15.41,2.822,19.576.043,25.129,0,30.9Z" transform="translate(-5798.425 -8400.227)" fill="none" stroke="#000" stroke-miterlimit="10" stroke-width="2"/>
      <g id="Group-8" data-name="Group" transform="translate(-5775.779 -8376.89)">
        <circle id="Oval-3" data-name="Oval" cx="7.178" cy="7.178" r="7.178" transform="translate(46.885 0)" fill="#fff"/>
        <circle id="Oval-4" data-name="Oval" cx="7.178" cy="7.178" r="7.178" transform="translate(23.669 0)" fill="#fff"/>
        <circle id="Oval-5" data-name="Oval" cx="7.178" cy="7.178" r="7.178" transform="translate(0 0)" fill="#fff"/>
      </g>
    </g>
  </g>
</svg>
