<svg xmlns="http://www.w3.org/2000/svg" width="438.076" height="445.609" viewBox="0 0 438.076 445.609">
  <g id="Group_5510" data-name="Group 5510" transform="translate(9838 20815.588)">
    <g id="Group" transform="translate(-9789.75 -20801.592)">
      <g id="Group_5284" data-name="Group 5284">
        <path id="Path" d="M0,194.7c15.942-22.283,39.833-32.383,39.833-32.383.78-.325-2.543-30.852-2.611-33.018-1.008-35.663,4.907-72.769,31.715-98.52C102.449-1.4,163.253-8.061,201.7,19.042c-.484-.358,12.648-10.71,13.757-11.374A53.213,53.213,0,0,1,239.083.154c33.638-2.422,64.485,24.008,77.1,55.979S325.9,160.951,302.755,181.96" transform="translate(14.373)" fill="none" stroke="#b2ede0" stroke-miterlimit="10" stroke-width="2"/>
        <path id="Path-2" data-name="Path" d="M0,27.655A80.96,80.96,0,0,1,6.68,2.248Q7.194,1.1,7.755,0" transform="translate(0 205.697)" fill="none" stroke="#b2ede0" stroke-miterlimit="10" stroke-width="2"/>
      </g>
      <path id="Path-3" data-name="Path" d="M10.754,10.71C6.879,7.189,3.289,3.6,0,0" transform="translate(30.818 315.378)" fill="none" stroke="#d1f2e3" stroke-miterlimit="10" stroke-width="2"/>
    </g>
    <path id="Path-4" data-name="Path" d="M144.5,115.573c.029,2.422,0,4.893-.116,7.368-.688,15.312-3.967,31.138-12.164,44.033a57.45,57.45,0,0,1-4.98,6.782c-17.439-2.3-20.04-20.089-40.206-30.145C62.877,131.534,23.32,135.86,23.32,135.86l19.488-17.977C41.766,63.745,2.02,67.068,2.02,67.068L0,72.014Q2.3,65.3,4.655,59.482l.087-.2C23.15,13.56,42.222,7.892,57.059,1.289A47.608,47.608,0,0,1,67.876,0c37.935-.2,60.2,38.429,69.935,69.528a171.7,171.7,0,0,1,6.646,42.968c.01,1,.044,2.039.044,3.076Z" transform="translate(-9569.748 -20695.813)" fill="#001c3d"/>
    <path id="Path-5" data-name="Path" d="M124.979,201.987a15.757,15.757,0,0,1-12.813,6.263H54.618A15.855,15.855,0,0,1,42.8,203.217h0a6.707,6.707,0,0,1-.572-.659,15.07,15.07,0,0,1-3.25-7.789,4.241,4.241,0,0,1,4.292-4.844,4.132,4.132,0,0,1,3.953,3.73,4.352,4.352,0,0,0,.073.615,6.874,6.874,0,0,0,1.507,3.207,7,7,0,0,0,5.6,2.475h58.014a7.194,7.194,0,0,0,5.508-2.422,6.854,6.854,0,0,0,1.318-6.646L93.327,113.838a14.045,14.045,0,0,0-.751-1.725,18.577,18.577,0,0,0-17.008-10.628c-10.909.131-24.758.16-26.062.16-29.031-.107-42.241-.107-49.507.087a12.11,12.11,0,0,1,2.635-4.815s.029-.029.029-.044a10.173,10.173,0,0,1,6.782-3.192,175.987,175.987,0,0,0,31.773-5.3c18.267-4.951,35.692-13.443,47.8-27.1a63.884,63.884,0,0,0,13.079-22.8,90.557,90.557,0,0,0,3.982-20.6q.281-3.313.349-6.675v-.1c0-.513.029-1.041.029-1.555A72.33,72.33,0,0,0,106.019,0a12.183,12.183,0,0,1,8.448,3.5,8.516,8.516,0,0,1,.436,1.613,9.475,9.475,0,0,1,.131,1.579V69.349a32.325,32.325,0,0,1-9.587,23.015,18.338,18.338,0,0,0-4.084,19.222l25.751,76.625a15.09,15.09,0,0,1-2.136,13.777Z" transform="translate(-9528.912 -20579.314)" fill="#f2aa18"/>
    <path id="Path-6" data-name="Path" d="M0,175.663V0H10.749V175.736Z" transform="translate(-9758.927 -20554.924)" fill="#001c3d"/>
    <g id="Group-2" data-name="Group" transform="translate(-9837 -20695.828)">
      <path id="Path-7" data-name="Path" d="M0,1.619C7.7.8,16.6-.169,25.151.025" transform="translate(290.576 134.231)" fill="none" stroke="#000" stroke-miterlimit="10" stroke-width="2"/>
      <path id="Path-8" data-name="Path" d="M60.954,0c-13.632,3.439-26.9,8.4-38.211,16.659C3.754,30.494-4.927,56.3,2.834,78.664c0,.029,30.518,88.062,30.518,88.062H25.32a13.108,13.108,0,0,0-9.31,3.875c-2.388,2.374-3.565,6.331-3.565,9.964H84.734L57.263,90.707A14.77,14.77,0,0,1,71.437,71.572c15.651.441,30.189,1.041,46.019.354" transform="translate(187.692 143.61)" fill="none" stroke="#000" stroke-miterlimit="10" stroke-width="2"/>
      <path id="Path-9" data-name="Path" d="M303.651,123.686v-.1c-.7-18.892-1.652-37.532-6.821-54.061C287.093,38.429,264.83-.2,226.9,0a47.608,47.608,0,0,0-10.817,1.289c-25,5.944-42.372,31.564-52.317,57.989l-.087.2q-1.424,3.8-2.635,7.586a35.262,35.262,0,0,1-2.02,4.946,34.035,34.035,0,0,1-33.512,18.771C79.585,86.609,19.062,84.226,0,116.493" transform="translate(108.213)" fill="none" stroke="#000" stroke-miterlimit="10" stroke-width="2"/>
      <path id="Path-10" data-name="Path" d="M203.716,0c-6.685,8.07-13.723,15.865-21,23.4-14.9,15.443-27.747,31.845-50.864,32.94-18.442.886-36-6.191-53.436-11.1C59.762,40,50.321,35.8,32.935,30.5A56.323,56.323,0,0,0,17.5,28.082L0,28.217" transform="translate(133.001 88.547)" fill="none" stroke="#000" stroke-miterlimit="10" stroke-width="2"/>
      <path id="Path-11" data-name="Path" d="M16.935,55.611a12.832,12.832,0,0,1,5.3-1.124h8.051S13.457,21.774,0,0" transform="translate(251.518 255.859)" fill="none" stroke="#000" stroke-miterlimit="10" stroke-width="2"/>
      <path id="Path-12" data-name="Path" d="M18.931,0,75.22,109.153H0" transform="translate(260.577 215.609)" fill="none" stroke="#000" stroke-miterlimit="10" stroke-width="2"/>
      <path id="Path-13" data-name="Path" d="M128.06,206.017a15.757,15.757,0,0,1-12.813,6.263H57.7a15.781,15.781,0,0,1-12.4-5.706,15.07,15.07,0,0,1-3.25-7.789,4.241,4.241,0,0,1,4.292-4.844,4.132,4.132,0,0,1,3.953,3.73,6.816,6.816,0,0,0,1.579,3.822,7.227,7.227,0,0,0,5.6,2.475H115.5a7.194,7.194,0,0,0,5.5-2.422,6.854,6.854,0,0,0,1.318-6.646l-25.91-77.032A18.674,18.674,0,0,0,78.65,105.515c-10.909.131-24.758.16-26.062.16-32.325-.1-45.051-.1-51.794.145a.8.8,0,0,1-.794-.8,12.11,12.11,0,0,1,3.081-8.109.073.073,0,0,0,.029-.048,10.2,10.2,0,0,1,6.782-3.187,175.987,175.987,0,0,0,31.773-5.3c18.267-4.951,35.692-13.443,47.8-27.1a63.885,63.885,0,0,0,13.079-22.8,90.558,90.558,0,0,0,3.967-20.588q.286-3.323.349-6.675v-.107c0-.509.029-1.037.029-1.55A72.288,72.288,0,0,0,106.45,0c5.27-.029,10.584,3.8,11.5,9.151a9.475,9.475,0,0,1,.131,1.579V73.379A32.325,32.325,0,0,1,108.5,96.394a18.338,18.338,0,0,0-4.084,19.222l25.752,76.625a15.09,15.09,0,0,1-2.107,13.777Z" transform="translate(305.007 112.482)" fill="none" stroke="#000" stroke-miterlimit="10" stroke-width="2"/>
      <rect id="Rectangle" width="163.233" height="13.307" rx="6.653" transform="translate(0 127.591)" fill="none" stroke="#000" stroke-miterlimit="10" stroke-width="2"/>
      <rect id="Rectangle-2" data-name="Rectangle" width="68.075" height="7.45" rx="3.725" transform="translate(49.774 317.399)" fill="none" stroke="#000" stroke-miterlimit="10" stroke-width="2"/>
      <path id="Path-14" data-name="Path" d="M0,5.091V5.76c.1,4.6,4.423,5.3,8.153,5.329l72.11-.048a5.617,5.617,0,0,0,5.769-5.4V5.517A5.582,5.582,0,0,0,80.316.237S39.974.092,8.729,0A7.873,7.873,0,0,1,4.965,3.943,10.076,10.076,0,0,1,0,5.091Z" transform="translate(69.688 116.527)" fill="none" stroke="#000" stroke-miterlimit="10" stroke-width="2"/>
      <path id="Path-15" data-name="Path" d="M0,5.148A4.3,4.3,0,0,0,.636,7.314L34.061,63.453a5.813,5.813,0,0,0,3.875,2.587,6.69,6.69,0,0,0,3.967-.431A5.051,5.051,0,0,0,45.1,61a4.844,4.844,0,0,0-.073-.7,4.573,4.573,0,0,0-.562-1.453L11.037,2.712C9.583.256,6.028-.708,3.17.556A4.976,4.976,0,0,0,0,5.148Z" transform="translate(30.032 51.703)" fill="none" stroke="#000" stroke-miterlimit="10" stroke-width="2"/>
      <path id="Path-16" data-name="Path" d="M0,9.916S4.025,6.084,13.283,0" transform="translate(120.416 106.848)" fill="none" stroke="#000" stroke-miterlimit="10" stroke-width="2"/>
      <path id="Path-17" data-name="Path" d="M25.053,21.136,10.38,37.408a5.958,5.958,0,1,1-8.564-8.274l2.684-2.6a5.185,5.185,0,0,1,.334-.412L6.771,23.99,23.435,5.882A17.986,17.986,0,0,1,39.687.244l.247.044" transform="translate(128.187 32.654)" fill="none" stroke="#000" stroke-miterlimit="10" stroke-width="2"/>
      <path id="Path-18" data-name="Path" d="M20.975,12.6H6.3A6.3,6.3,0,0,1,6.3,0H27.13" transform="translate(152.93 45.599)" fill="none" stroke="#000" stroke-miterlimit="10" stroke-width="2"/>
      <path id="Path-19" data-name="Path" d="M17.962,0a8.529,8.529,0,0,1-2.635,5.813C11.6,9.2,4.757,8.831,0,6.5" transform="translate(144.69 58.194)" fill="none" stroke="#000" stroke-miterlimit="10" stroke-width="2"/>
      <path id="Path-20" data-name="Path" d="M2.856,29.263C-1.363,24.181-.5,17.274,2.784,11.931,16.323-10.178,42.133,3.439,59.1,12.967A230.155,230.155,0,0,1,87.987,32.276c8.08,6.3,15.559,13.835,25.267,17.623,5.813,2.272,12.677,2.814,18.461.194" transform="translate(132.126 27.371)" fill="none" stroke="#000" stroke-miterlimit="10" stroke-width="2"/>
      <path id="Path-21" data-name="Path" d="M0,0A318.6,318.6,0,0,1,29.278,24.448" transform="translate(160.017 63.968)" fill="none" stroke="#000" stroke-miterlimit="10" stroke-width="2"/>
    </g>
    <path id="Path-22" data-name="Path" d="M3.171,17.929c2.451,2.238,6.215,2.359,9.33,2.059a105.191,105.191,0,0,0,11.825-2.141l2.369-.121h.034a3.459,3.459,0,0,1,3.425,3.493,69.519,69.519,0,0,1-1.521,15.215l4.539,2.456c.586-1.637-.073-4,1.318-4.176.891-1.662,2.219-2.742,4.3-1.507,4.079,2.422,5.687,9.538,1.758,12.8l2.519,4.709a8.07,8.07,0,0,0,9.465,3.933L49.96,48.962C56,50.031,60.22,42.5,58.38,37.9a9.155,9.155,0,0,1,.484-8.686c.111-.208-1.027-.484-.93-.7.058-2.253-.567-4.665-1.652-5.813-1.909-2.054-5.75-2.422-4.965-5.542A13.147,13.147,0,0,0,51.7,13a12.89,12.89,0,0,0-5.469-9.16C43.053,1.755,39.5,3.649,36.1,3.6,31.979,3.552,29.024.054,24.7,0a10.961,10.961,0,0,0-5.716,1.846c-1.54.886-3.057,1.812-4.529,2.814S11.674,6.53,9.916,6.535c-2.291.029-4.505-1.424-6.811-.746A5.329,5.329,0,0,0,.2,7.776c-.731,3.575.591,8,2.969,10.153Z" transform="translate(-9555.572 -20768.635)" fill="#00c29a"/>
    <g id="Group-3" data-name="Group" transform="translate(-9551.239 -20748.869)">
      <path id="Path-23" data-name="Path" d="M0,5.692A17.439,17.439,0,0,1,1.3,2.04C2.19.378,3.522-.7,5.6.533c4.079,2.422,5.687,9.538,1.758,12.8L9.877,18.04a8.07,8.07,0,0,0,9.465,3.933" transform="translate(28.857 12.899)" fill="none" stroke="#000" stroke-linecap="round" stroke-linejoin="round" stroke-miterlimit="10" stroke-width="2"/>
      <path id="Path-24" data-name="Path" d="M0,0,2.563,5.7c.644,1.361,2.49,5.547,4.423,9.9,1.376,3.115,2.81,6.322,3.875,8.681" transform="translate(45.627 29.186)" fill="none" stroke="#000" stroke-linecap="round" stroke-linejoin="round" stroke-miterlimit="10" stroke-width="2"/>
      <g id="Group-4" data-name="Group">
        <path id="Path-25" data-name="Path" d="M0,.3S7.552-1.58,10.851,4.146" transform="translate(4.118 8.434)" fill="none" stroke="#000" stroke-miterlimit="10" stroke-width="2"/>
        <path id="Path-26" data-name="Path" d="M6.341,25.824C4.306,26.381,1.57,26.88,0,25.107l3.42-7.2A8.594,8.594,0,0,0,4,12.251C3.255,9.059,1.39,4.21,3.391,0" fill="none" stroke="#000" stroke-miterlimit="10" stroke-width="2"/>
      </g>
    </g>
    <ellipse id="Oval" cx="2.01" cy="2.364" rx="2.01" ry="2.364" transform="matrix(0.516, -0.856, 0.856, 0.516, -9544.903, -20733.412)"/>
    <g id="Group-5" data-name="Group" transform="translate(-9758.927 -20771.738)">
      <g id="Group-6" data-name="Group">
        <path id="Path-27" data-name="Path" d="M1.792,19.89,0,0" transform="translate(228.339 64.476)" fill="none" stroke="#000" stroke-miterlimit="10" stroke-width="2"/>
        <path id="Path-28" data-name="Path" d="M.483,1.09V.562A5.508,5.508,0,0,0,.483,0" transform="translate(236.043 40.894)" fill="none" stroke="#000" stroke-linecap="round" stroke-linejoin="round" stroke-miterlimit="10" stroke-width="2"/>
        <path id="Path-29" data-name="Path" d="M4.544,2.461l-1.56-.838L0,0" transform="translate(231.986 39.528)" fill="none" stroke="#000" stroke-linecap="round" stroke-linejoin="round" stroke-miterlimit="10" stroke-width="2"/>
        <path id="Path-30" data-name="Path" d="M5.91,0S5.76,5.038,0,7.111" transform="translate(218.132 49.207)" fill="none" stroke="#000" stroke-miterlimit="10" stroke-width="2"/>
        <path id="Path-31" data-name="Path" d="M49.923,52.055c6.036,1.071,10.26-6.462,8.419-11.059a9.155,9.155,0,0,1,.484-8.686c.111-.208.2-.412.3-.615a7.032,7.032,0,0,0-1.153-7.8c-1.855-2.209-4.65-2.984-3.846-6.205a13.481,13.481,0,0,0,.4-4.287,13.239,13.239,0,0,0-5.619-9.422c-3.265-2.165-6.942-.2-10.459-.257C34.214,3.657,31.157.053,26.715,0A11.606,11.606,0,0,0,20.81,1.9c-1.589.916-3.163,1.88-4.665,2.906s-2.906,1.938-4.689,1.938c-2.364,0-4.646-1.453-7.009-.775a6.113,6.113,0,0,0-4.234,4.9c-.756,3.556.567,8,2.945,10.173C5.609,23.28,9.373,23.4,12.488,23.1A105.19,105.19,0,0,0,24.313,20.96l2.369-.121h.034a3.459,3.459,0,0,1,3.425,3.493A69.517,69.517,0,0,1,28.62,39.547" transform="translate(203.392)" fill="none" stroke="#000" stroke-miterlimit="10" stroke-width="2"/>
        <path id="Path-32" data-name="Path" d="M25.4,8.2s-9,11.955-17,9.277S0,0,0,0" transform="translate(212.038 49.367)" fill="none" stroke="#000" stroke-linecap="round" stroke-linejoin="round" stroke-miterlimit="10" stroke-width="2"/>
        <path id="Path-33" data-name="Path" d="M0,175.663V0H10.749V175.736" transform="translate(0 216.814)" fill="none" stroke="#000" stroke-miterlimit="10" stroke-width="2"/>
      </g>
      <path id="Path-34" data-name="Path" d="M.319.363s.058.048.17.126" transform="translate(13.482 113.208)" fill="none" stroke="#707070" stroke-width="2"/>
    </g>
    <path id="Path-35" data-name="Path" d="M.489.436l-.1.053" transform="translate(-9635.909 -20672.797)" fill="none" stroke="#707070" stroke-width="2"/>
    <path id="Path-36" data-name="Path" d="M0,.49H201.647" transform="translate(-9698.481 -20371.555)" fill="none" stroke="#000" stroke-miterlimit="10" stroke-width="2"/>
    <g id="Group_5281" data-name="Group 5281" transform="translate(-9776.235 -20814.588)">
      <path id="Path-37" data-name="Path" d="M169.015,65.786a62.654,62.654,0,0,1-12.546,36.055.2.2,0,0,0-.044.058c-.741.8-1.5,1.6-2.267,2.369a66.089,66.089,0,0,1-46.891,19.449h-.179c-10.056,0-20.108.034-30.15.034-7.925,0-15.942.484-23.79-.664-2.524-.363-4.907-1.163-7.489-1.046-9.843.455-16.606,9.771-21.271,17.3a.765.765,0,0,1-.242.242.664.664,0,0,1-.048-.271,60.352,60.352,0,0,0-7.5-32.989c-.1-.194-.208-.378-.315-.557-3.154-5.329-7.353-9.906-10.056-15.5A62.974,62.974,0,0,1,64.633.022l43.161,1.163a62.94,62.94,0,0,1,61.22,64.6Z" transform="translate(4.554 8.925)" fill="#00c29a"/>
      <path id="Path-38" data-name="Path" d="M178.128,66.321a66.045,66.045,0,0,1-17.1,44.445.2.2,0,0,0-.044.058c-.741.8-1.5,1.6-2.267,2.369a66.089,66.089,0,0,1-46.891,19.449h-.179c-10.056,0-20.108.034-30.15.034-7.925,0-15.942.484-23.79-.664-2.524-.363-4.907-1.163-7.489-1.046-9.843.455-16.606,9.771-21.271,17.3a.765.765,0,0,1-.242.242.722.722,0,0,1-1.1-.635,63.567,63.567,0,0,0-8.845-34.544c-.107-.194-.228-.392-.349-.572-3.473-5.513-8.017-10.221-11.02-16.034A66.321,66.321,0,0,1,66.32,0h45.5a66.311,66.311,0,0,1,66.307,66.316Z" fill="none" stroke="#000" stroke-miterlimit="10" stroke-width="2"/>
      <rect id="Rectangle-3" data-name="Rectangle" width="60.707" height="73.922" rx="23.78" transform="translate(89.073 31.027)" fill="#b2ede0"/>
      <circle id="Oval-2" data-name="Oval" cx="4.67" cy="4.67" r="4.67" transform="translate(115.096 42.197)" fill="#fff"/>
      <path id="Path-39" data-name="Path" d="M0,13.045a13.045,13.045,0,0,1,26.091,0Z" transform="translate(106.72 54.942)" fill="#fff"/>
      <rect id="Rectangle-4" data-name="Rectangle" width="34.921" height="14.78" rx="7.39" transform="translate(101.963 79.124)" fill="#2a8c78"/>
      <g id="Group-7" data-name="Group" transform="translate(33.477 46.95)">
        <path id="Path-40" data-name="Path" d="M36.665.49H0" transform="translate(0 7.164)" fill="none" stroke="#fff" stroke-linecap="round" stroke-linejoin="round" stroke-miterlimit="10" stroke-width="2"/>
        <path id="Path-41" data-name="Path" d="M36.665.49H0" transform="translate(0 15.738)" fill="none" stroke="#fff" stroke-linecap="round" stroke-linejoin="round" stroke-miterlimit="10" stroke-width="2"/>
        <path id="Path-42" data-name="Path" d="M36.665.49H0" transform="translate(0 23.392)" fill="none" stroke="#fff" stroke-linecap="round" stroke-linejoin="round" stroke-miterlimit="10" stroke-width="2"/>
        <path id="Path-43" data-name="Path" d="M36.665.49H0" transform="translate(0 31.966)" fill="none" stroke="#fff" stroke-linecap="round" stroke-linejoin="round" stroke-miterlimit="10" stroke-width="2"/>
        <path id="Path-44" data-name="Path" d="M36.665.49H0" transform="translate(0 -0.49)" fill="none" stroke="#fff" stroke-linecap="round" stroke-linejoin="round" stroke-miterlimit="10" stroke-width="2"/>
        <path id="Path-45" data-name="Path" d="M36.665.49H0" transform="translate(0 39.624)" fill="none" stroke="#fff" stroke-linecap="round" stroke-linejoin="round" stroke-miterlimit="10" stroke-width="2"/>
      </g>
      <path id="Path-46" data-name="Path" d="M.487.487.216.429S.3.371.487.265a1.139,1.139,0,0,0,0,.222Z" transform="translate(112.971 154.98)" fill="#2e2e2e" stroke="#707070" stroke-width="2"/>
    </g>
  </g>
</svg>
