<svg xmlns="http://www.w3.org/2000/svg" width="438.054" height="489.601" viewBox="0 0 438.054 489.601">
  <g id="Group_5521" data-name="Group 5521" transform="translate(9433.045 20910.046)">
    <ellipse id="Oval" cx="10.466" cy="10.719" rx="10.466" ry="10.719" transform="translate(-9217.636 -20671.414) rotate(-44.95)" fill="#f2aa18" opacity="0.3"/>
    <path id="Path" d="M0,54.225S46.56-23.3,139.63,7.041c92.921,30.343,70.964,145.529,70.9,145.831.406-2.11,16.5-4.121,18.208-4.369,47.486-7.019,82.807,37.149,86.309,80.677,4.349,53.989-37.411,92.228-84.971,108.692" transform="translate(-9311.362 -20793.172)" fill="none" stroke="#b2ede0" stroke-miterlimit="10" stroke-width="2"/>
    <path id="Shape" d="M23.944,183.718C4.314,152.126,12.972,70.662,12.972,70.662L0,71.157C20.883,33.825,10.545,10.728,3.076.679L72.762,0s-.842,4.522-2.794,17.247,11,19,22.785,21.735,22.874-8.862,27.376-18.233S121.4,4.136,121.4,4.136l20.4,5.944c24.429,10.357,40.968,24.87,51.9,41.215a.22.22,0,0,1,.074.1,106.027,106.027,0,0,1,9.144,16.746c7.97,18.4,10.491,37.862,10.357,55.476a163.6,163.6,0,0,0-11.338-55.673c-20.427-4.184-34.8,4.19-43.6,12.564A56.319,56.319,0,0,0,147.7,94.184c3.571,8.217,6.2,19.268,6.048,33.88h2.269c.466,0,.907.02,1.352.06h.451l15.092.074,10.318.06a14.949,14.949,0,0,1,2.447.213,15.736,15.736,0,0,1,5.869,2.194c.233.134.441.287.654.421a13.472,13.472,0,0,1,1.828,1.447,7.127,7.127,0,0,1,.56.54,16.74,16.74,0,0,1,3.467,5.156,5.913,5.913,0,0,1,.292.753,5.544,5.544,0,0,1,.247.748,16.346,16.346,0,0,1,.733,4.874c0,.307-.04.634-.04.941-.04.53-.094,1.025-.174,1.521-.04.267-.094.54-.153.807-.114.52-.248,1.045-.4,1.54a14.393,14.393,0,0,1-.619,1.62,5.945,5.945,0,0,1-.267.6c0,.059-.04.1-.079.153-.114.238-.248.5-.382.733a11.174,11.174,0,0,1-.693,1.134c-.292.446-.619.847-.946,1.253a14.288,14.288,0,0,1-1.04,1.154,13.172,13.172,0,0,1-1.248,1.119l-.5.4a15.045,15.045,0,0,1-1.773,1.154c-.287.154-.6.312-.9.466a.176.176,0,0,1-.1.035c-.347.173-.694.312-1.04.446s-.694.267-1.055.382-.733.213-1.1.292l-.3.055c-.287.064-.575.119-.867.163a14.7,14.7,0,0,1-1.565.183,7.709,7.709,0,0,1-.961.04h.035c.213-.055.426-.074.639-.114h-.1a.553.553,0,0,1-.173,0,8.215,8.215,0,0,0-.991-.04H116.241a11.57,11.57,0,0,0-11.531,11.55,11.179,11.179,0,0,0,.5,3.428,11.539,11.539,0,0,0,10.991,8.1H143a1.621,1.621,0,0,1-.074.252h-7.7L24.4,184.427a7.6,7.6,0,0,1-.456-.709Zm178.591-.02q1.739-3.784,3.16-7.776c-1.407,4.948-2.427,7.776-2.427,7.776Zm-20,0c.446,0,.887-.015,1.328-.055-.441.04-.882.055.772.055Z" transform="translate(-9293.11 -20605.887)" fill="#001c3d"/>
    <path id="Path-2" data-name="Path" d="M19.181,12.631S17.507,22.794,15.773,32c-4.953.054-9.906.094-14.8.134C-1.509,18.193,1.181,7.276,4.376,0,8.4,9.183,14.485,11.977,19.181,12.631Z" transform="translate(-9236.156 -20637.895)" fill="#00c29a"/>
    <path id="Path-3" data-name="Path" d="M80.907,137.031a131.713,131.713,0,0,0-31.933-12.16l-3.646-.629s-2.714-6.172-2.729-6.191c-1.273-3.234-3.383-7.529-4.037-10.937a41.4,41.4,0,0,1-.575-12.229C38.7,88.822,41.524,76,46.626,71.956c4.255-3.348,6.008-2.645,8.42-7.88,1.734-3.735,2.437-10.01-.931-12.764-3.735-3.021-5.33-1.486-9.8-1.02-16.976,1.683-26.68-10.536-32.921-24.658a27,27,0,0,0-3.641-6.667C5.9,16.718,3.326,16.213,1.221,14.4a3,3,0,0,1-1.08-3.17,3.963,3.963,0,0,1,1.08-1.367A34.831,34.831,0,0,1,15.174,2.008,51.018,51.018,0,0,1,40.435,1.22,40.349,40.349,0,0,1,62.263,17.932c7.276,11.546,9.03,23.523,4.953,35.46-4.176,12.224-8.836,26.584-.991,38.347C76.672,107.366,82.968,118.357,80.907,137.031Z" transform="translate(-9216.472 -20725.621)" fill="#00c29a"/>
    <path id="Shape-2" data-name="Shape" d="M10.789,21.066a11.379,11.379,0,0,1-1.288-.08A10.827,10.827,0,0,1,.045,9.257,10.218,10.218,0,0,1,10.244,0h.015a11.287,11.287,0,0,1,1.288.079A10.828,10.828,0,0,1,21,11.808a10.218,10.218,0,0,1-10.173,9.258Z" transform="translate(-9243.272 -20685.426)" fill="#f2aa18" opacity="0.3"/>
    <g id="Group" transform="translate(-9414.561 -20767.602)">
      <path id="Path-4" data-name="Path" d="M125.3,0c-4.953.054-9.906.094-14.8.134C73.173.327,37.446-.193,0,6.523" transform="translate(68.892 161.702)" fill="none" stroke="#000" stroke-miterlimit="10" stroke-width="2"/>
      <path id="Path-5" data-name="Path" d="M0,0C1.422.312,2.828.639,4.235.991A140.672,140.672,0,0,1,20.4,5.944a120.013,120.013,0,0,1,15.766,7.2.03.03,0,0,1,.04,0A103.372,103.372,0,0,1,58.155,29.085,85.838,85.838,0,0,1,72.306,47.159a.218.218,0,0,1,.074.1A119.083,119.083,0,0,1,80.568,63.8a163.6,163.6,0,0,1,11.338,55.67c.54,18.272-1.867,36.465-7.563,52.3q-1.422,3.992-3.16,7.776c-.074.193-.173.367-.248.56" transform="translate(242.827 165.858)" fill="none" stroke="#000" stroke-miterlimit="10" stroke-width="2"/>
      <path id="Path-6" data-name="Path" d="M.417.493V.434A1.625,1.625,0,0,0,.491.181" transform="translate(263.932 345.229)" fill="none" stroke="#000" stroke-miterlimit="10" stroke-width="2"/>
      <path id="Path-7" data-name="Path" d="M0,0S10.778,5.235,17.861,21.581c3.561,8.217,6.2,19.268,6.048,33.88v.04a150.927,150.927,0,0,1-4.161,32.473v.069" transform="translate(251.277 234.335)" fill="none" stroke="#000" stroke-miterlimit="10" stroke-width="2"/>
      <path id="Path-8" data-name="Path" d="M0,26.828c1.9-7.2,4.953-14.617,7.246-17.737C10.852,4.236,15.558-.39,21.611.026c3.888.253,7.707,2.4,7.88,6.662.163,4.621-4.71,9.753-6.276,14.1a27.275,27.275,0,0,0-1.382,13.478c.783,4.408,4.74,7.851,9.01,8.8a6.325,6.325,0,0,0,4.79-.649c4.18-2.645,3.3-9.688,3.135-13.844-.2-4.661-.193-9.931,3.784-13.121,2.922-2.343,7.355-.788,9.51,1.788C55.807,21.7,55.99,28.409,56.178,33.9c.56,16.534-2.378,32.384-12.006,46.3-4.953,7.187-10.055,13.636-12.061,22.453-6.241,27.4-6.934,46.4-10.521,74.223" transform="translate(47.301)" fill="none" stroke="#000" stroke-miterlimit="10" stroke-width="2"/>
      <path id="Path-9" data-name="Path" d="M144.5,289.274c-19.139-54.4-10.075-113.824-10.075-113.824l-102.81,3.26A30.645,30.645,0,0,1,.172,144.84L25.354,53.008,30.8,33.419a28.387,28.387,0,0,0-1.129-18.644L27.107,8.653S22.456-.832,32.883.059a36.475,36.475,0,0,1,15.874,5.87c3.7,2.353,9.332,6.9,7.588,11.952-2.061,5.944-10.139,7.43-14.884,4.086" transform="translate(0 56.879)" fill="none" stroke="#000" stroke-miterlimit="10" stroke-width="2"/>
      <path id="Path-10" data-name="Path" d="M1.566,15.533S-7.241-4.279,16.92.847,46.867,32.374,28.427,29.4" transform="translate(27.85 41.355)" fill="none" stroke="#000" stroke-miterlimit="10" stroke-width="2"/>
      <path id="Path-11" data-name="Path" d="M2.53,14.475S-5.2,5.089,6.354.606s53.494,16.687,26.589,37.54" transform="translate(34.85 26.593)" fill="none" stroke="#000" stroke-miterlimit="10" stroke-width="2"/>
      <path id="Path-12" data-name="Path" d="M25.991,101.12a17.108,17.108,0,0,1-6.89.446C14.386,100.912,8.3,98.1,4.3,88.935a37.148,37.148,0,0,1-2.021-5.8C.235,75.557-.657,65.006.537,50.3c.233-2.828.58-5.7,1.06-8.569A77.294,77.294,0,0,1,5.426,27.1a.07.07,0,0,1,.04-.059C9.834,15.49,17.516,5.742,30.434,1.992a50.854,50.854,0,0,1,29.59.426A40.349,40.349,0,0,1,81.853,19.13c7.276,11.546,9.03,23.523,4.953,35.46-4.176,12.224-8.836,26.584-.991,38.347,10.431,15.652,16.727,26.643,14.706,45.316" transform="translate(178.528 40.77)" fill="none" stroke="#000" stroke-miterlimit="10" stroke-width="2"/>
      <path id="Path-13" data-name="Path" d="M1.331,38.506C-2.464,20.313,2.658,7.048,6.68,0" transform="translate(174.099 123.91)" fill="none" stroke="#000" stroke-miterlimit="10" stroke-width="2"/>
      <path id="Path-14" data-name="Path" d="M0,2.711S8.306-5.972,17.93,7.743" transform="translate(180.125 79.766)" fill="none" stroke="#000" stroke-miterlimit="10" stroke-width="2"/>
    </g>
    <path id="Path-15" data-name="Path" d="M4.413,17.1c3.512,2.273,8.267.862,10.852-2.64C18.073,10.66,19.2,5.589,19.807.987c.04-.332.084-.659.114-.991C15.637,6.731,7.321,8.346,0,9.049a13.428,13.428,0,0,0,2.382,6.107A7.643,7.643,0,0,0,4.413,17.1Z" transform="translate(-9217.698 -20658.504)" fill="none" stroke="#000" stroke-linecap="round" stroke-linejoin="round" stroke-miterlimit="10" stroke-width="2"/>
    <g id="Group-2" data-name="Group" transform="translate(-9249.661 -20707.723)">
      <path id="Path-16" data-name="Path" d="M.49.49.47.47" transform="translate(74.029 96.134)" fill="none" stroke="#000" stroke-miterlimit="10" stroke-width="2"/>
      <path id="Path-17" data-name="Path" d="M0,2.442s2.823-4.572,12.472-1.2,9.763,8.871,9.763,8.871" transform="translate(41.844 17.488)" fill="none" stroke="#000" stroke-miterlimit="10" stroke-width="2"/>
      <path id="Path-18" data-name="Path" d="M0,1S4.458-1.252,7.95,1" transform="translate(19.911 30.295)" fill="none" stroke="#000" stroke-miterlimit="10" stroke-width="2"/>
      <path id="Path-19" data-name="Path" d="M0,1S4.458-1.252,7.925,1" transform="translate(43.934 32.371)" fill="none" stroke="#000" stroke-miterlimit="10" stroke-width="2"/>
      <path id="Path-20" data-name="Path" d="M14.092,82.458s-1.674,10.164-3.408,19.367c-.253,1.308-.5,2.6-.713,3.868-1.134,6.2-2.041,11.7-2.08,13.374C7.6,132.936,20.714,140.935,33.379,140.8c17.772-.193,28.164-16.727,26.489-33.285-1.1-3.021-2.214-6.043-3.309-9.064-1.407-3.873-3.234-7.643-4.027-11.724a39.784,39.784,0,0,1-.228-12.17c.713-6.043,1.887-15.053,6.989-19.094,4.255-3.348,8.7-5.548,11.125-10.783,1.734-3.735,1.654-8.544-1.714-11.3-3.735-3.021-9.644-2.655-14.112-2.214C25.776,34.115,20.982,4.946,13.185.85,6.8-2.523,2,5.045.5,7.854l-.059.119a.119.119,0,0,1-.035.074A8.522,8.522,0,0,0,0,8.874" transform="translate(18.594)" fill="none" stroke="#000" stroke-miterlimit="10" stroke-width="2"/>
      <path id="Path-21" data-name="Path" d="M2.792,0S-.22,9.857.013,11.333s3.745.446,3.745.446" transform="translate(29.156 34.655)" fill="none" stroke="#000" stroke-miterlimit="10" stroke-width="2"/>
      <ellipse id="Oval-2" data-name="Oval" cx="11.803" cy="12.091" rx="11.803" ry="12.091" transform="translate(30.108 36.283) rotate(-44.95)" fill="none" stroke="#000" stroke-miterlimit="10" stroke-width="2"/>
      <ellipse id="Oval-3" data-name="Oval" cx="11.803" cy="12.091" rx="11.803" ry="12.091" transform="translate(0 32.623) rotate(-44.95)" fill="none" stroke="#000" stroke-miterlimit="10" stroke-width="2"/>
    </g>
    <path id="Path-22" data-name="Path" d="M6.32.768,0,0" transform="translate(-9220.873 -20673.445)" fill="none" stroke="#000" stroke-miterlimit="10" stroke-width="2"/>
    <path id="Path-23" data-name="Path" d="M0,.731c3.507-1.644,326.908,0,326.908,0" transform="translate(-9379.711 -20422.176)" fill="none" stroke="#000" stroke-miterlimit="10" stroke-width="2"/>
    <path id="Path-24" data-name="Path" d="M96.225,32.748l.421.04c-.228.04-.5.079-.728.134h-.357l-33.538-.173H58.234L1.887,32.461H1.248a.421.421,0,0,1-.154,0H1.06A6.762,6.762,0,0,1,0,32.386a16.073,16.073,0,0,0,8.237-3.423c.371-.312.753-.609,1.1-.946l.04-.04a2.239,2.239,0,0,0,.228-.213A16.316,16.316,0,0,0,14.419,17.12v-.906A16.345,16.345,0,0,0,1.347.275a.03.03,0,0,0-.04,0C.941.181.52.121.134.062L.961.007a2.754,2.754,0,0,1,.406,0h.654l47.6.248,8.762.04,7.776.04h4.215A16.306,16.306,0,0,1,85.051,16.521a15.354,15.354,0,0,1-.173,2.293,16.311,16.311,0,0,1-15.568,13.9H97.1c-.411.015-.679.015-.872.035Z" transform="translate(-9205.548 -20478)" fill="#fff" stroke="#707070" stroke-width="2"/>
    <path id="Path-25" data-name="Path" d="M33.112,19.694a11.491,11.491,0,0,0,8.163,3.388H13.646c-5.29,0-8.163-1.288-10.258-3.388A11.576,11.576,0,0,1,0,11.531C0,5.2,5.2,0,13.646,0H41.275a11.531,11.531,0,0,0-8.163,19.694Z" transform="translate(-9218.174 -20445.262)" fill="#f2aa18" stroke="#707070" stroke-width="2"/>
    <path id="Path-26" data-name="Path" d="M43,16.43a7.478,7.478,0,0,1-.04.941c-.04.52-.094,1.02-.173,1.521-.04.267-.094.54-.154.807-.114.5-.248,1.04-.4,1.54a14.4,14.4,0,0,1-.619,1.62,5.865,5.865,0,0,1-.267.594c0,.059-.04.1-.079.154-.114.253-.248.5-.381.733-.213.386-.446.768-.693,1.134-.292.446-.619.847-.946,1.253a14.364,14.364,0,0,1-1.04,1.154A13.264,13.264,0,0,1,36.96,29l-.5.4a15.112,15.112,0,0,1-1.773,1.154c-.287.154-.594.312-.9.466a.178.178,0,0,1-.1.035c-.347.173-.693.312-1.04.446s-.693.267-1.055.381-.733.213-1.1.292a17.479,17.479,0,0,1-2.734.4h-.887c.213-.054.426-.074.639-.114a.1.1,0,0,1,.074,0,1.3,1.3,0,0,1-.287-.04.629.629,0,0,1,.193,0H.5A16.246,16.246,0,0,0,10,28.7a14.637,14.637,0,0,0,1.159-1.055,11.214,11.214,0,0,0,.867-.946,7.266,7.266,0,0,0,.575-.728c.114-.139.213-.272.307-.406a6.439,6.439,0,0,0,.5-.773A7.43,7.43,0,0,0,14,23.8a9.723,9.723,0,0,0,.5-1.02c.074-.154.134-.327.233-.5.134-.347.248-.693.362-1.04.159-.5.312-1.02.426-1.535a6.727,6.727,0,0,0,.154-.847.847.847,0,0,0,.04-.213.579.579,0,0,0,.04-.173,5.414,5.414,0,0,1,.074-.56V17.8a11.11,11.11,0,0,0,.1-1.62,4.735,4.735,0,0,0-.04-.748v-.173a4.575,4.575,0,0,0-.059-.734,15.434,15.434,0,0,0-.906-3.907,12.6,12.6,0,0,0-.991-2.174A13.324,13.324,0,0,0,12.66,6.469a5.315,5.315,0,0,0-.406-.52c-.059-.059-.114-.139-.193-.213a7.984,7.984,0,0,0-.847-.946c-.228-.228-.5-.461-.728-.708a7,7,0,0,0-.946-.773c-.327-.233-.54-.4-.827-.594a10.159,10.159,0,0,0-1.347-.827A9.609,9.609,0,0,0,6,1.228,16.811,16.811,0,0,0,4.324.614a2.972,2.972,0,0,0-.6-.154A12.531,12.531,0,0,0,2.11.114C1.838.054,1.57.035,1.283,0h-.04a.223.223,0,0,1-.114,0h.287L16.509.074l10.317.06a14.924,14.924,0,0,1,2.447.213,15.736,15.736,0,0,1,5.909,2.194c.233.134.441.287.654.421a13.413,13.413,0,0,1,1.828,1.446,7.2,7.2,0,0,1,.56.54A16.742,16.742,0,0,1,41.691,10.1a5.889,5.889,0,0,1,.292.753,5.508,5.508,0,0,1,.248.748A16.346,16.346,0,0,1,43,16.43Z" transform="translate(-9136.734 -20477.676)" fill="#f2aa18" stroke="#707070" stroke-width="2"/>
    <g id="Group-3" data-name="Group" transform="translate(-9218.169 -20478.051)">
      <path id="Path-27" data-name="Path" d="M112.174,16.8a7.476,7.476,0,0,1-.04.941c-.04.52-.094,1.02-.173,1.521-.04.267-.094.54-.154.807-.114.5-.248,1.04-.4,1.54a14.4,14.4,0,0,1-.619,1.62,3.467,3.467,0,0,1-.287.594c0,.059-.04.1-.079.154-.114.253-.248.5-.381.733-.213.386-.446.768-.693,1.134-.292.446-.619.847-.946,1.253a14.634,14.634,0,0,1-1.06,1.154,13.265,13.265,0,0,1-1.248,1.119l-.5.4a15.111,15.111,0,0,1-1.773,1.154c-.287.154-.594.312-.9.466a.178.178,0,0,1-.1.035c-.347.173-.693.312-1.04.446s-.693.267-1.055.381-.733.213-1.1.292l-.3.054c-.287.064-.575.119-.867.163a14.682,14.682,0,0,1-1.565.183,7.637,7.637,0,0,1-.961.04h-.079L62.37,32.827l-7.89-.04L1.887,32.52a5.7,5.7,0,0,1-.58-.04c-.441,0-.867-.04-1.308-.074A16.39,16.39,0,0,0,14.419,17.14v-.827A16.345,16.345,0,0,0,1.327.275C.941.2.555.141.154.082A11.283,11.283,0,0,1,1.308.007a2.754,2.754,0,0,1,.406,0h.327L54.633.275,66.521.334h4.215L96,.468a16.8,16.8,0,0,1,2.477.193,16.44,16.44,0,0,1,5.909,2.194c.233.134.441.287.654.421a16.875,16.875,0,0,1,1.828,1.446c.193.173.367.347.56.54a16.742,16.742,0,0,1,3.467,5.156l.292.753a6.618,6.618,0,0,1,.248.748,16.345,16.345,0,0,1,.743,4.884Z" transform="translate(12.264)" fill="none" stroke="#000" stroke-linecap="square" stroke-linejoin="round" stroke-miterlimit="10" stroke-width="2"/>
      <path id="Path-28" data-name="Path" d="M85.016,16.236a14.778,14.778,0,0,1-.079,1.62v.114c-.04.253-.074.5-.114.733a.847.847,0,0,1-.04.213,6.727,6.727,0,0,1-.154.847c-.114.5-.267,1.035-.426,1.535-.114.347-.228.693-.362,1.04-.1.173-.159.347-.233.5a9.723,9.723,0,0,1-.5,1.02,7.43,7.43,0,0,1-.6.991,6.438,6.438,0,0,1-.5.773c-.094.134-.193.267-.307.406a7.266,7.266,0,0,1-.575.728,11.213,11.213,0,0,1-.867.946A15.417,15.417,0,0,1,79.1,28.737a16.246,16.246,0,0,1-9.5,3.754H1.907c-.614,0-1.248-.035-1.887-.094a12.077,12.077,0,0,0,1.233-.213.149.149,0,0,0,.1,0h.035A16.375,16.375,0,0,0,9.63,27.726l.04-.04a16.276,16.276,0,0,0,4.7-10.838v-.639A16.345,16.345,0,0,0,0,.109C.426.054.847.035,1.273.015a.906.906,0,0,1,.327,0,.03.03,0,0,1,.04,0,1.045,1.045,0,0,1,.248,0H68.745A10.146,10.146,0,0,1,70.1.074h.154a.223.223,0,0,0,.114,0h.079l.788.114A12.533,12.533,0,0,1,72.85.535c.193.04.406.094.6.154a16.811,16.811,0,0,1,1.67.611c.461.193.926.426,1.367.659a12.779,12.779,0,0,1,1.347.827c.287.193.56.381.827.594s.634.5.946.773.5.5.728.708c.292.312.58.619.847.946.079.074.134.154.193.213l.406.52A18.689,18.689,0,0,1,83.05,8.524a19.636,19.636,0,0,1,.99,2.176,17.094,17.094,0,0,1,.906,3.908c0,.253.04.5.059.733v.173c.01.223.01.476.01.723Z" transform="translate(12.319 0.275)" fill="none" stroke="#000" stroke-linecap="square" stroke-linejoin="round" stroke-miterlimit="10" stroke-width="2"/>
      <path id="Path-29" data-name="Path" d="M109.634,23.129H13.572a19,19,0,0,1-6.315-.9,11.079,11.079,0,0,1-1.154-.5c-.367-.193-.693-.386-1.02-.58a8.11,8.11,0,0,1-.906-.674c-.287-.253-.555-.5-.807-.753A11.471,11.471,0,0,1,.52,15.011,11.174,11.174,0,0,1,0,11.583a10.1,10.1,0,0,1,.08-1.347,9.669,9.669,0,0,1,.4-1.848A9.411,9.411,0,0,1,1.714,5.713,8.143,8.143,0,0,1,2.829,4.228,10.991,10.991,0,0,1,3.661,3.4,14.706,14.706,0,0,1,13.631.007h95.155a.629.629,0,0,0-.193,0h-.059a.03.03,0,0,0,.04,0,.327.327,0,0,0,.134,0h.1c-.213.04-.426.059-.639.114h-.124a11.555,11.555,0,0,0,.847,22.814c-.471.178-.911.193.743.193Z" transform="translate(0.059 32.731)" fill="none" stroke="#000" stroke-linecap="square" stroke-linejoin="round" stroke-miterlimit="10" stroke-width="2"/>
      <path id="Path-30" data-name="Path" d="M79.152,23.027c-.441.04-.882.054-1.327.054H11.487A11.539,11.539,0,0,1,.5,14.978,11.174,11.174,0,0,1,0,11.551,11.571,11.571,0,0,1,11.532,0H77.825a8.2,8.2,0,0,1,.991.04.535.535,0,0,0,.173,0h.1c-.213.04-.426.059-.639.114h-.114a11.555,11.555,0,0,0,.847,22.814Z" transform="translate(29.768 32.778)" fill="none" stroke="#000" stroke-linecap="square" stroke-linejoin="round" stroke-miterlimit="10" stroke-width="2"/>
      <path id="Path-31" data-name="Path" d="M29.724,11.551A11.531,11.531,0,0,0,41.255,23.082H13.631c-5.275,0-8.163-1.288-10.263-3.388A11.476,11.476,0,0,1,0,11.551C0,5.2,5.181,0,13.631,0H41.255A11.571,11.571,0,0,0,29.724,11.551Z" transform="translate(0 32.778)" fill="none" stroke="#000" stroke-linecap="square" stroke-linejoin="round" stroke-miterlimit="10" stroke-width="2"/>
      <path id="Path-32" data-name="Path" d="M2.1.491H0A10.778,10.778,0,0,0,1.327.436C.887.476.446.491,2.1.491Z" transform="translate(107.593 55.369)" fill="none" stroke="#000" stroke-linecap="square" stroke-linejoin="round" stroke-miterlimit="10" stroke-width="2"/>
      <path id="Path-33" data-name="Path" d="M1.174.491C.793.491.386.431,0,.431H2.1C.634.441.807.491,1.174.491Z" transform="translate(107.593 32.336)" fill="none" stroke="#000" stroke-linecap="square" stroke-linejoin="round" stroke-miterlimit="10" stroke-width="2"/>
    </g>
    <path id="Path-34" data-name="Path" d="M34.73,102.451.345,14.364A11.561,11.561,0,0,1,11.559,0h136.6a13.657,13.657,0,0,1,13.279,10.463l37.644,88.075a11.561,11.561,0,0,1-11.244,14.26H47.97a13.646,13.646,0,0,1-13.24-10.346Z" transform="translate(-9432 -20568.09)" fill="#fff" stroke="#707070" stroke-width="2" opacity="0.54"/>
    <path id="Path-35" data-name="Path" d="M34.73,102.451.345,14.364A11.561,11.561,0,0,1,11.559,0h136.6a13.657,13.657,0,0,1,13.279,10.463l37.644,88.075a11.561,11.561,0,0,1-11.244,14.26H47.97a13.646,13.646,0,0,1-13.24-10.346Z" transform="translate(-9432 -20568.09)" fill="#00c29a" stroke="#707070" stroke-width="2"/>
    <path id="Path-36" data-name="Path" d="M34.73,102.451.345,14.364A11.561,11.561,0,0,1,11.559,0h136.6a13.657,13.657,0,0,1,13.279,10.463l37.644,88.075a11.561,11.561,0,0,1-11.244,14.26H47.97a13.646,13.646,0,0,1-13.24-10.346Z" transform="translate(-9432 -20568.09)" fill="none" stroke="#000" stroke-linecap="square" stroke-linejoin="round" stroke-miterlimit="10" stroke-width="2"/>
    <path id="Path-37" data-name="Path" d="M32.02,94.521.32,13.255A10.664,10.664,0,0,1,10.652,0h126A12.6,12.6,0,0,1,148.9,9.651l34.728,81.235a10.669,10.669,0,0,1-10.372,13.161H44.244A12.6,12.6,0,0,1,32.02,94.521Z" transform="translate(-9424.268 -20563.727)" fill="#00c29a"/>
    <path id="Path-38" data-name="Path" d="M22.378,5.2H4.126A4.309,4.309,0,0,1,.163,2.62,1.922,1.922,0,0,1,0,1.872,1.892,1.892,0,0,1,1.887,0H21.3a4.433,4.433,0,0,0,1.08,5.2Z" transform="translate(-9408.752 -20552.539)" fill="#b2ede0"/>
    <path id="Path-39" data-name="Path" d="M13.352,3.324A1.882,1.882,0,0,1,11.474,5.2H1.534A4.362,4.362,0,0,1,.469,0H9.236A4.309,4.309,0,0,1,13.2,2.561a1.932,1.932,0,0,1,.154.763Z" transform="translate(-9387.906 -20552.539)" fill="#b2ede0"/>
    <path id="Path-40" data-name="Path" d="M8.775,6.933A2.68,2.68,0,0,1,8.6,7.22C7.289,9,4.466,9.167,2.272,7.562a5.944,5.944,0,0,1-.738-.629,4.362,4.362,0,0,1-1.065-5.2A1.684,1.684,0,0,1,.647,1.45C1.94-.338,4.763-.492,6.957,1.1a5.9,5.9,0,0,1,.748.639,4.4,4.4,0,0,1,1.07,5.2Z" transform="translate(-9387.896 -20554.273)" fill="#fff"/>
    <path id="Path-41" data-name="Path" d="M22.106,3.324A1.887,1.887,0,0,1,20.219,5.2H1.055A4.335,4.335,0,0,0,0,0H18a4.309,4.309,0,0,1,3.963,2.576,1.922,1.922,0,0,1,.143.748Z" transform="translate(-9392.069 -20541.074)" fill="#b2ede0"/>
    <path id="Path-42" data-name="Path" d="M13.141,5.2H4.126A4.309,4.309,0,0,1,.163,2.635,1.981,1.981,0,0,1,0,1.877,1.867,1.867,0,0,1,1.872,0H12.086a4.328,4.328,0,0,1,1.055,5.2Z" transform="translate(-9404.154 -20541.063)" fill="#d7e8f0"/>
    <path id="Path-43" data-name="Path" d="M8.773,6.927a1.214,1.214,0,0,1-.163.287c-1.293,1.793-4.121,1.947-6.315.357a6.791,6.791,0,0,1-.768-.644,4.4,4.4,0,0,1-1.065-5.2A1.486,1.486,0,0,1,.64,1.449C1.943-.334,4.766-.5,6.965,1.1a6.37,6.37,0,0,1,.733.629,4.308,4.308,0,0,1,1.075,5.2Z" transform="translate(-9399.787 -20542.793)" fill="#fff"/>
    <path id="Path-44" data-name="Path" d="M15.6,5.2H4.126A4.324,4.324,0,0,1,.163,2.635,1.922,1.922,0,0,1,0,1.887,1.892,1.892,0,0,1,1.887,0H14.508A4.454,4.454,0,0,0,15.6,5.2Z" transform="translate(-9400.227 -20529.676)" fill="#b2ede0"/>
    <path id="Path-45" data-name="Path" d="M20.122,3.338A1.872,1.872,0,0,1,18.245,5.2H1.528A4.419,4.419,0,0,1,.458,0H16.016a4.294,4.294,0,0,1,3.938,2.576A1.932,1.932,0,0,1,20.122,3.338Z" transform="translate(-9386.157 -20529.699)" fill="#d7e8f0"/>
    <path id="Path-46" data-name="Path" d="M8.765,6.927a1.486,1.486,0,0,1-.178.282C7.293,9,4.47,9.156,2.276,7.566a7.336,7.336,0,0,1-.748-.639,4.419,4.419,0,0,1-1.07-5.2,2.219,2.219,0,0,1,.178-.282C1.944-.335,4.767-.493,6.962,1.1a6.934,6.934,0,0,1,.738.629,4.371,4.371,0,0,1,1.065,5.2Z" transform="translate(-9386.157 -20531.398)" fill="#fff"/>
    <path id="Path-47" data-name="Path" d="M15.607,5.2H4.131A4.324,4.324,0,0,1,.168,2.635,1.843,1.843,0,0,1,0,1.887,1.892,1.892,0,0,1,1.887,0H14.513a4.449,4.449,0,0,0,1.1,5.2Z" transform="translate(-9326.063 -20476.012)" fill="#b2ede0"/>
    <path id="Path-48" data-name="Path" d="M47.072,3.338A1.867,1.867,0,0,1,45.2,5.2H1.528A4.419,4.419,0,0,1,.458,0H42.966A4.294,4.294,0,0,1,46.9,2.576a1.932,1.932,0,0,1,.168.763Z" transform="translate(-9311.984 -20476.012)" fill="#b2ede0"/>
    <path id="Path-49" data-name="Path" d="M8.765,6.927a1.486,1.486,0,0,1-.178.282C7.293,9,4.47,9.156,2.276,7.566a6.835,6.835,0,0,1-.748-.639,4.419,4.419,0,0,1-1.07-5.2,2.219,2.219,0,0,1,.178-.282C1.944-.335,4.767-.493,6.962,1.1a6.934,6.934,0,0,1,.738.629,4.369,4.369,0,0,1,1.065,5.2Z" transform="translate(-9311.984 -20477.738)" fill="#fff"/>
    <g id="Group_5287" data-name="Group 5287">
      <path id="Path-50" data-name="Path" d="M88.417,108.67A55.971,55.971,0,0,1,58.3,111.216a35.534,35.534,0,0,1-10.4,6.038,4.469,4.469,0,0,1-.5.163A20.8,20.8,0,1,1,8.018,106.466a35.489,35.489,0,0,1,4.71-49.7,56.1,56.1,0,1,1,75.689,51.9Z" transform="translate(-9345.806 -20909)" fill="#00c29a"/>
      <path id="Path-51" data-name="Path" d="M88.417,108.67A55.971,55.971,0,0,1,58.3,111.216a35.534,35.534,0,0,1-10.4,6.038,4.469,4.469,0,0,1-.5.163A20.8,20.8,0,1,1,8.018,106.466a35.489,35.489,0,0,1,4.71-49.7,56.1,56.1,0,1,1,75.689,51.9Z" transform="translate(-9345.806 -20909)" fill="none" stroke="#000" stroke-miterlimit="10" stroke-width="2"/>
      <ellipse id="Oval-4" data-name="Oval" cx="14.51" cy="4.63" rx="14.51" ry="4.63" transform="matrix(0.799, -0.602, 0.602, 0.799, -9316.504, -20881.113)" fill="#fff" opacity="0.5"/>
      <g id="Group_5109" data-name="Group 5109" transform="translate(-9283.34 -20888.996)">
        <path id="Path-52" data-name="Path" d="M50.487,27.187V43.311a1.957,1.957,0,0,1-1.957,1.957H24.876a1.957,1.957,0,0,1-1.957-1.957v-15.6a4.6,4.6,0,0,0-1.333-3.227,4.546,4.546,0,0,0-7.76,3.227,2.776,2.776,0,0,1-2.776,2.721H9.488A4.289,4.289,0,0,1,5.2,26.147V5.2A5.2,5.2,0,0,0,0,0H26.8a5.2,5.2,0,0,1,5.233,5.2V18.386a3.54,3.54,0,0,0,.146,1.062,4.227,4.227,0,0,0,4.081,3.158h9.675a4.56,4.56,0,0,1,4.553,4.581Z" fill="#fff"/>
        <g id="Group-4" data-name="Group" transform="translate(11.084 8.219)">
          <path id="Path-53" data-name="Path" d="M0,.49H14.173" transform="translate(0 -0.49)" fill="#fff" stroke="#00c29a" stroke-miterlimit="10" stroke-width="2"/>
          <path id="Path-54" data-name="Path" d="M0,.49H14.173" transform="translate(0 4.764)" fill="#fff" stroke="#00c29a" stroke-miterlimit="10" stroke-width="2"/>
          <path id="Path-55" data-name="Path" d="M0,.49H14.173" transform="translate(0 10.025)" fill="#fff" stroke="#00c29a" stroke-miterlimit="10" stroke-width="2"/>
          <path id="Path-56" data-name="Path" d="M0,.49H14.18" transform="translate(18.851 20.256)" fill="#fff" stroke="#00c29a" stroke-miterlimit="10" stroke-width="2"/>
          <path id="Path-57" data-name="Path" d="M0,.49H14.18" transform="translate(18.851 25.51)" fill="#fff" stroke="#00c29a" stroke-miterlimit="10" stroke-width="2"/>
          <path id="Path-58" data-name="Path" d="M0,.49H14.18" transform="translate(18.851 30.764)" fill="#fff" stroke="#00c29a" stroke-miterlimit="10" stroke-width="2"/>
        </g>
      </g>
      <path id="Icon_awesome-globe-africa" data-name="Icon awesome-globe-africa" d="M15.247.563A15.247,15.247,0,1,0,30.494,15.81,15.247,15.247,0,0,0,15.247.563Zm9.837,13.249v.426a.953.953,0,0,1-.527.852l-.946.473a.952.952,0,0,1-.955-.06l-1.12-.746a.954.954,0,0,0-.83-.111l-.163.054a.952.952,0,0,0-.491,1.432l.814,1.221a.952.952,0,0,0,.792.424h.5a.953.953,0,0,1,.953.953v.7A.954.954,0,0,1,22.92,20l-1.152,1.536a.957.957,0,0,0-.174.4l-.264,1.4a.955.955,0,0,1-.293.526A9.813,9.813,0,0,0,19.5,25.657l-.8,1.2a1.706,1.706,0,0,1-2.946-.183,4.851,4.851,0,0,1-.512-2.17V22.665a.953.953,0,0,0-.953-.953H12.7a3.359,3.359,0,0,1-3.359-3.359v-.864A3.36,3.36,0,0,1,10.688,14.8l1.7-1.272a3.361,3.361,0,0,1,2.015-.672h.055a3.352,3.352,0,0,1,1.5.355l.9.452a.952.952,0,0,0,.727.052l2.909-.97a.953.953,0,0,0-.3-1.857h-.62a.953.953,0,0,1-.674-.279l-.425-.425A.953.953,0,0,0,17.8,9.9H12.265a.953.953,0,0,1-.953-.953V8.683a.954.954,0,0,1,.722-.925l.888-.222a.955.955,0,0,0,.562-.4l.5-.745a.952.952,0,0,1,.792-.424h1.488a.953.953,0,0,0,.953-.953V3.685a12.313,12.313,0,0,1,9.955,9.173H26.037a.953.953,0,0,0-.953.954Z" transform="translate(-9294.671 -20841.328)" fill="#fff"/>
      <path id="Icon_awesome-hands-helping" data-name="Icon awesome-hands-helping" d="M34.571,13.6H23.8v3.967a5.1,5.1,0,1,1-10.2,0V8.954L9,11.717A4.524,4.524,0,0,0,6.8,15.6v3.35L1.133,22.223a2.262,2.262,0,0,0-.829,3.1l5.667,9.819a2.268,2.268,0,0,0,3.1.829L16.4,31.742H26.07A4.538,4.538,0,0,0,30.6,27.2h1.133A2.265,2.265,0,0,0,34,24.937V20.4h.567a1.7,1.7,0,0,0,1.7-1.7V15.3a1.7,1.7,0,0,0-1.7-1.7Zm10.463-2.65L39.367,1.133A2.268,2.268,0,0,0,36.271.3L28.946,4.534h-7.24a4.568,4.568,0,0,0-2.4.687L16.931,6.7a2.252,2.252,0,0,0-1.063,1.92v8.947a2.834,2.834,0,1,0,5.667,0V11.335H34.571A3.97,3.97,0,0,1,38.538,15.3v2.019L44.2,14.046a2.269,2.269,0,0,0,.829-3.1Z" transform="matrix(0.94, -0.342, 0.342, 0.94, -9333.513, -20862.609)" fill="#fff"/>
      <g id="Group_5286" data-name="Group 5286" transform="translate(-9328.597 -20818.98)">
        <path id="Path-59" data-name="Path" d="M26.464,15.846a3.231,3.231,0,0,1-1.083,2.57l-8.5,7.615a3.263,3.263,0,0,1-4.623-.258L.836,13.024A3.275,3.275,0,0,1,1.088,8.4L9.591.8a3.37,3.37,0,0,1,4.623.252l11.419,12.74a3.206,3.206,0,0,1,.831,2.053Z" fill="#fff"/>
        <path id="Path-60" data-name="Path" d="M11.237,13.084.794,11.824A.561.561,0,0,1,.3,11.283L0,.575A.561.561,0,0,1,.976.185L11.728,12.152a.561.561,0,0,1-.491.932Z" transform="translate(12.047 2.371)" fill="#00c29a"/>
      </g>
    </g>
  </g>
</svg>
