<svg xmlns="http://www.w3.org/2000/svg" width="335.009" height="312.61" viewBox="0 0 335.009 312.61">
  <g id="Searchng_User" data-name="Searchng User" transform="translate(-5.002 -14.688)">
    <path id="Path_2456" data-name="Path 2456" d="M121.959,153.3a8.1,8.1,0,0,1,3.15,3.937,11.269,11.269,0,0,1,.509,1.617,12.394,12.394,0,0,1-.116,6.111,6.943,6.943,0,0,1-5.936,5.527c.93,5.806,1.8,9.656,1.993,10.577.906,3.892.836,2.923.714,3.869l-.479.389-.609-.075-.394-.485c0-.124-1.228-3.651-2.368-8.678-1.617-7.118-1.443-6.663-1.255-7.134a1.207,1.207,0,0,1,.529-.524h0c.5-.186,1.109-.151,2.247-.509a3.581,3.581,0,0,0,1.992-1.367,9.183,9.183,0,0,0,.784-8.237,5.3,5.3,0,0,0-2.634-3.064c-1.409-.783-.2-1.525-1.2-6.891-3.547-18.263-23.822-18.763-32.05-7.823h0l-.526.323-.578-.11h-.01l-.313-.5c.125-.715.083-.578.176-.721v-.006C95.585,124.15,121.771,128.708,121.959,153.3Z" transform="translate(12.481 17.998)" fill-rule="evenodd"/>
    <path id="Path_2457" data-name="Path 2457" d="M94.979,145.451a3.722,3.722,0,0,1,2.643,1.01,2.521,2.521,0,0,1,.849,1.3c0,.008-.109.524-.109.533-1.771.176-.753.124-1.776-.051a4.464,4.464,0,0,0-.545-.076l-.027-.007a4.19,4.19,0,0,0-1.874.014l-.032.015h0a2.4,2.4,0,0,0-.937.6c-.144.2-.283.231-.948.65-.125.1.045,0-1.092.5-.5-1.155-.444-1-.456-1.122a2.559,2.559,0,0,1,.359-1.533,4.826,4.826,0,0,1,2.228-1.563h0a5.242,5.242,0,0,1,1.715-.271Z" transform="translate(13.297 20.297)" fill-rule="evenodd"/>
    <ellipse id="Ellipse_603" data-name="Ellipse 603" cx="2.658" cy="2.346" rx="2.658" ry="2.346" transform="translate(105.874 178.009) rotate(-87.504)"/>
    <path id="Path_2458" data-name="Path 2458" d="M95.57,172.112l-.641-.166h0c-.151-.1-.63-.329-.8-.407h0c-.1-.047-1.04-.493-1.147-.541h0a9.065,9.065,0,0,1-.809-.429h0a5.82,5.82,0,0,0-1.628-.624h0a2.311,2.311,0,0,0-.4-.034H89.92v.006h0l-.017.015h0l-.006.01h0v.01h-.006a.81.81,0,0,0-.04.079h0l-.012.009-.023.031-.01.01-.012.021-.012.01h0l-.034.031-.012.021-.051.061h0a1.965,1.965,0,0,0-.221.31h0a3.484,3.484,0,0,0-.288.493v.015l-.817.784c-.878-.914-.78-.67-.985-1.57h0a4.975,4.975,0,0,1-.029-.672h0a2.211,2.211,0,0,1,.157-.685,3.028,3.028,0,0,1,1.115-1.277,3.235,3.235,0,0,1,1.941-.442,8.167,8.167,0,0,1,3.913,1.57h0a8.917,8.917,0,0,1,1.695,1.9l.2.626-.166.526h0Z" transform="translate(12.782 23.669)" fill-rule="evenodd"/>
    <path id="Path_2459" data-name="Path 2459" d="M86.6,175.756c.347.295,1.281.946,1.408,1.025a11.643,11.643,0,0,0,6.426,2.4,12.039,12.039,0,0,0,3.473-.312c.894-.2,1.787-.7,2.434.57a52.457,52.457,0,0,1,2.541,7.024c.415,1.271.347.8.337,1.648l-.386.447h-.012l-.59.006c-.578-.5-.355-.092-1.66-2.6-.061-.1-1.493-3.022-2.171-4.539a13.925,13.925,0,0,1-2.991.375,14.228,14.228,0,0,1-8.087-2.328,8.433,8.433,0,0,1-2.52-2.51v-.01a12.78,12.78,0,0,1-.87-1.539h0l-.074-.632.286-.471h.012l.546-.088C85.688,174.76,84.689,174.128,86.6,175.756Z" transform="translate(12.241 24.764)" fill-rule="evenodd"/>
    <path id="Path_2460" data-name="Path 2460" d="M90.211,180.835c-2.049-.738-4.766-1.533-5.335-3.627a46.066,46.066,0,0,1-1.051-4.582,24.048,24.048,0,0,1-.208-6.1c.031-.223-.061-.79.131-.665,1.992,1.34.911,4.709,6.2,14.8" transform="translate(12.187 23.463)" fill-rule="evenodd"/>
    <path id="Path_2461" data-name="Path 2461" d="M87.894,179.774a7.667,7.667,0,0,0,3.652.712c-.665-1.624-2.516-6.2-.779-5.947.556.089.973.66,1.263,1.088.76,1.124,1.04,2.819,2.111,3.716.954.809,3.388-.31,4.341-.693.628-.254,2.195-.578,2.412-1.379.231-.879-.518-2.035-.841-2.8-.7-1.67-1.45-3.35-2.241-4.989a8.257,8.257,0,0,0-1.733-2.752c-1.658-1.471-2.831-.6-3.914-1.32-.677-.462-1-1.252-.035-1.642a4.761,4.761,0,0,1,2.657.031,7.379,7.379,0,0,1,2.439.831c2.225,1.365,3.35,4.043,5.5,7.435,1.607,2.591,1.549,4.779,5.4.523,5.633-6.186,3.441-8.673,5.225-14.745.116-.378.39-1.516.985-1.378.932.231,1.213,1.623,1.311,2.4a22.619,22.619,0,0,1-.144,7.594,15.711,15.711,0,0,1-2.747,6.363c-1.617,2.016-5.581,6.048-9.841,7.809-.937.386-4.221,1.855-4.991,2.051-5.892,1.516-10.869-.891-11.648-2.626-.146-.347.008-.682.417-.658a4.381,4.381,0,0,1,1.25.39" transform="translate(12.607 22.005)" fill-rule="evenodd"/>
    <path id="Path_2462" data-name="Path 2462" d="M58.9,144.952c.5.543.347.1,1.243,2.853C67.3,172.04,55.231,189.29,57.5,225.494c.843,11.157,2.861,20.616,8.681,30.036A47.84,47.84,0,0,0,84.15,272.014c.606.027,16.77,10.962,40.879,2.773h0l.622.032.422.449c0,.016-.031.605-.032.621l-.449.427a56.758,56.758,0,0,1-14.9,3.4A50.051,50.051,0,0,1,61.271,252.08c-7.953-16.013-7.542-39.3-5.174-57.006,1.461-12.468,5.907-30.448,3.1-43.764a44.152,44.152,0,0,0-1.379-5.372h0l.049-.61.448-.407Z" transform="translate(7.698 20.215)" fill="#010101" fill-rule="evenodd"/>
    <path id="Path_2463" data-name="Path 2463" d="M65.441,143.4l.493.415c1.478,2.017,1.706,3.552,2.357,6.735a33.83,33.83,0,0,1,.623,6.123,24.511,24.511,0,0,1-.422,3.676l-.306.566-.537.222h0l-.515-.267-.261-.593h-.006c-.066-.828-.455-3.581-.623-5.493h0c-.436-4.976-1.386-6.838-1.651-9.019-.006-.046-.143-1.342-.152-1.386,0-.009.106-.632.107-.64l.363-.384h.012Z" transform="translate(9.226 19.972)" fill="#010101" fill-rule="evenodd"/>
    <path id="Path_2464" data-name="Path 2464" d="M73.513,142.608a2.67,2.67,0,0,1,.906,1.082,8.609,8.609,0,0,1,.854,1.768,33.977,33.977,0,0,1,1.022,6.363,17.668,17.668,0,0,1-.379,5.88c-.1.549-.432,1.491-.438,1.617l-.374.527-.556.162h0l-.482-.325-.191-.62h0c0-1.436-.139-6.2-.166-6.825A34.151,34.151,0,0,0,72.742,146c-.089-.513-.245-2.346-.24-2.433h0l.116-.639.363-.378h.01Z" transform="translate(10.478 19.847)" fill="#010101" fill-rule="evenodd"/>
    <path id="Path_2465" data-name="Path 2465" d="M81.6,145.554c.415.6.419.274,1.027,4.159a87.244,87.244,0,0,1,.31,14.885,62.13,62.13,0,0,0,.489,11.975c2.763,15.942,14.409,33.409,21.025,52.029a1.848,1.848,0,0,1,.181,1.231l-.445.423h0l-.61-.031c-.571-.593-.251-.045-1.237-2.4-6.968-15.583-18.09-34.1-21.187-49.252-2.163-11.111.315-20.13-.61-30.96-.187-1.534-.2-1.111-.014-1.869l.5-.334Z" transform="translate(11.678 20.292)" fill="#010101" fill-rule="evenodd"/>
    <path id="Path_2466" data-name="Path 2466" d="M108.94,207.982l.454.338c0,.008-.014.56-.015.57-1.525,1.964-4.657,2.924-8.163,4.967h0a5.635,5.635,0,0,1-2.168.8c-.245.067-.009.087-1.292-.179.265-1.285.189-1.056.347-1.261a4.889,4.889,0,0,1,1.818-1.629c.006-.134,4.492-2.332,5.172-2.657a21.456,21.456,0,0,1,2.094-.686,3.542,3.542,0,0,1,1.752-.262Z" transform="translate(14.398 30.001)" fill="#010101" fill-rule="evenodd"/>
    <path id="Path_2467" data-name="Path 2467" d="M17.89,165.039h.01l.4.448c-.035,1.014.126.1-.988,2.874C12.994,178.776,10.445,191.35,9,202.712c-.817,7.224-1.207,13.552-1.341,18.151a54.232,54.232,0,0,0,1.583,16.366,58.14,58.14,0,0,0,2.034,6.093,36.9,36.9,0,0,0,17.5,18.657,35.878,35.878,0,0,0,15.711,3.5,48.537,48.537,0,0,0,17.939-3.731c1.084-.434,4.4-1.937,4.54-2.064l.619-.047c.009.007.47.39.477.4l.049.615c-.536.649.018.32-3.833,2.217a53.7,53.7,0,0,1-12.91,4.191,45.8,45.8,0,0,1-8.956.716c-.706,0-1.4-.067-1.865-.087a37.113,37.113,0,0,1-6.305-1.01,36.617,36.617,0,0,1-6.061-2.116,37.476,37.476,0,0,1-11.668-8.5A37.022,37.022,0,0,1,9.44,245.674C4.214,233.985,4.653,224,5.561,211.238c1.427-16.654,3.623-30.767,11.268-45.82h0l.462-.4Z" transform="translate(0 23.335)" fill="#010101" fill-rule="evenodd"/>
    <path id="Path_2468" data-name="Path 2468" d="M38.182,170.138l.509.278.214.578c0,.173-.029,2.166.054,3.648h0c0,.819.116,2.629.135,3a101.593,101.593,0,0,0,1.365,13.382c1.271,8.463,5.291,20.112,8.494,27.973,2.878,7.063,2.5,5.472,2.555,6.573l-.393.472c-.008.01-.606.031-.613.031-.635-.539-.347-.162-1.311-1.93-.671-1.29-2.63-4.934-4.223-8.71A109.958,109.958,0,0,1,37.46,188.8c-1.691-11.232-.2-16.866-.15-17.933l.3-.541.551-.188Z" transform="translate(4.913 24.129)" fill="#010101" fill-rule="evenodd"/>
    <path id="Path_2469" data-name="Path 2469" d="M54.669,207.242l.432.338c0,.008-.039.538-.039.546l-.434.556a11.835,11.835,0,0,1-2.657,1.673c-.133-.006-.961.454-3.7,1.457h0a2.352,2.352,0,0,1-.819.225c-.116.013-.513.021-.6.017-.761-.047-.4.059-1.632-.519.578-1.24.36-.9.924-1.439a3.034,3.034,0,0,1,1.208-.73c.238.01,4.321-1.888,5.776-2.032a3.6,3.6,0,0,1,1.541-.092Z" transform="translate(6.244 29.882)" fill="#010101" fill-rule="evenodd"/>
    <ellipse id="Ellipse_604" data-name="Ellipse 604" cx="2.925" cy="3.191" rx="2.925" ry="3.191" transform="translate(251.873 160.237) rotate(-4.024)"/>
    <path id="Path_2470" data-name="Path 2470" d="M223.49,133.042h0a6.815,6.815,0,0,1,.943.462c.124.081.013-.02.526.539l.061.551h0l-.4.377-.658.1a4.9,4.9,0,0,0-.729-.027,9.356,9.356,0,0,0-1.664.215h-.007a5.7,5.7,0,0,0-1.691.47,6.664,6.664,0,0,0-1.942,1.341h0a3.2,3.2,0,0,1-.648.578h0a3.646,3.646,0,0,1-2.025.9l-.282-1.1a5.585,5.585,0,0,1,.408-1.318h0a2.861,2.861,0,0,1,.722-.932h0a9.389,9.389,0,0,1,2.526-1.774,8.944,8.944,0,0,1,2.647-.773,5.53,5.53,0,0,1,2.209.382Z" transform="translate(32.593 18.312)" fill="#010101" fill-rule="evenodd"/>
    <path id="Path_2471" data-name="Path 2471" d="M222.271,159.744l.421.38.116.645a9.422,9.422,0,0,1-.749,2.649c-.067.125.163-.325-.314.625h0a13.389,13.389,0,0,1-4.859,4.505,8.639,8.639,0,0,1-2.093.887,5.966,5.966,0,0,1-1.807.039c-.436-.061-.161.087-1.212-.751,1.01-1.28.256-.56,2.219-1.707h0a11.735,11.735,0,0,0,2.965-1.617h0a14.235,14.235,0,0,0,2.686-2.763h0c.171-.2.693-.854,1-1.318h0a8.65,8.65,0,0,0,.608-1.006h0l.452-.469.558-.088Z" transform="translate(32.096 22.516)" fill="#010101" fill-rule="evenodd"/>
    <path id="Path_2472" data-name="Path 2472" d="M103.2,35.64l.5.3c.357,1.059.1-.365.155,5.014.055,5.589.034,5.314-.291,5.814-1.082,1.149-1.705-.231-4.294.586a4.61,4.61,0,0,0-2.227,1.525,4,4,0,0,0-.783,2.941l.01.029v.028c.008.025.032.124.055.189a2.761,2.761,0,0,0,1.233,1.386c1.717,1,4.845.452,5.834.716,1.085.485.727,1.084,1.188,2.944a8.682,8.682,0,0,0,2.92,5.029h0c1.964,1.557,1.942-.634,1.632,7.471-.073,2.262.006,1.762-.306,2.517l-.549.254h0c-1-.419-.786.283-1.227-7.764-2.31-1.074-4.281-3.364-5.134-7.509h0c-.046-.231-.062-.311-.083-.418a10.92,10.92,0,0,1-5.5-.944A5.623,5.623,0,0,1,94.11,53.5a4.757,4.757,0,0,1-.5-2.429,7.092,7.092,0,0,1,7.653-6.6,54.386,54.386,0,0,1,.608-5.759c.469-2.793.379-2.294.76-2.91l.556-.169Z" transform="translate(13.753 3.252)" fill="#010101" fill-rule="evenodd"/>
    <path id="Path_2473" data-name="Path 2473" d="M123.31,36.394l.528.239.262.563c.025.775.561,5.354.624,7.924a8.97,8.97,0,0,1,4.043.91,5.5,5.5,0,0,1,2.74,4.906A6.532,6.532,0,0,1,131.418,52c-.647,3.7-3.786,4.992-7.56,5.054-.231,0-.128-.076-.253.418a10.06,10.06,0,0,1-4.3,6.425c-.181.116-.058-.3-.3,3.158-.24,3.488-.038,2.61-.407,3.466l-.549.251h-.01l-.555-.231c-.374-.809-.231-.219-.366-2.471-.18-5.661-.116-4.148-.147-4.569a1.167,1.167,0,0,1,.421-1.089h0a7.286,7.286,0,0,0,2.358-2.317c.01-.02.087-.147.109-.177a11.089,11.089,0,0,0,1.107-2.657c.44-1.482.109-1.93.857-2.573.679-.415,1.04-.14,2.907-.277a5.2,5.2,0,0,0,3.276-1.155,3.438,3.438,0,0,0,.535-3.842c-.71-1.42-2.31-1.625-3.919-1.684-1.175-.038-1.9.179-2.395-.855a2.993,2.993,0,0,1-.1-1.013,71.508,71.508,0,0,1,.367-8.675l.269-.559.531-.231Z" transform="translate(17.379 3.369)" fill="#010101" fill-rule="evenodd"/>
    <path id="Path_2474" data-name="Path 2474" d="M114.992,52.351c-.08,1.2,0,1.108-.319,1.573a3.21,3.21,0,0,1-1.281,1.2,4.39,4.39,0,0,1-3.922-.273c-.442-.247-.462-.252-.78-.809h0a4.941,4.941,0,0,1-.181-.462l-.116-1.125c2.392-.244,1.935.014,2.785.312.8.26,1.047-.067,1.69-.177C114.282,52.248,113.221,52.284,114.992,52.351Z" transform="translate(16.049 5.839)" fill="#010101" fill-rule="evenodd"/>
    <path id="Path_2475" data-name="Path 2475" d="M112.257,42.318c.618,1.624.4.789.306,4.7a12.543,12.543,0,0,1-.384,3.676,2.338,2.338,0,0,1-.39,1.027l-.462.27h-.01l-.5-.231-.347-.578h0c-.717-2.379-.585-2.968-.432-6.451a3.551,3.551,0,0,1,.338-1.925c.34-.708.116-.425,1.112-1.332C111.5,41.491,112.242,42.3,112.257,42.318Z" transform="translate(16.286 4.158)" fill="#010101" fill-rule="evenodd"/>
    <ellipse id="Ellipse_605" data-name="Ellipse 605" cx="2.127" cy="1.595" rx="2.127" ry="1.595" transform="translate(120.545 49.308) rotate(-87.504)"/>
    <ellipse id="Ellipse_606" data-name="Ellipse 606" cx="2.127" cy="1.595" rx="2.127" ry="1.595" transform="translate(131.7 49.795) rotate(-87.504)"/>
    <path id="Path_2476" data-name="Path 2476" d="M123.213,155.855c5.3-1.223,14.465-8.529,13.25,4.942-.717,7.889-2.974,16.908.055,24.619" transform="translate(18.349 21.435)" fill="none"/>
    <path id="Path_2477" data-name="Path 2477" d="M106.093,59.322a10.67,10.67,0,0,1,1.25.156,7.818,7.818,0,0,0,2.567.675c.773.074,1.155.025,1.612.083,2.228.276,1.647.168,2.446.431l.337.414c0,.013-.148.513-.151.526l-.521.44h0a5.931,5.931,0,0,1-2.972.761,11.835,11.835,0,0,1-3.635-.643A2.67,2.67,0,0,1,105.4,61.01c-.33-.516-.207-.132-.432-1.5C106.487,59.255,105.966,59.313,106.093,59.322Z" transform="translate(15.516 6.926)" fill-rule="evenodd"/>
    <path id="Path_2478" data-name="Path 2478" d="M102.579,48.227a11.459,11.459,0,0,1-.915-11.832c-3.879-.885-7.284-4.589-8.365-8.371,7.74,4.58,22.262-8.025,31.732-2.782,3.758,2.079,5.321,6.759,4.562,10.859,5.483,2.569,3.78,7.56.969,12.921a9.778,9.778,0,0,0-3.421-.515c-.253-3.959.217-7.927-.094-11.89a32.469,32.469,0,0,1-6.437,1.141c-4.928.578-10.407.771-15.235-.564a22.14,22.14,0,0,0-2.619,11.492" transform="translate(13.706 1.436)" fill="#00c29a" fill-rule="evenodd"/>
    <path id="Path_2479" data-name="Path 2479" d="M94.243,27.133c6.393,3.3,16.766-4.9,26.516-4.251,6.774.437,10.459,5.345,10.5,11.449.007,2.019-.514.542,1.334,2.23,3.35,3.376,2.136,7.4.091,11.7-.7,1.365-.915,2.376-2.215,2.211a8.184,8.184,0,0,0-3.178-.486c-1.416-.147-1.287-1.332-1.335-2.567-.085-2.113.137-6.894.067-8.982a30.513,30.513,0,0,1-3.06.484c-11.659,1.386-16.132-.243-16.5-.259-.243-.059-.389-.1-.39-.1a25.251,25.251,0,0,0-1.2,2.865,20.1,20.1,0,0,0-1.155,6.308c-.052,1.2.177.648-.178,1.657l-.545.281h-.01l-.578-.2-.284-.552h0v-.06l-.037-.024A13.159,13.159,0,0,1,99.6,40.483a11.7,11.7,0,0,1,.676-3.175,12.9,12.9,0,0,1-5.849-4.426,13.3,13.3,0,0,1-2.052-3.833,2.06,2.06,0,0,1-.169-1.155A1.305,1.305,0,0,1,93.5,26.886a1.415,1.415,0,0,1,.745.247Zm8.67,9.05a1.1,1.1,0,0,1,0,.745,10.07,10.07,0,0,0-.8,8.177c.075.231.013.2.1-.369a24.46,24.46,0,0,1,1.644-6.083c.794-1.834.827-2.054,1.441-2.268.124,0-.061-.03.347-.027a28.433,28.433,0,0,0,6.089.858A67.972,67.972,0,0,0,124.8,36.111a22.5,22.5,0,0,0,2.218-.578,1.271,1.271,0,0,1,1.367.757c.429,1.3.1,7.443.169,11.14a10.822,10.822,0,0,1,1.513.211c.131-.24.394-.8.52-1.052a14.864,14.864,0,0,0,1.229-3.305c.675-3.014-.172-4.357-1.881-5.448-.818-.471-.824-.333-1.222-.781-.678-1.073.292-.978-.251-4.736A8.366,8.366,0,0,0,125,26.825c-7.836-4.955-20.51,4.956-29.143,3.588a11.3,11.3,0,0,0,5.38,4.777c.949.367,1.329.221,1.676.993Z" transform="translate(13.532 1.266)" fill="#00c29a" fill-rule="evenodd"/>
    <path id="Path_2480" data-name="Path 2480" d="M154.7,84.2s-11.3,11.148-35.516,14.4c-9.856,1.323-19.917-1.694-28.755-6.056C86.172,90.444,81.045,87.9,78,84.18c.975-2.965,3.84-5.681,6.191-7.608,5.71-4.675,12.9-8.487,20.34-9.325a10.351,10.351,0,0,0,5.43,4.726c6.871,3.056,14.2.706,18.569-5.231C138.686,67.9,150.01,75.89,154.7,84.2Z" transform="translate(11.331 8.079)" fill="#001c3d" fill-rule="evenodd"/>
    <path id="Path_2481" data-name="Path 2481" d="M148.99,89.852a69.4,69.4,0,0,1-21.362,8.736c-12.707,2.9-23.032,3.1-41.157-6.519a30.809,30.809,0,0,1-8.989-6.534,1.7,1.7,0,0,1-.608-1.182,8.01,8.01,0,0,1,1.155-2.738,17.314,17.314,0,0,1,1.629-2.208,44.178,44.178,0,0,1,9.622-7.77,38.2,38.2,0,0,1,14.913-5.49,1.451,1.451,0,0,1,1.48.377,7.636,7.636,0,0,0,2.793,3.2c5.372,3.618,12.945,3.649,18.625-2.716h0c1.122-1.34.888-1.439,2.742-1.141,9.368,1.549,20.177,8.569,25.7,17.989a.841.841,0,0,1-.09,1.087l-.01-.01A42.493,42.493,0,0,1,149,89.854ZM127.715,69.873a16.148,16.148,0,0,1-13.195,4.788c-4.922-.553-9.126-3.35-10.55-5.852a37.278,37.278,0,0,0-15.081,6.175,38.2,38.2,0,0,0-7.447,6.354,11.9,11.9,0,0,0-1.766,2.734,21.432,21.432,0,0,0,3.971,3.313A86.983,86.983,0,0,0,97.258,94.2c9.282,3.556,16.261,4.043,22.486,3.18,10.744-1.524,22.59-5.127,31.741-11.409a28.4,28.4,0,0,0,2.35-1.781c-5.008-7.822-15.192-14.728-24.594-16.038a18.968,18.968,0,0,1-1.526,1.721Z" transform="translate(11.156 7.922)" fill="#001c3d" fill-rule="evenodd"/>
    <path id="Path_2482" data-name="Path 2482" d="M140.776,15.313c11.46.913,32.693,3.69,43.6,9.1a34.99,34.99,0,0,1,14.96,13.449,27.317,27.317,0,0,1,2.865,7.162C204.4,54.5,201.3,63.41,195.412,71.24a111.025,111.025,0,0,1-11.647,12.476,167.437,167.437,0,0,1-18.908,15.065c-7.828,5.374-7.681,4.583-5.971,4.505a26.616,26.616,0,0,1,10.087,1.441c4.638,1.58,6.18,5.99,4.39,9.613-4.673,9.45-27.092,7.323-30.984-.571a5.788,5.788,0,0,1-.526-1.516c-16.416,1.465-37.159,5.436-64.481-9.412-7.056-3.878-13.317-8.033-17.929-14.585a43.881,43.881,0,0,1-4.47-7.74A43.187,43.187,0,0,1,53.166,49.9C63.351,17.858,107.359,12.583,140.776,15.313Zm12.614,89.281c.187-.817-.024-.3,3.821-2.788,13.241-8.4,35.01-25.667,40.915-39.355A27.531,27.531,0,0,0,200.6,51.227a25.277,25.277,0,0,0-7.971-18.043c-5.173-4.9-10.195-7.291-17.006-9.382-7.819-2.355-18.973-4.1-26.463-5.016C124.15,15.773,88.441,16.307,68.77,32.1A38.911,38.911,0,0,0,54.848,72.014c3.047,12.2,9.417,19.724,18.765,25.6,19.985,12.422,37.322,14.947,58.854,13,10.756-1,10.846-1.354,11.59-.446a1.228,1.228,0,0,1,.217.881l-.008.186v.027c-.251,5.74,19.048,10.732,26.309,3.541,2.611-3.061,1.588-6.469-1.279-7.914a26.523,26.523,0,0,0-6.989-1.813,33.2,33.2,0,0,0-7.992.315v.014a.819.819,0,0,1-.926-.813Z" transform="translate(7.169)" fill-rule="evenodd"/>
    <path id="Path_2483" data-name="Path 2483" d="M162.039,184.994c-4.646-3.657-10.731-5.71-16.4-7-7.188-1.639-21.642-.475-21.775-.347-5.568,5.261-10.688,10.876-17.361,14.87-2.667,1.6-8.64,2.583-7.187-2.426a17.047,17.047,0,0,0-6.258,4.256c2.888,6.4,5.356,11.56,8.267,17.926,3.023-1.231,5.083-1.625,8.107-2.841,9.153,6.163,15.34,17.567,18.692,27.869,1.3-2.205,2.627-4.463,4.1-6.559-1.706-4.816-3.824-14.484,4-14.9-.4-5.994,1.461-12.753,8.75-11.946-.266-3.066-.259-6.53,1.5-9.211,2.224-3.385,6.96-1.8,9.166.606C157.516,191.939,162.039,184.994,162.039,184.994Z" transform="translate(13.668 25.214)" fill="#00c29a" fill-rule="evenodd"/>
    <path id="Path_2484" data-name="Path 2484" d="M158.632,192.491c-2.25,3.707-2.038,3.945-2.948,3.906-.486-.116-.516-.28-.751-.485a7.571,7.571,0,0,0-3.011-1.755,4.861,4.861,0,0,0-2.4-.152l-.027.009h-.032a3,3,0,0,0-1.251.622l-.017.02h0a8.468,8.468,0,0,0-2.033,5.484c-.156,3.588.367,3.689-.053,4.523a1.146,1.146,0,0,1-1.155.513,6.727,6.727,0,0,0-3.812.633,6.531,6.531,0,0,0-2.956,4.065,12.771,12.771,0,0,0-.42,1.951c-.523,4.111.423,4.434-.724,5.264h0c-1.14.526-5.957-.441-4.745,8.128h0a30.376,30.376,0,0,0,1.346,5.259c.291,1.162-.188.761-3.72,6.831-.507.857-.653,1.349-1.543,1.466a1.3,1.3,0,0,1-1.308-.9,68.585,68.585,0,0,0-6.9-14.969,40.73,40.73,0,0,0-10.73-11.836c-.993.312,1.19-.337-3.966,1.344-2.195.693-3.315,1.188-3.7,1.3a1.3,1.3,0,0,1-1.459-.729C94.65,200.54,91.941,195.3,91.936,194.4a1.258,1.258,0,0,1,.371-.792A16.969,16.969,0,0,1,97.035,190a15.249,15.249,0,0,1,2.329-1.032,1.31,1.31,0,0,1,1.348.82c.18.613.051.646-.087,1.363a1.879,1.879,0,0,0-.04.7v.043a.58.58,0,0,0,.017.075v.022a1.419,1.419,0,0,0,.046.14v.01l.01.012.009.022v.01a.438.438,0,0,1,.03.044v.01h0v.012h0v.012l.031.034h.01v.01h.01v.01l.01.006h.01l.015.016h.01l.01.012.031.017.01.01c.024.014.012,0,.036.018l.01.01.058.024.015.012.062.023.016.012c.049.02.186.06.231.075h.027a.373.373,0,0,1,.068.018h.027l.047.013h.027l.027.007c3.091.134,4.882-1.23,7.393-2.994,6.8-5.014,13.237-12.13,14.456-12.974,1.178-.509,15.055-1.208,21.934.248,5.836,1.292,12.784,3.794,17.376,7.618l.012-.01C163.493,185.242,163.076,185.171,158.632,192.491Zm-3.029,1.481h0c.462-.857,5.294-8.367,5.512-8.616-4.224-3.091-10.425-5.062-15.553-6.112-3.623-.892-11.561-.713-15.282-.571-1.047.057-4.612.245-5.647.372-7.585,7.306-9.439,9.347-15.086,13.356a14.239,14.239,0,0,1-5.873,2.741c-1.519.269-3.5.218-4.621-.85a3.251,3.251,0,0,1-1.026-1.866,14.23,14.23,0,0,0-3.235,2.376c1.774,3.972,6.67,14.394,7.377,15.976,1.167-.462,5.01-1.617,6.148-2.079,1.58-.578,1.326-.712,3.336.758a43.206,43.206,0,0,1,10.277,11.366,71.115,71.115,0,0,1,6.684,13.572c.077-.125,1.553-2.56,2.337-3.677-1.352-4.211-2.587-10.174.259-13.632a6.419,6.419,0,0,1,3.9-2.178,14.534,14.534,0,0,1,2.541-9.182,7.568,7.568,0,0,1,1.7-1.555,8.017,8.017,0,0,1,4.6-1.3c-.178-3.617.521-8.532,3.642-10.3,1.866-1.064,4.942-1.011,8.015,1.391Z" transform="translate(13.494 25.039)" fill="#00c29a" fill-rule="evenodd"/>
    <path id="Path_2485" data-name="Path 2485" d="M137.053,286.412a29.509,29.509,0,0,1-12.592-28.231c-9.812,5.554-20.124,8.411-31.324,5.767,1.733,7.681,3.5,15.364,5.19,23.049,4.368-.154,25.9-.41,39.115-.338" transform="translate(13.681 37.796)" fill="#00c29a" fill-rule="evenodd"/>
    <path id="Path_2486" data-name="Path 2486" d="M124.856,257.066a1.316,1.316,0,0,1,1.085,1.245c-.017.244-.1.945-.116,1.07a27.426,27.426,0,0,0,.728,9.782,29.8,29.8,0,0,0,5.326,11.164h.01a33.5,33.5,0,0,0,5.892,5.755l.429.178c.774,1.826.846,1.318-15.853,1.651-17.28.5-5.336.043-23.8.555a1.3,1.3,0,0,1-1.318-1.021c-5.512-24.784-5.306-22.975-5.168-23.7a1.313,1.313,0,0,1,1.334-.932,36.33,36.33,0,0,0,12.748.721,44.054,44.054,0,0,0,13.532-4.084C124.168,257.349,123.861,257,124.856,257.066Zm-27.4,9.1c-.126-.015-2.3-.291-2.426-.36.894,3.928,3.656,16.1,4.513,20.023,1-.29,29.856.036,35.32.124-.136-.076-1.148-.881-1.764-1.413a27.89,27.89,0,0,1-2.855-2.876,29.549,29.549,0,0,1-7.144-21c-8.013,4.17-16.649,6.623-25.647,5.506Z" transform="translate(13.507 37.622)" fill="#00c29a" fill-rule="evenodd"/>
    <path id="Path_2487" data-name="Path 2487" d="M204.032,177.046a10.8,10.8,0,0,0,1.843,1.08l.729.373h0a11.8,11.8,0,0,0,3.928,1.454,15.234,15.234,0,0,0,4.009.207,24.91,24.91,0,0,0,4.683-.84,8.235,8.235,0,0,0,1.578-.645l.627-.116.508.283h.006l.116.578-.3.563h0a10.906,10.906,0,0,1-1.7,1.219,12.3,12.3,0,0,1-4.824,1.509,17.634,17.634,0,0,1-7.254-.736,13.57,13.57,0,0,1-2.719-1.252h0l-.418-.3a9.176,9.176,0,0,1-1.98-2.31h0l-.155-.618.2-.507h0l.518-.152Z" transform="translate(30.689 25.169)" fill-rule="evenodd"/>
    <path id="Path_2488" data-name="Path 2488" d="M208.869,179c.392.746.239.176.556,2.148a30.93,30.93,0,0,1,.214,6.689,1.576,1.576,0,0,1-.188.9c-.578.829-1.1.612-2.541.677a101.334,101.334,0,0,0-12.361,1.4c-1.955.355-1.155.364-2.16.231l-.4-.433c0-.016.061-.578.064-.6l.462-.432h0a30.288,30.288,0,0,1,10.539-2.554c4.334-.347,3.987-.133,3.994-.3,0-.231.015-1.216.017-1.848h0a19.586,19.586,0,0,1,.247-3.72c.008-.057.243-1.539.245-1.586h0l.291-.563.5-.238h0Z" transform="translate(29.024 25.469)" fill-rule="evenodd"/>
    <path id="Path_2489" data-name="Path 2489" d="M242.427,138.494h0a15.05,15.05,0,0,1,1.427.855c5.87,4.288,5.5,11.445-.423,15.577a16.925,16.925,0,0,1-5.776,2.58,43.109,43.109,0,0,1-2.12,13.8,32.262,32.262,0,0,1-5.224,9.96c.012.146.087,6.116.422,11.328a103.063,103.063,0,0,1,12.635,4.424c1.35.637,1.007.4,1.548,1l-.016.611-.454.417c-.125,0-.752-.012-.627-.012a104.664,104.664,0,0,0-14.094-4.255,1.563,1.563,0,0,1-.658-.172h0c-.628-.4-.623-.834-.693-1.6-.27-2.536-.541-6.139-.656-11.057.02-2.039-.013-1.48,1.014-2.888l.437-.609a29.49,29.49,0,0,0,2.861-5.208,39.539,39.539,0,0,0,3-16.78,1.3,1.3,0,0,1,.918-1.29,14.64,14.64,0,0,0,2.788-.7c3.746-1.547,6.913-4.027,6.7-8.059,0-.037-.016-.179-.018-.187a6.963,6.963,0,0,0-1.2-3.251h0a8.871,8.871,0,0,0-2.807-2.641,9.269,9.269,0,0,0-4.728-1.419l-.57-.231-.253-.537h0l.216-.555c.645-.312.462-.276,1.007-.291a11.35,11.35,0,0,1,5.346,1.182Z" transform="translate(34.57 19.034)" fill-rule="evenodd"/>
    <path id="Path_2490" data-name="Path 2490" d="M197.618,126.139c3.356,1.758,6.574,3.76,10.309,4.647,8.329,1.975,17.995-1.346,24.215-7.024.906,9.279,2.748,19.743,12.772,22.261.662-5.762-.024-12.615-2.589-17.893-2.932-6.016-9.273-10.461-15.718-11.948a29.711,29.711,0,0,0-16.594.809c-2.195.831-4.14,2.3-6.42,2.932-.947.262-2.3-.171-2.153-1.393a5.545,5.545,0,0,1,1.9-3.446,26.958,26.958,0,0,1,10.859-4.852c5.8-1.071,14.872.087,20.094,3a32.577,32.577,0,0,1,12.189,13.312c2.39.116,3.8.526,5.825-1.149,2.419-2.007,1.19-6.238-7.315-7.278a18.592,18.592,0,0,0,4.513-2.089,8.765,8.765,0,0,0,3.564-3.251c1.523-3.051-.611-5.991-3.843-6.335-3.4-.362-7.157,2.158-9.451,4.474,1.674-2.622,3.79-5.021,4.731-8.044,1.211-3.872-.456-6.49-4.309-4.549-3.069,1.545-5.03,5-6.89,7.748a26.274,26.274,0,0,0,2.565-6.457c.709-3.459.092-10.658-5.367-8.989-4.627,1.416-7.173,6.736-8.648,11.321.38-3.492,1.826-11.776.172-15.175a3.326,3.326,0,0,0-5.359-1.126,8.446,8.446,0,0,0-1.47,1.725c-2.831,4.274-2.858,9.645-3.235,14.573-.809-3.466-1.886-7.393-4.576-9.935-4.115-3.879-7.534,1.434-7.8,5.38-.26,3.88,1.243,7.388,2.47,10.969-2.211-3.235-3.824-8.011-7.227-10.268-3.564-2.364-6.406,1.171-6.377,4.779.035,4.211,3.208,8.456,5.486,11.863-2.7-2.518-6.191-6.078-10.226-5.941-2.8.1-5.735,6.238-.271,12.2,3.745,4.093,8.835,4.159,13.883,4.608" transform="translate(27.221 10.873)" fill="#00c29a" stroke="#00c29a" stroke-width="1" fill-rule="evenodd"/>
    <path id="Path_2491" data-name="Path 2491" d="M245.533,97.956c1.6,2.391.531,5.7-.832,8.221.036-.014.157-.066.2-.084,9.077-3.543,13.427,5.741,7.1,10.107-.545.414-2.009,1.334-2.618,1.68a13.03,13.03,0,0,1,2.256.981c3.466,1.892,4.643,5.791.864,8.281-1.829,1.174-3.215,1.06-5.331.924-.809-.052-.809-.02-1.2-.2-.8-.529-.154-.392-2.332-3.752a32.963,32.963,0,0,0-8.591-8.78c-6.177-3.989-16.582-4.836-22.1-3.264a26.608,26.608,0,0,0-7.82,3.581,5.127,5.127,0,0,0-1.643,1.55,4.275,4.275,0,0,0-.619,1.617h0a.847.847,0,0,0,.387.043,25.289,25.289,0,0,0,4.583-2.09c10.667-5.341,28.6-2.672,35.633,10.66a27.622,27.622,0,0,1,2.492,7.67,38.376,38.376,0,0,1,.419,10.536c-.094.782-.053.871-.307,1.307a1.3,1.3,0,0,1-1.473.462,16.13,16.13,0,0,1-2.7-.963c-6.734-3.244-8.869-9.646-10.115-17.037-.1-.693-.354-2.444-.423-3.27a30.525,30.525,0,0,1-17.893,6.348c-8.1.051-12.8-3.946-16.107-5.461-.653-.8.323-.262-4.371-.809-5.217-.591-8.966-2.2-11.8-6.681a12.755,12.755,0,0,1-.911-1.8,9.4,9.4,0,0,1-.72-3.992c.116-2.629,1.628-5.661,4.342-5.729a10.094,10.094,0,0,1,5.673,1.838h0c-1.432-2.732-2.55-5.582-1.9-8.617.95-3.5,3.036-4.839,5.028-4.832,2.448.025,4.361,1.994,5.875,3.912-.054-.189-.1-1.42-.116-1.545-.082-6.611,4.845-11.69,9.5-7.83a13.683,13.683,0,0,1,3.374,4.641,19.774,19.774,0,0,1,3.257-9.263c1.579-2.243,3.961-3.382,6.443-2.262,3.535,1.791,3.272,6.393,3.1,10.354a16.456,16.456,0,0,1,1.162-1.5c4.2-4.531,9.771-5.223,11.587.132a14.2,14.2,0,0,1,.564,5.871,9.91,9.91,0,0,1,3.448-2.049C243.192,96.14,244.746,96.788,245.533,97.956Zm-26.017,10.759c5.126.079,11.4,1.181,15.775,3.7a34.126,34.126,0,0,1,9.657,9.011,29.191,29.191,0,0,1,2.506,4.043,10.312,10.312,0,0,0,2.417,0,3.938,3.938,0,0,0,2.151-1.362l.017-.02.022-.039.007-.02.034-.058.007-.018.012-.018v-.018l.012-.02c.024-.076.039-.116.055-.166v-.018l.013-.036v-.02l.006-.017V123.6l.007-.018.008-.191v-.141c-.014-.07-.023-.116-.039-.191l-.009-.022v-.022h0v-.022l-.009-.023v-.022l-.038-.091c-.031-.171-.432-1.189-2.59-2.139a16.892,16.892,0,0,0-4.342-1.1,1.356,1.356,0,0,1-1.238-.776,1.3,1.3,0,0,1,.4-1.587c.405-.255,1-.347,2.3-.915,1.322-.578,4.421-2.33,5.158-3.562a2.959,2.959,0,0,0-1.691-4.669,7.035,7.035,0,0,0-5.276.9,17.119,17.119,0,0,0-4,3.009,1.3,1.3,0,0,1-.794.378,1.33,1.33,0,0,1-.857-.215,1.3,1.3,0,0,1-.474-1.59c1-1.9,5.776-7.184,4.918-10.628l-.03-.024a.623.623,0,0,0-.014-.061l-.009-.02v-.02l-.01-.02V99.8l-.01-.02v-.018c-.164-.318-.186-.347-.192-.356l-.01-.01v-.01l-.01-.008v-.009l-.01-.008v-.008l-.01-.008-.006-.007-.01-.007v-.007l-.01-.006v-.007h-.021V99.3h-.01l-.021-.01h0l-.042-.018h0a1.224,1.224,0,0,0-.486-.076,6.366,6.366,0,0,0-3.63,1.836c-4.326,4.323-4.019,7.057-6.063,6.476a1.3,1.3,0,0,1-.834-1.386c.189-.859,2.384-4.247,2.718-7.4.206-1.964.051-5.166-1.487-6.428-1.271-1-3.556.149-4.792,1.133-2.328,1.717-3.986,5.237-4.951,7.971-.5,1.4-.427,1.6-1.14,1.981a1.322,1.322,0,0,1-.885.042c-2.027-.821.054-3.017.016-12.349-.007-1.6-.275-3.949-1.733-4.638a1.833,1.833,0,0,0-1.08-.143,3.675,3.675,0,0,0-2.149,1.668c-2.736,4.05-2.888,8.377-3.248,13.605-.055.833-.031,1.141-.538,1.61a1.28,1.28,0,0,1-1.58-.008c-.809-.771-.311-1.482-1.964-5.836-.068-.147-.293-.735-.5-1.114-.73-1.55-2.471-4.057-4.2-4.1a3.041,3.041,0,0,0-2.264,1.5c-3.009,4.407-.82,9.357.853,14.41a1.191,1.191,0,0,1-.281,1.429,1.169,1.169,0,0,1-1.461.06c-1.526-1.34-4.341-9.57-8.059-10.735a2.156,2.156,0,0,0-2.052.312c-5.43,4.932,3.5,14.325,3.7,15.779a1.018,1.018,0,0,1-1.423,1.015c-1.06-.567-5.168-5.892-9.625-5.919a1.471,1.471,0,0,0-.9.231c-2.926,2.242-1.92,8.046,1.927,11.23,3.142,2.912,7.827,3.16,11.992,3.527.6.054.369-.013,1.028.334l.127.39c4.361,2.331,8,4.4,12.435,4.829a26.087,26.087,0,0,0,13.114-2.3,28.941,28.941,0,0,0,7.768-5.063,1.114,1.114,0,0,1,1.4-.082c.809.683.192.8,1.255,6.649a31.785,31.785,0,0,0,2.337,7.786c1.784,3.486,3.664,5.624,7.4,7.056h0a35.5,35.5,0,0,0-1.289-12.181,20.4,20.4,0,0,0-2.592-5.619c-4.495-6.437-12.488-10.524-22.625-9.785-7.026.538-8.881,2.783-12.389,4.108a3.979,3.979,0,0,1-3.235.141,2.794,2.794,0,0,1-.888-.633,2.47,2.47,0,0,1-.628-1.439,5.784,5.784,0,0,1,.781-2.91A8.217,8.217,0,0,1,204.5,113a30.047,30.047,0,0,1,7.253-3.262,25.062,25.062,0,0,1,7.771-1.023Z" transform="translate(27.095 10.699)" fill-rule="evenodd"/>
    <path id="Path_2492" data-name="Path 2492" d="M185.015,186.884c.358.746.231.244.4,1.907a94.668,94.668,0,0,1,.521,10.744c.281,14.061.39,12.977.493,22.892-.116,9.525,0,8.52-.924,8.986h0l-.559-.243c-.341-.771-.247-.333-.384-1.964-.84-10.077-.744-11.437-.94-17.488-.41-17.328-.433-17.006-.241-20.23.1-1.606.3-3.919.314-4.043h0l.265-.564.527-.238h.01Z" transform="translate(27.67 26.692)" fill="#f2aa18" fill-rule="evenodd"/>
    <path id="Path_2493" data-name="Path 2493" d="M249.831,184l.521.256.246.565c.557,5.445.362,27.479.326,28.686a108.025,108.025,0,0,1-1.288,16c-.3,2.094-.253,1.733-.613,2.352l-.578.177h-.01c-1.05-.627-.61.275-.355-8.468.693-25.068-.241-27.454.8-37.706.158-1.334.047-.924.407-1.638l.536-.222Z" transform="translate(37.683 26.281)" fill="#f2aa18" fill-rule="evenodd"/>
    <path id="Path_2494" data-name="Path 2494" d="M217.616,218.137c.725,1.386.425.541.722,4.071a7.074,7.074,0,0,1-.271,3.31h0l-.321.641-.444.278h-.01c-.59-.3-.393-.116-.847-.841h0a7.941,7.941,0,0,1-.648-2.477c-.014-.151-.291-3.432-.225-3.863a3.17,3.17,0,0,1,.266-.744c.231-.482.015-.194.961-1.171C216.811,217.351,217.6,218.12,217.616,218.137Z" transform="translate(32.684 31.457)" fill-rule="evenodd"/>
    <path id="Path_2495" data-name="Path 2495" d="M130.346,213.658c2.825,3.082.39.377,4.77,6.073,6.747,7.78,6.384,6.957,6.063,8.057h0l-.536.231-.637-.187c.5,0-2.888-.924-8.356-8.311a18.618,18.618,0,0,1-2.019-3.127,14.014,14.014,0,0,1-.676-1.957c.036-.818-.116-.462.308-1.088h.01l.528-.024Z" transform="translate(19.24 30.833)" fill-rule="evenodd"/>
    <path id="Path_2496" data-name="Path 2496" d="M135.314,205.321a22.09,22.09,0,0,1,1.848,2.406c3.386,6.1,4.034,6.723,5.356,8.9,2.355,4.243,1.951,3.244,2.148,4.208l-.267.515h0l-.57.116-.583-.3h0c-.5-.521-1.749-1.788-2.443-2.687a84.029,84.029,0,0,1-5.954-9.574,18.252,18.252,0,0,1-.94-2.851c.035-.8-.083-.514.34-1.077h0l.533-.009Z" transform="translate(20.009 29.536)" fill-rule="evenodd"/>
    <path id="Path_2497" data-name="Path 2497" d="M149.231,210.99l-.6-.271h0a26.214,26.214,0,0,1-2.743-2.791,34.621,34.621,0,0,1-4.094-7.055,8.369,8.369,0,0,1-.924-4.17c0-.334-.039-.134.192-.876l.409-.333h.01l.511.124c.507.552.425.44.55.693.081.155,1,1.816,1.085,2.1,1.8,4.78,2.967,5.67,5.617,10.231.775,1.3.578.792.795,1.668l-.241.527h0v.006Z" transform="translate(21.089 28.065)" fill-rule="evenodd"/>
    <path id="Path_2498" data-name="Path 2498" d="M158.9,195.8h.01l.4.432c.023,2.813-7.8,17.492-6.877,40.29.074,3.513.545,8.638.708,10.638,1.456,13.956,1.99,13.069,1.684,14.482-.01,0-.5.347-.5.347l-.6-.127-.362-.515a140,140,0,0,1-3.193-18.555,112.781,112.781,0,0,1,.307-21.591c.335-3.2,1.271-7.764,1.292-7.89a60.467,60.467,0,0,1,4.877-14.7c1.319-2.759,1.147-2.365,1.672-2.822Z" transform="translate(22.474 28.111)" fill-rule="evenodd"/>
    <path id="Path_2499" data-name="Path 2499" d="M129.131,228.817l.412.427c.034,2-.347-.591-2.168,9.432-1.57,8.558-5.776,21.053-2.764,33.885a26.723,26.723,0,0,0,4.909,10.471,22.081,22.081,0,0,0,9.4,6.892,22.966,22.966,0,0,0,10.176,1.46,28.649,28.649,0,0,0,7.883-2.079c7.371-2.993,11.977-9.659,15.793-16.52,3.928-7.207,2.815-5.931,3.737-6.746l.611.022.417.462c-.036.809.055.422-.44,1.545-2.5,5.577-6.065,12.917-10.417,17.345a27.2,27.2,0,0,1-21.234,8.613A25.273,25.273,0,0,1,123.2,276.913a43.81,43.81,0,0,1-2.079-18.166c1.069-10.911,2.362-13.115,3.632-18.492.313-1.2,1.664-7.705,3.328-11.016h0l.445-.423h.6Z" transform="translate(17.992 33.238)" fill-rule="evenodd"/>
    <path id="Path_2500" data-name="Path 2500" d="M183.691,191.47l.285.535h0l-.194.578c-.611.334-.475.293-.835.347-4.934.7-10.357,4.3-14.307,7.35h0c-6.816,5.252-10.957,11.09-15.942,17.912-.009.008-.507.355-.516.362l-.578-.052-.01-.006-.347-.462c.051-.747.02-.578.132-.829a39.1,39.1,0,0,1,7.445-11.231,61.111,61.111,0,0,1,10.62-9.543,30.083,30.083,0,0,1,7.188-3.86c.124-.042,2.051-.7,2.234-.7a20.12,20.12,0,0,1,4.226-.6Z" transform="translate(22.701 27.41)" fill-rule="evenodd"/>
    <path id="Path_2501" data-name="Path 2501" d="M253.634,193.068c7.7,2.093,15.956,5.38,22.188,10.537,5.2,4.2,8.814,8.616,12.525,16.934,7.33,15.614,10,31.554,11.273,48.75.214,3.756.983,7.855,1.637,13.484a43.364,43.364,0,0,1,.224,8.046l-.28.558-.578.209h-.012l-.546-.274-.214-.578c.238-5.477-1.281-11.841-1.952-16.261-1.2-7.307-1.312-16.552-4.274-29.88a104.38,104.38,0,0,0-5.776-18.769c-2.16-5.033-5.15-11.594-8.871-15.657a38.831,38.831,0,0,0-3.364-3.319c-5.862-5.276-14.523-9.483-22.459-12.245h0l-.462-.4c0-.017-.06-.588-.059-.6l.387-.452Z" transform="translate(38.438 27.689)" fill-rule="evenodd"/>
    <path id="Path_2502" data-name="Path 2502" d="M264.807,284.989c-.513-.591-.378-.281-1.287-2.351-.578-1.333-.4-.8-2.368-7.586h0a6.4,6.4,0,0,1-.281-2.828l.553-.987.988.553a12.54,12.54,0,0,1,1.013,1.774c.068.179,1.918,6.45,2.094,7.271.092.406.283,1.793.3,1.993.129,1.5.154,1.014-.025,1.9l-.421.381C265.354,285.108,264.822,284.992,264.807,284.989Z" transform="translate(39.709 39.822)" fill-rule="evenodd"/>
    <path id="Path_2503" data-name="Path 2503" d="M174.968,291.019c-2.491-21.141-6.913-43.127,3.277-62.977,10.263-2.368,72.442-2.634,92.649-.924,7.09,21.62,2.271,43.632-1.914,65.292" transform="translate(25.897 32.803)" fill="#f2aa18" fill-rule="evenodd"/>
    <path id="Path_2504" data-name="Path 2504" d="M269.929,225.9c1.476.1,1.482.1,1.855.31.541.418.52.7.851,1.713,6.477,21.195,1.9,42.05-2.478,63.805-.252,1.223-.116.883-.557,1.54l-.6.128h-.01l-.512-.347c-.18-.864-.2-.209.248-2.651,3.758-20.638,3.164-19.368,3.288-19.368,2.121-15.511,2.4-27.929-1.921-42.5-.014,0-.648-.051-4.862-.307-18.849-.823-37.865-.854-55.73-.529-3.934.073-26.455.6-30.2,1.68a57.27,57.27,0,0,0-5.479,19.12c-2.027,18.472,2.685,40.723,1.944,43.205l-.524.3h-.006l-.578-.169-.307-.53h0c-2.992-21.494-7.49-43.681,2.669-63.191.622-1.271.676-1.14,3.743-1.6C199.412,224.383,253.815,224.535,269.929,225.9Z" transform="translate(25.725 32.628)" fill="#f2aa18" fill-rule="evenodd"/>
    <path id="Path_2505" data-name="Path 2505" d="M122.089,112.577c.131.085.01.089.632-.092,4.467.38,9.328,6.066,8.225,10.331l-.014.069h0c-1.588,6.138-10,4.219-13.315-1.245h0a8.281,8.281,0,0,1-1.259-3.466,5.214,5.214,0,0,1,.326-2.6,4.606,4.606,0,0,1,5.4-2.994Zm-.2,1.586a2.916,2.916,0,0,0-1.36.295,3.119,3.119,0,0,0-1.562,2.51.818.818,0,0,1-.017.149c-.3,1.94,1.541,5.324,5.4,6.7a4.461,4.461,0,0,0,2.344.219,2.436,2.436,0,0,0,1.712-1.8h0a3.588,3.588,0,0,0-.133-2.09,10.652,10.652,0,0,0-1.04-2.217,8.087,8.087,0,0,0-4.885-3.921Z" transform="translate(17.278 15.176)" fill="#010000" fill-rule="evenodd"/>
    <path id="Path_2506" data-name="Path 2506" d="M132.35,106.817c2.282.049,4.671,2.751,4.547,5.577-.149,3.428-4.729,5.43-7.674,1.077a4.136,4.136,0,0,1-.3-4.281,3.487,3.487,0,0,1,.487-.685c.976-.909.678-.426.911-.894a2.843,2.843,0,0,1,2.029-.794Zm-.809,1.972-.077.17h0a1.981,1.981,0,0,0-.436.824v.027l-.012.025a1.684,1.684,0,0,0-.044.271l-.006.024v.46l.014.07v.024a.511.511,0,0,0,.013.064v.008l.008.049v.024c.015.083.021.116.044.213v.007c0,.031.021.116.025.151l.009.025.008.051.01.025v.027l.01.025v.025l.01.027v.025c.5,1.369,1.465,1.947,2.109,1.91a1.348,1.348,0,0,0,.715-.288L134,113v-.01a.789.789,0,0,0,.073-.082V112.9l.012-.01.012-.022.012-.012.035-.073.012-.013v-.014l.012-.014v-.028c.01-.027.014-.034.029-.074v-.016l.012-.032v-.02h0v-.017l.007-.017v-.018l.007-.018v-.018l.007-.018v-.039l.007-.018V112l-.008-.051v-.025c-.149-1.31-1.406-3.538-2.679-3.131Z" transform="translate(19.164 14.301)" fill="#010000" fill-rule="evenodd"/>
    <path id="Path_2507" data-name="Path 2507" d="M158.638,111.508a8.853,8.853,0,0,1,1.855.285,5.776,5.776,0,0,1,4.181,3.363c1.252,2.781-.7,5.45-4.524,4.762a9.319,9.319,0,0,1-4.274-1.848C153.072,115.542,154.469,111.486,158.638,111.508Zm.635,2.146h0a5.2,5.2,0,0,0-1.334.441h0a2.342,2.342,0,0,0-.239.124c-.462.26-.445.3-.557.423h0a.494.494,0,0,0-.033.045h0l-.006.006v.008l-.012.013v.021l-.012.014v.028l-.006.007v.359l.009.03v.016l.009.032v.016c.013.044.027.1.037.144l.009.017.015.049.009.017.009.032.01.016v.016l.009.016v.015l.03.049v.016l.06.1.015.016.02.032.015.016.01.016.015.016.01.016.03.033.01.016c1.063,1.129,3.928,1.871,4.833,1.337h0l.044-.025v-.007l.022-.012.01-.012.012-.006c.045-.044.029-.027.055-.052h0l.01-.009h0l.01-.01h0v-.045h0v-.007h0v-.029l.006-.008v-.024l.012-.017v-.191a2.07,2.07,0,0,0-.18-1h0a4.39,4.39,0,0,0-1.815-2.195h-.01a3.819,3.819,0,0,0-1.141.076Z" transform="translate(23.192 15.029)" fill="#010000" fill-rule="evenodd"/>
    <path id="Path_2508" data-name="Path 2508" d="M169.758,179.923a13.162,13.162,0,0,1-5.6-3.672c-3.768,5.9-7.329,10.76-11.969,17.276-1.04,1.46-3.325,5.019-2.16,6.908,1.937,3.156,5.592-1.7,6.913-3.522,5.059-7.01,7.326-10.034,12.837-17.072" transform="translate(22.462 25.078)" fill-rule="evenodd"/>
    <path id="Path_2509" data-name="Path 2509" d="M164.547,175.254c.527.154.566.266.918.68a12.568,12.568,0,0,0,4.418,3.251h0l.593.15h0l.29.539c-.109.39-.092.283-.079.469l-.069.069-.022.081h0c-11.977,16.52-12.5,17.79-14.617,20.041a6.662,6.662,0,0,1-3.982,2.4,3.093,3.093,0,0,1-2.773-1.459,4.46,4.46,0,0,1-.326-4.024c.87-2.835,3.088-5.442,7.983-12.347C163.889,175.019,163.44,175.154,164.547,175.254ZM151.48,197.971a3.5,3.5,0,0,0-.253,1.681v.022c.014.046.027.079.049.146h0l.006.01h0l.012.021h0v.01h0v.016a1.965,1.965,0,0,0,.161.223c.032.042.091.1.092.1h.012l.01.01.007.009h.022l.016.014h.012l.012.01h0l.012.01h.01l.022.009h.053l.128-.009.015-.007h.021l.016-.007h.042l.016-.007h.015l.047-.018h.015c.049-.016.025-.012.074-.027l.015-.012a2.11,2.11,0,0,0,.314-.151h0c1.77-1.049,3.671-3.937,4.911-5.644,3.3-4.574,7.691-9.882,11.1-13.978a13.789,13.789,0,0,1-1.763-.79,12.5,12.5,0,0,1-2.137-1.409c-5.185,8.61-12.13,16.77-13.085,19.762Z" transform="translate(22.284 24.92)" fill="#010000" fill-rule="evenodd"/>
    <path id="Path_2510" data-name="Path 2510" d="M188.057,120.153h0a36.159,36.159,0,0,1,35.179,36.2,38.637,38.637,0,0,1-1.18,9.487v.016a37.234,37.234,0,0,1-39.971,27.725,35.365,35.365,0,0,1-9.047-2.108A37.261,37.261,0,0,1,148.759,157.3a36.3,36.3,0,0,1,3.525-16.261,36.991,36.991,0,0,1,6.4-9.376A36.529,36.529,0,0,1,188.057,120.153Zm-5.753,2.922A33.694,33.694,0,0,0,156,142.424a33.286,33.286,0,0,0-2.881,16.778,32.946,32.946,0,0,0,65.759-1.445,34.77,34.77,0,0,0-.293-5.835,32.452,32.452,0,0,0-3.452-10.689,34.088,34.088,0,0,0-14.77-14.787,29.966,29.966,0,0,0-18.062-3.371Zm5.753-2.918Z" transform="translate(22.314 16.356)" fill="#010000" fill-rule="evenodd"/>
    <ellipse id="Ellipse_607" data-name="Ellipse 607" cx="6.381" cy="4.786" rx="6.381" ry="4.786" transform="translate(209.792 175.088) rotate(-87.504)"/>
    <path id="Path_2511" data-name="Path 2511" d="M187.752,141.495a6.779,6.779,0,0,1,2.36.321c2.673,1.024,4.583,3.766,4.42,7.516a10.8,10.8,0,0,1-.521,3.043,7.74,7.74,0,0,1-5.071,5.214,5.976,5.976,0,0,1-5.64-1.512,8.186,8.186,0,0,1-2.02-3.08h0C179.241,147.721,182.545,141.271,187.752,141.495Zm.062,2.711c-2.581.462-3.317,4.11-2.679,6.648a3.3,3.3,0,0,0,2.044,2.569h.027l.021.007h.074l.027.007h.3a3.17,3.17,0,0,0,2.127-2.031c1.244-2.756-.259-6.725-1.936-7.221ZM187.995,141.526Z" transform="translate(27.268 19.683)" fill="#010000" fill-rule="evenodd"/>
    <path id="Path_2512" data-name="Path 2512" d="M203.4,141.7l.165.609a60.5,60.5,0,0,1-.6,7.162c-.471,3.737-.454,5.651-1.555,14.894a12.706,12.706,0,0,0-.41,3.115l.008.054v.027a1.47,1.47,0,0,0,.082.318l.01.01v.016l.01.012v.016l.009.016.01.012c.143.24.564.429,1.263.578.4.076.161-.028.857.357l.2.557v.006l-.278.53c-.653.248-.527.238-.957.219a3.369,3.369,0,0,1-2.978-1.419h0a3.842,3.842,0,0,1-.462-1.676c-.143-3.141.863-9.893,1.091-12.8.157-1.444.016-1.445.713-6.84A27.509,27.509,0,0,1,202,142l.388-.489.549-.131C202.953,141.379,203.386,141.693,203.4,141.7Z" transform="translate(30.077 19.665)" fill="#010000" fill-rule="evenodd"/>
    <path id="Path_2513" data-name="Path 2513" d="M179.484,127.454a7.309,7.309,0,0,1,3.668.953h0a3.9,3.9,0,0,1,1.893,2.723c.736,4.736-7.145,9.553-10.6,12.5-1.977,1.749-3.728,3.392-6.354,3.752-3.644.206-4.811-3.376-4.233-6.944a8.534,8.534,0,0,1,.973-2.778,19.87,19.87,0,0,1,10.127-9.213c1.669-.674,1.419-.578,2.014-.551l.275-.2a9.081,9.081,0,0,1,2.236-.248Zm-1.917,1.848-.354-.079a27.777,27.777,0,0,0-7.6,6.093,16.692,16.692,0,0,0-2.834,4.326,6.024,6.024,0,0,0,.027,4.647v.016l.015.016.02.034.01.01.02.034.01.01.01.016.02.023.01.016.01.01.015.012v.012l.016.01.04.045h.01l.02.022h.01l.01.012h.01l.01.01h.01l.01.012.031.017.009.01.1.058h.016a.219.219,0,0,0,.047.023h.01a.116.116,0,0,1,.027.012h.042a.116.116,0,0,0,.027.012h.031l.016.007h.047l.218.009h.117a4.645,4.645,0,0,0,1.546-.529,12.611,12.611,0,0,0,2.254-1.637c5.562-4.76,8.388-6.2,10.513-9.272a5.678,5.678,0,0,0,.462-.847,2.6,2.6,0,0,0,.2-.693l.007-.025v-.075l.007-.148V131.4l-.009-.043v-.021l-.009-.044v-.021c-.016-.076-.028-.126-.035-.166l-.01-.016-.009-.043-.009-.017v-.021l-.01-.016v-.022a.38.38,0,0,1-.02-.038v-.022a1.982,1.982,0,0,0-.7-.809h0a4.426,4.426,0,0,0-.388-.251l-.032-.013-.025-.016a6.835,6.835,0,0,0-4-.518Z" transform="translate(24.637 17.504)" fill="#010000" fill-rule="evenodd"/>
    <path id="Path_2514" data-name="Path 2514" d="M164.684,150.715c.617.374.513.276.578.462.278-.024.1-.042.414.045a4.892,4.892,0,0,1,1.059.488,5.661,5.661,0,0,1,2.525,4.08,7.873,7.873,0,0,1-.471,4.094h0a5.651,5.651,0,0,1-8.716,2.766c-2.323-1.577-2.909-4.914-1.971-7.548a6.221,6.221,0,0,1,3.928-4.252,5.264,5.264,0,0,1,2.654-.135Zm-.208,1.593a3.492,3.492,0,0,0-1.478.447h0a5.292,5.292,0,0,0-1.685,1.694h0a5.055,5.055,0,0,0-.615,1.155,9.326,9.326,0,0,0-.268.9c-.4,1.607.066,3.608,1.576,4.252a3.291,3.291,0,0,0,2.359.231,3.589,3.589,0,0,0,2.03-2.131h0a6.375,6.375,0,0,0,.358-1.017,6.616,6.616,0,0,0,.206-1.673,4.506,4.506,0,0,0-.387-1.848,3.151,3.151,0,0,0-1.638-1.637h0l-.393-.384a.316.316,0,0,1-.065.01Z" transform="translate(23.698 21.097)" fill="#010000" fill-rule="evenodd"/>
    <path id="Path_2515" data-name="Path 2515" d="M27.245,134.559a28.743,28.743,0,0,1,9.439,1.907c4.1,1.481,3.382,1.155,3.988,1.691l.07.578-.006.01-.382.446-.61.085h0A61.407,61.407,0,0,0,28.035,137.2a6.185,6.185,0,0,0-3.213.44l-.028.009a5.314,5.314,0,0,0-1.8,1.826h-.006a19.885,19.885,0,0,0-2.031,5.574A51.237,51.237,0,0,0,19.843,160.3c.215,3.05.72,6.853,3.072,8.78,2.888,2.374,8.678,1.733,12.409,1.143,3.187-.454,2.3-.522,3.319-.291l.347.5h0l-.133.6-.515.356a66.552,66.552,0,0,1-8.258,1.518c-3.652.38-8-.336-10.189-3.265-3.842-4.61-3.039-18.253-1.709-24.174.8-3.593,1.914-7.856,4.987-9.885a5.977,5.977,0,0,1,1.764-.786,8.666,8.666,0,0,1,2.308-.237Z" transform="translate(1.876 18.606)" fill="#010000" fill-rule="evenodd"/>
    <path id="Path_2516" data-name="Path 2516" d="M26.833,138.25a9.569,9.569,0,0,1,2.094,3.235h0c.985,2.562,1.107,6.5,1.115,9.242a46.634,46.634,0,0,1-1.327,10.421v.01c-.371,1.427-.255.936-.381,1.411h0c-.678,2-1.335,4.034-3.142,5.314h0l-.608.155-.531-.284h0l-.146-.571.281-.568c1.04-.932,1.591-3.242,1.83-4.621h0c1.032-5.661,1.831-9.7,1.24-15.758-.213-2.036-.6-3.914-.638-4.043h0a9.577,9.577,0,0,0-1.032-2.968h0l-.121-.617.255-.5h0l.555-.135Z" transform="translate(2.935 19.137)" fill="#010000" fill-rule="evenodd"/>
    <path id="Path_2517" data-name="Path 2517" d="M27.767,141.4c-2.964,4.5-3.394,9.09-3.644,13.877a21.275,21.275,0,0,0,.054,3.021c.088.924.11,3.826,1.006,4.505.129.1.693-.427.8-.539,2.3-2.476,2.451-12,2.459-15.392-.01-.624.028-4.677-1.338-4.12" transform="translate(2.963 19.669)" fill-rule="evenodd"/>
    <path id="Path_2518" data-name="Path 2518" d="M28.374,140.832l.01.006.308.486c-.106.809-.028.488-.266.978h0c1.032.8,1.216,3.645,1.252,4.956.251,4.006.051,11.866-2.03,15.31-.72,1.089-1.938,2.148-3.052,1.394-1.06-.8-1.33-2.557-1.434-3.975h0a35.9,35.9,0,0,1-.185-4.181c.26-5.962.673-10.031,4.3-14.742v-.006l.53-.322Zm-2.617,12.042a38.558,38.558,0,0,0-.173,4.346c0,.2.176,2.871.243,3.209,1.352-3.527,1.874-13.877,1.687-15.973a34.568,34.568,0,0,0-1.756,8.418Z" transform="translate(2.79 19.566)" fill="#010000" fill-rule="evenodd"/>
    <path id="Path_2519" data-name="Path 2519" d="M58.786,133.127c.061.014,21.5,5.5,22.159,5.686,5.977,1.629,7.352,2.014,8.824,2.722a8.027,8.027,0,0,1,2.964,2.332c1.6,2.074,2.079,5.226,2.208,7.84a17.541,17.541,0,0,1-.334,4.366,46.45,46.45,0,0,1-1.674,5.3l-.4.462-.594.065c-.008-.009-.453-.386-.462-.393-.128-1.114-.189.231,1-4.621a15.092,15.092,0,0,0,.347-2.551c.116-2.666-.494-7.419-2.279-9.126-1.262-2.079-13.207-4.579-25.877-7.856-4.638-1.2-11.567-3.309-16.345-2.922a4.086,4.086,0,0,0-2.523,1.231,18.222,18.222,0,0,0-1.617,1.83,24.082,24.082,0,0,0-2.957,5.083,36.274,36.274,0,0,0-2.7,11.332,34.194,34.194,0,0,0,.838,11.065,10.744,10.744,0,0,0,2,4.234c3.242,3.917,11.654,2.87,16.694,2.372h.006l.6.18.307.53v.01l-.169.588-.546.312c-.531-.023-7.266,1.376-12.568.528-7.094-1.134-8.639-6.414-9.653-13.366a37.286,37.286,0,0,1,4.3-21.815,18.891,18.891,0,0,1,4.881-5.748,7.023,7.023,0,0,1,2.016-.809C50.482,131.319,54.442,132.187,58.786,133.127Z" transform="translate(4.784 18.171)" fill="#010000" fill-rule="evenodd"/>
    <path id="Path_2520" data-name="Path 2520" d="M35.415,146.272v-.021l.031.017.037.012v-.021l.068.024v-.027a.29.29,0,0,0,.064.018v-.027h0l.047.013-.009-.028.052.014-.009-.028h.047l-.009-.027h.043l-.009-.027.015.006H35.8l-.015-.028h.031l-.02-.028h.02a.283.283,0,0,0-.02-.028h0l-.01-.01h0l.01.01-.01-.01.01.01h0v-.006l.009.012h.01l.01.012h.01v.006l.042.023h.01a7.267,7.267,0,0,0,.937.248c.267.116.3.192.508.293.563.448-.116-.21,1.213,1.123-1.011.764-1.093.909-1.964,1.117h0a1.125,1.125,0,0,1-.441-.018,3.884,3.884,0,0,1-2.481-1.3v-.006a1.3,1.3,0,0,1,.066-1.271l1.6-.116h0Z" transform="translate(4.428 20.395)" fill="#010000" fill-rule="evenodd"/>
    <path id="Path_2521" data-name="Path 2521" d="M37.776,155.813c.347.194.008-.1,1.045.951a4.95,4.95,0,0,1-1.6,1.181h0l-.163.073h-.006a1.164,1.164,0,0,0-.151.058,3.19,3.19,0,0,0-1.2.389l-.017.015-.016.01h-.006l-.027.015-.016.015-.034.02-.016.016-.016.009-.029.025h0l-.044.04-.017.01-.038.036h-.032l-.022.009h-.027l-.448.012c-.289-.013.11.211-1.488-.9v-.01c.042-.954.17-1.006.683-1.4a4.613,4.613,0,0,1,1.307-.656,2.682,2.682,0,0,1,2.383.074Z" transform="translate(4.409 21.857)" fill="#010000" fill-rule="evenodd"/>
    <path id="Path_2522" data-name="Path 2522" d="M48.745,136l.035.045h.01a12.451,12.451,0,0,1,2.648,4.458c.317,1.1.256.719.251.841.04.155.144.619.171.743a37.3,37.3,0,0,1,.632,9.8,33.6,33.6,0,0,1-2.279,10.519c-1.04,2.5-2.352,5.974-5.052,6.238-.693-.03-.414.092-1.167-.347l-.181-.578v-.01l.3-.514.594-.2h.224l.049-.014H45s.124-.043.156-.052l.012-.01a.136.136,0,0,0,.027-.009l.016-.01h.016a.259.259,0,0,0,.055-.029l.01-.01c.206-.059.639-.481,1.106-1.32v-.01a21.444,21.444,0,0,0,1.348-3.587,37.3,37.3,0,0,0,1.913-7.74,36.682,36.682,0,0,0,.054-9.072A33.48,33.48,0,0,0,49,141.22a16.173,16.173,0,0,0-1.524-4.244h0l-.116-.617.273-.5h0l.559-.125Z" transform="translate(6.024 18.789)" fill="#010000" fill-rule="evenodd"/>
    <path id="Path_2523" data-name="Path 2523" d="M49.463,139.2c-3.329,1.649-4.664,5.4-5.456,8.78-.551,2.33-1.078,8.372-.622,10.485.419,2.163,2.034,6.513,3.87,4.992,3.581-2.969,3.706-13.614,3.537-18.273-.064-1.828-.183-4.218-1.558-5.629" transform="translate(5.931 19.327)" fill-rule="evenodd"/>
    <path id="Path_2524" data-name="Path 2524" d="M50.353,138.935v.01l.029.565a7.328,7.328,0,0,1,1.422,3.634,49.219,49.219,0,0,1,.372,5.019,38.353,38.353,0,0,1-1.136,11.409c-.618,2.3-2.182,5.713-4.513,5.611-1.993-.088-3.164-2.744-3.785-4.642-.671-2.336-.841-2.964-.494-8.063.053-1.215.382-3.259.434-3.622h0c.848-4.322,2.492-8.445,6.52-10.245.124-.046-.015-.025.693-.049Zm-5.1,10.39h0a44.375,44.375,0,0,0-.534,5.517A24.77,24.77,0,0,0,44.8,158.1a10.718,10.718,0,0,0,1.819,4.4l.016.012h0a3.565,3.565,0,0,0,.462-.486c2.667-3.045,3.177-17.031,2.613-19.787a5.591,5.591,0,0,0-.32-1.084,3.618,3.618,0,0,0-.265-.534c-2.295,2.123-3.172,5.379-3.872,8.7Z" transform="translate(5.754 19.229)" fill="#010000" fill-rule="evenodd"/>
    <path id="Path_2525" data-name="Path 2525" d="M48.679,144.13a4.355,4.355,0,0,1-.377,2.049h0c-1.5,4.077-.606,2.9-2.185,7.011h0l-.4.548-.514.185h0l-.452-.3a2.632,2.632,0,0,1-.29-1.264,10.839,10.839,0,0,1,0-2.064,28,28,0,0,1,1.417-5.059h0a3.235,3.235,0,0,1,1-1.483c.475-.436.161-.276,1.457-.693Z" transform="translate(6.117 19.926)" fill="#fff" fill-rule="evenodd"/>
    <path id="Path_2526" data-name="Path 2526" d="M27.461,150.366a6.269,6.269,0,0,1-.593,2.492c-.247.567-.01.265-1.055,1.227-.832-1.065-.723-.829-.843-1.386a8.934,8.934,0,0,1,.036-3.884c.149-1.417.143-1.443.26-1.7a7.124,7.124,0,0,1,.53-.8l.887-.7C28.026,147.3,27.823,146.964,27.461,150.366Z" transform="translate(3.069 20.323)" fill="#fff" fill-rule="evenodd"/>
    <path id="Path_2527" data-name="Path 2527" d="M87.867,149.447a3.56,3.56,0,0,1,2.395.737c1.87,1.367,2.195,4.274,1.882,6.518-.535,3.709-2.945,5.518-5.654,5.4a4.41,4.41,0,0,1-1.374-.337l-.462-.44c0-.008-.072-.578-.07-.578h0l.386-.425c1.179-.185,1.219-.007,1.858-.248h0a3.057,3.057,0,0,0,1-.564h0a4.844,4.844,0,0,0,1.415-1.934c.516-1.248.6-4.286-.363-5.12v-.01l-.015-.012-.018-.037c-.007,0-.159-.137-.164-.14a2.076,2.076,0,0,1-.2-.132h-.01a4.107,4.107,0,0,0-.471-.292h0a3.107,3.107,0,0,0-.647-.295h0c-.288-.116-.873-.289-1-.325h0l-.55-.338-.213-.489h0l.255-.468.578-.295h.027a6.664,6.664,0,0,1,1.407-.178Z" transform="translate(12.353 20.917)" fill-rule="evenodd"/>
    <path id="Path_2528" data-name="Path 2528" d="M129.1,192.759h0c.176,1,.411.612-3.3,3.794-1.69,1.469-10.013,7.8-14.741,10.812-.022.016-.3.214-.313.221h0l-.6.192-.524-.177h0l-.2-.514.18-.61v-.006c.116-.136-.021-.022.955-1.261a16.478,16.478,0,0,1,3.8-3.235c6.113-4.351,6.752-5.536,13.572-9.394h0l.649-.116Z" transform="translate(16.209 27.595)" fill-rule="evenodd"/>
    <path id="Path_2529" data-name="Path 2529" d="M212.8,262.921a11.089,11.089,0,0,1,1.715,1.192c2.426,2.761,4.192,3.823,6.289,5.927.894.9.5.335,1.027,1.221l-.051.556h0l-.476.3-.669-.055h0a14.628,14.628,0,0,1-3.156-1.6,38.142,38.142,0,0,1-3.967-3.611,6.376,6.376,0,0,1-1.913-2.888l-.01-.016.1-1.124Z" transform="translate(32.068 38.516)" fill-rule="evenodd"/>
  </g>
</svg>
