<svg xmlns="http://www.w3.org/2000/svg" width="438.143" height="304.319" viewBox="0 0 438.143 304.319">
  <g id="Group_5514" data-name="Group 5514" transform="translate(5601.038 22833.999)">
    <g id="Group_5274" data-name="Group 5274" transform="translate(-5475.534 -22627.383)">
      <path id="Path" d="M16.084,0C17.411,10.7,9.093,15.541,0,16.258" transform="translate(23.309 35.258)" fill="none" stroke="#000" stroke-miterlimit="10" stroke-width="2"/>
      <path id="Path-2" data-name="Path" d="M10.093,49.284A19.233,19.233,0,0,1,.2,29.6C1.654,19.3,10.374,11.4,18.91,6.4,36.835-4.122,77.229,3.489,84.016,5.039c5.2,1.192,9.553-2.878,11.317-4.845A.586.586,0,0,1,96.35.51c3.725,21.8,46.992,51.391,57,58.013" fill="none" stroke="#000" stroke-miterlimit="10" stroke-width="2"/>
      <path id="Path-3" data-name="Path" d="M25.327,16.384,11,25.274A7.195,7.195,0,1,1,3.51,12.988L25.312,0" transform="translate(24.981 11.472)" fill="none" stroke="#000" stroke-miterlimit="10" stroke-width="2"/>
      <path id="Path-4" data-name="Path" d="M20.685,0S10.74,2.146,7.232,17.164C5.1,26.282,2.174,37.913.208,45.645a6.72,6.72,0,1,0,13.072,3.12l4.16-18.671" transform="translate(9.338 5.818)" fill="none" stroke="#000" stroke-miterlimit="10" stroke-width="2"/>
    </g>
    <rect id="Rectangle" width="103.566" height="141.165" rx="16.64" transform="translate(-5296.411 -22801.973)" fill="none" stroke="#b2ede0" stroke-miterlimit="10" stroke-width="2"/>
    <rect id="Rectangle-2" data-name="Rectangle" width="86.896" height="24.828" rx="8.32" transform="translate(-5287.545 -22787.432)" fill="none" stroke="#b2ede0" stroke-miterlimit="10" stroke-width="2"/>
    <circle id="Oval" cx="2.568" cy="2.568" r="2.568" transform="translate(-5247.195 -22782.105)" fill="#b2ede0" stroke="#b2ede0" stroke-width="1"/>
    <path id="Path-5" data-name="Path" d="M0,7.175a7.175,7.175,0,1,1,14.35,0Z" transform="translate(-5251.802 -22775.096)" fill="#b2ede0" stroke="#b2ede0" stroke-width="1"/>
    <path id="Path-6" data-name="Path" d="M0,.49H67.567" transform="translate(-5278.854 -22752.008)" fill="none" stroke="#b2ede0" stroke-miterlimit="10" stroke-width="2"/>
    <path id="Path-7" data-name="Path" d="M0,.49H67.567" transform="translate(-5278.854 -22745.357)" fill="none" stroke="#b2ede0" stroke-miterlimit="10" stroke-width="2"/>
    <path id="Path-8" data-name="Path" d="M0,.49H67.567" transform="translate(-5278.854 -22702.531)" fill="#b2ede0" stroke="#b2ede0" stroke-miterlimit="10" stroke-width="2"/>
    <path id="Path-9" data-name="Path" d="M0,.49H36.179" transform="translate(-5263.163 -22696.238)" fill="#b2ede0" stroke="#b2ede0" stroke-miterlimit="10" stroke-width="2"/>
    <path id="Path-10" data-name="Path" d="M181.912,128.373a19.891,19.891,0,0,1-2.2,8.318,2.962,2.962,0,0,1-.184.373A31.373,31.373,0,0,1,169.98,147.6l-.141.1a31.843,31.843,0,0,1-11.782,4.82h44.831s-6-85.53-61.118-127.144C88.427-14.9,38.485,4.508,35.317,5.806a22.924,22.924,0,0,1,1.293,8.643s4.011,2.088,4.68,9.563S43.354,52.27,29.939,56.184c0,0-12.043-.3-15.226-4.917s-3.948-3.682-5.2-2.509C8.546,49.644,2.7,52.813,0,54.266a5.781,5.781,0,0,1,1.013.14s1.545,13.041,20.454,33.48a26.647,26.647,0,0,1,1.812,2.122q4.283,3.745,9.626,7.645l21.577,15.788a4.069,4.069,0,0,0,1.686.857,7.809,7.809,0,0,0,3.682.034c2.509-.484,19.645-2.233,30.734-3.338a6.713,6.713,0,0,0,.765-.078l1.453-.14c.233,0,.484-.048.688-.063l1.308-.126c.639-.063,1.216-.126,1.749-.17l1.453-.14c1.284-.126,2.044-.2,2.107-.2a57.834,57.834,0,0,0,7.882-.765c2.495-.484,4.772-1.264,5.363-2.558a1.759,1.759,0,0,0,.121-.862,4.844,4.844,0,0,0-1-2.248c-2.277-3.057-7.567-5.678-7.955-5.867a.053.053,0,0,0-.034,0l-.107-.078L72.891,73.232h-.034s4.743-50.6,47.961-38.146c0,0,.2.14.576.451a147.764,147.764,0,0,1,14.79,13.637c.2.218.421.436.639.669.828.843,1.642,1.72,2.451,2.577,5.474,5.852,11.951,13.308,19.1,22.6l.048.048c8.187,10.658,14.088,20.424,17.925,29.067v.029c4.152,9.394,5.9,17.44,5.557,23.859a2.592,2.592,0,0,1,.01.344Z" transform="translate(-5378.017 -22683.203)" fill="#001c3d"/>
    <path id="Path-11" data-name="Path" d="M.152,20.376C-1.126,5.634,6.048.3,6.45,0c-10.2,18.458,8.72,46.75,9.384,47.844-.543-.455-14.4-12.731-15.682-27.468Z" transform="translate(-5326.609 -22662.17)" fill="#00142b"/>
    <path id="Path-12" data-name="Path" d="M60.949,54.413a16.892,16.892,0,0,1-1.657,1.075l-3.323-5.813c7.664-3.919,9.815-10.828,6.443-14.621a7.485,7.485,0,0,0-3.507-2.17c-3.391-1.027-5.741.484-7.335,2.514a17.3,17.3,0,0,0-2.81,5.881L47.142,22.618l-.126-1.453s-3.527-1.749-13.08-.189-11.312,6.836-15.415,4.5-6.429-2.151-6.429-2.151C10.924,27.608,7.8,27.608,7.8,27.608a9.384,9.384,0,0,1-2.166-.528C1.2,23.006,0,15.937,0,15.937c4.651-.576,5.009-5.053,4.476-8.72C7.054,8.748,10.687,8.855,15.788,5.58c14.636-9.36,29.644-4.292,34.92-3.512A13.3,13.3,0,0,0,57.776.614,3.754,3.754,0,0,0,58.9,1.859a28.045,28.045,0,0,1,8.58,9.563c13.734,25.671-1.323,39.3-6.53,42.99Z" transform="translate(-5414.506 -22699.1)" fill="#00c29a"/>
    <path id="Path-13" data-name="Path" d="M5.445,2.732A2.723,2.723,0,1,1,2.718,0a2.66,2.66,0,0,1,.625.078A1.386,1.386,0,0,0,2.374,1.4a1.41,1.41,0,0,0,1.4,1.419A1.453,1.453,0,0,0,5.174,1.6a2.708,2.708,0,0,1,.262,1.124Z" transform="translate(-5403.378 -22659.197)"/>
    <path id="Path-14" data-name="Path" d="M5.465,2.728A2.732,2.732,0,1,1,2.732,0,1.637,1.637,0,0,1,3.12.044a1.39,1.39,0,0,0-.809,1.264,1.406,1.406,0,1,0,2.81.126,2.645,2.645,0,0,1,.344,1.293Z" transform="translate(-5384.499 -22658.432)"/>
    <path id="Path-15" data-name="Path" d="M11.68,1.453,15.3,0l2.713,7.32L17.586,20.6l-3.667.664L0,20.667s.969-8.1,3.929-11.951A42.5,42.5,0,0,1,11.68,1.453Z" transform="translate(-5360.47 -22551.967)" fill="#f2aa18"/>
    <circle id="Oval-2" data-name="Oval" cx="7.8" cy="7.8" r="7.8" transform="translate(-5389.562 -22666.234)" fill="#fff" opacity="0.26"/>
    <circle id="Oval-3" data-name="Oval" cx="7.8" cy="7.8" r="7.8" transform="translate(-5409.356 -22667.006)" fill="#fff" opacity="0.26"/>
    <circle id="Oval-4" data-name="Oval" cx="6.632" cy="6.632" r="6.632" transform="translate(-5408.188 -22665.838)" fill="none" stroke="#fff" stroke-miterlimit="10" stroke-width="4"/>
    <path id="Path-16" data-name="Path" d="M13.887,0H128.7a16.471,16.471,0,0,1,16.031,12.6l18.278,75.7a13.889,13.889,0,0,1-13.5,17.15H34.99A16.471,16.471,0,0,1,18.974,92.884L.4,17.2A13.889,13.889,0,0,1,13.887,0Z" transform="translate(-5599.986 -22654.852)" fill="#00c29a"/>
    <path id="Path-17" data-name="Path" d="M13.034,0H120.757A15.5,15.5,0,0,1,135.8,11.835l17.159,71.016A13.027,13.027,0,0,1,140.3,98.94H32.834A15.5,15.5,0,0,1,17.816,87.153L.376,16.132A13.027,13.027,0,0,1,13.034,0Z" transform="translate(-5594.953 -22651.596)" fill="#00c29a"/>
    <path id="Path-18" data-name="Path" d="M46.655,34.3,39.809,2.388A3.008,3.008,0,0,0,36.869,0H3A3,3,0,0,0,.089,3.73L8.01,36.014a2.747,2.747,0,0,0,.61,1.216,2.907,2.907,0,0,0,2.28,1.11h.063l32.783-.388a3.008,3.008,0,0,0,2.3-1.124,3.042,3.042,0,0,0,.61-2.529Z" transform="translate(-5578.979 -22638.729)" fill="#b2ede0"/>
    <path id="Path-19" data-name="Path" d="M.02.819A.644.644,0,0,1,.137.262.669.669,0,0,1,.665,0H34.538a.659.659,0,0,1,.649.528l5.213,24.3c-17.407-16.8-19.379,2.481-19.379,2.481C11.2,22.193,8.358,27.793,7.534,31.48Z" transform="translate(-5576.648 -22636.389)" fill="#fff"/>
    <path id="Path-20" data-name="Path" d="M33.219,12.31l-.891-3.667A11.307,11.307,0,0,0,21.331,0H9.088A9.079,9.079,0,0,0,.32,11.467l1.013,3.725a11.288,11.288,0,0,0,10.9,8.348h12.17a9.079,9.079,0,0,0,8.812-11.23Z" transform="translate(-5512.099 -22637.555)" fill="#fff"/>
    <path id="Path-21" data-name="Path" d="M7.651,4.864,3.47,7.436a1.235,1.235,0,0,1-1.846-.688L.05,1.6A1.255,1.255,0,0,1,1.75.1l5.8,2.563a1.24,1.24,0,0,1,.121,2.2Z" transform="translate(-5499.993 -22629.203)" fill="#fff"/>
    <path id="Path-22" data-name="Path" d="M5.131,9.187C7.015,8.6,7.916,6.1,7.136,3.6S4.2-.463,2.292.123-.494,3.214.281,5.719,3.27,9.793,5.131,9.187Z" transform="translate(-5570.805 -22632.006)" fill="#b2ede0"/>
    <path id="Path-23" data-name="Path" d="M1.533,6.491H16.987a2.718,2.718,0,0,0,1.134-.213,1.555,1.555,0,0,0,.145-2.713,2.669,2.669,0,0,1-.7-.484,2.165,2.165,0,0,1-.271-.7A3.178,3.178,0,0,0,15.9.721,4.215,4.215,0,0,0,12.647.1a3.12,3.12,0,0,0-1.425.81c-.349.339-.412.79-.678,1.172-.174.247-.286.17-.523.029s-.368-.233-.562-.334a8.919,8.919,0,0,0-1.187-.523A6.361,6.361,0,0,0,5.67.866a4.227,4.227,0,0,0-3.652,2.51,2.054,2.054,0,0,0-2,1.763A1.226,1.226,0,0,0,.332,6.181a1.768,1.768,0,0,0,1.2.31Z" transform="translate(-5560.894 -22629.875)" fill="#b2ede0"/>
    <path id="Path-24" data-name="Path" d="M33.239,12.31l-.891-3.662A11.317,11.317,0,0,0,21.346,0H9.085A9.079,9.079,0,0,0,.316,11.452l1.013,3.73a11.293,11.293,0,0,0,10.91,8.347H24.408a9.083,9.083,0,0,0,8.832-11.22Z" transform="translate(-5510.927 -22636.389)" fill="#b2ede0"/>
    <path id="Path-25" data-name="Path" d="M7.634,4.849l-4.2,2.587A1.231,1.231,0,0,1,1.6,6.748L.048,1.6A1.255,1.255,0,0,1,1.748.1L7.5,2.659a1.245,1.245,0,0,1,.131,2.19Z" transform="translate(-5498.79 -22628.031)" fill="#fff"/>
    <path id="Path-26" data-name="Path" d="M26.232,6.095H4.815A5.063,5.063,0,0,1,.193,3.077,2.18,2.18,0,0,1,2.213,0H24.982c-1.066,1.807-.533,4.316,1.25,6.094Z" transform="translate(-5506.672 -22597.23)" fill="#b2ede0"/>
    <path id="Path-27" data-name="Path" d="M15.648,3.895a2.2,2.2,0,0,1-2.2,2.2H1.8C.019,4.316-.523,1.807.547,0H10.832a5.048,5.048,0,0,1,4.622,3.008,2.253,2.253,0,0,1,.194.887Z" transform="translate(-5482.242 -22597.23)" fill="#b2ede0"/>
    <path id="Path-28" data-name="Path" d="M10.29,8.133a1.8,1.8,0,0,1-.208.334c-1.531,2.088-4.845,2.282-7.417.407A7.4,7.4,0,0,1,1.8,8.133C.019,6.355-.523,3.846.547,2.039A2.141,2.141,0,0,1,.761,1.7c1.516-2.1,4.845-2.282,7.4-.417a7.838,7.838,0,0,1,.877.751c1.768,1.783,2.311,4.273,1.25,6.094Z" transform="translate(-5482.242 -22599.27)" fill="#fff"/>
    <path id="Path-29" data-name="Path" d="M88.335,3.9a2.214,2.214,0,0,1-2.214,2.2H1.24C2.325,4.273,1.783,1.783,0,0H83.52a5.043,5.043,0,0,1,4.622,3.023,2.19,2.19,0,0,1,.194.877Z" transform="translate(-5549.542 -22583.787)" fill="#b2ede0"/>
    <path id="Path-30" data-name="Path" d="M15.4,6.094H4.815a5.063,5.063,0,0,1-4.622-3A2.364,2.364,0,0,1,0,2.2,2.2,2.2,0,0,1,2.2,0H14.156c1.783,1.783,2.325,4.273,1.24,6.094Z" transform="translate(-5563.698 -22583.787)" fill="#b2ede0"/>
    <path id="Path-31" data-name="Path" d="M10.269,8.126a1.347,1.347,0,0,1-.2.334c-1.516,2.1-4.845,2.287-7.4.421a7.872,7.872,0,0,1-.877-.756C.023,6.348-.52,3.853.541,2.032A1.8,1.8,0,0,1,.749,1.7C2.28-.391,5.594-.584,8.166,1.3a7.853,7.853,0,0,1,.862.736c1.783,1.783,2.325,4.273,1.24,6.094Z" transform="translate(-5558.57 -22585.818)" fill="#fff"/>
    <path id="Path-32" data-name="Path" d="M18.274,6.094H4.815a5.072,5.072,0,0,1-4.622-3A2.3,2.3,0,0,1,0,2.214,2.224,2.224,0,0,1,2.214,0h14.81C15.963,1.822,16.506,4.316,18.274,6.094Z" transform="translate(-5559.09 -22570.439)" fill="#b2ede0"/>
    <path id="Path-33" data-name="Path" d="M86.013,3.91a2.19,2.19,0,0,1-2.2,2.185H1.791C.023,4.316-.52,1.822.541,0H81.193a5.043,5.043,0,0,1,4.622,3.023,2.253,2.253,0,0,1,.2.887Z" transform="translate(-5542.608 -22570.439)" fill="#b2ede0"/>
    <path id="Path-34" data-name="Path" d="M10.283,8.12a2.141,2.141,0,0,1-.213.334c-1.516,2.1-4.845,2.287-7.4.421a7.872,7.872,0,0,1-.877-.756C.023,6.342-.52,3.847.541,2.026a1.8,1.8,0,0,1,.208-.334C2.28-.4,5.594-.576,8.166,1.289a7.853,7.853,0,0,1,.862.736c1.783,1.783,2.325,4.287,1.255,6.094Z" transform="translate(-5542.608 -22572.467)" fill="#fff"/>
    <g id="Group_5273" data-name="Group 5273" transform="translate(-5599.986 -22832.998)">
      <path id="Path-35" data-name="Path" d="M0,0A131.225,131.225,0,0,1,16.752,28.21c31.208,69.693-7.8,105.063-7.8,105.063" transform="translate(407.146 122.227)" fill="none" stroke="#b2ede0" stroke-miterlimit="10" stroke-width="2"/>
      <path id="Path-36" data-name="Path" d="M17.57,177.488s-46.309-52.529,11.438-78.539,69.18-29.624,65.013-56.681,28.583-54.607,80.085-36.4S226.64,58.381,222.987,84.9c-2.073,15.12,6.506,18.753,16.956,17.993" transform="translate(63.613)" fill="none" stroke="#b2ede0" stroke-miterlimit="10" stroke-width="2"/>
      <path id="Path-37" data-name="Path" d="M152.263,152.527h5.523a8.919,8.919,0,0,0,8.909-8.909v-6.182a4.287,4.287,0,0,0-4.292-4.287h-33.03a10,10,0,0,1-10.018,10.014H0a9.369,9.369,0,0,0,9.364,9.364H171.171a1.6,1.6,0,0,0,1.608-1.608V140.886a7.35,7.35,0,0,1,14.7,0v10.033a1.6,1.6,0,0,0,1.6,1.608H385.517s-6-85.549-61.118-127.159C271.056-14.9,221.114,4.508,217.945,5.806l-.155.058" transform="translate(39.34 149.791)" fill="none" stroke="#000" stroke-miterlimit="10" stroke-width="2"/>
      <path id="Path-38" data-name="Path" d="M60.775,0c-.315,2.122.078,3.982,1.637,5.087a28.045,28.045,0,0,1,8.58,9.563C87.376,45.262,62.8,58.735,62.8,58.735l-3.323-5.813c9.568-4.883,10.547-14.446,2.936-16.791s-10.144,8.4-10.144,8.4L50.524,24.4S47,22.648,37.443,24.208s-11.312,6.836-15.415,4.5S15.6,26.553,15.6,26.553c-1.168,4.287-4.292,4.287-4.292,4.287C2.151,29.673,0,17,0,17c4.646-.581,5-5.058,4.476-8.72,2.572,1.531,6.211,1.642,11.312-1.637C30.424-2.713,45.432,2.359,50.7,3.139c3.643.528,7.824-1.7,10.072-3.139Z" transform="translate(181.973 130.676)" fill="none" stroke="#000" stroke-linecap="round" stroke-linejoin="round" stroke-miterlimit="10" stroke-width="2"/>
      <path id="Path-39" data-name="Path" d="M0,6.009S3.706-.642,11.506.051" transform="translate(187.825 159.983)" fill="none" stroke="#000" stroke-miterlimit="10" stroke-width="2"/>
      <path id="Path-40" data-name="Path" d="M0,.4s8.914-2,12.034,2.955" transform="translate(214.605 159.635)" fill="none" stroke="#000" stroke-miterlimit="10" stroke-width="2"/>
      <path id="Path-41" data-name="Path" d="M9.229.911A7.06,7.06,0,0,0,0,3.013" transform="translate(219.188 189.236)" fill="none" stroke="#000" stroke-miterlimit="10" stroke-width="2"/>
      <path id="Path-42" data-name="Path" d="M.17,0S-3.624,44.623,24.664,43.8c4.845-.14,9.66-3.323,14.262-8.444" transform="translate(194.573 161.099)" fill="none" stroke="#000" stroke-miterlimit="10" stroke-width="2"/>
      <path id="Path-43" data-name="Path" d="M11.273,38.32,0,34.26s2.8,8.933,16.641,9.616S35.132,12.785,24.959,0" transform="translate(233.499 162.194)" fill="none" stroke="#000" stroke-linejoin="round" stroke-miterlimit="10" stroke-width="2"/>
      <path id="Path-44" data-name="Path" d="M5.758,0S-4.576,8.386,2.444,12.286" transform="translate(283.09 290.032)" fill="none" stroke="#000" stroke-miterlimit="10" stroke-width="2"/>
      <path id="Path-45" data-name="Path" d="M8.774,0S-9.151,10.144,6.24,20.09" transform="translate(272.08 282.228)" fill="none" stroke="#000" stroke-miterlimit="10" stroke-width="2"/>
      <path id="Path-46" data-name="Path" d="M12.4,0S-11.391,11.142,6.94,27.89" transform="translate(262.41 274.428)" fill="none" stroke="#000" stroke-miterlimit="10" stroke-width="2"/>
      <path id="Path-47" data-name="Path" d="M136.755,137.689s28.864,0,29.251-27.89S110.037,11.877,73.568,2.135,35.533,19.091,35.533,20.186s-2.141,12.6,7.218,24.867C49.98,54.538,81.9,78.218,96.07,88.508A3.168,3.168,0,0,1,94.5,94.225l-62.649,6.017h-.039c-.591.107-22.7,4.186-29.435,11.113,0,0-3.774,2.8-1.822,7.088s7.95,2.878,8.115,2.718" transform="translate(238.102 164.628)" fill="none" stroke="#000" stroke-miterlimit="10" stroke-width="2"/>
      <path id="Path-48" data-name="Path" d="M34.6.846A20.968,20.968,0,0,0,22.76.875a17.222,17.222,0,0,0-6.119,3.483c-.388.339-.761.683-1.119,1.027a28.816,28.816,0,0,0-2.185,2.4.581.581,0,0,1-.358.208C11.264,8.229-.058,10.021,0,15.743c.053,5.14,5.683,5.983,7.62,6.119a.581.581,0,0,0,.635-.572A22.29,22.29,0,0,1,13.2,7.943" transform="translate(231.246 280.408)" fill="none" stroke="#000" stroke-miterlimit="10" stroke-width="2"/>
      <circle id="Oval-5" data-name="Oval" cx="7.8" cy="7.8" r="7.8" transform="translate(210.425 166.763)" fill="none" stroke="#000" stroke-miterlimit="10" stroke-width="2"/>
      <circle id="Oval-6" data-name="Oval" cx="7.8" cy="7.8" r="7.8" transform="translate(190.63 165.993)" fill="none" stroke="#000" stroke-miterlimit="10" stroke-width="2"/>
      <path id="Path-49" data-name="Path" d="M4.234.49H0" transform="translate(206.229 173.302)" fill="none" stroke="#000" stroke-miterlimit="10" stroke-width="2"/>
      <path id="Path-50" data-name="Path" d="M3.984,11.021H1.193A1.192,1.192,0,0,1,.021,9.607L1.867,0" transform="translate(206.479 173.792)" fill="none" stroke="#000" stroke-miterlimit="10" stroke-width="2"/>
      <path id="Path-51" data-name="Path" d="M0,6.075s10.44-6.24,31,0S75.211,16.549,83.011,0" transform="translate(163.568 240.462)" fill="none" stroke="#000" stroke-miterlimit="10" stroke-width="2"/>
      <path id="Path-52" data-name="Path" d="M0,0S7.267,8.294,2.849,21.035" transform="translate(254.015 281.283)" fill="none" stroke="#000" stroke-miterlimit="10" stroke-width="2"/>
      <path id="Path-53" data-name="Path" d="M13.887,0H128.7a16.471,16.471,0,0,1,16.031,12.6l18.278,75.7a13.889,13.889,0,0,1-13.5,17.15H34.99A16.471,16.471,0,0,1,18.974,92.884L.4,17.2A13.889,13.889,0,0,1,13.887,0Z" transform="translate(0 178.147)" fill="none" stroke="#001c3d" stroke-miterlimit="10" stroke-width="2"/>
    </g>
    <g id="Group_5282" data-name="Group 5282">
      <path id="Path-54" data-name="Path" d="M32.9,1.068A25.579,25.579,0,1,0,48.1,13.415,25.579,25.579,0,0,0,32.9,1.068Z" transform="translate(-5414.564 -22804.998)" fill="#00c29a"/>
      <path id="Icon_awesome-bell" data-name="Icon awesome-bell" d="M11.78,0a3.365,3.365,0,0,1,3.364,3.366H8.416A3.365,3.365,0,0,1,11.78,0ZM23.108,7.873c-1.016,1.092-2.917,2.734-2.917,8.114a8.3,8.3,0,0,1-6.728,8.16v1.1a1.682,1.682,0,0,1-3.364,0v-1.1a8.305,8.305,0,0,1-6.729-8.16c0-5.38-1.9-7.022-2.917-8.114A1.643,1.643,0,0,1,0,6.732,1.684,1.684,0,0,1,1.688,5.049H21.873a1.684,1.684,0,0,1,1.688,1.683,1.642,1.642,0,0,1-.453,1.141Z" transform="translate(-5374.633 -22769.85) rotate(164.991)" fill="#fff"/>
    </g>
    <g id="Group_5329" data-name="Group 5329">
      <path id="Path-55" data-name="Path" d="M32.9,1.068A25.579,25.579,0,1,0,48.1,13.415,25.579,25.579,0,0,0,32.9,1.068Z" transform="translate(-5414.564 -22804.998)" fill="#f2aa18"/>
      <path id="Icon_awesome-bell-2" data-name="Icon awesome-bell" d="M11.78,0a3.365,3.365,0,0,1,3.364,3.366H8.416A3.365,3.365,0,0,1,11.78,0ZM23.108,7.873c-1.016,1.092-2.917,2.734-2.917,8.114a8.3,8.3,0,0,1-6.728,8.16v1.1a1.682,1.682,0,0,1-3.364,0v-1.1a8.305,8.305,0,0,1-6.729-8.16c0-5.38-1.9-7.022-2.917-8.114A1.643,1.643,0,0,1,0,6.732,1.684,1.684,0,0,1,1.688,5.049H21.873a1.684,1.684,0,0,1,1.688,1.683,1.642,1.642,0,0,1-.453,1.141Z" transform="translate(-5374.633 -22769.85) rotate(164.991)" fill="#fff"/>
    </g>
    <g id="Group_5330" data-name="Group 5330" transform="translate(-5482.645 -22725.867)">
      <path id="Path-56" data-name="Path" d="M10.757.629A15.056,15.056,0,1,1,1.812,7.9,15.056,15.056,0,0,1,10.757.629Z" fill="#2a8c78"/>
      <path id="Icon_awesome-bell-3" data-name="Icon awesome-bell" d="M6.934,15.849a1.981,1.981,0,0,0,1.98-1.981H4.954a1.981,1.981,0,0,0,1.98,1.981ZM13.6,11.215c-.6-.643-1.717-1.609-1.717-4.776a4.888,4.888,0,0,0-3.962-4.8V.991a.99.99,0,0,0-1.98,0v.645a4.889,4.889,0,0,0-3.961,4.8C1.981,9.6.862,10.57.264,11.212A.967.967,0,0,0,0,11.887a.991.991,0,0,0,.994.991H12.875a.991.991,0,0,0,.994-.991.967.967,0,0,0-.269-.672Z" transform="translate(10.717 5.38) rotate(15.009)" fill="#fff"/>
    </g>
    <g id="Group_5331" data-name="Group 5331" transform="translate(-5314.888 -22731.506) rotate(-35.025)">
      <path id="Path-57" data-name="Path" d="M10.757.629A15.056,15.056,0,1,1,1.812,7.9,15.056,15.056,0,0,1,10.757.629Z" fill="#2a8c78"/>
      <path id="Icon_awesome-bell-4" data-name="Icon awesome-bell" d="M6.934,15.849a1.981,1.981,0,0,0,1.98-1.981H4.954a1.981,1.981,0,0,0,1.98,1.981ZM13.6,11.215c-.6-.643-1.717-1.609-1.717-4.776a4.888,4.888,0,0,0-3.961-4.8V.991a.99.99,0,0,0-1.98,0v.645a4.889,4.889,0,0,0-3.961,4.8C1.982,9.6.863,10.57.265,11.212A.967.967,0,0,0,0,11.887a.991.991,0,0,0,.994.991H12.875a.991.991,0,0,0,.994-.991.967.967,0,0,0-.269-.672Z" transform="translate(10.717 5.379) rotate(15.009)" fill="#fff"/>
    </g>
  </g>
</svg>
