<svg xmlns="http://www.w3.org/2000/svg" width="436" height="429.813" viewBox="0 0 436 429.813">
  <g id="Group" transform="translate(-49 -127.362)">
    <path id="Path" d="M9.773,143.076S-22.614,43.892,68.345,54.084s47.5-26.77,81.871-49.707S285.861,52.8,243.491,121.627,311.2,127.494,334.165,231c14.17,63.873-20.986,110.885-49.99,137.534" transform="translate(132.737 149.557)" fill="none" stroke="#b2ede0" stroke-miterlimit="10" stroke-width="2"/>
    <path id="Shape" d="M155.2,210.113,144.746,183.26,107.863,88.649h-81.2A26.645,26.645,0,0,1,.864,55.275L20.479.441c1.361,3.808,3.987,19.334,26.916,16.4,3.3,15.042,8.177,29.7,15.672,43.14,2.631,4.733,6,9.912,11.041,12.382A11.932,11.932,0,0,0,75.7,73c5.053,1.637,11.273.3,16.059-1.269,11.607-3.793,23.423-8.357,34.023-14.451,9.175-5.242,20.1-13.763,18.893-25.1v-.16a15.986,15.986,0,0,0-10.953-13.812,73.727,73.727,0,0,1-11.094,14.049,37.846,37.846,0,0,1-8.11-11.627,55.421,55.421,0,0,1-3.284-9.689C134.135,5.247,162.717.247,193.1,0c-3.585,3.3-6.133,8.037-5.387,13.036.654,4.437,4.273,8.55,8,10.885,6.2,3.885,14.465,3.566,21.141,1.095a35.853,35.853,0,0,0,16.287-12.629A21.858,21.858,0,0,0,236.91,3.27V3.217A212.221,212.221,0,0,1,267.681,10.6C307,23.278,331.206,58.7,338.042,98.284c2.844,16.573,3.057,33.959-.533,50.459-2.03,9.263-4.966,19.683-11.782,26.644a18.148,18.148,0,0,1-10.687,5.329,14.6,14.6,0,0,0,1.516-6.448,14.965,14.965,0,0,0-14.839-15.018l-9.466-.053-14.17-.073a10.562,10.562,0,0,0-1.308-.053h-9.539l-8.037-.034-43.687-.232c-.562,0-1.148.039-1.73.092.368.053.761.107,1.114.194-.392,0-.78.034-1.187.068a15.018,15.018,0,0,1,13.182,14.558V174a5.113,5.113,0,0,1,0,.548,15.018,15.018,0,0,1-13.23,14.01,10.9,10.9,0,0,0,1.148.087,9.648,9.648,0,0,1-1.08.179c.586.053,1.148.107,1.734.107h-.548c-7.756,0-12.527,4.767-12.527,10.58A10.623,10.623,0,0,0,205.5,207c1.923,1.928,4.574,3.11,9.418,3.11Z" transform="translate(87.739 346.061)" fill="#fff"/>
    <g id="Group_5295" data-name="Group 5295" transform="translate(87.739 292.82)">
      <path id="Path-2" data-name="Path" d="M20.085,0c2.81,4.573,5.634,9.137,8.55,13.642,1.8,2.776,5.072,6.734,1.589,9.636A7.092,7.092,0,0,1,26.3,24.731c-2.238.2-4.588-.339-5.949-2.262l-6.787-11.24A10.416,10.416,0,0,0,0,7.286" transform="translate(45.355 24.867)" fill="none" stroke="#000" stroke-miterlimit="10" stroke-width="2"/>
      <path id="Path-3" data-name="Path" d="M25.627,14.78c1.773,4.215.572,6.932-1.5,8.3a7.708,7.708,0,0,1-10.333-2.088L0,0" transform="translate(65.465 24.893)" fill="none" stroke="#000" stroke-miterlimit="10" stroke-width="2"/>
      <path id="Path-4" data-name="Path" d="M77.115,18.763c5.019,6.1,11.351,17.44,14.853,22.173s8.919,1.88,8.919,1.88c4.4-2.369,3.653-6.3,1.729-11.07-4.738-11.714-11.5-19.5-19.044-24.61C60.2-8.675,36.219,2.99,29.083,30.284L.864,108.517a26.644,26.644,0,0,0,25.8,33.373h81.2l47.354,121.47" fill="none" stroke="#000" stroke-miterlimit="10" stroke-width="2"/>
      <path id="Path-5" data-name="Path" d="M33.015,24.29c5.813-2.015,5.547-11.288-2.7-14.417C21.2,6.414,5.019,1.521.954.3A.165.165,0,0,0,.867.266C.581.179.383.107.228.073L0,0" transform="translate(73.095 2.084)" fill="none" stroke="#000" stroke-miterlimit="10" stroke-width="2"/>
      <g id="Group-2" data-name="Group" transform="translate(-1 -0.568)">
        <path id="Path_2621" data-name="Path 2621" d="M-8218.84-20397.3h-19.6l-13.546-36.01s5.938-97.377,1.9-108.687-45.785-26.932-45.785-26.932-7.973-25.129,33.708-32.975,62.644-5.762,62.644-5.762-18.143,14.713,8.582,27.217c26.112.859,35.919-23.414,35.919-23.414s43.2,9.09,56.71,21.32c26.312,23.826,41.071,46.447,44.418,84.377s-8.127,60.082-11.793,63.906-5.578,5.895-11.156,7.33-109.521,29.629-109.521,29.629" transform="translate(8394.261 20661.305)" fill="#001c3d"/>
        <path id="Path_2622" data-name="Path 2622" d="M-8121.52-20512.5s19.682-15.33,38.535-18.023,25.068,9.943,25.068,9.943,6.837,39.572,4.558,52-8.7,33.355-13.052,36.049-10.773,6.215-10.773,6.215l-60.5-24.654s-24.447-19.887-33.562-29-25.9-25.689-25.9-25.689l-6.083-4.861s3.112,5-.754,8.3-12.636-4.244-15.748-6.318-8.394-10.844-5.281-23.764,6.6-14.617,9.619-15.654-2.547-2.828-2.547-2.828l-15.748-3.773s-5-8.3,0-11.127,10.185-2.264,16.88,0,17.634,1.6,42.529,23.1,54.222,40.266,54.222,40.266,5.658,1.793,3.018-3.582S-8121.52-20512.5-8121.52-20512.5Z" transform="translate(8394.261 20661.305)" fill="#fff"/>
        <path id="Path-6" data-name="Path" d="M134.065,6.782c-30.352.253-58.909,5.237-82.019,10.977" transform="translate(58.997 46.454)" fill="none" stroke="#000" stroke-miterlimit="10" stroke-width="2"/>
        <path id="Path-7" data-name="Path" d="M33.948,25.51c-5.087-6.114-19.01-9.577-28.1-11.254A7.17,7.17,0,0,1,.037,7.9,7.305,7.305,0,0,1,.391,4.8,7.223,7.223,0,0,1,7.933.038c15.5,1.57,31.489,6.448,43.314,16.956,0,0,57.324,43.745,64.17,48,2.824,1.715,5.46-.31,3.546-3l-.6-1.027a92.393,92.393,0,0,0-11.893-16.1" transform="translate(158.053 93.572)" fill="none" stroke="#000" stroke-miterlimit="10" stroke-width="2"/>
      </g>
    </g>
    <path id="Path-8" data-name="Path" d="M0,9.263S11.089,7.916,15.241,0L11.622,20.3S55.735,5.285,63.826,3.348c0,0,2.606,16.8,12.983,21.316L87.515,11.05s13.424,3.391,9.752,21.684S42.806,66.316,34.192,65.962,16.306,60.308,6.811,31.828Z" transform="translate(135.115 353.652)" fill="#353642"/>
    <path id="Path-9" data-name="Path" d="M11.426.232S3.573-1.546,1.485,4.742-2.783,21.034,12.23,21.625s6.2-2.359,5.329-7.218S11.426.232,11.426.232Z" transform="translate(381.35 534.549)" fill="#001c3d"/>
    <path id="Path-10" data-name="Path" d="M16.936,2.829S8.463-3.594.833,2.917A4.631,4.631,0,0,0,0,3.885" transform="translate(255.877 417.051)" fill="none" stroke="#000" stroke-miterlimit="10" stroke-width="2"/>
    <g id="Group-3" data-name="Group" transform="translate(130.193 308.184)" opacity="0.77">
      <path id="Path-11" data-name="Path" d="M36.774,30.494a7.7,7.7,0,0,0,10.333,2.083c2.049-1.356,3.251-4.06,1.521-8.236.315.46.6.867.882,1.24,3.5,4.752,8.919,1.889,8.919,1.889,4.4-2.369,3.658-6.3,1.734-11.074A60.783,60.783,0,0,0,52.814,3.075C54.776,1.238,57.106-.617,59.562.2c2.65.882,3.391,4.2,3.691,6.976.14,1.289.281,2.563.421,3.851L65.8,30a144.11,144.11,0,0,0,2.95,18.835,55.436,55.436,0,0,0,3.285,9.689,37.845,37.845,0,0,0,8.11,11.627A73.737,73.737,0,0,0,91.235,56.1a15.987,15.987,0,0,1,10.953,13.812v.16c1.2,11.341-9.718,19.862-18.893,25.1-10.6,6.094-22.415,10.658-34.023,14.451-4.786,1.57-11.007,2.907-16.059,1.269a11.937,11.937,0,0,1-1.589-.635c-5.038-2.471-8.41-7.649-11.04-12.382C7.988,75.228,2.756,49.223,0,23.47c5.513-.761,11.007-1.608,16.432-2.776a.061.061,0,0,0,.034.053L22.72,31.119l.514.862c1.356,1.938,3.706,2.456,5.949,2.262a6.961,6.961,0,0,0,3.924-1.453c3.478-2.907.213-6.85-1.589-9.626" fill="#fff" stroke="#707070" stroke-width="2"/>
      <g id="Group-4" data-name="Group">
        <path id="Path-12" data-name="Path" d="M36.774,30.494a7.7,7.7,0,0,0,10.333,2.083c2.049-1.356,3.251-4.06,1.521-8.236.315.46.6.867.882,1.24,3.5,4.752,8.919,1.889,8.919,1.889,4.4-2.369,3.658-6.3,1.734-11.074A60.783,60.783,0,0,0,52.814,3.075C54.776,1.238,57.106-.617,59.562.2c2.65.882,3.391,4.2,3.691,6.976.14,1.289.281,2.563.421,3.851L65.8,30a144.11,144.11,0,0,0,2.95,18.835,55.436,55.436,0,0,0,3.285,9.689,37.845,37.845,0,0,0,8.11,11.627A73.737,73.737,0,0,0,91.235,56.1a15.987,15.987,0,0,1,10.953,13.812v.16c1.2,11.341-9.718,19.862-18.893,25.1-10.6,6.094-22.415,10.658-34.023,14.451-4.786,1.57-11.007,2.907-16.059,1.269a11.937,11.937,0,0,1-1.589-.635c-5.038-2.471-8.41-7.649-11.04-12.382C7.988,75.228,2.756,49.223,0,23.47c5.513-.761,11.007-1.608,16.432-2.776a.061.061,0,0,0,.034.053L22.72,31.119l.514.862c1.356,1.938,3.706,2.456,5.949,2.262a6.961,6.961,0,0,0,3.924-1.453c3.478-2.907.213-6.85-1.589-9.626" fill="#00c29a" stroke="#000" stroke-width="2"/>
      </g>
    </g>
    <path id="Path-13" data-name="Path" d="M16.331,1.561S.242-3.729,0,5.166" transform="translate(255.461 427.669)" fill="none" stroke="#000" stroke-miterlimit="10" stroke-width="2"/>
    <path id="Path-14" data-name="Path" d="M31.869,94.016.317,13.182A10.609,10.609,0,0,1,10.611,0H135.937a12.529,12.529,0,0,1,12.185,9.6l34.54,80.812a10.609,10.609,0,0,1-10.314,13.08H44.023a12.523,12.523,0,0,1-12.155-9.481Z" transform="translate(95.912 425.82)" fill="#fff" stroke="#707070" stroke-width="2" opacity="0.54"/>
    <path id="Path-15" data-name="Path" d="M21.763,37.47a6.019,6.019,0,0,1,1.618,5.813,4.527,4.527,0,0,1-5.75,3.265C9.686,43.8,2.531,39.136.787,31.206A38.533,38.533,0,0,1,.259,19,50.132,50.132,0,0,1,2.468,7.56C4.406,2.047,10.34-1.794,16.1.86" transform="translate(255.265 405.398)" fill="none" stroke="#000" stroke-miterlimit="10" stroke-width="2"/>
    <path id="Path-16" data-name="Path" d="M31.869,94.016.317,13.182A10.609,10.609,0,0,1,10.611,0H135.937a12.529,12.529,0,0,1,12.185,9.6l34.54,80.812a10.609,10.609,0,0,1-10.314,13.08H44.023a12.523,12.523,0,0,1-12.155-9.481Z" transform="translate(95.912 425.82)" fill="#f2aa18"/>
    <path id="Path-17" data-name="Path" d="M31.869,94.016.317,13.182A10.609,10.609,0,0,1,10.611,0H135.937a12.529,12.529,0,0,1,12.185,9.6l34.54,80.812a10.609,10.609,0,0,1-10.314,13.08H44.023a12.523,12.523,0,0,1-12.155-9.481Z" transform="translate(95.912 425.82)" fill="none" stroke="#000" stroke-linecap="square" stroke-linejoin="round" stroke-miterlimit="10" stroke-width="2"/>
    <path id="Path-18" data-name="Path" d="M29.4,86.764.291,12.16A9.791,9.791,0,0,1,9.791,0H125.408a11.554,11.554,0,0,1,11.239,8.856l31.872,74.561A9.791,9.791,0,0,1,159,95.484H40.611a11.554,11.554,0,0,1-11.21-8.72Z" transform="translate(102.996 429.817)" fill="#f2aa18"/>
    <g id="Group-5" data-name="Group" transform="translate(49 308.169)">
      <path id="Path-19" data-name="Path" d="M0,0,22.168,51.3" transform="translate(330.837 196.707)" fill="none" stroke="#000" stroke-miterlimit="10" stroke-width="2"/>
      <path id="Path-20" data-name="Path" d="M436,.49H0" transform="translate(0 247.515)" fill="none" stroke="#000" stroke-miterlimit="10" stroke-width="2"/>
      <path id="Path-21" data-name="Path" d="M12.019,0C8.424,3.551,3.057,3.546,0,.262" transform="translate(217.787 16.479)" fill="none" stroke="#000" stroke-miterlimit="10" stroke-width="2"/>
      <path id="Path-22" data-name="Path" d="M0,3.075C1.962,1.238,4.292-.617,6.748.2c2.65.882,3.391,4.2,3.691,6.976Q11.714,18.6,12.983,30c1.075,9.689,2.209,19.61,6.235,28.514a37.845,37.845,0,0,0,8.11,11.627" transform="translate(134.007)" fill="none" stroke="#000" stroke-miterlimit="10" stroke-width="2"/>
      <path id="Path-23" data-name="Path" d="M69.038,13.971v-.16A15.987,15.987,0,0,0,58.085,0,73.737,73.737,0,0,1,46.991,14.049a75.8,75.8,0,0,1-41,21.02c.746,2.97,2.282,5.673,3.343,8.531s1.589,6.167.3,8.923C8,56.041,3.333,55.58.087,54.8H0" transform="translate(114.343 56.107)" fill="none" stroke="#000" stroke-miterlimit="10" stroke-width="2"/>
      <path id="Path-24" data-name="Path" d="M16.432,0C11.007,1.168,5.513,2.015,0,2.776,2.756,28.529,7.969,54.534,20.584,77.182c2.631,4.733,6,9.912,11.04,12.382a11.937,11.937,0,0,0,1.589.635c5.053,1.662,11.273.3,16.059-1.269C60.9,85.131,72.7,80.573,83.3,74.478c9.151-5.247,20.071-13.763,18.893-25.1a16.593,16.593,0,0,0-.761-3.672" transform="translate(81.203 20.703)" fill="none" stroke="#000" stroke-miterlimit="10" stroke-width="2"/>
    </g>
    <path id="Path-25" data-name="Path" d="M0,19.134a16.65,16.65,0,0,0,14.7,12.7,8.773,8.773,0,0,1,1.822-3.808c3.876-4.568,5.528,4,17.924-2.151,17.178-8.546,23.7-3.643,23.7-3.643.572.426.484,4.36.581,5.077.484,4.084.92,8.148,1.4,12.227.291,2.49.576,4.961.848,7.431a12.045,12.045,0,0,1,.775-1.216c1.565-5.537,4.36-12.077,10.386-9.263a8.618,8.618,0,0,1,3.1,2.553c4,5.251.969,10.324-3.212,14.078a21.684,21.684,0,0,1-3.493,3.125c.688,1.424,3.5,7.078,3.5,7.1.291.572,10.11-10.542,10.842-11.753a28.2,28.2,0,0,0,1.734-9.258c.16-13-5.13-28.127-15.657-35.582C66.34,4.906,67.173,3.128,67.013.618A.673.673,0,0,0,65.807.265c-3.3,3.8-11.467,3.42-11.467,3.42-28.35-7.1-37.879,5.5-43.6,7.751a10.73,10.73,0,0,1-7.267.121A4.36,4.36,0,0,1,.5,14.948l.145,1.313A4.36,4.36,0,0,1,0,19.134Z" transform="translate(237.362 258.369)" fill="#00c29a"/>
    <path id="Path-26" data-name="Path" d="M.47.49H.49" transform="translate(248.731 295.77)" fill="#3fbdf1" stroke="#707070" stroke-width="2"/>
    <path id="Path-27" data-name="Path" d="M15.3,37.858A16.65,16.65,0,0,1,.6,25.155,22.425,22.425,0,0,1,0,21.193l.223-.024a3.28,3.28,0,0,0,.891-.194,4.36,4.36,0,0,0,2.97-3.391,4.1,4.1,0,0,0,.053-1.318L3.41,9.852s5.125,3.813,10.813,1.584S29.459-3.4,57.823,3.685c0,0,6.4.378,9.689-3.42a.673.673,0,0,1,1.206.354c.17,2.514,1.1,4.292,3.716,6.133,10.527,7.46,15.817,22.585,15.652,35.582a30.445,30.445,0,0,1-4.607,15.284c-.732,1.211-10.551,12.324-10.842,11.753,0,0-2.81-5.673-3.5-7.1l-.165-.315.315-.208a32.612,32.612,0,0,0,3.343-2.6c4.176-3.754,7.209-8.827,3.212-14.078a8.618,8.618,0,0,0-3.1-2.553c-6.042-2.817-8.82,3.726-10.384,9.264a15.051,15.051,0,0,0-.557,3.246c-.073-.678-.145-1.332-.218-2.01-.271-2.471-.557-4.941-.848-7.431-.484-4.079-.94-8.144-1.4-12.227-.073-.7,0-4.651-.581-5.077,0,0-6.525-4.9-23.7,3.643-12.4,6.152-14.049-2.422-17.924,2.151a8.773,8.773,0,0,0-1.822,3.808,9.689,9.689,0,0,0-.17,1.361.581.581,0,0,0,0,.179c-.058,1-.078,2-.1,2.979-.092,9.442.945,19.305,4.651,28.074,4.5,10.623,16.426,21.11,28.823,16.154a40.041,40.041,0,0,0,10.527-6.719" transform="translate(236.78 252.366)" fill="none" stroke="#000" stroke-miterlimit="10" stroke-width="2"/>
    <ellipse id="Oval" cx="2.354" cy="2.849" rx="2.354" ry="2.849" transform="translate(256.527 308.596) rotate(-18.5)"/>
    <ellipse id="Oval-2" data-name="Oval" cx="2.354" cy="2.849" rx="2.354" ry="2.849" transform="translate(274.973 308.007) rotate(-18.5)"/>
    <g id="Group-6" data-name="Group" transform="translate(251.27 298.967)">
      <path id="Path-28" data-name="Path" d="M20.691,14.962s-6.138,3.483-6.511-.131C14.063,13.717,12.562,2.8,12.562,2.8S7.6-2.454,0,1.431" transform="translate(0 1.927)" fill="none" stroke="#000" stroke-miterlimit="10" stroke-width="2"/>
      <path id="Path-29" data-name="Path" d="M0,1.672S9.912-3.279,16.471,3.857" transform="translate(19.31)" fill="none" stroke="#000" stroke-miterlimit="10" stroke-width="2"/>
      <path id="Path-30" data-name="Path" d="M4.378,0,5.516,5.842C1.926,9.151-.612,13.894.129,18.888c.659,4.428,4.282,8.55,8,10.871,6.211,3.876,14.47,3.57,21.156,1.1A36.042,36.042,0,0,0,45.57,18.234a21.877,21.877,0,0,0,3.759-9.112V9.064" transform="translate(24.021 41.247)" fill="none" stroke="#000" stroke-miterlimit="10" stroke-width="2"/>
      <path id="Path-31" data-name="Path" d="M0,0,2.219,10.551" transform="translate(29.537 47.089)" fill="none" stroke="#000" stroke-miterlimit="10" stroke-width="2"/>
      <path id="Path-32" data-name="Path" d="M42.956,0l3.352,22.26a9.2,9.2,0,0,0,9.112,7.824,212.236,212.236,0,0,1,30.791,7.383c39.322,12.683,63.525,48.105,70.361,87.684,2.844,16.573,3.057,33.955-.514,50.436-2.03,9.277-4.966,19.7-11.782,26.644-8.851,9.059-22.435,5.329-32.894,1.235-32.472-12.629-59.48-35.1-82.8-60.822C16.113,128.886,0,117.86,0,117.86" transform="translate(17.958 20.227)" fill="none" stroke="#000" stroke-miterlimit="10" stroke-width="2"/>
    </g>
    <path id="Path-33" data-name="Path" d="M8.473,30.749C4.83,30.715,1.656,27.775.838,23.681-.78,15.63-1.207,3.179,10.6.462,25.351-2.929,36.7,13.135,42.258,23.289c1.87,3.391-.247,7.751-3.73,7.751Z" transform="translate(134.655 469.133)" fill="#fff"/>
    <ellipse id="Oval-3" data-name="Oval" cx="6.811" cy="10.043" rx="6.811" ry="10.043" transform="matrix(0.833, -0.554, 0.554, 0.833, 131.2, 449.81)" fill="#fff"/>
    <path id="Path-34" data-name="Path" d="M88.692,30.176c-.228.034-.484.068-.707.121H87.9l-34.459-.179-51.7-.266H1.148A11.144,11.144,0,0,1,0,29.764,14.984,14.984,0,0,0,13.23,15.74a5.121,5.121,0,0,0,0-.547v-.281A14.989,14.989,0,0,0,1.235.286C.882.2.494.145.121.092.707.039,1.289,0,1.855,0L45.538.233,53.58.266,64.426.32A14.979,14.979,0,0,1,78.044,15.192a13.777,13.777,0,0,1-.16,2.1A14.979,14.979,0,0,1,63.128,30.118H89.375C87.864,30.118,88.285,30.118,88.692,30.176Z" transform="translate(301.73 504.872)" fill="#fff" stroke="#707070" stroke-width="2"/>
    <path id="Path-35" data-name="Path" d="M30.384,18.07A10.546,10.546,0,0,0,37.9,21.18H12.523C7.679,21.18,5.033,20,3.1,18.07A10.658,10.658,0,0,1,0,10.58C0,4.767,4.767,0,12.523,0H37.9a10.58,10.58,0,0,0-7.49,18.07Z" transform="translate(290.142 534.994)" fill="#f2aa18"/>
    <path id="Path-36" data-name="Path" d="M39.783,15.139a14.606,14.606,0,0,1-1.521,6.448,14.078,14.078,0,0,1-2.878,4.064,14.926,14.926,0,0,1-7.136,3.939,15.119,15.119,0,0,1-3.391.388c.233-.053.484-.087.707-.121-.407-.039-.828-.053.688-.053H0A14.979,14.979,0,0,0,14.766,16.975a13.778,13.778,0,0,0,.16-2.1A14.979,14.979,0,0,0,1.3,0L15.47.073l9.466.053A14.969,14.969,0,0,1,39.783,15.139Z" transform="translate(364.548 505.191)" fill="#f2aa18" stroke="#707070" stroke-width="2"/>
    <g id="Group-7" data-name="Group" transform="translate(290.142 504.876)">
      <path id="Path-37" data-name="Path" d="M102.944,15.449A14.96,14.96,0,0,1,87.927,30.3L1.734,29.852c-.576,0-1.153-.044-1.734-.1A14.935,14.935,0,0,0,13.254,14.987,14.935,14.935,0,0,0,.155.087,15.987,15.987,0,0,1,1.889,0L88.082.446a14.964,14.964,0,0,1,14.863,15Z" transform="translate(11.244)" fill="none" stroke="#000" stroke-linecap="square" stroke-linejoin="round" stroke-miterlimit="10" stroke-width="2"/>
      <path id="Path-38" data-name="Path" d="M77.991,14.921A14.96,14.96,0,0,1,63.06,29.851H1.734A17.34,17.34,0,0,1,0,29.755,14.935,14.935,0,0,0,13.175,14.923,14.935,14.935,0,0,0,0,.092C.576.039,1.158,0,1.734,0H63.06A14.964,14.964,0,0,1,77.991,14.921Z" transform="translate(11.331 0.262)" fill="none" stroke="#000" stroke-linecap="square" stroke-linejoin="round" stroke-miterlimit="10" stroke-width="2"/>
      <path id="Path-39" data-name="Path" d="M0,10.6a10.566,10.566,0,0,0,3.1,7.48c1.938,1.938,4.568,3.115,9.418,3.115h88.135c-1.516,0-1.1-.029-.693-.068a10.6,10.6,0,0,1,0-21.054C99.548.029,99.137,0,100.653,0H12.518C4.757,0,0,4.772,0,10.6Z" transform="translate(0 30.108)" fill="none" stroke="#000" stroke-linecap="square" stroke-linejoin="round" stroke-miterlimit="10" stroke-width="2"/>
      <path id="Path-40" data-name="Path" d="M0,10.6a10.619,10.619,0,0,0,10.6,10.6H71.456c.407,0,.819-.029,1.23-.068a10.6,10.6,0,0,1,0-21.054C72.274.029,71.862,0,71.456,0H10.6A10.624,10.624,0,0,0,0,10.595Z" transform="translate(27.274 30.108)" fill="#fff" stroke="#000" stroke-linecap="square" stroke-linejoin="round" stroke-miterlimit="10" stroke-width="2"/>
    </g>
    <path id="Path-41" data-name="Path" d="M33.3,7.742H6.11A6.414,6.414,0,0,1,.248,3.9,2.761,2.761,0,0,1,2.806,0h28.9c-1.361,2.291-.669,5.474,1.589,7.741Z" transform="translate(185.462 457.003)" fill="#fff" opacity="0.3"/>
    <path id="Path-42" data-name="Path" d="M19.865,4.956a2.8,2.8,0,0,1-2.8,2.8H2.285C.027,5.489-.666,2.306.7,0H13.751a6.419,6.419,0,0,1,5.867,3.816,2.984,2.984,0,0,1,.247,1.139Z" transform="translate(216.474 456.989)" fill="#fff" opacity="0.3"/>
    <path id="Path-43" data-name="Path" d="M13.063,10.341a2.907,2.907,0,0,1-.266.421c-1.938,2.65-6.148,2.907-9.418.514a10.13,10.13,0,0,1-1.095-.935C.027,8.079-.666,4.9.7,2.59a2.907,2.907,0,0,1,.266-.421C2.9-.5,7.09-.738,10.36,1.636a9.776,9.776,0,0,1,1.11.964c2.238,2.253,2.936,5.416,1.594,7.737Z" transform="translate(216.474 454.404)" fill="#fff"/>
    <path id="Path-44" data-name="Path" d="M32.913,4.961a2.81,2.81,0,0,1-2.81,2.79H1.574C2.95,5.435,2.262,2.277,0,0H26.8a6.409,6.409,0,0,1,5.867,3.831,2.81,2.81,0,0,1,.247,1.13Z" transform="translate(210.262 474.051)" fill="#fff" opacity="0.3"/>
    <path id="Path-45" data-name="Path" d="M19.538,7.737H6.114A6.409,6.409,0,0,1,.247,3.919,2.858,2.858,0,0,1,0,2.79,2.786,2.786,0,0,1,2.79,0H17.963c2.262,2.262,2.965,5.421,1.574,7.737Z" transform="translate(192.299 474.066)" fill="#fff" opacity="0.3"/>
    <path id="Path-46" data-name="Path" d="M13.032,10.35a1.855,1.855,0,0,1-.247.426c-1.938,2.664-6.133,2.907-9.4.528a9.834,9.834,0,0,1-1.114-.969C.03,8.073-.658,4.915.684,2.584A3.217,3.217,0,0,1,.95,2.158C2.888-.492,7.1-.749,10.363,1.649a9.2,9.2,0,0,1,1.1.935c2.262,2.291,2.965,5.45,1.574,7.766Z" transform="translate(198.804 471.452)" fill="#fff"/>
    <path id="Path-47" data-name="Path" d="M23.195,7.737H6.113A6.429,6.429,0,0,1,.246,3.919,2.776,2.776,0,0,1,2.809,0h18.8c-1.347,2.32-.654,5.474,1.589,7.737Z" transform="translate(198.147 491.007)" fill="#fff" opacity="0.3"/>
    <path id="Path-48" data-name="Path" d="M29.956,4.98a2.786,2.786,0,0,1-2.79,2.771H2.275C.032,5.489-.661,2.33.686,0H23.842a6.409,6.409,0,0,1,5.867,3.831A2.907,2.907,0,0,1,29.956,4.98Z" transform="translate(219.066 490.992)" fill="#fff" opacity="0.3"/>
    <path id="Path-49" data-name="Path" d="M13.049,10.338a3.217,3.217,0,0,1-.266.426c-1.938,2.664-6.128,2.907-9.4.528a10.217,10.217,0,0,1-1.109-.969C.032,8.062-.661,4.9.686,2.573a2.737,2.737,0,0,1,.262-.426C2.885-.5,7.095-.731,10.365,1.638a9.2,9.2,0,0,1,1.095.935c2.258,2.291,2.945,5.469,1.589,7.766Z" transform="translate(219.071 488.405)" fill="#fff"/>
    <ellipse id="Oval-4" data-name="Oval" cx="12.034" cy="14.422" rx="12.034" ry="14.422" transform="translate(159.212 358.768) rotate(-16.36)" fill="#fff"/>
    <g id="Group_5296" data-name="Group 5296" transform="matrix(0.961, 0.276, -0.276, 0.961, 357.073, 133.026)">
      <path id="Path_1895" data-name="Path 1895" d="M5825.3,105.341c3.062-1.07,7.326-3.625,10.382-5.229l56.98-29.9c1.654-.869,3.459-1.56,4.443-2.952a4.6,4.6,0,0,0,.7-4.121c-.529-1.641-2.193-3.758-2.616-5.267,3.4-1.717,13.925-6.875,16.028-9.111a4.637,4.637,0,0,0,1.164-3.188c.021-1.731-.43-2.242-1.318-3.94L5893.52,8.213c-2.379-4.531-.912-3.149-4.806-6.95a7.473,7.473,0,0,0-3.98-1.243c-1.9.121-3.334,1.006-5.146,1.956l-53.9,28.282c-2.959,1.553-7.434,3.433-8.714,6.168-1.652,3.524-.107,5.573,2.064,9.714-4.242,2.375-9.462,4.976-13.924,7.317-2.758,1.447-6.275,2.58-6.771,5.648-.274,1.7.192,2.476,1.134,4.272l19.541,37.244c.785,1.494,1.413,3.1,2.689,3.929,1.714,1.114,2.829.657,3.6.792Z" transform="translate(-5798.263 -0.009)" fill-rule="evenodd"/>
      <path id="Path_1896" data-name="Path 1896" d="M5873.28,548.315l65.236-34.215c2.01-1.1,3.735-1.47,3.653-3.526-.068-1.737-1.452-3.925-2.377-5.554l-11.131-21.2c-6.067,2.975-12.169,6.36-18.168,9.508l-53.862,28.262-1.437.755L5867.5,545.8C5869.24,549.117,5869.61,550.048,5873.28,548.315Zm-22.559-46.024c-1.99,1.1-3.876,1.439-3.781,3.627.052,1.207,1.991,4.634,2.731,5.85.709-.214,30.628-16.028,34.5-18.067l20.585-10.8c.669-.352,1.682-.841,2.122-1.073l16.193-8.544-2.281-4.412a3.894,3.894,0,0,0-1.8-1.627c-.842-.291-1.5.1-2.468.526l-8.875,4.648Z" transform="translate(-5844.73 -445.976)" fill="#00c29a" fill-rule="evenodd"/>
      <path id="Path_1897" data-name="Path 1897" d="M6248.16,89.348c12.822-6.882,26.242-13.8,39.213-20.578,2.2-1.147,4.386-2.3,6.579-3.453,2.374-1.244,3.713-1.885,5.763-1.081.034,0,.067-.032.1-.006s.075,0,.1-.011a1.142,1.142,0,0,0,.309-.092c1.463-.6,15.814-8.353,17.708-9.313-1.176-2.506-2.348-5.164-4.346-6.789-2.244-1.826-3.959-.907-6.842.6q-15.062,7.939-30.162,15.825l-22.6,11.858c-1.192.627-6.856,3.342-7.2,3.993a4.293,4.293,0,0,0-2.38,4.043c.052,1.839,1.509,3.9,2.443,5.68Zm71.053,9.937.858,1.587c3.457-1.884,12.975-6.42,15.351-8.66,1.383-1.3.673-2.809-.271-4.608-1.909-3.644-3.69-7.033-5.566-10.611s-3.927-7.236-5.674-10.843l-2.7,1.421-14.614,7.66c2.1,4.047,4.241,8.076,6.357,12.111s4.186,7.85,6.26,11.941Z" transform="translate(-6224.182 -44.884)" fill="#f8f8f9" fill-rule="evenodd"/>
      <path id="Path_1898" data-name="Path 1898" d="M5972.25,648.452l25.4-13.38-4.334-8.362c-5.59,2.843-12.122,6.632-17.311,8.974-.84.7-14.359,7.619-16.972,8.989l-23.661,12.415c-4.509,2.366-9.125,4.943-13.68,7.167l-1.822.962c.745,1.5,1.406,2.685,2.119,4.053.675,1.3,1.438,2.934,2.188,4.147.352.259.623-.059,1.477-.548a37.092,37.092,0,0,1,4.125-2.1c.369-.143,2.835-1.711,4.037-2.163l37.792-19.86C5972.34,648.467,5971.64,649.071,5972.25,648.452Z" transform="translate(-5914.359 -598.31)" fill="#001c3d" fill-rule="evenodd"/>
      <path id="Path_1899" data-name="Path 1899" d="M6360.48,1772.21c-.568-.163-1.056-.318-1.62-.5-1.116-.361-2.113-.654-3.233-1.012-2.069-.661-2.5-1.068-2.855.19a22.971,22.971,0,0,1-1.05,3.228c-2.915-.319-4.021-2.209-4.584-.19l-2.108,6.8c-.819,2.781-.385,1.637,3.083,2.976.764.3,5.556,1.845,5.88,1.7.5-.367.678-1.43.837-1.979l.709-2.039,3.21.93c.718.235,1.082.416,1.346-.62l.5-1.619c.423-1.152,1.146-3.793,1.688-5.376C6363.02,1772.56,6362.5,1772.78,6360.48,1772.21Z" transform="translate(-6319.916 -1689.856)" fill-rule="evenodd"/>
      <path id="Path_1900" data-name="Path 1900" d="M7492.63,252.449a22.3,22.3,0,0,1,2.693,4.48,37.647,37.647,0,0,0,2.405,4.48l1.613-.739,15.617-8.289-4.777-9.172C7508.33,244.1,7493.19,251.942,7492.63,252.449Z" transform="translate(-7415.845 -232.189)" fill="#001c3d" fill-rule="evenodd"/>
      <path id="Path_1905" data-name="Path 1905" d="M6373.43,1873.31l7.393,2.365a14.013,14.013,0,0,0,.842-3.195,18.177,18.177,0,0,1-3.875-1.3c-.385-.577.908-3.173.981-4.169a11.953,11.953,0,0,0-2.957-.988C6375.48,1866.4,6373.7,1872.44,6373.43,1873.31Z" transform="translate(-6347.366 -1781.458)" fill="#2a8c78" fill-rule="evenodd"/>
      <path id="Path_1906" data-name="Path 1906" d="M6528.57,1803.54c1.031.649,3.844.847,4.026,1.675-.007,1.045-1.123,3.06-1.083,3.952a21,21,0,0,0,2.944.93c.331-.379,2.317-7.206,2.317-7.345l-7.23-2.286a10.817,10.817,0,0,0-.973,3.074Z" transform="translate(-6495.47 -1718.879)" fill="#fff" fill-rule="evenodd"/>
      <path id="Path_1910" data-name="Path 1910" d="M6497.39,1898.89l3.08,1.031.988-3.13a19.179,19.179,0,0,0-3.068-.872A16.6,16.6,0,0,0,6497.39,1898.89Z" transform="translate(-6465.708 -1810.004)" fill="#00c29a" fill-rule="evenodd"/>
    </g>
    <g id="Group_5297" data-name="Group 5297" transform="translate(-855.205 -606.783) rotate(17)">
      <path id="Path_1870" data-name="Path 1870" d="M4.685.325C2.357-.989-.529,1.989.083,3.74.73,5.588,5.466,3.576,4.685.325Z" transform="matrix(0.961, 0.276, -0.276, 0.961, 1224.334, 416.346)" fill="#00c29a" fill-rule="evenodd"/>
      <path id="Path_1889" data-name="Path 1889" d="M0,2.457c.5,1.029.27,1.634,1.491,2.21A3.1,3.1,0,0,0,4.71,4.381C.958,5.483-.165,3.191.9,0A5.024,5.024,0,0,0,0,2.457Z" transform="matrix(0.961, 0.276, -0.276, 0.961, 1222.205, 416.993)" fill="#2a8c78" fill-rule="evenodd"/>
      <g id="Group_5031" data-name="Group 5031" transform="translate(1196.311 393.794)">
        <path id="Path_1851" data-name="Path 1851" d="M4.5,1.623C8.936.406,8.936,4.589,5.132,5.714.7,7.025.344,2.762,4.5,1.623ZM2.862.457l-.3.268C1.594,1.468-.948,3.1.372,5.734c1,2,3.849,1.735,6.244,1.066l1.046-.572L7.9,5.9l.119-.148c.036-.042.086-.09.122-.131a3.759,3.759,0,0,0,1-1.367c1.052-2.421-.612-4.9-5.2-4.1Z" transform="matrix(0.961, 0.276, -0.276, 0.961, 38.275, 32.68)" fill="#003d32" fill-rule="evenodd"/>
        <path id="Path_1864" data-name="Path 1864" d="M2.915.22c-4.154,1.14-3.8,5.4.634,4.091C7.353,3.186,7.353-1,2.915.22Z" transform="matrix(0.961, 0.276, -0.276, 0.961, 39.411, 34.465)" fill="#00c29a" fill-rule="evenodd"/>
        <path id="Path_1884" data-name="Path 1884" d="M7.091,6.344C4.7,7.013,1.848,7.273.847,5.278c-1.32-2.634,1.222-4.266,2.2-5.01L3.338,0C1.681.54-.961,2.942.356,5.534c.937,1.844,4.17,2.048,5.925,1.343Z" transform="matrix(0.961, 0.276, -0.276, 0.961, 37.692, 32.987)" fill="#00c29a" fill-rule="evenodd"/>
        <path id="Path_1885" data-name="Path 1885" d="M0,.555c4.584-.8,6.248,1.679,5.2,4.1A3.756,3.756,0,0,1,4.19,6.016c-.036.041-.087.09-.122.133s-.086.105-.12.148l-.234.333C6.693,5.012,7,.854,3.161.124A4,4,0,0,0,0,.555Z" transform="matrix(0.961, 0.276, -0.276, 0.961, 42.179, 33.382)" fill="#00c29a" fill-rule="evenodd"/>
        <g id="Group_5030" data-name="Group 5030">
          <path id="Path_1877" data-name="Path 1877" d="M2.069.2c-1.837,1.034-3.1,9.944-.913,8.445.84-.575.407-3.769.713-5.009C1.931,3.379,4.134-.966,2.069.2Z" transform="matrix(0.961, 0.276, -0.276, 0.961, 26.93, 32.632)" fill="#003d32" fill-rule="evenodd"/>
          <g id="Group_5029" data-name="Group 5029">
            <path id="Path_1858" data-name="Path 1858" d="M.979,0C-.284.406,0,2.268.1,4.823c.163,4.288,1.937,5.4,3.29,8.022,1.263,2.452.237,4.252,1.45,4.471,1.5.269.633-3.148.314-4.1-1.283-3.833-3.8-3.339-3.56-10.771C1.635,1.1,1.906.638.979,0Z" transform="matrix(0.961, 0.276, -0.276, 0.961, 67.445, 26.913)" fill="#003d32" fill-rule="evenodd"/>
            <g id="Group_5028" data-name="Group 5028">
              <path id="Path_1799" data-name="Path 1799" d="M4.129,33.964C7.543,32.185,10.722,29.8,15.242,29.2c8.915-1.19,16.621,5.264,25.8,5.7,6.178.3,12.742-2.056,13.6-1.851q.255,9.328.531,18.629c.174,6.071.563,12.482.516,18.508a12.15,12.15,0,0,1-7.542,11.367c-3.653,1.434-13.081,1.162-17.685,1.3-4.947.143-13.767,1.086-17.872-.585C8.467,80.59,5.324,76.626,5.109,70.886c-.231-6.152-.351-12.338-.524-18.485C4.5,49.036,3.969,36.207,4.129,33.964ZM35.5,17.509c3.574-.881,5.994,2.239,6.245,5.473.283,3.656-1.987,6.9-4.688,7.642C29.788,32.61,27.753,19.42,35.5,17.509ZM9.748,22.215c2.065-1.163-.138,3.182-.2,3.435-.306,1.241.127,4.435-.712,5.01C6.649,32.159,7.911,23.249,9.748,22.215Zm16.512,2.95-1.046.571-.81.533c-1.755.7-4.988.5-5.925-1.344-1.317-2.591,1.325-4.994,2.982-5.534l1.084-.3a4,4,0,0,1,3.162-.431C29.543,19.389,29.239,23.546,26.26,25.165ZM46.029,5.352c.927.638.656,1.1.612,2.445-.245,7.432,2.277,6.938,3.561,10.772.318.951,1.183,4.369-.314,4.1-1.214-.219-.187-2.018-1.451-4.471-1.353-2.625-3.127-3.734-3.29-8.022C45.049,7.619,44.766,5.757,46.029,5.352ZM8.1,10.685a3.191,3.191,0,0,1,3.742.238,2.83,2.83,0,0,1,.728,1.634,2.342,2.342,0,0,1-.491,1.9c-.532,1.3-1.768,2.891-3.284,3.157a3.1,3.1,0,0,1-3.219.286c-1.221-.576-.99-1.181-1.492-2.21C1.773,19.01-.16,20.146.01,25.826l1.177,41.5c.128,4.573-.2,8.683,2,12.248a12.965,12.965,0,0,0,8.1,6.122c3.351.859,22.5-.109,27.385-.249,4.577-.131,8.824.224,12.518-1.814a13.37,13.37,0,0,0,6.337-7.889c1.187-3.927.051-21.763-.1-27.152-.123-4.366-.444-25.092-.914-27.569-.9-4.764-7.787-8.336-5.219-15.069.684-1.794.025-3.814-.186-5.954L4.2,1.4c.213,2.411-.753,4.124.371,5.885,1.318,2.065,1.083,2.5.907,5.109C6.546,11.779,6.472,11.29,8.1,10.685Z" transform="matrix(0.961, 0.276, -0.276, 0.961, 25.616, 9.35)" fill="#fefefe" fill-rule="evenodd"/>
              <path id="Path_1801" data-name="Path 1801" d="M18.006,48a6.76,6.76,0,1,1,3.015,4.249A6.736,6.736,0,0,1,18.006,48Zm29.358-2.371c-1.941,2.863-7.478,2.362-5.771-.554C43.263,42.222,49.443,42.563,47.364,45.629ZM1.493,42.072C.29,35.418,10.172,37.1,11.372,43.5c.668,3.557-2.177,5.373-5.4,3.94a8.019,8.019,0,0,1-4.479-5.368Zm37.57,3.936c-.244,1.336.339,1.882-1.157,1.932-.493-.645-.424-.606-.375-1.7-3.276.01-4.192-2.167-3.474-4.447l.591-.976c-1.389,6.377,3.827,5.02,4.482,4.615.953-.591.352-1.371,1.7-2.045-.878,1.642-1.782,3.341-.022,4.785,1.8,1.478,3.631.784,5.679.249a1.388,1.388,0,0,1-.45.346c-1.634.861-5.005.956-6.271-.987-.718-1.093-.208-2.386-.7-1.771Zm2.172-4.885c-1.011,3.353-6.235,4.664-5.4,1.041.777-3.382,6.515-4.719,5.406-1.041ZM18.02,28.555c-1.275-6.744,8.438-5.215,9.836,1.251C29.34,36.667,19.237,34.995,18.02,28.555ZM1.289,28.08C.006,19.2,11.259,17.869,12.43,26.76,13.584,35.525,2.55,36.813,1.289,28.08Zm41.374-5.671c4.271-2.74,8.125.619,8.191,5.2.059,4.164-3.366,8.482-7.7,6.933l.151,7.085c2.774-.435,6.829-.509,6.359,3.2a3.151,3.151,0,0,1-1.417,2.319c2.684-5.64-1.214-5.5-4.949-5.358-.182.164.139-.016-.4.306l-.9.261c1.331-.915.854-2.856.4-3.6-1.021-1.673-2.792-1.473-4.819-.867l-.365.011-.4-13.369c-2.917.952-6.3,2.36-9.393-2.107C22.442,15.26,33.838,7.8,38.533,14.875a6.6,6.6,0,0,1,.144,7.579c-.691,1.182-.4,1.717-.37,3.193l.308,11.463c1.4-.088,1.744-.3,3.057.208l-.1-3.569c-.849-1.551-1.823-2.062-1.964-4.738-.157-2.975.914-3.512,1.586-5.409-.084-2.365-.87-11.933-.191-13.261l.912-.039c.685,1.44.57,9.718.749,12.107ZM6.89,11.955C6.253,4.97,14.767,2.027,18.65,6.776c1.448,1.771.193,1.146,1.993,2.273a6.457,6.457,0,0,1,3.3,5.272c.451,6.275-7.3,9.963-11.7,5.023-.733-.823-.888-1.557-2.013-2.255a6.689,6.689,0,0,1-3.34-5.134ZM.03,4.916C-.13,7.157.4,19.988.493,23.343c.173,6.147.293,12.334.525,18.486.215,5.74,3.358,9.7,7.48,11.381,4.1,1.671,12.925.728,17.872.585,4.6-.133,14.032.138,17.686-1.3A12.151,12.151,0,0,0,51.6,41.133c.047-6.027-.341-12.437-.516-18.508Q50.814,13.32,50.55,4c-.862-.2-7.426,2.147-13.6,1.851-9.183-.437-16.889-6.891-25.8-5.7C6.623.75,3.444,3.136.03,4.916Z" transform="matrix(0.961, 0.276, -0.276, 0.961, 21.549, 38.404)" fill="#001c3d" fill-rule="evenodd"/>
              <path id="Path_1808" data-name="Path 1808" d="M12.2,21.632c.781,3.251-3.955,5.264-4.6,3.414C6.984,23.3,9.87,20.318,12.2,21.632ZM5.645,24.974a5.026,5.026,0,0,1,.9-2.458C5.48,25.707,6.6,28,10.355,26.9c1.517-.267,2.753-1.857,3.285-3.158.666-3.129-.929-4.411-3.978-3.774-1.629.6-1.556,1.093-2.621,1.709.176-2.6.412-3.043-.907-5.108-1.124-1.761-.158-3.475-.371-5.886l46.911-1.4c.21,2.139.869,4.161.185,5.954-2.568,6.732,4.315,10.3,5.218,15.063.47,2.477.79,23.2.913,27.569.152,5.389,1.289,23.226.1,27.152a13.364,13.364,0,0,1-6.337,7.888c-3.694,2.038-7.941,1.682-12.517,1.814-4.884.14-24.035,1.108-27.386.25a12.967,12.967,0,0,1-8.1-6.123c-2.2-3.563-1.874-7.674-2-12.247L1.573,35.1C1.4,29.428,3.334,28.29,5.645,24.974ZM54.892,5.133c-.53,1.007-.528.522-1.362,1.291-.742.682-.364.673-.96,1.352-8.566.5-17.484.544-26.1.8L7.039,9.167c-1.817.074-1.572.247-2.605-.625-.991-.836-1.325-.553-1.49-1.853Zm-51.7.057C3.769,3.1,5.726,2.828,8.224,2.766l20.631-.583q6.943-.2,13.891-.394c2.325-.067,4.652-.126,6.979-.2,2.624-.081,4.817-.527,5.347,1.994Zm-1.845.985c0,4.067,2.846,2.3,2.846,5.218,0,1.534-.417,3.461-.105,4.607.432,1.585,1.528,1.738,1.528,3.693,0,3.783-2.346,5.776-3.94,8.154-2.411,3.6-1.51,5.138-1.516,10.1,0,4.26.24,7.689.24,11.858L1.646,85.081A14.9,14.9,0,0,0,5.962,92.86c4.634,4.309,7.853,3.9,13.169,3.9,4.872,0,9.056-.243,13.754-.238,3.806,0,10.12-.506,13.759-.47a13.5,13.5,0,0,0,5.657-1.22,14.666,14.666,0,0,0,8.8-13.013,60.973,60.973,0,0,0-.137-8.637c-.321-2.124-.537-20.87-.813-25.985-.289-5.358.272-12.388-.568-17.218-.429-2.471-1.91-4.181-3.161-5.851-4.567-6.1-1.725-7.755-1.725-10.607,0-1.994-.474-2.65-.474-5.218,0-1.242,2.371-1.283,2.371-3.32,0-2.968-.557-5-4.734-4.989C48.987,0,46.634.25,44.026.241H39.991c-1.662-.01-2.257.246-3.783.249l-7.82.238c-3.4.1-21.872.321-23.4.79A5.131,5.131,0,0,0,1.346,6.175Z" transform="matrix(0.961, 0.276, -0.276, 0.961, 26.675, 0)" fill-rule="evenodd"/>
              <path id="Path_1824" data-name="Path 1824" d="M8.742,4.811C15.855,2.4,19.2,13.757,12.031,16.02,5.059,18.221,1.33,7.325,8.742,4.811ZM3.7,11.7a5.879,5.879,0,0,1-.876-9.176C5.392-.129,10.076.945,11.517,3.637c-3.059.111-1.8-.746-3.966-1.163a3.887,3.887,0,0,0-3.9,1.351,4.364,4.364,0,0,0-1,4.076C3.129,9.859,3.6,8.851,3.7,11.7ZM.034,7.5a6.688,6.688,0,0,0,3.34,5.135c1.126.7,1.281,1.432,2.014,2.256,4.393,4.94,12.148,1.252,11.7-5.024a6.454,6.454,0,0,0-3.3-5.271c-1.8-1.127-.545-.5-1.993-2.274C7.91-2.429-.6.514.034,7.5Z" transform="matrix(0.961, 0.276, -0.276, 0.961, 26.913, 44.577)" fill="#00c29a" fill-rule="evenodd"/>
              <path id="Path_1827" data-name="Path 1827" d="M.127,5.359c1.19,5.458,9.559,3.777,8.191-2.1C7.047-2.211-1.108-.306.127,5.359Z" transform="matrix(0.961, 0.276, -0.276, 0.961, 29.478, 84.546)" fill="#00c29a" fill-rule="evenodd"/>
              <path id="Path_1828" data-name="Path 1828" d="M3,.227C-2.3,1.944-.014,10.176,5.4,8.609,10.716,7.071,8.3-1.491,3,.227Z" transform="matrix(0.961, 0.276, -0.276, 0.961, 31.199, 52.035)" fill="#00c29a" fill-rule="evenodd"/>
              <path id="Path_1830" data-name="Path 1830" d="M3.452.109C-2.161,1.3-.46,9.964,5.185,8.659,9.969,7.553,8.98-1.06,3.452.109Z" transform="matrix(0.961, 0.276, -0.276, 0.961, 45.328, 60.217)" fill="#00c29a" fill-rule="evenodd"/>
              <path id="Path_1833" data-name="Path 1833" d="M4.994,1.6c5.529-1.168,6.519,7.445,1.734,8.551C1.084,11.459-.618,2.79,4.994,1.6ZM.2,7.337c1.912,7.351,12.692,4.839,11.072-2.815A5.723,5.723,0,0,0,4.353.181,5.843,5.843,0,0,0,.2,7.337Z" transform="matrix(0.961, 0.276, -0.276, 0.961, 44.258, 58.354)" fill="#001c3d" fill-rule="evenodd"/>
              <path id="Path_1834" data-name="Path 1834" d="M4.495,1.738c5.3-1.716,7.713,6.844,2.4,8.382C1.48,11.687-.8,3.456,4.495,1.738ZM4.058.334C-3.355,2.85.375,13.746,7.347,11.545,14.518,9.281,11.171-2.078,4.058.334Z" transform="matrix(0.961, 0.276, -0.276, 0.961, 30.182, 50.171)" fill="#001c3d" fill-rule="evenodd"/>
              <path id="Path_1835" data-name="Path 1835" d="M2.878.173C-1.553,1.625-.6,9.914,3.9,8.6,8.231,7.337,7.445-1.322,2.878.173Z" transform="matrix(0.961, 0.276, -0.276, 0.961, 55.213, 72.78)" fill="#00c29a" fill-rule="evenodd"/>
              <path id="Path_1836" data-name="Path 1836" d="M1.569,6.874C.335,1.209,8.49-.7,9.76,4.77,11.128,10.65,2.759,12.332,1.569,6.874ZM4.389.2C-3.312,2.331.06,13.569,7.272,11.509a5.887,5.887,0,0,0,3.942-7.061A5.64,5.64,0,0,0,4.389.2Z" transform="matrix(0.961, 0.276, -0.276, 0.961, 28.51, 82.691)" fill="#001c3d" fill-rule="evenodd"/>
              <path id="Path_1837" data-name="Path 1837" d="M3.093.1C-1.5,1.328-.76,9.836,3.881,8.585c1.7-.459,3-2.654,2.928-4.831C6.741,1.707,5.313-.5,3.093.1Z" transform="matrix(0.961, 0.276, -0.276, 0.961, 51.667, 37.326)" fill="#00c29a" fill-rule="evenodd"/>
              <path id="Path_1838" data-name="Path 1838" d="M2.077.294C-2.3,2.569,1,10.184,4.907,8.443,6.493,7.738,7.36,5.132,6.549,2.9,6.008,1.407,4.182-.8,2.077.294Z" transform="matrix(0.961, 0.276, -0.276, 0.961, 18.473, 61.47)" fill="#00c29a" fill-rule="evenodd"/>
              <path id="Path_1839" data-name="Path 1839" d="M3.54,1.8C5.644.7,7.471,2.91,8.011,4.4c.812,2.234-.055,4.84-1.641,5.547C2.466,11.687-.833,4.072,3.54,1.8ZM3.081.37C-2.988,3.054.817,13.55,6.667,11.427,9,10.579,10.491,7.448,9.536,4.294,8.822,1.935,6.3-1.055,3.081.37Z" transform="matrix(0.961, 0.276, -0.276, 0.961, 17.482, 59.623)" fill="#001c3d" fill-rule="evenodd"/>
              <path id="Path_1840" data-name="Path 1840" d="M4.4,1.62C8.966.12,9.752,8.784,5.418,10.049.921,11.362-.035,3.072,4.4,1.62ZM9.74,6.475c.53-3.237-1.265-6.2-4.1-6.455C2.558-.26.472,2.469.091,5.143-1.028,13.015,8.521,13.926,9.74,6.475Z" transform="matrix(0.961, 0.276, -0.276, 0.961, 54.152, 70.97)" fill="#003d32" fill-rule="evenodd"/>
              <path id="Path_1841" data-name="Path 1841" d="M4.637,1.6C6.858,1,8.286,3.2,8.354,5.251c.072,2.177-1.226,4.372-2.928,4.831C.785,11.333.043,2.826,4.637,1.6Zm5,5.542c.785-3.325-.8-6.28-3.254-6.977C3.333-.7.873,2.1.274,4.44c-2.015,7.895,7.691,9.8,9.368,2.7Z" transform="matrix(0.961, 0.276, -0.276, 0.961, 50.596, 35.462)" fill="#003d32" fill-rule="evenodd"/>
              <path id="Path_1843" data-name="Path 1843" d="M5.431,1.093a5.639,5.639,0,0,1,6.825,4.249A5.887,5.887,0,0,1,8.315,12.4C1.1,14.463-2.27,3.224,5.431,1.093ZM.152,8.241a6.731,6.731,0,1,0,.883-5.12,6.736,6.736,0,0,0-.883,5.12Z" transform="matrix(0.961, 0.276, -0.276, 0.961, 27.754, 81.545)" fill="#00c29a" fill-rule="evenodd"/>
              <path id="Path_1844" data-name="Path 1844" d="M1.345,8.231A5.841,5.841,0,0,1,5.494,1.076a5.723,5.723,0,0,1,6.923,4.339C14.036,13.071,3.257,15.582,1.345,8.231Zm9.279,4.286,1.3-1.2.2,2.306c-.034-1.477-.321-2.012.37-3.193a6.6,6.6,0,0,0-.143-7.58c-4.7-7.079-16.092.384-11.117,7.558,3.095,4.469,6.473,3.061,9.39,2.109Z" transform="matrix(0.961, 0.276, -0.276, 0.961, 43.407, 57.18)" fill="#00c29a" fill-rule="evenodd"/>
              <path id="Path_1847" data-name="Path 1847" d="M2.255,1.828C4.86-.073,9.41,5.909,6.849,7.446c-1.632.979-4.682-1.121-5.262-3.438C1.161,2.305,1.907,2.082,2.255,1.828ZM.1,4.171c1.169,5.769,10.132,7.063,8.832.8A6.813,6.813,0,0,0,4.469.191C1.662-.617-.5,1.219.1,4.171Z" transform="matrix(0.961, 0.276, -0.276, 0.961, 32.477, 67.152)" fill="#001c3d" fill-rule="evenodd"/>
              <path id="Path_1848" data-name="Path 1848" d="M2.553,1.593C5.511.41,9.372,6.32,6.679,7.483,3.732,8.757-.583,2.847,2.553,1.593ZM.082,4.04C1.167,9.918,10.117,11.178,8.96,5A7.013,7.013,0,0,0,4.692.241C1.876-.658-.473,1.037.082,4.04Z" transform="matrix(0.961, 0.276, -0.276, 0.961, 12.843, 75.718)" fill="#001c3d" fill-rule="evenodd"/>
              <path id="Path_1854" data-name="Path 1854" d="M3.832,1.17C7.054-.255,9.573,2.736,10.288,5.095c.955,3.153-.533,6.284-2.869,7.133C1.568,14.351-2.237,3.855,3.832,1.17ZM.1,7.362c1.261,8.733,12.3,7.445,11.141-1.32C10.072-2.849-1.181-1.521.1,7.362Z" transform="matrix(0.961, 0.276, -0.276, 0.961, 16.981, 58.647)" fill="#00c29a" fill-rule="evenodd"/>
              <path id="Path_1855" data-name="Path 1855" d="M10.28,7.994C8.6,15.1-1.1,13.19.913,5.3,1.512,2.951,3.972.15,7.027,1.018,9.48,1.713,11.065,4.669,10.28,7.994ZM4.935.151c-7.752,1.911-5.716,15.1,1.556,13.114,2.7-.738,4.971-3.986,4.688-7.642C10.929,2.39,8.51-.73,4.935.151Z" transform="matrix(0.961, 0.276, -0.276, 0.961, 50.216, 34.462)" fill="#00c29a" fill-rule="evenodd"/>
              <path id="Path_1856" data-name="Path 1856" d="M10.467,7.37C9.248,14.821-.3,13.91.818,6.039,1.2,3.364,3.284.636,6.369.916,9.2,1.173,11,4.134,10.467,7.37ZM3.074.987A18.175,18.175,0,0,1,1.6,2.182C.929,4.079-.141,4.615.016,7.592c.141,2.675,1.114,3.186,1.964,4.737a3.736,3.736,0,0,1,.729.359c.228.119.5.268.854.434,4.336,1.549,7.761-2.769,7.7-6.934C11.2,1.606,7.345-1.752,3.074.987Z" transform="matrix(0.961, 0.276, -0.276, 0.961, 53.701, 69.908)" fill="#00c29a" fill-rule="evenodd"/>
              <path id="Path_1859" data-name="Path 1859" d="M.8.369C.448.622-.3.846.128,2.548c.58,2.318,3.63,4.417,5.261,3.439C7.952,4.451,3.4-1.532.8.369Z" transform="matrix(0.961, 0.276, -0.276, 0.961, 33.479, 68.955)" fill="#00c29a" fill-rule="evenodd"/>
              <path id="Path_1860" data-name="Path 1860" d="M1.093.156C-2.043,1.411,2.272,7.32,5.219,6.046,7.912,4.884,4.051-1.028,1.093.156Z" transform="matrix(0.961, 0.276, -0.276, 0.961, 13.85, 77.502)" fill="#00c29a" fill-rule="evenodd"/>
              <path id="Path_1862" data-name="Path 1862" d="M2.677,10.707c-.1-2.851-.575-1.843-1.054-3.8a4.363,4.363,0,0,1,1-4.076,3.886,3.886,0,0,1,3.9-1.35c2.163.416.907,1.273,3.966,1.162C9.05-.05,4.365-1.124,1.8,1.533a5.879,5.879,0,0,0,.877,9.174Z" transform="matrix(0.961, 0.276, -0.276, 0.961, 27.626, 45.816)" fill="#001c3d" fill-rule="evenodd"/>
              <path id="Path_1863" data-name="Path 1863" d="M5.5,2.2C6.6-1.477.866-.141.089,3.24-.743,6.863,4.484,5.554,5.5,2.2Z" transform="matrix(0.961, 0.276, -0.276, 0.961, 45.177, 85.671)" fill="#00c29a" fill-rule="evenodd"/>
              <path id="Path_1865" data-name="Path 1865" d="M6.093,2.51C8.172-.556,1.992-.9.322,1.955-1.385,4.872,4.152,5.373,6.093,2.51Z" transform="matrix(0.961, 0.276, -0.276, 0.961, 49.337, 91.229)" fill="#00c29a" fill-rule="evenodd"/>
              <path id="Path_1867" data-name="Path 1867" d="M.465,13.3a18.087,18.087,0,0,0,1.472-1.2C1.759,9.716,1.871,1.437,1.186,0L.274.038C-.4,1.365.381,10.934.465,13.3Z" transform="matrix(0.961, 0.276, -0.276, 0.961, 57.858, 59.535)" fill="#fefefe" fill-rule="evenodd"/>
              <path id="Path_1868" data-name="Path 1868" d="M0,1.2.405,14.565l.365-.011c.235-.281.054-.159.426-.434.17-.125.36-.194.61-.352L1.5,2.306,1.3,0Z" transform="matrix(0.961, 0.276, -0.276, 0.961, 50.498, 70.988)" fill="#fefefe" fill-rule="evenodd"/>
              <path id="Path_1875" data-name="Path 1875" d="M.624,4.62C.025,1.666,2.186-.169,4.993.64A6.808,6.808,0,0,1,9.455,5.424C10.756,11.682,1.793,10.389.624,4.62ZM.115,4.383c1.217,6.44,11.32,8.112,9.836,1.251C8.553-.832-1.16-2.362.115,4.383Z" transform="matrix(0.961, 0.276, -0.276, 0.961, 32.098, 66.574)" fill="#00c29a" fill-rule="evenodd"/>
              <path id="Path_1876" data-name="Path 1876" d="M.606,4.487c-.555-3,1.794-4.7,4.61-3.8A7.018,7.018,0,0,1,9.484,5.442C10.641,11.625,1.691,10.364.606,4.487ZM.1,4.25A8.021,8.021,0,0,0,4.578,9.617c3.224,1.433,6.07-.385,5.4-3.941C8.78-.722-1.1-2.4.1,4.25Z" transform="matrix(0.961, 0.276, -0.276, 0.961, 12.462, 75.145)" fill="#00c29a" fill-rule="evenodd"/>
              <path id="Path_1879" data-name="Path 1879" d="M3.7,5.423l1.532-.237c.494-.614-.017.679.7,1.779C7.2,8.907,10.569,8.813,12.2,7.951a1.393,1.393,0,0,0,.45-.347c-2.047.535-3.879,1.229-5.679-.248C5.219,5.911,6.122,4.213,7,2.57c-1.347.673-.747,1.455-1.7,2.044C4.647,5.021-.569,6.377.82,0L.229.976C-.488,3.255.427,5.433,3.7,5.423Z" transform="matrix(0.961, 0.276, -0.276, 0.961, 42.816, 86.968)" fill="#00c29a" fill-rule="evenodd"/>
              <path id="Path_1881" data-name="Path 1881" d="M.1,3.567c1.421.845,2.013,2.023,1.278,4.365l.347.109.007-.164L1.583.792C1.227.626.957.479.729.359A3.746,3.746,0,0,0,0,0Z" transform="matrix(0.961, 0.276, -0.276, 0.961, 52.205, 82.306)" fill="#fefefe" fill-rule="evenodd"/>
              <path id="Path_1886" data-name="Path 1886" d="M.007.206,0,.37C3.735.232,7.634.089,4.95,5.728A3.152,3.152,0,0,0,6.366,3.41C6.836-.3,2.782-.229.007.206Z" transform="matrix(0.961, 0.276, -0.276, 0.961, 51.752, 90.157)" fill="#00c29a" fill-rule="evenodd"/>
              <path id="Path_1887" data-name="Path 1887" d="M0,.9C2.027.3,3.8.1,4.819,1.771c.451.74.928,2.68-.4,3.6l.9-.261c.538-.323.216-.142.4-.307L5.371,4.69c.735-2.341.143-3.521-1.278-4.364C2.781-.179,2.433.031,1.036.118.786.275.6.345.426.47.055.745.235.622,0,.9Z" transform="matrix(0.961, 0.276, -0.276, 0.961, 47.476, 84.324)" fill="#00c29a" fill-rule="evenodd"/>
              <path id="Path_1890" data-name="Path 1890" d="M.033.237c-.048,1.092-.117,1.052.376,1.7,1.5-.05.914-.6,1.157-1.933Z" transform="matrix(0.961, 0.276, -0.276, 0.961, 44.913, 92.965)" fill="#fefefe" fill-rule="evenodd"/>
            </g>
          </g>
        </g>
      </g>
      <path id="Path_1893" data-name="Path 1893" d="M0,.492c3.049-.638,4.644.644,3.978,3.774a2.343,2.343,0,0,0,.491-1.9A2.833,2.833,0,0,0,3.742.731,3.191,3.191,0,0,0,0,.492Z" transform="matrix(0.961, 0.276, -0.276, 0.961, 1226.905, 415.175)" fill="#00c29a" fill-rule="evenodd"/>
    </g>
  </g>
</svg>
