<svg xmlns="http://www.w3.org/2000/svg" width="423.688" height="550.049" viewBox="0 0 423.688 550.049">
  <g id="Group_5516" data-name="Group 5516" transform="translate(7873.573 20941.003)">
    <g id="Group_5300" data-name="Group 5300">
      <g id="Group" transform="translate(-8012.297 -20988.977)">
        <path id="Path" d="M153.884,189.564c-40.918,24.367-90.834-4.343-88.489-4.843C142.748,167.9,149.583,119.1,149.583,119.1,134.141,81.368,92.047,93.515,92.047,93.515c-1.218,53.547-64.95,56.562-64.95,56.562C23,132.7,23.228,92.138,23.228,92.138,3.911,78.633,0,84.365,0,84.365c6.092-53.608,30.623-70.89,30.623-70.89C34.711,9.668,52.98,1.109,62.361,0L62.7,1.486S53.215,25.171,71.393,26.73c15.3,1.34,23.989-17.489,26.359-23.465,19.89,6.165,38.872,19.963,51.5,43.172,29.874,54.911,4.636,143.126,4.636,143.126Z" transform="translate(290.562 122.165)" fill="#001c3d"/>
        <path id="Path-2" data-name="Path" d="M133.136,0,232.56,65.791c19.28,12.756,16.8,41.79-4.343,51.092L111.863,168.09a68.886,68.886,0,0,1-67.18-6.573L0,130.279" transform="translate(315.733 288.623)" fill="none" stroke="#000" stroke-miterlimit="10" stroke-width="2"/>
        <path id="Path-3" data-name="Path" d="M145.246,2.217,141.9,0,244.688,68c19.28,12.756,16.8,41.79-4.343,51.092L123.992,170.3a68.886,68.886,0,0,1-67.18-6.573L0,123.261" transform="translate(303.623 307.623)" fill="none" stroke="#000" stroke-miterlimit="10" stroke-width="2"/>
        <g id="Group-2" data-name="Group" transform="translate(177.18 294.794)">
          <path id="Path-4" data-name="Path" d="M209.66,107.081,102.719,154.152a63.318,63.318,0,0,1-61.74-6.043L0,119.319a64.116,64.116,0,0,1,18.708-9.93A395.974,395.974,0,0,0,68.051,88.818a91.827,91.827,0,0,0,48.661-61.241C118.856,18.47,120.739,9.259,122.28,0L216.4,62.215c17.715,11.721,12.689,36.325-6.738,44.866Z" transform="translate(148.55)" fill="#00c29a"/>
          <path id="Path-5" data-name="Path" d="M6.211,13.633S24.962,5.86,28.556,0c0,0,.676,13.3-2.833,17.849S1.246,34.406.119,32.9,6.211,13.633,6.211,13.633Z" transform="translate(76.438 229.867)" fill="#00c29a"/>
          <path id="Path-6" data-name="Path" d="M24.93,21.681s3.411,4.63,15.516,0S78.884,0,78.884,0,71.538,19.725,68.876,21.894,15.92,48.7,15.92,48.7-6.565,51.9,1.909,35.9Z" transform="translate(0 253.521)" fill="#00c29a"/>
        </g>
        <g id="Group-3" data-name="Group" transform="translate(224.406 121.824)">
          <path id="Path-7" data-name="Path" d="M50.086,0C22.369,10.789-6.963,36.136,1.474,106.332l2.345,18.239" transform="translate(0 190.441)" fill="none" stroke="#000" stroke-miterlimit="10" stroke-width="2"/>
          <path id="Path-8" data-name="Path" d="M0,144.6c4.532-6.469,8.626-13.463,11.136-20.992S13.773,107.922,14.474,100c1.864-21.236,4.752-38.8,12.945-58.578C34.516,24.306,55.953,2.254,77.28.164L79.2,0" transform="translate(50.044)" fill="none" stroke="#000" stroke-miterlimit="10" stroke-width="2"/>
          <path id="Path-9" data-name="Path" d="M.552.871C.448.573.345.292.235,0" transform="translate(103.099 188.016)" fill="none" stroke="#000" stroke-miterlimit="10" stroke-width="2"/>
          <path id="Path-10" data-name="Path" d="M3.883,72.76C2.835,66.6,2.055,60.631,1.446,54.966a1.218,1.218,0,0,0-.037-.317C-1.783,23.015,1.446,0,1.446,0" transform="translate(89.37 76.342)" fill="none" stroke="#000" stroke-miterlimit="10" stroke-width="2"/>
        </g>
        <g id="Group-4" data-name="Group" transform="translate(240.293 50.51)">
          <path id="Path-11" data-name="Path" d="M59.559,28.415l-4.873,1.9c0,.152,0,2.053-.207,4.715a54.4,54.4,0,0,1-1.511,9.424c.433-2.108,1.06-7.115-1.694-10.6a1.4,1.4,0,0,0-.146-.2c-1.828-2.2-4.081-1.328-5.891.183A17.124,17.124,0,0,0,42,37.492a23.953,23.953,0,0,0-2.12-11.861,28.412,28.412,0,0,0-4.38-6.987c2.76,9.5-.78,15.723-.78,15.723a49.484,49.484,0,0,1-20.675.9c-4.075-3.8-2.662-17.489-2.662-17.489-4.1,3.35-3.113,16.314-3.113,16.314A29.764,29.764,0,0,1,8.455,23.9a18.623,18.623,0,0,0-3.393,9.8l-.073-.037a8.26,8.26,0,0,1-.835-.262,14.621,14.621,0,0,1-1.454-.88L0,30.694C4.075,9.9,18.324-3.17,40.34.667a26.3,26.3,0,0,1,4.228,1.1c14.5,7.56,14.992,26.651,14.992,26.651Z" transform="translate(92.315)" fill="#00c29a"/>
          <path id="Path-12" data-name="Path" d="M10.977,18.359l-5.55-16.7A2.4,2.4,0,0,0,3.734.053.263.263,0,0,1,3.576.016c-.055-.037-.067,0-.1,0a2.942,2.942,0,0,0-.384,0,2.437,2.437,0,0,0-1.66.658A4.453,4.453,0,0,0,0,3.939,4.569,4.569,0,0,0,.225,5.353C1.444,8.88,3.612,15.246,4.642,18.145" transform="translate(15.26 212.547)" fill="#f2aa18" stroke="#707070" stroke-width="2"/>
          <path id="Path-13" data-name="Path" d="M24.982,21.37,19,3.064a.263.263,0,0,1-.158-.037c-.055-.037-.067,0-.1,0L15.6,2.418c-1.675-.311-3.35-.646-5.026-.956C8.565,1.06,6.543.725,4.538.244A6.744,6.744,0,0,0,3.089,0,2.382,2.382,0,0,0,1.432.664,4.4,4.4,0,0,0,0,3.941a4.264,4.264,0,0,0,.225,1.4C1.572,9.284,4.136,16.752,4.953,19.019Z" transform="translate(0 209.536)" fill="#f2aa18"/>
        </g>
        <g id="Group-5" data-name="Group" transform="translate(139.297 48.976)">
          <path id="Path-14" data-name="Path" d="M142.285,40.516c-.609,6.78-.926,14.986-1.139,25.3,0,21.93-24.245,40.09-45.792,44.245l-39.511,8.924C50.622,120,46,116.737,42.368,114.574c-3.734-2.223-7.56-4.873-10.252-6.841-3.874-2.833-11.337-.554-9.808,6.2a8.614,8.614,0,0,0,4.989,5.793,16.338,16.338,0,0,0,2.12.78,1.261,1.261,0,0,1,.037,2.437c-3.424,1.182-9.692,1.882-19.8-1.828-12.957-4.77-13.962,24.8,3.753,29.947h.067c16.32,4.934,33.882,4.3,50.751,3.594a344.11,344.11,0,0,0,56.982-6.951c9.546-2.022,19.354-4.124,28.089-8.443,15.047-7.438,25.89-15.967,36.2-29.24C197.07,95.14,202.011,75.616,204.8,57.31c3.192-20.944-1.218-38.628-12.445-56.653L191.939,0" transform="translate(101.971 108.668)" fill="none" stroke="#000" stroke-miterlimit="10" stroke-width="2"/>
          <path id="Path-15" data-name="Path" d="M10.977,18.359l-5.55-16.7A2.4,2.4,0,0,0,3.734.053.263.263,0,0,1,3.576.016c-.055-.037-.067,0-.1,0a2.942,2.942,0,0,0-.384,0,2.437,2.437,0,0,0-1.66.658A4.453,4.453,0,0,0,0,3.939,4.569,4.569,0,0,0,.225,5.353C1.444,8.88,3.612,15.246,4.642,18.145" transform="translate(116.255 214.082)" fill="none" stroke="#000" stroke-miterlimit="10" stroke-width="2"/>
          <path id="Path-16" data-name="Path" d="M19,3.064a.263.263,0,0,1-.158-.037c-.055-.037-.067,0-.1,0L15.6,2.418c-1.675-.311-3.35-.646-5.026-.956C8.565,1.06,6.543.725,4.538.244A6.744,6.744,0,0,0,3.089,0,2.382,2.382,0,0,0,1.432.664,4.4,4.4,0,0,0,0,3.941a4.264,4.264,0,0,0,.225,1.4C1.572,9.284,4.136,16.752,4.953,19.019" transform="translate(100.995 211.071)" fill="none" stroke="#000" stroke-miterlimit="10" stroke-width="2"/>
          <path id="Path-17" data-name="Path" d="M0,0A46.239,46.239,0,0,0,5.342,22.485C8.388,28.1,12.86,33.761,19.256,35.619a15.552,15.552,0,0,0,4.362.609C34.474,36.179,36.167,23.32,36.167,23.32" transform="translate(196.478 34.635)" fill="none" stroke="#000" stroke-miterlimit="10" stroke-width="2"/>
          <path id="Path-18" data-name="Path" d="M209.434,0V.037a64.4,64.4,0,0,1-2.583,11.574,29.314,29.314,0,0,0-1,13.938l1.687,9.814a2.364,2.364,0,0,0,1.681,1.864c21.419,6.22,40.431,19.944,51.494,39.761,13.8,24.745,16.314,54.546,15.2,82.324-.981,24.081-4.873,48.021-10.4,71.456a99.96,99.96,0,0,1-52.962,66.65A429.054,429.054,0,0,1,158.9,319.8a68.941,68.941,0,0,0-42.77,40.955L72.967,475.542a17.94,17.94,0,0,1-8.76,9.747L22.844,506.068a25.69,25.69,0,0,1-16.892,2.144,7.542,7.542,0,0,1-2.266-13.853l21.126-12.567,29.052-148.1a92.6,92.6,0,0,1,42.77-64.573,37.221,37.221,0,0,1,4.727-2.437l62.977-27.346" transform="translate(37.989 39.228)" fill="none" stroke="#000" stroke-miterlimit="10" stroke-width="2"/>
          <path id="Path-19" data-name="Path" d="M10.7.771A28.278,28.278,0,0,0,.42.247,3.265,3.265,0,0,0,0,.283" transform="translate(219.407)" fill="none" stroke="#000" stroke-miterlimit="10" stroke-width="2"/>
          <path id="Path-20" data-name="Path" d="M3.105,0S-8.037,25.543,11.89,26.8C29.769,27.949,36.33,3.655,36.33,3.655" transform="translate(211.751 73.208)" fill="none" stroke="#000" stroke-miterlimit="10" stroke-width="2"/>
          <path id="Path-21" data-name="Path" d="M56.142,46.849c.128-.469,2.047-7.4-1.62-11.757s-8.638,3.119-9.138,3.868C46.358,28.22,38.9,20.075,38.9,20.075c2.749,9.509-.8,15.725-.8,15.725-13.627,3.192-21.126.761-26.444-.286a29.661,29.661,0,0,1,.195-10.185,18.47,18.47,0,0,0-3.393,9.789H8.376A18.653,18.653,0,0,1,2.7,32.527L0,30.7C4.081,9.914,18.324-3.171,40.34.667S62.971,29.822,62.971,29.822l-4.9,1.907a62.53,62.53,0,0,1-1.925,15.12Z" transform="translate(189.88 0.073)" fill="none" stroke="#000" stroke-miterlimit="10" stroke-width="2"/>
          <path id="Path-22" data-name="Path" d="M0,0V10.106a.786.786,0,0,0,1.023.743A5.964,5.964,0,0,0,3.168,9.595" transform="translate(205.018 45.837)" fill="none" stroke="#000" stroke-miterlimit="10" stroke-width="2"/>
          <ellipse id="Oval" cx="6.195" cy="8.614" rx="6.195" ry="8.614" transform="matrix(0.932, -0.363, 0.363, 0.932, 186.945, 39.709)" fill="none" stroke="#000" stroke-miterlimit="10" stroke-width="2"/>
          <ellipse id="Oval-2" data-name="Oval" cx="6.195" cy="8.614" rx="6.195" ry="8.614" transform="matrix(0.932, -0.363, 0.363, 0.932, 206.128, 42.599)" fill="none" stroke="#000" stroke-miterlimit="10" stroke-width="2"/>
          <path id="Path-23" data-name="Path" d="M0,.857S1.888-1.3,5.848,1.229" transform="translate(202.338 45.504)" fill="none" stroke="#000" stroke-miterlimit="10" stroke-width="2"/>
          <path id="Path-24" data-name="Path" d="M0,0S1.371,4.642,5.4,19.689" transform="translate(213.961 69.614)" fill="none" stroke="#000" stroke-miterlimit="10" stroke-width="2"/>
          <path id="Path-25" data-name="Path" d="M0,83.506,23.758,70.683a9.509,9.509,0,0,0,4.928-7.4C32.634,24.513,31.427,0,31.427,0" transform="translate(112.996 425.842)" fill="none" stroke="#000" stroke-miterlimit="10" stroke-width="2"/>
          <path id="Path-26" data-name="Path" d="M91.431,63.9,0,0" transform="translate(0 246.604)" fill="none" stroke="#000" stroke-miterlimit="10" stroke-width="2"/>
          <path id="Path-27" data-name="Path" d="M86.253,60.284,0,0" transform="translate(0 267.821)" fill="none" stroke="#000" stroke-miterlimit="10" stroke-width="2"/>
        </g>
      </g>
      <g id="Group_5298" data-name="Group 5298" transform="translate(-7823.203 -20836.748) rotate(15.009)">
        <path id="Path_1895" data-name="Path 1895" d="M5819.84,84.064a74.987,74.987,0,0,0,8.285-4.172l45.47-23.857c1.32-.693,2.761-1.245,3.545-2.356a3.669,3.669,0,0,0,.556-3.289c-.422-1.31-1.75-3-2.087-4.2,2.715-1.371,11.112-5.487,12.791-7.271a3.707,3.707,0,0,0,.928-2.544c.018-1.381-.342-1.789-1.052-3.144l-14-26.676c-1.9-3.616-.729-2.513-3.835-5.546a5.968,5.968,0,0,0-3.177-.992,10.111,10.111,0,0,0-4.106,1.561l-43.014,22.569c-2.362,1.239-5.932,2.74-6.954,4.922-1.318,2.812-.085,4.448,1.647,7.752-3.386,1.9-7.551,3.971-11.112,5.839-2.2,1.155-5.008,2.059-5.4,4.507-.219,1.359.153,1.976.9,3.409l15.594,29.72c.626,1.192,1.128,2.472,2.146,3.135a4.665,4.665,0,0,0,2.87.632Z" transform="translate(-5798.263 -0.009)" fill-rule="evenodd"/>
        <path id="Path_1896" data-name="Path 1896" d="M5867.96,531.919l52.058-27.3c1.6-.878,2.98-1.173,2.915-2.814-.054-1.386-1.158-3.132-1.9-4.432l-8.883-16.918c-4.841,2.374-9.711,5.075-14.5,7.587L5854.668,510.6l-1.146.6,9.821,18.717C5864.73,532.559,5865.03,533.3,5867.96,531.919Zm-18-36.727c-1.589.877-3.094,1.148-3.018,2.894.041.963,1.589,3.7,2.18,4.669.565-.171,24.441-12.79,27.526-14.418l16.427-8.618c.534-.281,1.342-.671,1.693-.856l12.922-6.818-1.82-3.521a3.109,3.109,0,0,0-1.437-1.3c-.672-.233-1.194.082-1.97.42l-7.082,3.709Z" transform="translate(-5845.175 -450.252)" fill="#00c29a" fill-rule="evenodd"/>
        <path id="Path_1897" data-name="Path 1897" d="M6247.4,80.8c10.232-5.492,20.941-11.01,31.292-16.421q2.628-1.374,5.25-2.755c1.894-.993,2.963-1.5,4.6-.862.027,0,.053-.025.079,0s.06,0,.08-.009a.911.911,0,0,0,.247-.074c1.167-.48,12.62-6.666,14.131-7.431-.938-2-1.874-4.121-3.468-5.417-1.791-1.457-3.16-.724-5.46.479q-12.019,6.336-24.069,12.628L6252.046,70.4c-.951.5-5.471,2.667-5.745,3.186a3.425,3.425,0,0,0-1.9,3.226c.042,1.468,1.2,3.109,1.95,4.533Zm56.7,7.929.685,1.267c2.758-1.5,10.354-5.123,12.25-6.91,1.1-1.04.537-2.241-.217-3.677-1.523-2.908-2.945-5.612-4.442-8.467s-3.134-5.774-4.528-8.653l-2.155,1.134-11.662,6.113c1.672,3.229,3.384,6.445,5.073,9.665s3.341,6.264,5,9.529Z" transform="translate(-6228.266 -45.314)" fill="#f8f8f9" fill-rule="evenodd"/>
        <path id="Path_1898" data-name="Path 1898" d="M5961.67,644.06l20.271-10.677-3.459-6.673c-4.46,2.268-9.673,5.292-13.813,7.161-.67.558-11.459,6.08-13.543,7.174l-18.881,9.907c-3.6,1.888-7.282,3.945-10.917,5.72l-1.454.768c.6,1.2,1.122,2.142,1.691,3.234.539,1.036,1.147,2.342,1.747,3.31.28.206.5-.047,1.178-.437a29.635,29.635,0,0,1,3.292-1.676c.293-.114,2.263-1.365,3.221-1.726l30.158-15.849C5961.74,644.072,5961.18,644.554,5961.67,644.06Z" transform="translate(-5915.472 -604.047)" fill="#001c3d" fill-rule="evenodd"/>
        <path id="Path_1899" data-name="Path 1899" d="M6357.29,1771.78c-.453-.13-.842-.254-1.292-.4-.891-.288-1.687-.522-2.58-.807-1.651-.527-2-.852-2.279.152a18.282,18.282,0,0,1-.837,2.576c-2.326-.254-3.209-1.762-3.659-.152l-1.683,5.426c-.653,2.219-.308,1.306,2.46,2.375a33.333,33.333,0,0,0,4.692,1.358c.4-.293.541-1.141.667-1.579l.566-1.627,2.562.742c.573.188.863.332,1.074-.495l.4-1.292c.338-.919.915-3.027,1.348-4.29C6359.31,1772.05,6358.9,1772.23,6357.29,1771.78Z" transform="translate(-6324.918 -1706.059)" fill-rule="evenodd"/>
        <path id="Path_1900" data-name="Path 1900" d="M7492.63,250.583a17.786,17.786,0,0,1,2.149,3.575,30.14,30.14,0,0,0,1.92,3.575l1.287-.59,12.462-6.614-3.812-7.319C7505.16,243.917,7493.08,250.178,7492.63,250.583Z" transform="translate(-7431.355 -234.415)" fill="#001c3d" fill-rule="evenodd"/>
        <path id="Path_1905" data-name="Path 1905" d="M6373.43,1871.83l5.9,1.888a11.255,11.255,0,0,0,.672-2.549,14.489,14.489,0,0,1-3.092-1.039c-.307-.46.725-2.532.783-3.327a9.525,9.525,0,0,0-2.359-.789C6375.06,1866.32,6373.64,1871.15,6373.43,1871.83Z" transform="translate(-6352.63 -1798.54)" fill="#2a8c78" fill-rule="evenodd"/>
        <path id="Path_1906" data-name="Path 1906" d="M6528.56,1802.92c.823.518,3.067.676,3.213,1.337,0,.834-.9,2.442-.865,3.154a16.785,16.785,0,0,0,2.349.742c.264-.3,1.849-5.75,1.849-5.861l-5.77-1.824A8.625,8.625,0,0,0,6528.56,1802.92Z" transform="translate(-6502.155 -1735.361)" fill="#fff" fill-rule="evenodd"/>
        <path id="Path_1910" data-name="Path 1910" d="M6497.39,1898.29l2.458.823.788-2.5a15.282,15.282,0,0,0-2.449-.7,13.319,13.319,0,0,0-.8,2.377Z" transform="translate(-6472.107 -1827.359)" fill="#00c29a" fill-rule="evenodd"/>
      </g>
      <g id="Stripe_Logo__revised_2016" data-name="Stripe_Logo,_revised_2016" transform="translate(-7639.64 -20939.777)">
        <path id="Path_2623" data-name="Path 2623" d="M359.462,79.781c0-6.809-3.3-12.181-9.6-12.181-6.33,0-10.16,5.373-10.16,12.128,0,8.006,4.521,12.048,11.011,12.048a14.83,14.83,0,0,0,7.367-1.729V84.728a14.123,14.123,0,0,1-6.516,1.463c-2.58,0-4.867-.9-5.16-4.043H359.41C359.408,81.8,359.462,80.42,359.462,79.781Zm-13.139-2.527c0-3,1.835-4.256,3.511-4.256,1.622,0,3.351,1.25,3.351,4.256Z" transform="translate(-209.713 -23.195)" fill="#00c29a" fill-rule="evenodd"/>
        <path id="Path_2624" data-name="Path 2624" d="M269.61,67.6a7.514,7.514,0,0,0-5.213,2.075l-.346-1.649H258.2V99.038l6.649-1.41.027-7.527a7.49,7.49,0,0,0,4.708,1.676c4.761,0,9.1-3.83,9.1-12.261C278.653,71.8,274.265,67.6,269.61,67.6Zm-1.6,18.325a3.976,3.976,0,0,1-3.138-1.25l-.027-9.867a3.958,3.958,0,0,1,3.165-1.3c2.42,0,4.1,2.713,4.1,6.2,0,3.558-1.649,6.217-4.1,6.217Z" transform="translate(-149.889 -23.195)" fill="#00c29a" fill-rule="evenodd"/>
        <path id="Path_2625" data-name="Path 2625" d="M223.8,42.835l6.676-1.436V36L223.8,37.41Z" transform="translate(-124.638)" fill="#00c29a" fill-rule="evenodd"/>
        <rect id="Rectangle_2130" data-name="Rectangle 2130" width="6.676" height="23.272" transform="translate(99.162 44.857)" fill="#00c29a"/>
        <path id="Path_2626" data-name="Path 2626" d="M179.87,70.509l-.426-1.968H173.7V91.814h6.649V76.042a4.691,4.691,0,0,1,5.053-1.383V68.541a4.514,4.514,0,0,0-5.532,1.968Z" transform="translate(-87.863 -23.684)" fill="#00c29a" fill-rule="evenodd"/>
        <path id="Path_2627" data-name="Path 2627" d="M128.916,47.6l-6.49,1.383-.027,21.3a6.683,6.683,0,0,0,6.889,6.835,10.273,10.273,0,0,0,4.654-.878v-5.4c-.851.346-5.053,1.569-5.053-2.367V59.037h5.053V53.372H128.89Z" transform="translate(-50.208 -8.515)" fill="#00c29a" fill-rule="evenodd"/>
        <path id="Path_2628" data-name="Path 2628" d="M60.729,74.808c0-1.037.851-1.436,2.261-1.436a14.835,14.835,0,0,1,6.6,1.7v-6.25a17.54,17.54,0,0,0-6.6-1.223c-5.4,0-8.99,2.819-8.99,7.527,0,7.341,10.107,6.17,10.107,9.336,0,1.223-1.064,1.622-2.553,1.622a16.555,16.555,0,0,1-7.261-2.128v6.33A18.437,18.437,0,0,0,61.554,91.8c5.532,0,9.336-2.739,9.336-7.5C70.862,76.377,60.729,77.787,60.729,74.808Z" transform="translate(0 -23.195)" fill="#00c29a" fill-rule="evenodd"/>
      </g>
    </g>
    <path id="Icon_awesome-money-bill-wave" data-name="Icon awesome-money-bill-wave" d="M51.494,4.112a24.549,24.549,0,0,0-9.65-1.862c-10.211,0-20.421,5.168-30.632,5.168a25.153,25.153,0,0,1-7.68-1.137,2.835,2.835,0,0,0-.858-.134A2.638,2.638,0,0,0,0,8.783v26.3a2.636,2.636,0,0,0,1.562,2.442,24.536,24.536,0,0,0,9.65,1.863c10.211,0,20.422-5.169,30.633-5.169a25.153,25.153,0,0,1,7.681,1.137,2.835,2.835,0,0,0,.858.134,2.638,2.638,0,0,0,2.674-2.637V6.555a2.64,2.64,0,0,0-1.564-2.443ZM3.979,10.558a28.85,28.85,0,0,0,5.2.74,5.312,5.312,0,0,1-5.2,4.273Zm0,23.627V30.224a5.3,5.3,0,0,1,5.282,5.09,20.027,20.027,0,0,1-5.282-1.129Zm22.549-5.407c-3.663,0-6.632-3.564-6.632-7.958s2.969-7.958,6.632-7.958,6.632,3.563,6.632,7.958-2.97,7.958-6.632,7.958Zm22.549,2.3a28.5,28.5,0,0,0-4.5-.7,5.294,5.294,0,0,1,4.5-4.085Zm0-19.574A5.3,5.3,0,0,1,44.45,6.4a19.928,19.928,0,0,1,4.627,1.05Z" transform="translate(-7582.702 -20798.09) rotate(-30)" fill="#f2aa18" stroke="#000" stroke-width="2"/>
  </g>
</svg>
