<svg xmlns="http://www.w3.org/2000/svg" xmlns:xlink="http://www.w3.org/1999/xlink" width="128.824" height="143.992" viewBox="0 0 128.824 143.992">
  <defs>
    <clipPath id="clip-path">
      <path id="Path_11" data-name="Path 11" d="M635.535,206.758l3.406-.273s1.5-3.2,4.156-2.112a11.8,11.8,0,0,0,3.815,1.09l7.153-4.564,12.058,1.431,4.019-.681,4.292-1.362s4.7-7.971,4.564-8.856-3.066-6.812-4.019-7.7-8.72-4.769-9.4-5.109-16.35-3.406-16.35-3.406-13.761,5.654-14.1,6.812-1.431,11.1-1.431,11.99S635.535,206.758,635.535,206.758Z" fill="#00c29a" stroke="#707070" stroke-width="1"/>
    </clipPath>
  </defs>
  <g id="Group_4" data-name="Group 4" transform="translate(-633.696 -109)">
    <g id="Group_5485" data-name="Group 5485" transform="translate(676.845 195.665)">
      <path id="Path_2721" data-name="Path 2721" d="M13024.8,2773.6l-1.746,1.014c-2-.288-2.787-2.6-4.015-5.272-1.05-2.284-1.9-4.755-2.959-7-6.542,4.038-9.132,6.328-17.6,7.8l-1.75.054c-5.732-.536-10.334-4.543-10.451-9.478-.244-10.226,20.109-17.048,31.4-13.274a12.828,12.828,0,0,1,7.7,5.862C13028.5,2758.51,13029.5,2768.6,13024.8,2773.6Z" transform="translate(-12986.313 -2746.38)" fill="#00c29a" fill-rule="evenodd"/>
      <path id="Path_2722" data-name="Path 2722" d="M13378.5,3269.06c-3.238,7.04,4.85,6.372,3.735,3.467l-2.437.269c-1.041-1.292.734-3.384,1.078-4.485C13381.3,3266.81,13380.2,3265.45,13378.5,3269.06Zm6.61-3.774c-1.38-.683-1.485,1.161-.593,1.629s1.982-.925.582-1.625Zm-9.238.414c-1.87.423-1.05,1.809-.3,1.971,1.128.239,1.328-1.031.328-1.971Zm21.7-1.446.129,1.158c-1.088,1.239-1.154-.061-1.186,1.659,1.354,1.1,1.289-.318,3.15.711.75,1.328.721,2.587-.321,3.335-1.427,1.026-1.673-.341-3.144.542.351,1.5.865,1.406,2.121,1.46.847,5.677,1.088,11.306-2,14.725-5,5.534-16.11,5.285-19.546-2.314-2.246-4.969-3.137-20.093-3.779-25.757,8.473-1.467,11.063-3.757,17.605-7.8,1.055,2.249,1.908,4.719,2.959,7,1.238,2.677,2.038,5,4.038,5.287Z" transform="translate(-13360.787 -3236.025)" fill="#fefefe" fill-rule="evenodd"/>
      <path id="Path_2723" data-name="Path 2723" d="M13282.6,3498.99c.642,5.664,1.533,20.788,3.779,25.757,3.435,7.6,14.543,7.848,19.545,2.314,3.092-3.419,2.85-9.048,2-14.725-1.255-.055-1.771.039-2.12-1.461,1.47-.882,1.716.484,3.143-.542,1.042-.749,1.072-2.009.321-3.335-1.86-1.03-1.8.387-3.149-.711.031-1.719.1-.42,1.186-1.659l-.129-1.158,1.746-1.014c.4,4.276,1.5,1.914,2.48,4.747.992,2.869.771,5.185-.612,5.306l-1.286.112.617,4.946c-.52,3.773.777,7.3-3.9,11.6-5.761,5.3-17.494,4.573-21.338-3.384-1.387-2.872-1.982-7.562-2.3-10.128-.436-3.481-.51-1.614-2.081-3.543a3.787,3.787,0,0,1-.326-4.291c1.4-2.146,1.417-.3,1.089-3.829-.171-1.841-.22-3.29-.41-4.953l1.75-.054Z" transform="translate(-13270.365 -3475.24)" fill-rule="evenodd"/>
      <path id="Path_2724" data-name="Path 2724" d="M13525.1,3726.42l2.436-.269c1.114,2.905-6.973,3.573-3.734-3.467,1.662-3.616,2.844-2.249,2.376-.75C13525.8,3723.03,13524,3725.13,13525.1,3726.42Z" transform="translate(-13506.083 -3689.646)" fill-rule="evenodd"/>
      <path id="Path_2725" data-name="Path 2725" d="M13429.1,3686.78c1.057.941.8,2.21-.3,1.971C13428,3688.59,13427.2,3687.2,13429.1,3686.78Z" transform="translate(-13413.986 -3657.104)" fill-rule="evenodd"/>
      <path id="Path_2726" data-name="Path 2726" d="M13720.9,3669.05c1.42.7.286,2.089-.593,1.629S13719.6,3668.37,13720.9,3669.05Z" transform="translate(-13696.627 -3639.792)" fill-rule="evenodd"/>
    </g>
    <g id="Group_5486" data-name="Group 5486" transform="translate(644.85 108.997)">
      <path id="Path_2727" data-name="Path 2727" d="M12002.4,66.252a32.911,32.911,0,0,1-5.242-2.246c-9-4.516-15.691-8.553-19.648-18.541-2.889-7.294-4.812-17.856.318-24.751,2.488-3.344,6.382-3.882,10.594-3.882,1.255,0,1.118.224,2.247.25-.219.819-.052.163-.292.707-.029.067-.219.485-.311.689-1.683,3.73-3.147,7.828-3.145,12.08a43.04,43.04,0,0,0,.264,7.729c1.033,7.483,4.945,15.114,9.295,20.906l5.92,7.06Zm12.979-63.9c4.354,0,6.625,1.144,9.773,3.455,6.182,4.536,10.4,12.211,13.936,19.012a197.912,197.912,0,0,1,8.706,18.251,133.685,133.685,0,0,1,4.673,13.3,28.4,28.4,0,0,1,1.1,4.889l-4.386-7.844c-2.707-4.576-6.439-11.035-9.44-15.52-4.964-7.417-12.074-19.413-19.265-24.414-3.414-2.373-9.056-5.137-13.584-5.137.653-2.446,4.914-5.991,8.486-5.991Zm44.133,101.836,2-1.02a11.3,11.3,0,0,1,1.99-1.525,28.883,28.883,0,0,0,5.652-5.573c3.864-4.718,4.68-8.757,5.489-9.438a47.867,47.867,0,0,0,3.7,5.509,41.8,41.8,0,0,0,4.4,5.1,14.176,14.176,0,0,1,2.487,1.46c3.787,0,4.413-4.548,4.76-7.511a15.2,15.2,0,0,0,.009-3.715,19.149,19.149,0,0,0-3.588-8.891l-1.951-2.292a18.367,18.367,0,0,0-4.786-3.45,23.9,23.9,0,0,0-6.74-1.748c-5.282-.768-9.323,1.381-13.129,3.4l-2.581-5.9c-.885-1.839-.455-1.227-.766-3.479-1.534-11.192-7.145-25.1-12.211-35.212-2.953-5.894-7.244-14.1-11.039-19.163-4.035-5.383-11.894-12.1-19.441-10.486-3.937.841-8.572,4.668-9.373,8.1-5.105,0-10.507,3.483-12.229,6.739-3.293-.274-5.5-1.08-9.636.1-14.568,4.152-11.209,26.3-3.746,37.493,8.174,12.263,26.8,16.337,29.688,18.735,9.728,8.086,25.936,15.337,38.85,15.313,2.125,0,3.262-.256,5.247-.256-1.058,2.2.316,12.931,2.487,16.232,1.363,2.072,1.684,1.739,4.455,1.489Z" transform="translate(-11972.44 -0.002)" fill="#00c29a" fill-rule="evenodd"/>
      <path id="Path_2728" data-name="Path 2728" d="M14786.4,2764.74c5.254,5.013-.348,6.757-2.348,5.576l.074-1.193a12.372,12.372,0,0,1,2.358-.823c-.522-1.7-2.647-2.653-3.069-3.629C14783.3,2764.31,14783,2761.5,14786.4,2764.74Zm-7.416-1.743c1.44-.494,1.5.451,1.053,1.588l-1.087.042c-.45-.977-.351-1.057.05-1.627Zm10.075-2.366v1.213c-1.251.916-1.679.033-1.355-1.438l1.359.226Zm-20.269,1.191.5,4.016c.887.541.752.213,1.165.638.513.526.3.86.19,1.462-1.426.551-1.8-.237-2.68,1.065a1.919,1.919,0,0,0,1.224,2.454c1.524.341,1.024-1.177,2.835-.114.24,1.592-.486,1.514-1.49,2.232.906,17.456,13.791,15.46,18.247,11.713,4.166-3.5,3.975-6.969,3.363-13.74a135.653,135.653,0,0,0-2.123-15.657,41.747,41.747,0,0,1-4.4-5.1,47.657,47.657,0,0,1-3.7-5.509c-.81.682-1.625,4.72-5.49,9.438a28.8,28.8,0,0,1-5.651,5.573,11.33,11.33,0,0,0-1.991,1.524Z" transform="translate(-14679.68 -2658.656)" fill="#fff" fill-rule="evenodd"/>
      <path id="Path_2729" data-name="Path 2729" d="M14698.5,3087.26l-2,1.019c.062.854.37,2.985.287,3.466-.193,1.114-.94.854-1.358,2.424a3.9,3.9,0,0,0,2.614,4.594c0,8.1,4.118,16.7,13.229,16.578,4.593-.061,6.053-1.616,8.985-3.137,4.831-4.331,4.661-7.759,3.813-14.26-.783-6.012.39-3.2,1.078-5.772s-.705-4.439-2.4-4.891c0-1.906-.442-2.771-.532-4.493a14.183,14.183,0,0,0-2.488-1.46,135.867,135.867,0,0,1,2.123,15.657c.611,6.771.8,10.237-3.363,13.74-4.458,3.748-17.342,5.743-18.248-11.713,1-.718,1.73-.64,1.49-2.232-1.811-1.063-1.311.455-2.834.114a1.923,1.923,0,0,1-1.225-2.454c.877-1.3,1.254-.513,2.68-1.064.112-.6.322-.936-.189-1.462-.414-.425-.279-.1-1.166-.638l-.5-4.016Z" transform="translate(-14609.408 -2984.092)" fill-rule="evenodd"/>
      <path id="Path_2730" data-name="Path 2730" d="M15260.6,3317.88a12.449,12.449,0,0,0-2.359.823l-.073,1.193c2,1.181,7.6-.563,2.347-5.576-3.4-3.24-3.144-.437-2.983-.068C15257.9,3315.23,15260,3316.19,15260.6,3317.88Z" transform="translate(-15153.75 -3208.235)" fill-rule="evenodd"/>
      <path id="Path_2731" data-name="Path 2731" d="M15108.7,3302.39c-.424.574-.5.648-.033,1.63l1.086-.042C15110.2,3302.84,15110.2,3301.9,15108.7,3302.39Z" transform="translate(-15009.398 -3198.046)" fill-rule="evenodd"/>
      <path id="Path_2732" data-name="Path 2732" d="M15392.5,3224.38c-.322,1.471.105,2.354,1.355,1.438V3224.6l-1.359-.225Z" transform="translate(-15284.489 -3122.627)" fill-rule="evenodd"/>
    </g>
    <path id="Path_2733" data-name="Path 2733" d="M11714.5,2282.96c-1.148.1-2.34.934-3.6,1.171a11.865,11.865,0,0,1-5-.16h0c-.07-.013-1.233-.237-3.6-.935-1.058-.42-2.541-1.221-3.556-1.765-5.43-2.908-5.459-7.521-6-12.11,0,0,.36-3.391.538-6.714.363-2.607,1.454-7.923,1.351-9.089-.318-3.556.861-3.05,1.516-6.05.232-1.062.434-1.947.679-3.065a18.342,18.342,0,0,0,.667-3.071c.061-1.136-.231-2.364-.244-3.528-.088-8.179,5.268-15.566,14.186-15.971,6.016-.273,13.07,1.523,17.639,5.171,3.065,2.448,5.617,11.129.477,15.192-1.123.889-.395.01-1.18,2.813-.3,1.072-.459,1.953-.758,3.026-.316,1.141-1.619,4.906-1.119,6.018a6.685,6.685,0,0,1,.69,1.771c.175.992-.157.767.109,1.868-.657.878-.675,2.026-1.383,2.907-1.5,1.87-2.323-.408-3.407,5.707-.814,4.594-3.344,12.672-6.745,15.406l-1.256,1.409Zm12.34-39.736c-5.083,1.014-8.443-2.611-11.3-3.8-6.1-2.528-6.16-2.884-9.061,3.244-3.082,6.514-2.838,4.634-5.733,4.7-.109,2.019,2.013,3.383-.357,3.845-.57-.675-.851-1.514-1.548-2.049a3.055,3.055,0,0,0-2.49,3.7c.553,3.3,2.346,1.607,3.85,1.859.907,2.5-1.173.316-1.086,3.281.213,7.252,4.406,3.806,8.563,3.856,5.229.063,9.318,1.487,13.327,2.718.7-1.967,5.795-19.137,5.9-21.357Z" transform="translate(-11056.745 -2042.535)" fill-rule="evenodd"/>
    <path id="Path_2734" data-name="Path 2734" d="M11827.5,2743.57c.938.282.4.248,1.32-.126.273-.92.346-.822-.184-1.827A1.158,1.158,0,0,0,11827.5,2743.57Zm-4.977,3.918c-.937.117-3.523.273-1.751,1.607.649.489,2.481.1,3.105-.563.827-1.021.294-1.04.013-2.93-.152-1.023.318-2.068-.449-2.517-2.041-1.165-1.142,3.345-.941,4.405Zm-4.049-6.351c1.737-.733,1.037-2.388-.057-2.137-1.018.24-1.318,1.58.082,2.14Zm18.652-6.776c-.2,2.21-6.229,19.07-7.024,21-3.934-1.453-7.937-3.1-13.153-3.462-4.148-.284-8.528,2.922-8.334-4.331.08-2.964,2.033-.667,1.27-3.215-1.488-.335-3.375,1.258-3.74-2.071a3.056,3.056,0,0,1,2.694-3.554,11.859,11.859,0,0,1,1.429,2.133c2.394-.329.352-1.81.574-3.819,2.9.094,2.545,1.957,5.989-4.374,3.239-5.956,3.284-5.6,9.228-2.73,2.785,1.343,5.936,5.15,11.068,4.424Z" transform="translate(-11166.504 -2532.85)" fill="#fefefe" fill-rule="evenodd"/>
    <path id="Path_2735" data-name="Path 2735" d="M12254.8,3207.63c-.624.662-2.457,1.052-3.105.563-1.771-1.334.813-1.49,1.751-1.607-.182-1.055-1.085-5.573.918-4.4.768.449.3,1.494.449,2.517C12255.1,3206.59,12255.6,3206.61,12254.8,3207.63Z" transform="translate(-11597.446 -2991.947)" fill-rule="evenodd"/>
    <path id="Path_2736" data-name="Path 2736" d="M12474.7,3159.58c.529,1.006.457.907.184,1.827-.925.375-.383.409-1.32.126A1.165,1.165,0,0,1,12474.7,3159.58Z" transform="translate(-11812.609 -2950.813)" fill-rule="evenodd"/>
    <path id="Path_2737" data-name="Path 2737" d="M12169.2,3079.97c-1.342-.559-1.094-1.9-.056-2.137C12170.3,3077.58,12171,3079.23,12169.2,3079.97Z" transform="translate(-11517.261 -2871.68)" fill-rule="evenodd"/>
    <g id="Mask_Group_7" data-name="Mask Group 7" clip-path="url(#clip-path)">
      <path id="Path_2733-2" data-name="Path 2733" d="M11714.5,2282.96c-1.148.1-2.34.934-3.6,1.171a11.865,11.865,0,0,1-5-.16h0c-.07-.013-1.233-.237-3.6-.935-1.058-.42-2.541-1.221-3.556-1.765-5.43-2.908-5.459-7.521-6-12.11,0,0,.36-3.391.538-6.714.363-2.607,1.454-7.923,1.351-9.089-.318-3.556.861-3.05,1.516-6.05.232-1.062.434-1.947.679-3.065a18.342,18.342,0,0,0,.667-3.071c.061-1.136-.231-2.364-.244-3.528-.088-8.179,5.268-15.566,14.186-15.971,6.016-.273,13.07,1.523,17.639,5.171,3.065,2.448,5.617,11.129.477,15.192-1.123.889-.395.01-1.18,2.813-.3,1.072-.459,1.953-.758,3.026-.316,1.141-1.619,4.906-1.119,6.018a6.685,6.685,0,0,1,.69,1.771c.175.992-.157.767.109,1.868-.657.878-.675,2.026-1.383,2.907-1.5,1.87-2.323-.408-3.407,5.707-.814,4.594-3.344,12.672-6.745,15.406l-1.256,1.409Zm12.34-39.736c-5.083,1.014-8.443-2.611-11.3-3.8-6.1-2.528-6.16-2.884-9.061,3.244-3.082,6.514-2.838,4.634-5.733,4.7-.109,2.019,2.013,3.383-.357,3.845-.57-.675-.851-1.514-1.548-2.049a3.055,3.055,0,0,0-2.49,3.7c.553,3.3,2.346,1.607,3.85,1.859.907,2.5-1.173.316-1.086,3.281.213,7.252,4.406,3.806,8.563,3.856,5.229.063,9.318,1.487,13.327,2.718.7-1.967,5.795-19.137,5.9-21.357Z" transform="translate(-11056.745 -2042.535)" fill="#00c29a" fill-rule="evenodd"/>
    </g>
  </g>
</svg>
