<svg xmlns="http://www.w3.org/2000/svg" width="159.967" height="145.012" viewBox="0 0 159.967 145.012">
  <g id="Group_5498" data-name="Group 5498" transform="translate(0 0.007)">
    <path id="Path_2745" data-name="Path 2745" d="M849.156,6343.16l6.638-.723c5.59-2.1,15.568-11.418,17.441-16.763-1.379-2.581-2.36-3.1-2.784-7.116-.141-1.337-.013-3.514-.216-4.626-.265-1.458-3.591-3.24-.43-6.787,1.625-1.824.048-10.6,1.647-12.685l1.856.249a22.937,22.937,0,0,0,12.227-3.166c3.227-1.85,7.355-4.492,10.337-.431,2.187,1.714,2.212,3.113,2.085,6.538-.1,2.831-.3,5.616-.393,8.437.187.561,2.25,1,2.088,3.862-.169,2.987-2.222,2.3-2.707,4.373-.053.229-.106,1.107-.13,1.4-.77,9.712-2.777,6.971-2.289,11.859.478,4.783,1.512,8.967,5.251,11.873,4.8.172,8.507-.97,15.634,1.325,5.615,1.809,9.723,4.065,13.523,8.173a14.247,14.247,0,0,1,.933,1.176c5.594,6.932,7.143,10.326,11.923,16.7,6.313,8.421,12.086,12.044,21.915,4.093a36.8,36.8,0,0,0,12.828-22.125c2.364-13.608-.278-32.636-8.1-42.965a42.9,42.9,0,0,0-6.212-6.746c-8.465-7.527-23.146-11.514-35.381-12.831a71.231,71.231,0,0,0-16.52-.354c-2.6.16-5.727.9-8.136.9a8.577,8.577,0,0,1-.5-1.914c-2.9-10.854-15.705-12.347-25.182-9.9-4.889,1.26-9.7,4.146-11.7,8.191-1.124,2.282.2,1.5-2.074,2.747-11.087,6.1-21.228,18.226-24.435,30.4-2.447,9.291-.9,15.826,5.349,22.078l5.5,4.753Z" transform="translate(-817.401 -6273.978)" fill="#00c29a" fill-rule="evenodd"/>
    <path id="Path_2746" data-name="Path 2746" d="M1401.88,7954.14c-3.806,19.649,46.507,40.512,46.3-.279l-1.939-1.742a14.263,14.263,0,0,1-1.586-1.726,46.806,46.806,0,0,1-2.971-3.661c-1.947-2.908-2.687-6.048-2.97-10.284-2.941,1.488-4.513,2.877-8.857,2.791-4.917-.1-6.574-2.071-8.788-2.844C1419.23,7941.97,1408.05,7951.98,1401.88,7954.14Z" transform="translate(-1363.764 -7883.05)" fill="#fff" fill-rule="evenodd"/>
    <path id="Path_2747" data-name="Path 2747" d="M1945.99,6764.96c-5.78,1.567-5.528-2.483-3.249-5.954,1.339-2.04,3.478-2.246,2.691-.081-.508,1.4-1.723,1.763-2.125,4.122l2.823.2-.141,1.716Zm2.738-6.5a1.849,1.849,0,0,1-.152-1.729c1.745-.027,1.749.76,1.044,1.825Zm-8.832-.793c-1.488-2.309,2.353-2.341.906.053Zm-5.075-10.479c-.368,5.558-.822,10.9-.89,16.5-.077,6.282-.224,10.865,3.656,14.067a12.139,12.139,0,0,0,13.409,1.252c4.121-2.261,4.935-6.8,5.318-12.607-.062-.055-.167-.207-.2-.149-.01.018-1.417-.78-1.292-1.6.359-2.345,3.483.9,4.1-1.918.575-2.607-1.7-1.7-3.034-2.341-.288-2.724.9-.386,1.114-3.305l.379-13.5c-2.982-4.061-7.11-1.42-10.337.429a22.932,22.932,0,0,1-12.227,3.166Z" transform="translate(-1878.914 -6726.456)" fill="#fff" fill-rule="evenodd"/>
    <path id="Path_2748" data-name="Path 2748" d="M1425.88,6811.63l-1.855-.246c-1.6,2.089-.021,10.859-1.647,12.684-3.16,3.546.165,5.328.431,6.785.2,1.113.075,3.29.216,4.628.424,4.02,1.4,4.535,2.784,7.115-1.874,5.346-11.851,14.666-17.441,16.764l-.275,2.63c6.168-2.162,17.345-12.176,19.194-17.746,2.213.773,3.871,2.746,8.788,2.844,4.344.086,5.917-1.3,8.857-2.79.282,4.236,1.022,7.375,2.97,10.283a46.473,46.473,0,0,0,2.971,3.66,14.152,14.152,0,0,0,1.586,1.729l1.939,1.742.176-1.637.791-.221-3.013-3.481c-3.739-2.9-4.773-7.089-5.251-11.873-.488-4.887,1.519-2.146,2.289-11.858.023-.289.077-1.166.13-1.4.484-2.071,2.538-1.387,2.707-4.374.162-2.863-1.9-3.3-2.088-3.861.09-2.821.289-5.6.393-8.437.127-3.423.1-4.824-2.085-6.538l-.379,13.5c-.213,2.919-1.4.581-1.114,3.306,1.336.645,3.609-.268,3.034,2.34-.621,2.821-3.745-.426-4.1,1.919-.125.818,1.281,1.616,1.292,1.6.033-.06.139.094.2.148-.383,5.8-1.2,10.348-5.318,12.608a12.138,12.138,0,0,1-13.409-1.253c-3.879-3.2-3.732-7.786-3.655-14.066C1425.06,6822.53,1425.51,6817.19,1425.88,6811.63Z" transform="translate(-1369.972 -6790.9)" fill-rule="evenodd"/>
    <path id="Path_2749" data-name="Path 2749" d="M2167.1,7245.46l.141-1.716-2.823-.2c.4-2.359,1.616-2.726,2.125-4.123.788-2.164-1.352-1.958-2.691.081-2.279,3.471-2.531,7.521,3.248,5.954Z" transform="translate(-2100.019 -7206.957)" fill-rule="evenodd"/>
    <path id="Path_2750" data-name="Path 2750" d="M2386.93,7219.2l.892.1c.706-1.064.7-1.853-1.043-1.824a1.849,1.849,0,0,0,.151,1.724Z" transform="translate(-2317.112 -7187.191)" fill-rule="evenodd"/>
    <path id="Path_2751" data-name="Path 2751" d="M2110.05,7194.25l.906.053C2112.4,7191.92,2108.56,7191.95,2110.05,7194.25Z" transform="translate(-2049.063 -7163.041)" fill-rule="evenodd"/>
    <path id="Path_2752" data-name="Path 2752" d="M859.121,8377.23c4.171-19.194,1.142-48.883,32.932-36.218,5.1,2.029,16.389,5.086,22.393-1.775,5.127-5.858,15.2-2.153,19.906,1.255,11.488,8.329,10.991,21.659,8.976,31.308-2.165,10.367-1.466,11.987-12.615,15.561C907.932,8394.66,853.866,8401.42,859.121,8377.23Z" transform="translate(-838.274 -8269.981)" fill="#001c3d" fill-rule="evenodd"/>
    <g id="Group_5490" data-name="Group 5490" transform="translate(0 25.627)">
      <path id="Path_2753" data-name="Path 2753" d="M286.5,7135.49l-1.9,1.142,5.349,8.111,1.875-1a25.2,25.2,0,0,1,2.155,3.18c.746,1.163,1.379,2.138,2.1,3.3,1.378,2.228,2.83,4.5,4.276,6.719,36.865,57.391-18.062-27.021,19.616,29.839,1.894,2.859,9.741,14.054,10.71,16.451,1.041,2.578,4.363,10.3,4.741,11.882-1.824.836-5.112,3.409-6.45,3.879l-8.451-7.676c-2.951-2.386-4.633-5.861-7.025-9.561-35.715-55.433,20.15,31.273-15.553-24.165-2.8-4.483-5.632-8.788-8.523-13.248l-6.428-9.944a38.554,38.554,0,0,1-2.2-3.459c.53-.677,7.614-5.039,7.931-5.187a90.2,90.2,0,0,0-5.463-8.194l-7.762,5.082a44.953,44.953,0,0,1-3.23-4.883c-3.071-4.924-8.951-12.045-2.6-16.252a6.126,6.126,0,0,1,6.22-.214,20.128,20.128,0,0,1,4.085,4.207c1.251,1.682,5.939,8.352,6.531,10Z" transform="translate(-265.338 -7118.998)" fill="#fff" fill-rule="evenodd"/>
      <path id="Path_2754" data-name="Path 2754" d="M296.052,7184.51c.136-1.943-3.56-11.612-4.039-12.284l-5.834,3.216c.28.7,4,4.231,4.67,4.937,1.388,1.455,3.734,4.519,5.2,4.131Zm-.486,1.753h.356a1.754,1.754,0,0,0,1.02-.46l.67-.784a8.19,8.19,0,0,0-.742-4.233c-1.081-2.768-2.671-8.46-4.026-10.484-1.185.025-1.694.839-2.106.427-.561-.562.856-1.033,1.276-1.257,0-1.948-2.522-7.235-3.346-9.3-.6-1.51-1.232-3-1.863-4.565-.917-2.279-5.922-9.052-7.478-11.387-22.756-34.575,1.163.767-21.866-33.333l-14.719-23.012c-2.966-4.418-6.664-11.457-10.855-14.23-4.4-2.91-11.208.413-11.572,5.156-.28,3.653,1.375,6.736,3.145,9.491.432.672.8,1.2,1.246,1.863l16.006,24.834c23.112,35.323.023.113,22.858,35.658.447.665.815,1.191,1.246,1.863l4.849,7.589c3.777,5.628,2.274,3.706,7.472,8.284.6.528.962,1.041,1.578,1.532l3.3,2.922c2.829,2.9,2.84-.093,3.783,1.192-2.554.6-1.6,1.825-.363,3.059l4.874,4.869c1.055,1.144,3.311,4.124,5.257,4.3ZM241.5,7089.05c-.591-1.645-5.278-8.314-6.53-10a20.147,20.147,0,0,0-4.085-4.208,6.13,6.13,0,0,0-6.22.215c-6.346,4.206-.467,11.327,2.6,16.252a45.137,45.137,0,0,0,3.23,4.883l7.762-5.081a89.762,89.762,0,0,1,5.462,8.194c-.317.148-7.4,4.509-7.931,5.186a38.314,38.314,0,0,0,2.2,3.46l6.428,9.944c38.72,59.728-14.54-22.434,24.014,37.4,2.393,3.7,4.074,7.176,7.025,9.562l8.451,7.676c1.338-.471,4.626-3.044,6.45-3.879-.378-1.577-3.7-9.3-4.741-11.883-.969-2.4-8.815-13.592-10.71-16.45-22.135-33.406,2.106,3.888-19.554-29.832-1.445-2.214-2.9-4.491-4.276-6.718-.717-1.16-1.351-2.134-2.1-3.3a25.249,25.249,0,0,0-2.155-3.18l-1.875,1-5.349-8.111,1.9-1.141Z" transform="translate(-220.284 -7072.555)" fill-rule="evenodd"/>
      <path id="Path_2755" data-name="Path 2755" d="M2283.55,10190.7c-1.468.387-3.814-2.676-5.2-4.131-.672-.705-4.39-4.231-4.67-4.936l5.833-3.218c.479.673,4.174,10.342,4.039,12.285Z" transform="translate(-2207.784 -10078.738)" fill="#fff" fill-rule="evenodd"/>
    </g>
    <path id="Path_2756" data-name="Path 2756" d="M2778.64,9740.77s34.952,14.072,38.583-13.163-29.959-15.435-7.716-6.809,33.136-9.532,33.136-9.532" transform="translate(-2696.539 -9600.399)" fill="none" stroke="#f2aa18" stroke-linecap="round" stroke-linejoin="round" stroke-miterlimit="22.926" stroke-width="2" fill-rule="evenodd"/>
  </g>
</svg>
