<svg xmlns="http://www.w3.org/2000/svg" xmlns:xlink="http://www.w3.org/1999/xlink" width="138.469" height="157.893" viewBox="0 0 138.469 157.893">
  <defs>
    <clipPath id="clip-path">
      <path id="Path_7" data-name="Path 7" d="M1500.211,128.044l2.643-.549,3.467,3.227,3.3,3.81,22.245,8.582,1.167.172,1.442.858-.893,2.163s2.334-.309,2.781.858a5.559,5.559,0,0,1,.515,3.536,5.831,5.831,0,0,1-1.716,2.884c-.584.343-.687.412-.687.412s2,5.892,2.4,7.459,3.59,12.125,4.867,13.459,36.511,2.214,36.511,2.214,21.706-7.622,21.209-9.776-16.238-22.866-17.4-26.346-31.648-32.642-32.476-33.636-29.494-12.261-29.494-12.261-31.979,8.616-32.145,10.107,3.811,17.729,3.811,17.729Z" fill="#00c29a" stroke="#707070" stroke-width="1"/>
    </clipPath>
    <clipPath id="clip-path-2">
      <path id="Path_6" data-name="Path 6" d="M1497.185,141.266l5.8,2.263a97.605,97.605,0,0,0,0,11.835c.406,6.15.522,10.037,1.973,12.3s1.334,2.727,3.017,4.061a19.645,19.645,0,0,0,2.553,1.8,5.079,5.079,0,0,1-1.276,3.133c-1.276,1.392-23.38,1.218-23.38,1.218l-7.484-6.15s-.754-9.282-.7-9.456S1497.185,141.266,1497.185,141.266Z" fill="#00c29a" stroke="#707070" stroke-width="1"/>
    </clipPath>
  </defs>
  <g id="Group_2" data-name="Group 2" transform="translate(-1461 -95.109)">
    <path id="Path_2757" data-name="Path 2757" d="M7188.72,6716.43l-.34-.339Zm-.34-.339-.339-.34Zm-.339-.34-.34-.339Zm-.34-.339-.339-.34Zm-.339-.34-.339-.339Zm-.339-.339-.34-.34Zm-.34-.34-.34-.339Zm-.34-.339-.339-.34Zm-.339-.34-.34-.339Zm-.34-.339-.339-.339Zm-.339-.339-.34-.34Zm-31.214,9.167c.232,7.823-.554,13.8-5.64,17.138a14.563,14.563,0,0,1-17.1-1.216c-4.3-3.657-4.314-11.178-4.417-18.295-.087-5.99-.241-15.958.692-21.643,2.037,1.1,3.955,2.4,6.452,3.606,5.077,2.44,16.148,5.556,20.348,9.2l-.821,2.271c-.936.76-.835.755-.645,1.921,2,.524,1.77-.585,3.5.9.71,1.537.115,3.192-1.218,3.54-1.966.516-1.978-1.442-3.38.535.416,1.8.816,1.118,2.226,2.048Zm30.874-9.508-.34-.339Zm-12.562-17.994c1.359.91,4.925,7.05,6.108,8.832.973,1.465,1.939,3.023,3.007,4.461l3.107,4.362a19.447,19.447,0,0,1-3.659-3.811c-2.1-2.406-8.087-11.8-8.563-13.844Zm-.339-.679.339.679Zm0,0-.34-.34ZM7171.746,6693.684Zm-53.471,61.114a6.238,6.238,0,0,0,.427,1.094c.023.046.223.39.265.451.4.6.106.218.494.578,12.686-4.835,11.7-9.687,14.6-14.316,4.3.65,8.661,2.916,15.249-1.075,4.007-2.428,6.058-5.96,6.8-12.312,1.831,3.139,4.375,18.314,8.29,21.051,1.893,1.323,5.067,5.693,7.511,6.439a65.849,65.849,0,0,1,7.764.705,5.852,5.852,0,0,0-2.671-2.137c-4.884-1.818-13.6-6.294-13.746-12.7,6.85-.152,25.311-9.846,39.724-9.846-2.648-5-13.092-14.554-14.26-16.3,1.57.419,4.295,3.174,7.625,3.643,1.631.23,1.848-.393,1.882-1.944-3.877-1.86-6.2-.869-11.836-7.856-5.672-7.026-12.23-19.928-17.267-22.117-1.711-.744-1.549-.659-2.624-2.13-4.729-6.472-11.173-10.949-19.687-8.76-3,.771-10.774-1.79-19.62,3.781-4.62,2.91-7.5,8-3.914,12.89.664.906,1.727,1.756,1.928,2.829.327,1.752-.186,3.39-.3,4.744-.122,1.472.015,3.243,0,4.75-.023,1.954-.354,2.56-.354,4.739-3.187.852-11,8.951-13.245,11.88-2.188,2.861-5.663,8.45-6.92,12.092-.482,1.4-1.057,3.831-1.564,4.888,1.935.929,10.494,2.2,13.289,2.67a133.451,133.451,0,0,0,14.553,1.744c-1.295,5.554-7.506,8.7-12.39,10.525Z" transform="translate(-5621.604 -6567.704)" fill-rule="evenodd"/>
    <path id="Path_2758" data-name="Path 2758" d="M7564.4,8146.9c-.564-1.439-.257-4.369.24-5.9l1.479.167c.742,1.154.415,2.309.286,3.723C7566.24,8146.73,7566.31,8147.09,7564.4,8146.9Zm-16.613-37.248c-.164.5,1.956,15.512,2.187,18.106.568,6.425.565,13.81,1.383,20,4.691.369,20.287-.351,27.01-.568,2.333-.076,2.259-.858,3.229-2.457,3.749-6.174,11.171-23.05,14.3-30.507,1.14-2.712,2.428-3.69,3.784-5.978-2.443-.747-4.231-3.087-6.956-5.248-3.914-2.737-6.458-17.912-8.289-21.051-.747,6.352-2.8,9.885-6.8,12.313-6.587,3.991-10.952,1.726-15.248,1.075-2.9,4.633-1.917,9.482-14.6,14.313Z" transform="translate(-6049.936 -7920.435)" fill="#fff" fill-rule="evenodd"/>
    <path id="Path_2760" data-name="Path 2760" d="M7905.65,7677.23c.123-2.8,2.949-5.166,2.3-6.325-1.345-2.414-3.52,2.38-3.992,3.523-2.651,6.412,5.607,5.841,5.072,3.574-.328-1.392-2.009-.756-3.384-.772Z" transform="translate(-6392.301 -7524.105)" fill-rule="evenodd"/>
    <path id="Path_2761" data-name="Path 2761" d="M7430.06,8698.72c-4.053-15.746-25.935-51.7-51.83-40.224-4.153,1.84-13.4,4.723-18.578-.764-.875-.927-4.878-2.561-7.144-1.9-2.6.756-7.664,2.294-9.282,3.564-7.587,5.952-9.187,32.764-5.552,47.771,8.923,36.835,97.3,10.672,92.385-8.448Z" transform="translate(-5845.886 -8472.729)" fill="#001c3d" fill-rule="evenodd"/>
    <path id="Path_2762" data-name="Path 2762" d="M7793.74,7583.24s.918,1.751,1.978,1.65a3.558,3.558,0,0,0,2.318-1.387" transform="translate(-6286.707 -7440.362)" fill="none" stroke="#000" stroke-linecap="round" stroke-linejoin="round" stroke-miterlimit="22.926" stroke-width="2" fill-rule="evenodd"/>
    <path id="Path_2763" data-name="Path 2763" d="M8129.57,7644.21s.388,1.938,1.433,2.141a3.561,3.561,0,0,0,2.614-.676" transform="translate(-6609.985 -7499.054)" fill="none" stroke="#000" stroke-linecap="round" stroke-linejoin="round" stroke-miterlimit="22.926" stroke-width="2" fill-rule="evenodd"/>
    <path id="Path_2764" data-name="Path 2764" d="M8140.07,7993.57c-.795,1.521.866,2.676,2.054,2.555" transform="translate(-6619.892 -7835.357)" fill="none" fill-rule="evenodd"/>
    <path id="Path_2765" data-name="Path 2765" d="M7954.16,8046.17c1.58,3.975,5.883.814,7.233-1.11" transform="translate(-6441.131 -7884.923)" fill="none" stroke="#000" stroke-linecap="round" stroke-linejoin="round" stroke-miterlimit="22.926" stroke-width="2" fill-rule="evenodd"/>
    <g id="Group_5492" data-name="Group 5492" transform="translate(1461 170.277)">
      <path id="Path_2766" data-name="Path 2766" d="M6574.68,8316.88a.956.956,0,0,1,.193.682c.759,4.717,2.021,7.947,4.065,9.482,2.011,1.511,4.934,1.4,9.075-.518.525-.242.965-.488,1.316-.685.755-.422,1.253-.7,1.814-.462.843.359.794,1.17.011,3.007-4.555,10.674-10.229,15.149-15.362,15.872a11.3,11.3,0,0,1-9.273-3.033,14.677,14.677,0,0,1-4.577-8.859c-.645-5,1.342-10.443,7.472-13.984a21.728,21.728,0,0,1,3.8-1.711c.09-.03.084,0,.1,0a.915.915,0,0,1,.446-.2A.93.93,0,0,1,6574.68,8316.88Zm-1.515,1.795a19.181,19.181,0,0,0-2.815,1.323c-5.367,3.1-7.113,7.821-6.557,12.134a12.771,12.771,0,0,0,3.982,7.711,9.48,9.48,0,0,0,7.762,2.566c4.494-.633,9.535-4.7,13.758-14.427l-.5.241c-4.833,2.24-8.374,2.269-10.977.313-2.343-1.761-3.8-5.1-4.654-9.862Zm17.166,8.539c.191-.021.281-.029.082-.113-.153-.07-.113.01-.083.109Z" transform="translate(-6561.827 -8316.46)" fill="#f2aa18"/>
      <path id="Path_2767" data-name="Path 2767" d="M6685.04,8570.36l1.05-.2c.432-1.46.15-2.356-1.829-1.714a2.205,2.205,0,0,0,.78,1.913Z" transform="translate(-6679.682 -8558.82)" fill="#f2aa18" fill-rule="evenodd"/>
      <path id="Path_2768" data-name="Path 2768" d="M7027.72,8765.72l1.05-.257C7029.58,8762.23,7025.21,8763.61,7027.72,8765.72Z" transform="translate(-7009.552 -8746.835)" fill="#f2aa18" fill-rule="evenodd"/>
      <path id="Path_2769" data-name="Path 2769" d="M6760.17,8783.72l1.05-.2c.432-1.46.15-2.356-1.829-1.714a2.209,2.209,0,0,0,.779,1.918Z" transform="translate(-6752.005 -8764.207)" fill="#f2aa18" fill-rule="evenodd"/>
      <path id="Path_2770" data-name="Path 2770" d="M6922.14,8987.6l1.05-.259C6924,8984.11,6919.64,8985.49,6922.14,8987.6Z" transform="translate(-6907.921 -8960.424)" fill="#f2aa18" fill-rule="evenodd"/>
    </g>
    <g id="Mask_Group_2" data-name="Mask Group 2" clip-path="url(#clip-path)">
      <path id="Path_2757-2" data-name="Path 2757" d="M7188.72,6716.43l-.34-.339Zm-.34-.339-.339-.34Zm-.339-.34-.34-.339Zm-.34-.339-.339-.34Zm-.339-.34-.339-.339Zm-.339-.339-.34-.34Zm-.34-.34-.34-.339Zm-.34-.339-.339-.34Zm-.339-.34-.34-.339Zm-.34-.339-.339-.339Zm-.339-.339-.34-.34Zm-31.214,9.167c.232,7.823-.554,13.8-5.64,17.138a14.563,14.563,0,0,1-17.1-1.216c-4.3-3.657-4.314-11.178-4.417-18.295-.087-5.99-.241-15.958.692-21.643,2.037,1.1,3.955,2.4,6.452,3.606,5.077,2.44,16.148,5.556,20.348,9.2l-.821,2.271c-.936.76-.835.755-.645,1.921,2,.524,1.77-.585,3.5.9.71,1.537.115,3.192-1.218,3.54-1.966.516-1.978-1.442-3.38.535.416,1.8.816,1.118,2.226,2.048Zm30.874-9.508-.34-.339Zm-12.562-17.994c1.359.91,4.925,7.05,6.108,8.832.973,1.465,1.939,3.023,3.007,4.461l3.107,4.362a19.447,19.447,0,0,1-3.659-3.811c-2.1-2.406-8.087-11.8-8.563-13.844Zm-.339-.679.339.679Zm0,0-.34-.34ZM7171.746,6693.684Zm-53.471,61.114a6.238,6.238,0,0,0,.427,1.094c.023.046.223.39.265.451.4.6.106.218.494.578,12.686-4.835,11.7-9.687,14.6-14.316,4.3.65,8.661,2.916,15.249-1.075,4.007-2.428,6.058-5.96,6.8-12.312,1.831,3.139,4.375,18.314,8.29,21.051,1.893,1.323,5.067,5.693,7.511,6.439a65.849,65.849,0,0,1,7.764.705,5.852,5.852,0,0,0-2.671-2.137c-4.884-1.818-13.6-6.294-13.746-12.7,6.85-.152,25.311-9.846,39.724-9.846-2.648-5-13.092-14.554-14.26-16.3,1.57.419,4.295,3.174,7.625,3.643,1.631.23,1.848-.393,1.882-1.944-3.877-1.86-6.2-.869-11.836-7.856-5.672-7.026-12.23-19.928-17.267-22.117-1.711-.744-1.549-.659-2.624-2.13-4.729-6.472-11.173-10.949-19.687-8.76-3,.771-10.774-1.79-19.62,3.781-4.62,2.91-7.5,8-3.914,12.89.664.906,1.727,1.756,1.928,2.829.327,1.752-.186,3.39-.3,4.744-.122,1.472.015,3.243,0,4.75-.023,1.954-.354,2.56-.354,4.739-3.187.852-11,8.951-13.245,11.88-2.188,2.861-5.663,8.45-6.92,12.092-.482,1.4-1.057,3.831-1.564,4.888,1.935.929,10.494,2.2,13.289,2.67a133.451,133.451,0,0,0,14.553,1.744c-1.295,5.554-7.506,8.7-12.39,10.525Z" transform="translate(-5621.604 -6567.704)" fill="#00c29a" fill-rule="evenodd"/>
    </g>
    <g id="Mask_Group_3" data-name="Mask Group 3" clip-path="url(#clip-path-2)">
      <path id="Path_2757-3" data-name="Path 2757" d="M7188.72,6716.43l-.34-.339Zm-.34-.339-.339-.34Zm-.339-.34-.34-.339Zm-.34-.339-.339-.34Zm-.339-.34-.339-.339Zm-.339-.339-.34-.34Zm-.34-.34-.34-.339Zm-.34-.339-.339-.34Zm-.339-.34-.34-.339Zm-.34-.339-.339-.339Zm-.339-.339-.34-.34Zm-31.214,9.167c.232,7.823-.554,13.8-5.64,17.138a14.563,14.563,0,0,1-17.1-1.216c-4.3-3.657-4.314-11.178-4.417-18.295-.087-5.99-.241-15.958.692-21.643,2.037,1.1,3.955,2.4,6.452,3.606,5.077,2.44,16.148,5.556,20.348,9.2l-.821,2.271c-.936.76-.835.755-.645,1.921,2,.524,1.77-.585,3.5.9.71,1.537.115,3.192-1.218,3.54-1.966.516-1.978-1.442-3.38.535.416,1.8.816,1.118,2.226,2.048Zm30.874-9.508-.34-.339Zm-12.562-17.994c1.359.91,4.925,7.05,6.108,8.832.973,1.465,1.939,3.023,3.007,4.461l3.107,4.362a19.447,19.447,0,0,1-3.659-3.811c-2.1-2.406-8.087-11.8-8.563-13.844Zm-.339-.679.339.679Zm0,0-.34-.34ZM7171.746,6693.684Zm-53.471,61.114a6.238,6.238,0,0,0,.427,1.094c.023.046.223.39.265.451.4.6.106.218.494.578,12.686-4.835,11.7-9.687,14.6-14.316,4.3.65,8.661,2.916,15.249-1.075,4.007-2.428,6.058-5.96,6.8-12.312,1.831,3.139,4.375,18.314,8.29,21.051,1.893,1.323,5.067,5.693,7.511,6.439a65.849,65.849,0,0,1,7.764.705,5.852,5.852,0,0,0-2.671-2.137c-4.884-1.818-13.6-6.294-13.746-12.7,6.85-.152,25.311-9.846,39.724-9.846-2.648-5-13.092-14.554-14.26-16.3,1.57.419,4.295,3.174,7.625,3.643,1.631.23,1.848-.393,1.882-1.944-3.877-1.86-6.2-.869-11.836-7.856-5.672-7.026-12.23-19.928-17.267-22.117-1.711-.744-1.549-.659-2.624-2.13-4.729-6.472-11.173-10.949-19.687-8.76-3,.771-10.774-1.79-19.62,3.781-4.62,2.91-7.5,8-3.914,12.89.664.906,1.727,1.756,1.928,2.829.327,1.752-.186,3.39-.3,4.744-.122,1.472.015,3.243,0,4.75-.023,1.954-.354,2.56-.354,4.739-3.187.852-11,8.951-13.245,11.88-2.188,2.861-5.663,8.45-6.92,12.092-.482,1.4-1.057,3.831-1.564,4.888,1.935.929,10.494,2.2,13.289,2.67a133.451,133.451,0,0,0,14.553,1.744c-1.295,5.554-7.506,8.7-12.39,10.525Z" transform="translate(-5621.604 -6567.704)" fill="#00c29a" fill-rule="evenodd"/>
    </g>
  </g>
</svg>
