<svg xmlns="http://www.w3.org/2000/svg" xmlns:xlink="http://www.w3.org/1999/xlink" width="172.597" height="143.994" viewBox="0 0 172.597 143.994">
  <defs>
    <clipPath id="clip-path">
      <path id="Path_9" data-name="Path 9" d="M467.449,141.562l-3.7,2.941s.075,8.522,0,13.048a41.755,41.755,0,0,1-.664,8.152,9.276,9.276,0,0,1-1.716,4.394,22.278,22.278,0,0,1-3.433,3.6c-.584.378.652,3.673,1.682,5.184a3.483,3.483,0,0,0,2.506,1.579l24.957-2.712,9.852-3.433s-4.737-21.146-5.012-21.352S467.449,141.562,467.449,141.562Z" fill="#00c29a" stroke="#707070" stroke-width="1"/>
    </clipPath>
    <clipPath id="clip-path-2">
      <path id="Path_10" data-name="Path 10" d="M425.706,177.409c.137-.069,3.845-1.133,3.845-1.133s4.669-14.487,5.252-16.237a6.856,6.856,0,0,0,.481-3.193,4.141,4.141,0,0,1-2.128-3.158c-.1-2.06-.206-3.948.515-4.394s3.707-2.4,3.707-2.4l4.051-1,19.327-7.93.961-2.712a11.432,11.432,0,0,1,2.506-2.128c1.682-1.1,4.875-5.7,4.875-5.7s-3.33-10.3-5.493-10.745-14.349-1.991-14.555-2.06-6.866.549-6.866.549-5.184-.137-6.591.721-6.866,3.3-9.372,7.69-17.267,20.391-17.267,20.391-15.036,16.134-15.139,16.169-1.682,6.488-1.682,6.488,2.128,1.682,2.266,1.819S425.706,177.409,425.706,177.409Z" fill="#00c29a" stroke="#707070" stroke-width="1"/>
    </clipPath>
  </defs>
  <g id="Group_5" data-name="Group 5" transform="translate(-392.133 -109)">
    <path id="Path_2699" data-name="Path 2699" d="M5882.76,850.807a24.963,24.963,0,0,1,2.927-1.677c6.584-3.853,8.8-3.553,15.6-6.627,2.262-1.023,3.909-2.328,5.9-3.264.188,6.259,1.367,26.6-.819,32.111-3.049,7.685-15.067,9.8-20.752,2.658-2.371-2.976-2.719-8.67-2.6-13.24.914-.561,2.577-.689,1.8-2.007-.461-.56-1.621-.13-1.624-.13-2.536.463-2.851-2.015-2.394-3.112.654-1.57,2.006-.364,3.079-1.083,1.2-.8-.551-1.52-1.131-1.839l.014-1.788Zm-5.219-28.127a18.438,18.438,0,0,1-1.814,1.675,22.687,22.687,0,0,1-1.791,1.67l-4.189,5.635c-4.253,6.267-6.643,12.66-11.629,17.99L5851,857.1c-.862.892-1.769,1.579-2.628,2.474-2.225,2.318-7.935,8.458-8.98,10.687,7.082.2,12.419,2,18.533,4.111l17.051,5.807c-1.192,5.7-5.213,6.263-10.783,8.868l3.96.24c6.584-2.72,7.042-4.177,8.884-9.216.846-2.313,1.562-4.441,2.339-6.855.726-2.249,1.23-5.063,2.026-7.122.412,5.981,2.072,9.385,5.679,11.808,4.122,2.77,9.087,2.856,14.069,1.094,1.985,2.151.473,8.075,13.186,13.021.4-.36.07.132.527-.662a10.352,10.352,0,0,0,.4-.981c-2.77-.956-10.2-4.983-9.885-7.206,6.139-.529,12.064-1.259,18.032-2.189,3.215-.5,15.186-2.241,17.153-3.354-.8-5.67-4.755-10.562-7.922-14.642a56.8,56.8,0,0,0-7.971-7.093c-5.276-3.755-9.341-5.211-15.306-7.666-.1-2.8-.2-5.589-.4-8.394-.292-4.117.59-1.472,2.561-5.711,2.445-5.258-2.17-9.1-5.337-10.823-4.186-2.277-9.257-2.99-14.619-2.521-2.233.2-4.313-1.107-7.776-.591-3.548.529-4.829,2.006-6.262,2.5Z" transform="translate(-5445.392 -703.945)" fill-rule="evenodd"/>
    <path id="Path_2700" data-name="Path 2700" d="M6655.63,2138.1a16.439,16.439,0,0,1-.434-3.154c-.1-1.389-.125-2.014,1.318-1.985.677.9.9,3.744.519,5.119l-1.4.02Zm-29.811-36.181c1.611,4.576,9.9,23.157,12.283,27.689,1.5,2.864,3.645,8.647,5.912,8.8,1.588.108,3.472.057,5.1.1,6.551.156,13.116.356,19.667.5.529-5.817.669-11.782,1.183-17.613.257-2.914.526-5.783.883-8.65.212-1.707,1.384-6.961,1.157-8.092-12.713-4.946-11.2-10.87-13.186-13.021-4.982,1.762-9.948,1.676-14.069-1.094-3.606-2.423-5.267-5.827-5.678-11.808-.8,2.059-1.3,4.873-2.026,7.122-.777,2.414-1.494,4.541-2.34,6.855-1.842,5.039-2.3,6.5-8.884,9.217Z" transform="translate(-6203.063 -1916.586)" fill="#fff" fill-rule="evenodd"/>
    <path id="Path_2701" data-name="Path 2701" d="M6987.8,1365.04c-.858.034-2.744-.087-2.466-1.25s1.735-.554,2.959-.639c.434-2.409-2.372-4.363-2.045-5.57.737-2.718,3.2,2.371,3.456,2.953C6990.68,1362.78,6990.52,1364.93,6987.8,1365.04Zm-6.177-9.216c2.146-.007,1.513,1.731.726,1.957-1.349.389-1.2-1.181-.719-1.951Zm10.563,1.506c-2.392.11-1.452-1.791-.739-1.953a.937.937,0,0,1,1.051.772,1.634,1.634,0,0,1-.308,1.181Zm-23.3-1.275-.014,1.788c.58.32,2.329,1.037,1.131,1.839-1.073.718-2.425-.488-3.08,1.083-.457,1.1-.143,3.576,2.4,3.112,0,0,1.162-.43,1.623.13.779,1.318-.884,1.446-1.8,2.007-.122,4.569.227,10.264,2.6,13.24,5.686,7.137,17.7,5.027,20.753-2.658,2.187-5.51,1.006-25.852.818-32.111-1.991.936-3.639,2.241-5.9,3.264-6.8,3.074-9.012,2.774-15.6,6.627a24.963,24.963,0,0,0-2.922,1.684Z" transform="translate(-6531.528 -1209.197)" fill="#fff" fill-rule="evenodd"/>
    <path id="Path_2702" data-name="Path 2702" d="M6599.01,636.3a9.871,9.871,0,0,1,3.137-2.494,17.047,17.047,0,0,1,6.1-2.793,9.265,9.265,0,0,0-4.932-5.073c-4.49-1.677-10.9,1.925-11.152,8.08a15.765,15.765,0,0,0,2.125,8.085c1.148-1.163,2.837-4.327,4.723-5.8Z" transform="translate(-6170.623 -516.534)" fill="#00c29a" fill-rule="evenodd"/>
    <path id="Path_2703" data-name="Path 2703" d="M8281.8,2940.69l4.108-3.5a4.958,4.958,0,0,1,1.519-1.265c-.246-4.139-2.779-9.852-4.844-13.107a.355.355,0,0,0-.086.2l-.7,17.669Z" transform="translate(-7798.48 -2729.807)" fill="#fff" fill-rule="evenodd"/>
    <path id="Path_2704" data-name="Path 2704" d="M7477.08,1687.23c-1.223.084-2.68-.534-2.959.639s1.608,1.284,2.466,1.25c2.717-.109,2.876-2.265,1.9-4.505-.252-.581-2.719-5.671-3.456-2.953-.327,1.206,2.478,3.161,2.045,5.57Z" transform="translate(-7020.317 -1533.278)" fill-rule="evenodd"/>
    <path id="Path_2705" data-name="Path 2705" d="M7621.8,1643.7a1.63,1.63,0,0,0,.312-1.181.938.938,0,0,0-1.05-.772C7620.35,1641.91,7619.41,1643.81,7621.8,1643.7Z" transform="translate(-7161.138 -1495.564)" fill-rule="evenodd"/>
    <path id="Path_2706" data-name="Path 2706" d="M7364.4,1654.51c-.479.77-.625,2.345.726,1.957C7365.92,1656.24,7366.55,1654.5,7364.4,1654.51Z" transform="translate(-6914.308 -1507.879)" fill-rule="evenodd"/>
    <path id="Path_2707" data-name="Path 2707" d="M5898.91,2676.23c4.467-20.559,1.224-52.356,35.271-38.792,5.46,2.175,17.553,5.447,23.984-1.9,5.491-6.274,16.281-2.308,21.319,1.345,12.3,8.92,11.772,23.2,9.614,33.532-2.319,11.1-1.57,12.838-13.511,16.665C5951.19,2694.9,5893.28,2702.14,5898.91,2676.23Z" transform="translate(-5502.364 -2449.859)" fill="#001c3d" fill-rule="evenodd"/>
    <g id="Group_5482" data-name="Group 5482" transform="translate(400.874 187.527)">
      <path id="Path_2708" data-name="Path 2708" d="M6030.5,2777.27c1.161-1.473,5.365-3.255,8.6-3.211,12.717.169,22.011,20.9,26.871,29.6,1.209,2.165,2.685,5.5,4.241,7.032,1.293,1.271,2.812.045,3.994-.638l10.7-6.7c1.165-.78,2.4-1.647,3.383-2.4.63-.481,1.007-.756,1.657-1.225l20.856-16.207c1.8-1.46,4.9-4.215,6.864-4.631l-.911-1.208a33.082,33.082,0,0,0-2.909,1.7c-.483.355-.894.593-1.335.982-.508.447-.658.688-1.194,1.092l-6.5,5.006v.037l-.146.074-1.06.816-3.264,2.459c-.593.772-1.058.863-1.708,1.411l-5.991,4.749c-3.409,2.784-9.863,7.152-13.422,9.5-1.159.765-6.693,4.2-7.952,4.41-.915-1.553-2.088-3.184-3.109-5.142-3.379-6.488-7.769-15.117-12.208-20.816-.657-.844-1.172-1.543-1.843-2.324a32.626,32.626,0,0,0-6.566-6.046c-1.048-.7-4.053-2.379-5.667-2.514a14.454,14.454,0,0,0-7.458.464,13.693,13.693,0,0,0-5.041,2.9c-5.4,6.294,1.618,22.015,5.1,28.709a48.5,48.5,0,0,1,2.613,4.863,56.48,56.48,0,0,1,3.07,4.835c4.986,7.555,19.535,27.492,30.795,22.691,4.245-1.81,10.727-6.924,13.775-10.075l7.685-8.113c1.392-1.493,10.29-12.186,10.884-12.477a32.527,32.527,0,0,1,4.094-4.917l1.478-1.772a2.847,2.847,0,0,1,.419-.572l3.852-4.138c2.718-2.514,5.987-5.281,9.534-6.843l-.539-1.177c-1.549.521-5.9,3.525-7.135,4.459-5.652,4.276-19.621,22.709-26.807,29.989-1.941,1.967-3.768,3.891-5.677,5.757l-6.169,5.138c-5.554,3.984-9.388,6.279-16.608,1.543a27.714,27.714,0,0,1-3.3-2.466c-1.033-1.04-2.063-1.705-3-2.733-.914-1.006-1.857-1.885-2.8-2.914-7.647-8.4-15.548-21.2-19.051-31.11-1.682-4.754-4.575-13.43-1.087-17.855Z" transform="translate(-6027.401 -2772.808)" fill-rule="evenodd"/>
      <path id="Path_2709" data-name="Path 2709" d="M6077.51,2806.91c-3.23-.043-7.434,1.739-8.6,3.211-3.488,4.425-.6,13.1,1.087,17.855,3.5,9.9,11.4,22.711,19.052,31.109.937,1.029,1.881,1.908,2.795,2.914.935,1.028,1.963,1.694,3,2.733a27.8,27.8,0,0,0,3.3,2.466c7.221,4.737,11.055,2.442,16.608-1.542l6.169-5.139c1.909-1.866,3.736-3.79,5.677-5.757,7.186-7.279,21.154-25.713,26.806-29.989,1.235-.934,5.586-3.938,7.135-4.459l-3.379-6.472a18.323,18.323,0,0,1-1.091-2.09c-1.964.417-5.069,3.171-6.865,4.631l-20.856,16.207c-.649.469-1.026.744-1.656,1.225-.979.748-2.219,1.615-3.383,2.4l-10.7,6.7c-1.182.683-2.7,1.908-3.993.638-1.557-1.529-3.031-4.868-4.241-7.032-4.861-8.708-14.154-29.434-26.872-29.6Z" transform="translate(-6065.817 -2805.661)" fill="#fff" fill-rule="evenodd"/>
    </g>
    <g id="Group_5483" data-name="Group 5483" transform="translate(485.319 179.382)">
      <path id="Path_2710" data-name="Path 2710" d="M8336.51,2551.7c13.747,32.548,9.02,36.2,13.529,54.3l65.125,2.6c2.417.1-1.7-28.291-2.018-31.774a54.134,54.134,0,0,0-5.752-18.7l-2.789-5.422c-.5-.872-.96-1.792-1.5-2.6-1.556,0-3.113.006-4.669,0l-61.925,1.6Z" transform="translate(-8336.51 -2550.1)" fill-rule="evenodd"/>
      <path id="Path_2711" data-name="Path 2711" d="M8383.4,2588.94c.044.442,2.151,4.5,2.571,5.3a70.218,70.218,0,0,1,6.29,17.8c1.841,9.152,3.292,18.48,4.275,28.006l62.925,2.047c.752-.35-2.4-29.114-2.836-32.076-1.4-9.567-5.254-15.432-9.125-23.187l-64.1,2.109Z" transform="translate(-8381.687 -2585.487)" fill="#fff" fill-rule="evenodd"/>
      <path id="Path_2712" data-name="Path 2712" d="M8804.29,3064.07c-.105,1.423.746,1.149,1.92,1.091l9.494-.362,12.494-.474c4.219-.158,8.418-.315,12.637-.478,2.845-.11,10.226-.047,12.442-.585l.063-1.091c-1.578-.327-48.24,1.6-49.052,1.9Z" transform="translate(-8787.172 -3043.406)" fill="#f2aa18" fill-rule="evenodd"/>
      <path id="Path_2713" data-name="Path 2713" d="M8923.1,3809.36c.394-1.686-1.5-1.067-4.977-.936l-31.546,1.193c-1.537.057-11.976.231-12.358.723-.943,1.213,1.179,1.056,1.908,1.02l22.024-.837c3.026-.113,23.95-.583,24.947-1.162Z" transform="translate(-8854.329 -3762.199)" fill="#f2aa18" fill-rule="evenodd"/>
      <path id="Path_2714" data-name="Path 2714" d="M8852.64,3577.8c1,.778,6.177.146,7.963.078l8.581-.325c2.606-.1,15.814-.424,17.253-.762.179-.806.249-1.145-.8-1.208l-6.931.267-8.952.339c-2.987.112-5.966.228-8.958.339l-4.478.17c-.809.03-1.632.042-2.436.078C8852.96,3576.81,8852.62,3576.85,8852.64,3577.8Z" transform="translate(-8833.765 -3538.078)" fill="#f2aa18" fill-rule="evenodd"/>
      <path id="Path_2715" data-name="Path 2715" d="M9433.69,3311.8l.074-1.04c-1.377-.364-11.789.281-14.092.368l-10.639.4c-.795.03-3.033-.288-3.215.651-.234,1.215,1.968.739,2.84.705,4.557-.176,23.568-.65,25.031-1.087Z" transform="translate(-9366.698 -3282.84)" fill="#f2aa18" fill-rule="evenodd"/>
      <path id="Path_2716" data-name="Path 2716" d="M8838.93,3348.09c-1.187-.243-8.494.193-10.7.27-.611.021-3.338-.06-2.421,1.082.512.637,8.823.014,10.761-.053,1.324-.046,2.75.284,2.359-1.3Z" transform="translate(-8807.734 -3318.839)" fill="#f2aa18" fill-rule="evenodd"/>
      <path id="Path_2717" data-name="Path 2717" d="M8779.8,2847.77c-.149,1.477.855,1.1,2.066,1.04,2.139-.1,17.782-.638,10.021-.64.1-1.519-.964-1.056-2.4-.993-2.091.091-8.7.094-9.683.593Z" transform="translate(-8763.573 -2836.208)" fill="#f2aa18" fill-rule="evenodd"/>
      <path id="Path_2718" data-name="Path 2718" d="M9430.97,2824.69c-.242,1.3.425,1.185,1.7,1.125,1-.047,1.982-.083,2.986-.121a50.069,50.069,0,0,0,6.063-.323c.424-1.774-1.445-1.194-4.762-1.068-1.5.057-4.857-.02-5.986.388Z" transform="translate(-9390.9 -2814.087)" fill="#f2aa18" fill-rule="evenodd"/>
      <path id="Path_2719" data-name="Path 2719" d="M9967.46,3560.28c.867.329,7.318.073,8.234-.271.4-1.6-.748-1.145-3.8-1.026C9968.6,3559.11,9967.37,3558.68,9967.46,3560.28Z" transform="translate(-9907.813 -3521.939)" fill="#f2aa18" fill-rule="evenodd"/>
      <path id="Path_2720" data-name="Path 2720" d="M9958.39,2809.44l-.044.873a13.053,13.053,0,0,0,5.9-.222c.3-1.521-1.264-1.043-2.539-.991a10.551,10.551,0,0,0-3.319.341Z" transform="translate(-9899.038 -2799.521)" fill="#f2aa18" fill-rule="evenodd"/>
    </g>
    <g id="Mask_Group_5" data-name="Mask Group 5" clip-path="url(#clip-path)">
      <path id="Path_2699-2" data-name="Path 2699" d="M5882.76,850.807a24.963,24.963,0,0,1,2.927-1.677c6.584-3.853,8.8-3.553,15.6-6.627,2.262-1.023,3.909-2.328,5.9-3.264.188,6.259,1.367,26.6-.819,32.111-3.049,7.685-15.067,9.8-20.752,2.658-2.371-2.976-2.719-8.67-2.6-13.24.914-.561,2.577-.689,1.8-2.007-.461-.56-1.621-.13-1.624-.13-2.536.463-2.851-2.015-2.394-3.112.654-1.57,2.006-.364,3.079-1.083,1.2-.8-.551-1.52-1.131-1.839l.014-1.788Zm-5.219-28.127a18.438,18.438,0,0,1-1.814,1.675,22.687,22.687,0,0,1-1.791,1.67l-4.189,5.635c-4.253,6.267-6.643,12.66-11.629,17.99L5851,857.1c-.862.892-1.769,1.579-2.628,2.474-2.225,2.318-7.935,8.458-8.98,10.687,7.082.2,12.419,2,18.533,4.111l17.051,5.807c-1.192,5.7-5.213,6.263-10.783,8.868l3.96.24c6.584-2.72,7.042-4.177,8.884-9.216.846-2.313,1.562-4.441,2.339-6.855.726-2.249,1.23-5.063,2.026-7.122.412,5.981,2.072,9.385,5.679,11.808,4.122,2.77,9.087,2.856,14.069,1.094,1.985,2.151.473,8.075,13.186,13.021.4-.36.07.132.527-.662a10.352,10.352,0,0,0,.4-.981c-2.77-.956-10.2-4.983-9.885-7.206,6.139-.529,12.064-1.259,18.032-2.189,3.215-.5,15.186-2.241,17.153-3.354-.8-5.67-4.755-10.562-7.922-14.642a56.8,56.8,0,0,0-7.971-7.093c-5.276-3.755-9.341-5.211-15.306-7.666-.1-2.8-.2-5.589-.4-8.394-.292-4.117.59-1.472,2.561-5.711,2.445-5.258-2.17-9.1-5.337-10.823-4.186-2.277-9.257-2.99-14.619-2.521-2.233.2-4.313-1.107-7.776-.591-3.548.529-4.829,2.006-6.262,2.5Z" transform="translate(-5445.392 -703.945)" fill="#00c29a" fill-rule="evenodd"/>
    </g>
    <g id="Mask_Group_6" data-name="Mask Group 6" clip-path="url(#clip-path-2)">
      <path id="Path_2699-3" data-name="Path 2699" d="M5882.76,850.807a24.963,24.963,0,0,1,2.927-1.677c6.584-3.853,8.8-3.553,15.6-6.627,2.262-1.023,3.909-2.328,5.9-3.264.188,6.259,1.367,26.6-.819,32.111-3.049,7.685-15.067,9.8-20.752,2.658-2.371-2.976-2.719-8.67-2.6-13.24.914-.561,2.577-.689,1.8-2.007-.461-.56-1.621-.13-1.624-.13-2.536.463-2.851-2.015-2.394-3.112.654-1.57,2.006-.364,3.079-1.083,1.2-.8-.551-1.52-1.131-1.839l.014-1.788Zm-5.219-28.127a18.438,18.438,0,0,1-1.814,1.675,22.687,22.687,0,0,1-1.791,1.67l-4.189,5.635c-4.253,6.267-6.643,12.66-11.629,17.99L5851,857.1c-.862.892-1.769,1.579-2.628,2.474-2.225,2.318-7.935,8.458-8.98,10.687,7.082.2,12.419,2,18.533,4.111l17.051,5.807c-1.192,5.7-5.213,6.263-10.783,8.868l3.96.24c6.584-2.72,7.042-4.177,8.884-9.216.846-2.313,1.562-4.441,2.339-6.855.726-2.249,1.23-5.063,2.026-7.122.412,5.981,2.072,9.385,5.679,11.808,4.122,2.77,9.087,2.856,14.069,1.094,1.985,2.151.473,8.075,13.186,13.021.4-.36.07.132.527-.662a10.352,10.352,0,0,0,.4-.981c-2.77-.956-10.2-4.983-9.885-7.206,6.139-.529,12.064-1.259,18.032-2.189,3.215-.5,15.186-2.241,17.153-3.354-.8-5.67-4.755-10.562-7.922-14.642a56.8,56.8,0,0,0-7.971-7.093c-5.276-3.755-9.341-5.211-15.306-7.666-.1-2.8-.2-5.589-.4-8.394-.292-4.117.59-1.472,2.561-5.711,2.445-5.258-2.17-9.1-5.337-10.823-4.186-2.277-9.257-2.99-14.619-2.521-2.233.2-4.313-1.107-7.776-.591-3.548.529-4.829,2.006-6.262,2.5Z" transform="translate(-5445.392 -703.945)" fill="#00c29a" fill-rule="evenodd"/>
    </g>
  </g>
</svg>
