<svg xmlns="http://www.w3.org/2000/svg" xmlns:xlink="http://www.w3.org/1999/xlink" width="183.588" height="143.991" viewBox="0 0 183.588 143.991">
  <defs>
    <clipPath id="clip-path">
      <path id="Path_5" data-name="Path 5" d="M263.273,152.1l-5.685-2.274L236.906,144.2l-.885-.84-2.123-.531-8.36,1.9-8.881-15.869,12.254-14.781,37.773.758s8.969,5.685,8.969,6.064,4.043,14.275,3.916,14.907-2.653,7.019-2.653,7.019l-2.906,8.267-6.19,1.642Z" fill="#fff"/>
    </clipPath>
  </defs>
  <g id="Group_1" data-name="Group 1" transform="translate(-129 -109)">
    <path id="Path_2683" data-name="Path 2683" d="M2695.59,2623.91c-3.091-14.226-21.447-47.134-45-37.749-3.778,1.5-12.147,3.77-16.6-1.315-.752-.859-4.519,2.15-5.5,1.791-1.853-.681,1.224-4.247-.828-3.733-2.349.588-6.934,1.792-8.426,2.873-6.991,5.068-9.333,29-6.59,42.554,6.733,33.259,86.7,12.852,82.944-4.421Z" transform="translate(-2387.302 -2402.07)" fill="#001c3d" fill-rule="evenodd"/>
    <g id="Group_5479" data-name="Group 5479" transform="translate(142.602 108.989)">
      <path id="Path_2684" data-name="Path 2684" d="M521.182,684.6c.925-1.437,2.554-11.429,1.76-13.675-.869-2.461-3.489-3.153-.957-6.683,1.439-2.006.586-.815.684-3.359a1.857,1.857,0,0,1,1.02-2.1c.77-.478.372-.229.77-.236.463-3.388,5.454-8.875,10.474-9.776,5.154-.925,9.882,2.368,14.97.263l2.152-1.628c1.156-1.269,2.537-2.9,3.729-4,.338-1.163.474-1.126,1.4-2.03,3.692-4.1,11.089-17.82,12.248-19.35l.264-.541.264-.542.263-.541.389-1.486.264-.542.264-.541c-.189-1.819.376-1.368-.306-3.5-4.118-1.086-6.454,1.069-11.2,4.629-2.139,1.6-2.74.726-5.07-.112-2.445-.88-2.769-1.223-5.448-.861l-2.01.7c-1.518,1.547-2.56,2.625-2.306,5.071-3.852-1.016-11.711-8.917-19.61,6.865-.857,1.712-1.009,2.795-1.821,4.473a38.415,38.415,0,0,0-1.646,4.224,176.873,176.873,0,0,0-7.713,32.759c-.473,3.574-1.215,6.491.293,10.863l6.88,1.656Z" transform="translate(-508.285 -614.04)" fill="#00c29a" fill-rule="evenodd"/>
      <path id="Path_2685" data-name="Path 2685" d="M799.373,1573.34c1.366-.413,1.407-1.33,3.708,2.372,1.665,2.678,2.206,5.748-1.872,5.973-1.636.09-1.59-.013-2.007-1.444,1.086-1.073,1.452-.48,3.257-.988C801.653,1576.993,799.459,1574.9,799.373,1573.34Zm4.965-.827c-.745-1.2.238-1.38,1.346-1.872l.263,1.866c-.461.343-1.011.963-1.609,0Zm-9.4,1.905c-1.176-.932-.869-.629-.756-1.885,2.306-.413,2.631.967.76,1.887Zm-14.378-2.786c.962,6.333.236,3.191,1.545,4.628.013.015.683-.68.483.919-.194,1.558-.937-.051-3.393,1.726a5.091,5.091,0,0,0,1.232,3.48l3.482-.639c.519,2.408-.33,1.491-1.684,3,.715,6.39,2.013,13.281,7.042,15.9,4.666,2.43,12.854,1.512,16.756-3.35,3.352-4.177,2.727-9.851,2.248-16.334A166.259,166.259,0,0,0,806,1562.121c-5.088,2.105-9.816-1.188-14.97-.263-5.02.9-10.011,6.388-10.474,9.776Z" transform="translate(-764.391 -1527.133)" fill="#fefefe" fill-rule="evenodd"/>
      <path id="Path_2686" data-name="Path 2686" d="M452.83,2402.72c.866.715,4.569,1.958,6.05,2.5,2.05.756,4.055,1.542,6.26,2.283l15.654,5.719c3.371,1.377,3.707-.06,9.98-3.835,2.34-1.408,4.5-2.7,6.788-4.1,1.123-.687,2.276-1.394,3.408-2.059.525-.308,1.431-.779,1.842-1.048l1.5-1.413c-7.417-3.551-11.4-5.282-15.239-13.763-11.05,4.625-19.09,1.489-22.517-10.642-1.95,4.173-1.95,17.7-6.665,21.631A49.6,49.6,0,0,1,452.83,2402.72Z" transform="translate(-449.922 -2312.109)" fill="#fefefe" fill-rule="evenodd"/>
      <path id="Path_2687" data-name="Path 2687" d="M414.688,1530.46a166.278,166.278,0,0,1,2.269,18.841c.478,6.483,1.1,12.158-2.248,16.334-3.9,4.862-12.09,5.78-16.756,3.35-5.029-2.62-6.327-9.511-7.042-15.9,1.354-1.506,2.2-.59,1.684-3l-3.482.639a5.088,5.088,0,0,1-1.232-3.48c2.455-1.777,3.2-.168,3.393-1.726.2-1.6-.47-.9-.483-.919-1.308-1.437-.583,1.7-1.545-4.628-.4.008,0-.241-.77.236a1.856,1.856,0,0,0-1.02,2.1c-.1,2.544.754,1.354-.684,3.359-2.532,3.53.088,4.223.957,6.683.793,2.247-.835,12.238-1.76,13.676.12,1.533-.653,3.968-1.065,5.53-.486,1.842-.876,3.979-1.507,5.632-1.065,2.786-6.408,6.381-10.325,7.732,1,1.083,1.358.906,2.909,1.163a49.6,49.6,0,0,0,7.059-4.72c4.714-3.929,4.715-17.458,6.665-21.631,3.427,12.131,11.467,15.267,22.517,10.642,3.843,8.481,7.822,10.212,15.239,13.763l2.75-.889-9.012-4.911a16.891,16.891,0,0,1-7.173-9.349c1.9-.837,2.546-2.156,3.52-3.646a10.361,10.361,0,0,0,1.609-4.577c.637-3.99.087-6.883-.042-11.075-.117-3.792,2.907-3.612,1.55-7.325-.861-2.356-.489-.92-1.689-2.159-1.455-1.5-2.2-10.793-2.132-11.379l-2.152,1.628Z" transform="translate(-373.07 -1495.474)" fill-rule="evenodd"/>
      <path id="Path_2688" data-name="Path 2688" d="M1331.63,1872.77c-2.3-3.7-2.341-2.784-3.708-2.372.081,1.559,2.28,3.653,3.086,5.913-1.8.508-2.171-.085-3.257.988.417,1.43.37,1.534,2.007,1.444C1333.836,1878.518,1333.294,1875.443,1331.63,1872.77Z" transform="translate(-1292.939 -1824.189)" fill-rule="evenodd"/>
      <path id="Path_2689" data-name="Path 2689" d="M1463.35,1809.07l-.263-1.866c-1.107.492-2.091.675-1.346,1.872C1462.33,1810.03,1462.89,1809.41,1463.35,1809.07Z" transform="translate(-1421.79 -1763.693)" fill-rule="evenodd"/>
      <path id="Path_2690" data-name="Path 2690" d="M1187.74,1859.01c1.871-.916,1.546-2.3-.756-1.884C1186.87,1858.38,1186.56,1858.07,1187.74,1859.01Z" transform="translate(-1157.187 -1811.723)" fill-rule="evenodd"/>
    </g>
    <path id="Path_2691" data-name="Path 2691" d="M2572.66,832.123c-6.972,3.519-14.082,2.571-22,1.991-.214,8.775-.928,27.219,4.517,32.008a12.43,12.43,0,0,0,14,.965c4.545-2.953,4.541-7.113,4.522-14.092-.33-1.918-1.881-.269-1.941-2.773,1.873-1.135,2.784.792,3.711-1.244,1.159-2.541-1.709-2.226-3.112-2.485,0-3.245.5-.338,1.059-3.039l-.749-11.332Zm19.6-8.88c1.207,5.18-.733,11.176-3,14.359-3.9,5.478-7.773,4.65-13.532,4.65,0,4.5.932,1.156,1.918,4.3,1.717,5.467-5.283-.613,4.99,23.5.822,1.929.9,2.552,2.268,3.931,1.19,1.2,2.508,1.836,3.221,3.089l-2.783.247c-3.731-3.117-3.39-3.106-5.635-8.47-.884-2.115-3.5-8.319-3.728-10.293-1.165,5.364-1.679,7.42-5.273,10.075-4,2.954-7.574,2.4-12.746,1.728l-1.807,5.059-2.325-.383a37.144,37.144,0,0,1,2.064-5.925c-2.733-.73-4.915-4.124-5.708-6.688a43.428,43.428,0,0,1-1.317-11.08c-1.44-.385-2.065-1.381-2.344-3.058-.4-2.435.884-2.634,1.576-3.908.992-1.827.355-8.168.355-10.8a23.212,23.212,0,0,1-8.169-4.228c-6.9-6.453-4.136-14.872-1.012-17.349,4.732-3.75,12.085,2.227,14.33,1.558,3.754-1.12,8.088-8.613,23.668-6.32,4.691.69,7.469,3.149,9.2,3.611l5.785,12.4Z" transform="translate(-2314.527 -690.784)" fill-rule="evenodd"/>
    <path id="Path_2692" data-name="Path 2692" d="M2942,1519.62c-1.314-.89-1.089-.444-2.856-.42.31-2.152.9-2.161,1.577-3.8.525-1.267-.072-2.76-1.564-1.57-.3.237-3.824,5.558-1.066,7.228.1.061,3.75,1.6,3.909-1.44Zm-6.539-7.093c-.267.341-1.247-.05-.082,1.653.739-.158,1.293.073,1.038-1.047a.744.744,0,0,0-.956-.606Zm9.383-.217c-1.825.615-1.544,1.971.206,1.708.49-1.308.53-.668-.21-1.708Zm11.764.249c-.556,2.7-1.061-.206-1.058,3.039,1.4.259,4.27-.055,3.112,2.485-.928,2.036-1.838.109-3.712,1.244.061,2.5,1.611.855,1.942,2.772.019,6.98.024,11.14-4.522,14.092a12.429,12.429,0,0,1-14-.965c-5.444-4.788-4.731-23.232-4.517-32.007,7.924.58,15.033,1.527,22-1.992l.749,11.332Z" transform="translate(-2697.726 -1359.891)" fill="#fefefe" fill-rule="evenodd"/>
    <path id="Path_2693" data-name="Path 2693" d="M3117.05,2244.91l-.588.352c-2.272,1.078.9-.307-.6.285-6.924,2.762-24.033,6.11-27.653-.3-1-1.766.149-3.715,1.462-7.3,5.173.676,8.749,1.228,12.747-1.727,3.594-2.656,4.109-4.713,5.273-10.077.223,1.975,2.843,8.18,3.728,10.293,2.245,5.364,1.9,5.354,5.634,8.471Z" transform="translate(-2846.236 -2058.378)" fill="#fefefe" fill-rule="evenodd"/>
    <path id="Path_2694" data-name="Path 2694" d="M3027.45,1840.79c1.766-.024,1.541-.47,2.855.42-.158,3.04-3.808,1.5-3.909,1.44-2.758-1.669.77-6.99,1.066-7.228,1.492-1.19,2.09.3,1.564,1.57-.678,1.636-1.268,1.646-1.577,3.8Z" transform="translate(-2786.032 -1681.48)" fill-rule="evenodd"/>
    <path id="Path_2695" data-name="Path 2695" d="M3206.58,1806.87c-1.75.263-2.031-1.094-.206-1.708C3207.12,1806.2,3207.07,1805.56,3206.58,1806.87Z" transform="translate(-2959.261 -1652.739)" fill-rule="evenodd"/>
    <path id="Path_2696" data-name="Path 2696" d="M2964.95,1812.34c-1.164-1.7-.184-1.312.083-1.652a.743.743,0,0,1,.956.606c.255,1.12-.3.888-1.038,1.047Z" transform="translate(-2727.303 -1658.045)" fill-rule="evenodd"/>
    <path id="Path_2697" data-name="Path 2697" d="M3759.68,794.663l-3.241-6.945a11.682,11.682,0,0,1,4.7-4.325c6.211-3.071,15.877-4.907,21.632.444a13.286,13.286,0,0,1,3.676,5.353c2.777,8.245-1.422,18.136,3.376,23.94,4.26,5.153,6.023,4.684,7.71,10.577.452,1.576.913.866,2.251,2.379a12.018,12.018,0,0,1,1.826,2.8c2.314,5.132,2.1,16.044-2.486,17.259-2.561.677-5.419-.344-6.821,2.438-1.076,2.136-.73,5.779-1.288,7.972-.46,1.812-.742,1.736-1.708,2.838-6.583,2.143-14.809-.749-17.468-5.372-1.284-2.232-1.134-4.037-1.208-6.811-.219-8.2-2.309-7-6.09-10.2-1.781-1.506-2.347-3.153-1.6-6,.456-1.737,2.078-4.619,2.061-6.031,2.449-3.879-3.719-13.187-2.889-17,.839-3.853,4.657-9.362,1.09-11.529-1.167-.709-2.356-1.179-3.526-1.8Zm2.083-9.955a7.07,7.07,0,0,0,1.8-.514,17.91,17.91,0,0,1,13.4,1.747c4.325,2.309,5.909,6.227,6.922,11.828.967,5.343.9,11.58,2.326,16.425a11.241,11.241,0,0,0,3.623,5.869,29.883,29.883,0,0,0,6.187,3.3c-.2-2.377-2.5-4.468-3.878-5.846-8.071-8.071-5.666-8.887-6.069-23.562-.15-5.472-3.954-10.253-8.156-11.521-4.321-1.3-10.408-.5-14.549,1.332-.2.087-.579.234-.8.353a3.8,3.8,0,0,0-.806.583Z" transform="translate(-3490.467 -665.38)" fill="#00c29a" fill-rule="evenodd"/>
    <path id="Path_2698" data-name="Path 2698" d="M.374,2977.52c4.27-19.651,1.17-50.042,33.712-37.078,5.218,2.079,16.777,5.207,22.924-1.816,5.249-6,15.562-2.206,20.377,1.285,11.76,8.526,11.252,22.171,9.189,32.05-2.216,10.612-1.5,12.271-12.914,15.928C50.343,2995.36-5,3002.28.374,2977.52Z" transform="translate(128.991 -2741.836)" fill="#f2aa18" fill-rule="evenodd"/>
    <g id="Mask_Group_1" data-name="Mask Group 1" clip-path="url(#clip-path)">
      <path id="Path_2691-2" data-name="Path 2691" d="M2572.66,832.123c-6.972,3.519-14.082,2.571-22,1.991-.214,8.775-.928,27.219,4.517,32.008a12.43,12.43,0,0,0,14,.965c4.545-2.953,4.541-7.113,4.522-14.092-.33-1.918-1.881-.269-1.941-2.773,1.873-1.135,2.784.792,3.711-1.244,1.159-2.541-1.709-2.226-3.112-2.485,0-3.245.5-.338,1.059-3.039l-.749-11.332Zm19.6-8.88c1.207,5.18-.733,11.176-3,14.359-3.9,5.478-7.773,4.65-13.532,4.65,0,4.5.932,1.156,1.918,4.3,1.717,5.467-5.283-.613,4.99,23.5.822,1.929.9,2.552,2.268,3.931,1.19,1.2,2.508,1.836,3.221,3.089l-2.783.247c-3.731-3.117-3.39-3.106-5.635-8.47-.884-2.115-3.5-8.319-3.728-10.293-1.165,5.364-1.679,7.42-5.273,10.075-4,2.954-7.574,2.4-12.746,1.728l-1.807,5.059-2.325-.383a37.144,37.144,0,0,1,2.064-5.925c-2.733-.73-4.915-4.124-5.708-6.688a43.428,43.428,0,0,1-1.317-11.08c-1.44-.385-2.065-1.381-2.344-3.058-.4-2.435.884-2.634,1.576-3.908.992-1.827.355-8.168.355-10.8a23.212,23.212,0,0,1-8.169-4.228c-6.9-6.453-4.136-14.872-1.012-17.349,4.732-3.75,12.085,2.227,14.33,1.558,3.754-1.12,8.088-8.613,23.668-6.32,4.691.69,7.469,3.149,9.2,3.611l5.785,12.4Z" transform="translate(-2314.527 -690.784)" fill="#00c29a" fill-rule="evenodd"/>
    </g>
  </g>
</svg>
