<svg xmlns="http://www.w3.org/2000/svg" xmlns:xlink="http://www.w3.org/1999/xlink" width="254.511" height="158.721" viewBox="0 0 254.511 158.721">
  <defs>
    <clipPath id="clip-path">
      <path id="Path_8" data-name="Path 8" d="M1055.2,144.144l3.526-2.588,3.347-1.026,12.585-1.785,15.575,13.879a3.177,3.177,0,0,1,2.9-.179,4.011,4.011,0,0,1,2.321,2.856c.312,1.383.491,3.079,0,3.749s-1.428,2.053-1.428,2.053,1.473,10.71,1.651,11.737.58,2.588.58,2.588l27.489,23.391,48.725,16.522s47.324-24.362,47.6-26.042,1.68-31.363,1.4-32.2-38.364-33.323-42-36.963-63.006-24.642-67.486-25.482-71.967,0-71.967,0l-4.2,36.683,7.281,12.812Z" fill="#00c29a" stroke="#707070" stroke-width="1"/>
    </clipPath>
  </defs>
  <g id="Group_3" data-name="Group 3" transform="translate(-967 -94.275)">
    <path id="Path_2738" data-name="Path 2738" d="M18395.9,2811.07c-3.8-17.512-26.4-58.023-55.4-46.469-4.648,1.853-14.951,4.641-20.43-1.618-.926-1.058-5.562,2.647-6.77,2.2-2.281-.839,1.508-5.228-1.02-4.6-2.891.724-8.533,2.206-10.371,3.537-8.605,6.239-11.488,35.7-8.111,52.383C18302.1,2857.46,18400.6,2832.34,18395.9,2811.07Z" transform="translate(-17244.49 -2585.424)" fill="#001c3d" fill-rule="evenodd"/>
    <path id="Path_2739" data-name="Path 2739" d="M18117.8,1236.14l-3.1.79c-.99.246-2.129.558-3.018.873-6.586,2.337-10.008,5.851-10.422,13.9-.242,4.668.039,9.262,4.531,11.363,1.994.933,4.119,1.062,7.156.974,2.547-.074,4.807-.984,7.125-.984,0,4.564,4.2,25.567,5.186,29.512,2.141,8.5,4.633,14.645,14.572,15.6a9.006,9.006,0,0,0,1.9.181c3.961-.213,9.289-.127,11.527-4.154l.867-1.567-3.971.922a15.532,15.532,0,0,0-2.934,1.628c-5.4,1.339-10.01,1.635-14.145-1.615-3.607-2.834-4.439-6.031-5.809-11.693-1.125-4.655-4.574-22.413-5.1-28.04a5.211,5.211,0,0,1-.027-.8c.051-1.163.027-.442.137-.768,3-1,6.488-1.825,9.555-2.691a24.614,24.614,0,0,1,5.088-1.061c2.537.228,13.383,11.776,14.592,15.572-.986.677-2.131.906-1.225,2.177.367.41-.516.784,1.777-.014,3.932-1.368,3.012,3.321,2.969,3.4-1.807,1.661-2.1.569-3.375,1.678.008,1.582.547,1.415,2.129,1.431,1.283,11.292,3.561,13.569-3.637,20.8l3.971-.922.322-.337c4.379-7.3,2.354-1.521,2.652-8.265,2.084,4.139.881,3.451,4.766,6.042,5.863,3.907,14.938,7.845,21.5,10.927a30.335,30.335,0,0,1,6.414,4.294c2.2,1.85,3.9,3.326,5.984,5.042,12.6,10.369,15.939,7.237,32.2,2.612,5.746-1.635,11.936-2.428,17.922-3.786,12.777-2.9,21.93-5.546,23.3-20.108,1.539-8.995-1.371-21.771-5.514-26.2-2.414-2.583-7.816-3.312-11.281-4.931a42.706,42.706,0,0,1-5-3.113c-9.617-6.414-12.66-6.185-26.047-3.93-6.943,1.17-15.273,2.378-21.279-.956-2.738-1.518-5.264-4.637-7.07-7.2-.387-.55-.506-.854-.928-1.4-2.137-1.774-3.115-6.649-12.449-12.79-5.039-3.317-10.5-6.292-17.971-7.055-9.59-.98-25.006-2.581-33.7,2.474-2.082,1.209-1.354,1.648-4.293,1.8a46.532,46.532,0,0,1-5.852.385Z" transform="translate(-17061.463 -1121.44)" fill-rule="evenodd"/>
    <path id="Path_2740" data-name="Path 2740" d="M18598,1905.35c-2.492,1.373-5.691.738-4.479-2.932.918-2.779,1.412-5.784,2.848-6.276,1.984,1.113-.121,3.348-1.131,7.867C18597,1903.92,18597.9,1903.14,18598,1905.35Zm-6.494-7.994c-1.582-.554-1.75-2.251.324-2.167.971,1.111.67,1.641-.33,2.171Zm11.205-1.655c-2.471.671-2.486-2.781.219-1.75Zm8.158,30.924,2.814-1.563.119-.066c7.2-7.234,4.92-9.511,3.639-20.8-1.582-.016-2.121.152-2.129-1.431,1.273-1.109,1.566-.017,3.375-1.677.039-.075.961-4.765-2.971-3.4-2.291.8-1.41.424-1.779.014-.9-1.271.24-1.5,1.229-2.177-1.213-3.8-12.057-15.343-14.592-15.571a24.661,24.661,0,0,0-5.088,1.06c-3.068.866-6.557,1.689-9.555,2.691-.109.325-.088-.4-.137.768a4.214,4.214,0,0,0,.025.8c.521,5.627,3.971,23.385,5.1,28.04,1.371,5.663,2.2,8.86,5.809,11.694,4.135,3.249,8.74,2.953,14.146,1.615Z" transform="translate(-17525.117 -1742.888)" fill="#fefefe" fill-rule="evenodd"/>
    <path id="Path_2741" data-name="Path 2741" d="M18763.4,2263.97c-.074-2.218-1.018-1.434-2.762-1.341,1.008-4.519,3.115-6.754,1.133-7.867-1.436.492-1.932,3.5-2.85,6.276C18757.7,2264.71,18760.9,2265.34,18763.4,2263.97Z" transform="translate(-17690.502 -2101.502)" fill-rule="evenodd"/>
    <path id="Path_2742" data-name="Path 2742" d="M18691.3,2234.81c1.014-.532,1.34-1.056.324-2.167C18689.6,2232.56,18689.7,2234.26,18691.3,2234.81Z" transform="translate(-17624.947 -2080.339)" fill-rule="evenodd"/>
    <path id="Path_2743" data-name="Path 2743" d="M18936.9,2201.52l.219-1.75C18934.4,2198.74,18934.4,2202.19,18936.9,2201.52Z" transform="translate(-17859.289 -2048.707)" fill-rule="evenodd"/>
    <path id="Path_2744" data-name="Path 2744" d="M16481.2,1722.17a1.1,1.1,0,0,1,.523,2.128l-61.605,15.263,6.1,27.83a1.1,1.1,0,0,1-2.145.463l-6.33-28.869a1.1,1.1,0,0,1,.809-1.3Zm-40.809,29.661a1.094,1.094,0,1,1-.471-2.137l50.352-11.225a1.094,1.094,0,0,1,.471,2.137Zm52.461,56.716a1.1,1.1,0,1,1,.584,2.111l-55.408,15.41a1.092,1.092,0,0,1-1.346-.764l-7.963-36.278a1.1,1.1,0,0,1,2.145-.464l7.7,35.084,54.293-15.1Z" transform="translate(-15450.717 -1591.898)"/>
    <g id="Mask_Group_4" data-name="Mask Group 4" clip-path="url(#clip-path)">
      <path id="Path_2739-2" data-name="Path 2739" d="M18117.8,1236.14l-3.1.79c-.99.246-2.129.558-3.018.873-6.586,2.337-10.008,5.851-10.422,13.9-.242,4.668.039,9.262,4.531,11.363,1.994.933,4.119,1.062,7.156.974,2.547-.074,4.807-.984,7.125-.984,0,4.564,4.2,25.567,5.186,29.512,2.141,8.5,4.633,14.645,14.572,15.6a9.006,9.006,0,0,0,1.9.181c3.961-.213,9.289-.127,11.527-4.154l.867-1.567-3.971.922a15.532,15.532,0,0,0-2.934,1.628c-5.4,1.339-10.01,1.635-14.145-1.615-3.607-2.834-4.439-6.031-5.809-11.693-1.125-4.655-4.574-22.413-5.1-28.04a5.211,5.211,0,0,1-.027-.8c.051-1.163.027-.442.137-.768,3-1,6.488-1.825,9.555-2.691a24.614,24.614,0,0,1,5.088-1.061c2.537.228,13.383,11.776,14.592,15.572-.986.677-2.131.906-1.225,2.177.367.41-.516.784,1.777-.014,3.932-1.368,3.012,3.321,2.969,3.4-1.807,1.661-2.1.569-3.375,1.678.008,1.582.547,1.415,2.129,1.431,1.283,11.292,3.561,13.569-3.637,20.8l3.971-.922.322-.337c4.379-7.3,2.354-1.521,2.652-8.265,2.084,4.139.881,3.451,4.766,6.042,5.863,3.907,14.938,7.845,21.5,10.927a30.335,30.335,0,0,1,6.414,4.294c2.2,1.85,3.9,3.326,5.984,5.042,12.6,10.369,15.939,7.237,32.2,2.612,5.746-1.635,11.936-2.428,17.922-3.786,12.777-2.9,21.93-5.546,23.3-20.108,1.539-8.995-1.371-21.771-5.514-26.2-2.414-2.583-7.816-3.312-11.281-4.931a42.706,42.706,0,0,1-5-3.113c-9.617-6.414-12.66-6.185-26.047-3.93-6.943,1.17-15.273,2.378-21.279-.956-2.738-1.518-5.264-4.637-7.07-7.2-.387-.55-.506-.854-.928-1.4-2.137-1.774-3.115-6.649-12.449-12.79-5.039-3.317-10.5-6.292-17.971-7.055-9.59-.98-25.006-2.581-33.7,2.474-2.082,1.209-1.354,1.648-4.293,1.8a46.532,46.532,0,0,1-5.852.385Z" transform="translate(-17061.463 -1121.44)" fill="#00c29a" fill-rule="evenodd"/>
    </g>
    <path id="Path_2744-2" data-name="Path 2744" d="M16443.393,1765.685a1.1,1.1,0,1,1,1.572-1.527c.027.028,9.645,10.052,13.879,4.4l.02-.023a16.6,16.6,0,0,1-3.742-3.555c-1.625-2.148-1.486-3.569-.508-4.307a2.846,2.846,0,0,1,2.418-.291,6.965,6.965,0,0,1,2.4,1.184,5.516,5.516,0,0,1,2.3,6.181,17.292,17.292,0,0,0,3.576,1.468,11.133,11.133,0,0,0,3.207.464,3.274,3.274,0,0,0,1.832-.466.787.787,0,0,0,.3-.414,39.213,39.213,0,0,0,.916-4.5,11.155,11.155,0,0,1-2.135-2.2,3.638,3.638,0,0,1-.691-3.313,3.776,3.776,0,0,1,2.8-2.279,1.946,1.946,0,0,1,2.1,1.375,6.929,6.929,0,0,1,.416,2.432,22.985,22.985,0,0,1-.158,3,15.3,15.3,0,0,0,5.662,2.661c2.672.219,8.734-2.074,8.75-2.08a1.1,1.1,0,1,1,.781,2.05c-.016.006-6.549,2.475-9.7,2.217a16.36,16.36,0,0,1-5.834-2.454,37.175,37.175,0,0,1-.8,3.686,2.945,2.945,0,0,1-1.088,1.572,5.371,5.371,0,0,1-3.1.9,13.32,13.32,0,0,1-3.852-.542,19.372,19.372,0,0,1-3.988-1.635l-.131.18c-5.8,7.724-17.2-4.156-17.2-4.187Zm16.328.774a3.62,3.62,0,0,0-1.605-3.139,4.723,4.723,0,0,0-1.615-.805,1.46,1.46,0,0,0-.568-.086l.939,1.236a14.318,14.318,0,0,0,2.848,2.8Zm12.125-4.862c.021-.432.029-.847.02-1.234a4.888,4.888,0,0,0-.24-1.626c-.008-.01.033-.022.074-.033l.043-.019a1.438,1.438,0,0,0-.508.3,1.215,1.215,0,0,0-.426.521,1.654,1.654,0,0,0,.422,1.347,6.65,6.65,0,0,0,.572.746Zm-.146-2.892c.061-.015.121-.026.059-.02Zm-7.8,38.987-.027,3.813,4.576.585.625-4.152a1.094,1.094,0,0,1,1.238-.927l4.729.523-6.818-15.121-9.43,13.191,4.246.924a1.1,1.1,0,0,1,.859,1.164Zm-2.221,4.771.027-3.979-5.008-1.09a1.138,1.138,0,0,1-.4-.18,1.1,1.1,0,0,1-.258-1.527l11.48-16.054a1.078,1.078,0,0,1,.469-.405,1.1,1.1,0,0,1,1.451.55l8.391,18.607a1.1,1.1,0,0,1-1.119,1.54l-5.625-.622-.625,4.168a1.1,1.1,0,0,1-1.223.926l-6.594-.844a1.1,1.1,0,0,1-.965-1.09Z" transform="translate(-15450.717 -1591.898)" fill="#f2aa18"/>
  </g>
</svg>
