<svg xmlns="http://www.w3.org/2000/svg" width="436.607" height="408.983" viewBox="0 0 436.607 408.983">
  <g id="Group" transform="translate(-64.376 -91.769)">
    <g id="Group_5326" data-name="Group 5326" transform="translate(104.234 188)">
      <path id="Path" d="M114.472,55.87a60.008,60.008,0,0,1-93.1,50.03A59.993,59.993,0,0,1,93.11,9.972a59.852,59.852,0,0,1,21.362,45.9Z" transform="translate(104.659 53.127)" fill="#f2aa18"/>
      <path id="Path-2" data-name="Path" d="M101.318,49.431a53.146,53.146,0,0,1-82.46,44.317A53.141,53.141,0,0,1,82.385,8.773a53.036,53.036,0,0,1,18.933,40.658Z" transform="translate(111.288 59.802)" fill="#f2aa18"/>
      <path id="Path-3" data-name="Path" d="M119.99,60A59.993,59.993,0,1,1,98.637,14.1,59.991,59.991,0,0,1,119.99,60Z" transform="translate(99.142 48.998)" fill="none" stroke="#000" stroke-miterlimit="10" stroke-width="2"/>
      <path id="Path-4" data-name="Path" d="M10.732.02C17.4.02,21.016,4.859,21.016,10.752c0,7.5-5.115,11.545-10.616,11.545C4.5,22.3,0,17.96,0,11.4,0,5.23,3.95,0,10.676,0Z" transform="translate(135.056 88.733)" fill="#fff"/>
      <path id="Path-5" data-name="Path" d="M3.172,0C.893,0,0,2.555,0,5.838,0,9.281,1.059,11.62,3.283,11.62c2.008,0,3.057-1.948,3.057-5.782C6.34,2.5,5.506,0,3.228,0Z" transform="translate(142.394 94.095)" fill="#f2aa18"/>
      <path id="Path-6" data-name="Path" d="M0,37.249,20.58,0h5.135L5.2,37.249Z" transform="translate(146.233 88.869)" fill="#fff"/>
      <path id="Path-7" data-name="Path" d="M10.732.02C17.4.02,21.016,4.854,21.016,10.752c0,7.5-5.115,11.545-10.621,11.545C4.5,22.3,0,17.96,0,11.344,0,5.225,3.945,0,10.676,0Z" transform="translate(162.19 103.746)" fill="#fff"/>
      <path id="Path-8" data-name="Path" d="M3.167,0C.888,0,0,2.555,0,5.838,0,9.281,1.059,11.62,3.283,11.62c2.008,0,3.057-2.008,3.057-5.843C6.34,2.444,5.506,0,3.228,0Z" transform="translate(169.529 109.106)" fill="#f2aa18"/>
    </g>
    <path id="Shape" d="M5.484,10.782H5.3A5.392,5.392,0,1,1,5.479,0H5.66a5.392,5.392,0,1,1-.086,10.783Z" transform="translate(409.551 135.132)" fill="#fff"/>
    <g id="Group-2" data-name="Group" transform="translate(145.802 97.402)">
      <path id="Path-9" data-name="Path" d="M13.066,17.578a19.526,19.526,0,0,1,10.365-3.117c.637,0,1.26.035,1.872.09-.261-1.094-.587-2.379-1-3.775a9.482,9.482,0,0,1-5.085-6.811,8.533,8.533,0,0,1-1.431.125,8.809,8.809,0,0,1-4.819-1.415,9.09,9.09,0,0,1-1.039-.291,8.212,8.212,0,0,1-1.36.125A8.824,8.824,0,0,1,4.352,0L0,1.506S11.163,7.138,13.066,17.578Z" transform="translate(197.897 12.293)" fill="#00c29a"/>
      <path id="Path-10" data-name="Path" d="M212.263,356.773a30.2,30.2,0,0,1-30.187,30.192H38.369A30.2,30.2,0,0,1,8.177,356.773V43.182A30.2,30.2,0,0,1,38.369,12.965h19.2a13.051,13.051,0,0,1,9.216,3.815,12.865,12.865,0,0,1,3.775,8.357,6.967,6.967,0,0,1,.04.788v.668a13.628,13.628,0,0,0,1.456,5.5c.025.04.04.1.065.136A12.488,12.488,0,0,0,83.289,39.04h53.492a13.015,13.015,0,0,0,9.231-3.82,12.438,12.438,0,0,0,2.294-3.157.191.191,0,0,0,.055-.08,12.549,12.549,0,0,0,1.441-5.411v-.5A12.874,12.874,0,0,1,162.52,12.95h16.218l17.066-.211a31.726,31.726,0,0,1,3.172-9.728A20.58,20.58,0,0,1,200.668,0H39.6A39.594,39.594,0,0,0,0,39.607V363.75a39.588,39.588,0,0,0,39.6,39.6H185.213a39.6,39.6,0,0,0,39.6-39.6V341.428l-12.549,7.153Z" fill="#00c29a"/>
      <path id="Path-11" data-name="Path" d="M4.377.788C2.871-.763,1.415,1.646,0,0V119.277A79.374,79.374,0,0,1,3.268,109.7c.291-.683.582-1.37.883-2.048q.956-2.1,2.008-4.151c.191-.392.386-.763.592-1.134s.457-.848.693-1.25c.4-.733.833-1.466,1.275-2.183.3-.542.637-1.064.969-1.591.246-.417.5-.818.773-1.2.291-.472.607-.939.914-1.4.376-.567.773-1.134,1.165-1.692V8.091C11.033,6.917,9.527,5.682,8.111,4.412Q6.176,2.665,4.377.788Z" transform="translate(212.263 107.502)" fill="#00c29a"/>
      <path id="Path-12" data-name="Path" d="M13.07,0C11.333,2.188,9.18.351,6.379.351,3.829.351,2.364,4.477.747,2.816.838,3.037-.071,6.33,0,6.55c.25.663.471,1.356.667,2.05v.025c.251.888.442,1.772.607,2.685.04.206.085.432.11.653.07.467.141.954.181,1.436a13.251,13.251,0,0,1,.1,1.345c.045.5.055,1.049.055,1.591V51.47a4.186,4.186,0,0,1,1,1.23c2.008,3.664,3.93.919,6.079,4.518,1.144,1.857,3.514,3.308,4.728,1.963a8.4,8.4,0,0,0,.723-3.453V13.271a40.979,40.979,0,0,0-.45-6.023C13.713,6.49,13.231.768,13.07,0Z" transform="translate(210.547 25.383)" fill="#00c29a"/>
      <path id="Path-13" data-name="Path" d="M0,0A12.247,12.247,0,0,1,1.456,5.491,13.623,13.623,0,0,1,0,0Z" transform="translate(70.619 25.238)" fill="#00c29a" stroke="#707070" stroke-width="2"/>
    </g>
    <path id="Path-14" data-name="Path" d="M115.7,110.511c-47.956,14.973-72.747-21.7-72.747-21.7,1.812-2.685-.929-7.735-.929-7.735l-1.666-8.533C19.169,71.5,0,50.855,0,50.855,27.411,46,15.6,29.577,15.6,29.577l18.9,14.8,2.048-.181C36.793,18.595,52.91,6.638,57.96,2.587s5.913-.03,5.913-.03-2.219,8.192,7.248,9.326,16.4-7.735,16.4-7.735c3.248-7.278,6.987-2.766,6.987-2.766,16.228,8.633,19.164,30,22.648,44.924,2.4,10.23,6.982,32.275,10.039,43.017A17.17,17.17,0,0,1,115.7,110.511Z" transform="translate(372.069 165.247)" fill="#353642"/>
    <path id="Path-15" data-name="Path" d="M115.7,110.511c-47.956,14.973-72.747-21.7-72.747-21.7,1.812-2.685-.929-7.735-.929-7.735l-1.666-8.533C19.169,71.5,0,50.855,0,50.855c18.16-9.08,15.6-21.277,15.6-21.277l18.9,14.8,2.048-.181c.245-25.6,16.362-37.559,21.412-41.61s5.913-.03,5.913-.03-2.219,8.192,7.248,9.326,16.4-7.735,16.4-7.735c3.248-7.278,6.987-2.766,6.987-2.766,16.228,8.633,19.164,30,22.648,44.924,2.4,10.23,6.982,32.275,10.039,43.017A17.17,17.17,0,0,1,115.7,110.511Z" transform="translate(372.069 165.247)" fill="#001c3d"/>
    <circle id="Oval" cx="5.426" cy="5.426" r="5.426" transform="translate(425.817 135.635)" fill="#b2ede0"/>
    <path id="Path-16" data-name="Path" d="M6.49,0A5.787,5.787,0,0,1,4.36,4,5.787,5.787,0,0,1,0,5.24" transform="translate(432.147 151.988)" fill="none" stroke="#000" stroke-miterlimit="10" stroke-width="2"/>
    <path id="Path-17" data-name="Path" d="M0,12.365a11.545,11.545,0,0,0,10.014,9.01,6.119,6.119,0,0,1,1.315-2.615c2.741-3.117,3.78,2.846,12.453-1.245,12.047-5.687,16.479-2.2,16.479-2.2.392.306.291,3.047.336,3.514.261,2.836.5,5.662.8,8.5.171,1.727.336,3.443.5,5.16a8.8,8.8,0,0,1,.552-.828c1.165-3.82,4.4-8.292,8.533-6.254A5.948,5.948,0,0,1,53.1,27.212c2.7,3.694.5,7.168-2.424,9.713a15.059,15.059,0,0,1-2.465,2.118c.457,1,2.329,4.949,2.329,4.964.191.4,7.153-7.168,7.675-8a19.45,19.45,0,0,0,1.33-6.4c.291-9-3.167-19.576-10.365-24.876a5.261,5.261,0,0,1-2.51-4.3A.467.467,0,0,0,45.842.17c-2.339,2.59-8,2.214-8,2.214C18.271-2.925,11.515,5.679,7.529,7.149a7.464,7.464,0,0,1-5.019,0A3.012,3.012,0,0,1,.41,9.458l.085.914A3.042,3.042,0,0,1,0,12.365Z" transform="translate(402.266 109.366)" fill="#00c29a"/>
    <path id="Path-18" data-name="Path" d="M42.4,53.384c-1.29,1-4.894,3.9-6.335,4.753a21.4,21.4,0,0,1-3.318,1.631c-8.664,3.268-16.785-4.161-19.762-11.6-2.449-6.128-3.011-12.973-2.836-19.52.03-.678.055-1.37.11-2.063a.371.371,0,0,1,0-.125,7.293,7.293,0,0,1,.141-.939,6.063,6.063,0,0,1,1.315-2.615c2.736-3.112,3.775,2.851,12.448-1.245,12.047-5.687,16.484-2.2,16.484-2.2.386.306.286,3.047.331,3.514.261,2.841.5,5.662.8,8.5.166,1.732.331,3.443.5,5.16.04.472.085.929.125,1.4A10.566,10.566,0,0,1,42.83,35.8c1.165-3.82,4.4-8.287,8.533-6.254a5.948,5.948,0,0,1,2.118,1.812c2.7,3.694.5,7.168-2.424,9.713a21.983,21.983,0,0,1-2.349,1.757l-.221.141.11.221c.457,1,2.324,4.954,2.324,4.964.191.4,7.153-7.163,7.68-8a21.458,21.458,0,0,0,3.318-9.3c.045-.417.07-.818.085-1.235.291-9-3.167-19.576-10.365-24.876a5.236,5.236,0,0,1-2.51-4.3A.467.467,0,0,0,48.3.178c-2.339,2.59-8,2.214-8,2.214C20.755-2.925,13.974,5.679,9.994,7.149S2.52,5.9,2.52,5.9l.417,4.452a3.052,3.052,0,0,1-.055.914,3.012,3.012,0,0,1-2.1,2.309A2.113,2.113,0,0,1,.16,13.7H0a15.56,15.56,0,0,0,.361,2.756A11.545,11.545,0,0,0,10.4,25.47" transform="translate(401.869 105.235)" fill="none" stroke="#000" stroke-miterlimit="10" stroke-width="2"/>
    <circle id="Oval-2" data-name="Oval" cx="5.426" cy="5.426" r="5.426" transform="translate(409.599 135.103)" fill="#b2ede0"/>
    <path id="Path-19" data-name="Path" d="M4.457,2.214A2.229,2.229,0,1,1,2.229,0a1.9,1.9,0,0,1,.637.1A1.114,1.114,0,0,0,2.52.884,1.079,1.079,0,0,0,3.6,1.953a1.044,1.044,0,0,0,.763-.336,1.8,1.8,0,0,1,.1.6Z" transform="translate(429.05 140.875)"/>
    <path id="Path-20" data-name="Path" d="M4.437,2.224A2.219,2.219,0,1,1,2.214,0a2.158,2.158,0,0,1,.843.166,1.124,1.124,0,0,0-.5.914A1.069,1.069,0,0,0,3.634,2.143a1.034,1.034,0,0,0,.748-.306,1.631,1.631,0,0,1,.055.386Z" transform="translate(413.294 140.137)"/>
    <g id="Group-3" data-name="Group" transform="translate(406.563 128.698)">
      <path id="Path-21" data-name="Path" d="M1.6,0S.209,6.179.044,6.8c-.5,2.008,3.484,1.385,3.484,1.385" transform="translate(15.075 12.278)" fill="none" stroke="#000" stroke-miterlimit="10" stroke-width="2"/>
      <path id="Path-22" data-name="Path" d="M0,.612S6.55-1.842,10.195,3.077" transform="translate(21.774)" fill="none" stroke="#000" stroke-miterlimit="10" stroke-width="2"/>
      <path id="Path-23" data-name="Path" d="M0,4.966S3.373-1.163,9.336.2" transform="translate(0 0.561)" fill="none" stroke="#000" stroke-miterlimit="10" stroke-width="2"/>
      <circle id="Oval-3" data-name="Oval" cx="6.41" cy="6.41" r="6.41" transform="translate(18.271 5.953)" fill="none" stroke="#000" stroke-miterlimit="10" stroke-width="2"/>
      <circle id="Oval-4" data-name="Oval" cx="6.41" cy="6.41" r="6.41" transform="translate(2.053 5.421)" fill="none" stroke="#000" stroke-miterlimit="10" stroke-width="2"/>
    </g>
    <path id="Path-24" data-name="Path" d="M3.4.493,0,.382" transform="translate(421.43 140.357)" fill="none" stroke="#000" stroke-miterlimit="10" stroke-width="2"/>
    <path id="Path-25" data-name="Path" d="M19.377,7.625,12.571,49.316,5.2,48.212A6.154,6.154,0,0,1,.062,41.265l.547-4.472L5.629,0C13.8,4.789,19.377,7.625,19.377,7.625Z" transform="translate(410.265 362.866)" fill="#00c29a"/>
    <path id="Path-26" data-name="Path" d="M49.481,15.937,24.133,30.493,11.584,37.716,7.739,39.93a1.089,1.089,0,0,0,0-.221L4.728,41.426.853,33.982A7.389,7.389,0,0,1,3.86,24.049L47.78,0l.04.4Z" transform="translate(346.485 408.437)" fill="#00c29a"/>
    <g id="Group-4" data-name="Group" transform="translate(352.984 302.984)">
      <path id="Path-27" data-name="Path" d="M5.913,18.361c-.276-.371-.552-.733-.833-1.049C3.489,15.4,1.928,14.115.874,11.941A9.035,9.035,0,0,1,3.047,1.3,8.764,8.764,0,0,1,5.055,0" fill="none" stroke="#000" stroke-miterlimit="10" stroke-width="2"/>
      <path id="Path-28" data-name="Path" d="M16.916,38.369,15.44,49.8l-.567,4.472a6.154,6.154,0,0,0,5.135,6.947l7.374,1.1L34.188,20.63S28.611,17.794,20.449,13C14.612,9.562,7.4,5.12,0,0" transform="translate(42.45 46.867)" fill="none" stroke="#000" stroke-miterlimit="10" stroke-width="2"/>
      <path id="Path-29" data-name="Path" d="M18.07,10.471S10.109,6.179,0,0" transform="translate(40.041 84.638)" fill="none" stroke="#000" stroke-miterlimit="10" stroke-width="2"/>
    </g>
    <g id="Group-5" data-name="Group" transform="translate(141.42 93.998)">
      <path id="Path-30" data-name="Path" d="M0,7.256C17.854,3.627,35.186-.122,44.4,0" transform="translate(229.198 155.736)" fill="none" stroke="#000" stroke-miterlimit="10" stroke-width="2"/>
      <path id="Path-31" data-name="Path" d="M43.573,101.192C16.508,79.383-8.052,51.409,2.5,27.04,8.854,12.348,27.647,4.342,47.9,0" transform="translate(168.745 165.235)" fill="none" stroke="#000" stroke-miterlimit="10" stroke-width="2"/>
      <path id="Path-32" data-name="Path" d="M59.267,0c.442,1.591,2.465,10.757,2.961,12.413,1.837,5.978-21.544,21.794-25.5,25.348a125.267,125.267,0,0,0-19.4,21.433,86.632,86.632,0,0,0-9.286,16.65,79.37,79.37,0,0,0-3.268,9.572,127.874,127.874,0,0,0-3.8,25.057c-.442,6.435-.607,12.9-.788,19.2C-.189,141.785,0,153.962.8,166.029c.055.763.11,1.506.176,2.269A131.245,131.245,0,0,0,4.6,189.535v.045" transform="translate(211.869 144.987)" fill="none" stroke="#000" stroke-miterlimit="10" stroke-width="2"/>
      <path id="Path-33" data-name="Path" d="M0,45.823C.758,22.317,11.429,9.768,20.931,3.157A30.428,30.428,0,0,1,26.844,0" transform="translate(267.678 70.885)" fill="none" stroke="#000" stroke-miterlimit="10" stroke-width="2"/>
      <path id="Path-34" data-name="Path" d="M0,0C.442.166.868.346,1.3.527l.472.206A30.267,30.267,0,0,1,4.814,2.269a28.782,28.782,0,0,1,8.719,7.665,1.089,1.089,0,0,1,.221.306c.412.582.813,1.175,1.2,1.787a86.067,86.067,0,0,1,9.19,21.583A119.785,119.785,0,0,1,27.2,47.047" transform="translate(320.603 70.729)" fill="none" stroke="#000" stroke-miterlimit="10" stroke-width="2"/>
      <path id="Path-35" data-name="Path" d="M142.736,0c2.4,10.23,6.987,32.28,10.039,43.017A17.173,17.173,0,0,1,141.28,64.209l-9.08,2.2a4.226,4.226,0,0,0-2.374,1.576A61.112,61.112,0,0,1,123,75.594c-39.282,36.983-86.55-1.3-75.217,121.3l.04.4q.688,7.364,1.661,15.525L24.132,227.281l-12.549,7.153-3.83,2.188-3.012,1.717L.866,230.9a7.389,7.389,0,0,1,2.992-9.959l3.915-2.173,3.629-2.008.176-.1,12.549-6.947L26.8,208.2" transform="translate(205.067 117.771)" fill="none" stroke="#000" stroke-miterlimit="10" stroke-width="2"/>
      <path id="Path-36" data-name="Path" d="M229.2,345.052V366a39.613,39.613,0,0,1-39.609,39.609H39.614A39.61,39.61,0,0,1,0,365.995V39.609A39.609,39.609,0,0,1,39.614,0h168.2" fill="none" stroke="#000" stroke-miterlimit="10" stroke-width="2"/>
      <path id="Path-37" data-name="Path" d="M2.254,13.753a39.935,39.935,0,0,0-.818-8.091S.7,1.23,0,0" transform="translate(226.945 25.855)" fill="none" stroke="#000" stroke-miterlimit="10" stroke-width="2"/>
      <path id="Path-38" data-name="Path" d="M.49,84.1V0" transform="translate(228.708 120.07)" fill="none" stroke="#000" stroke-miterlimit="10" stroke-width="2"/>
      <path id="Path-39" data-name="Path" d="M.49,0V50.807" transform="translate(228.708 39.614)" fill="none" stroke="#000" stroke-miterlimit="10" stroke-width="2"/>
      <path id="Path-40" data-name="Path" d="M40.512,57.578v-.035A59.079,59.079,0,0,1,28.465,50.31,74.193,74.193,0,0,1,.181,1.446Q.08.728,0,0" transform="translate(228.942 45.215)" fill="none" stroke="#000" stroke-miterlimit="10" stroke-width="2"/>
      <path id="Path-41" data-name="Path" d="M.49,107.135V0" transform="translate(216.165 111.723)" fill="none" stroke="#000" stroke-miterlimit="10" stroke-width="2"/>
      <path id="Path-42" data-name="Path" d="M49.4,66.412V30.232c0-6.591-.577-14.4-4.126-19.375,0,0-8.608-10.857-17.357-10.857H0" transform="translate(167.253 15.209)" fill="none" stroke="#000" stroke-miterlimit="10" stroke-width="2"/>
      <path id="Path-43" data-name="Path" d="M165.953,0H154.7a13.051,13.051,0,0,0-13.051,13.051A13.051,13.051,0,0,1,128.6,26.1H75.488A13.051,13.051,0,0,1,62.437,13.051,13.051,13.051,0,0,0,49.386,0H30.2A30.222,30.222,0,0,0,0,30.232V343.818a30.212,30.212,0,0,0,30.2,30.2H173.9a30.212,30.212,0,0,0,30.2-30.2V337" transform="translate(12.549 15.209)" fill="none" stroke="#000" stroke-miterlimit="10" stroke-width="2"/>
      <path id="Path-44" data-name="Path" d="M0,0C5.466,2.339,10.571,10.074,13.051,15.249c4.6,9.6,8.608,16.951,14.054,26.1,4.663,7.845,8.94,16.343,16.273,22.086A24.485,24.485,0,0,0,56.931,68.69" transform="translate(226.111 1.862)" fill="none" stroke="#000" stroke-miterlimit="10" stroke-width="2"/>
    </g>
    <path id="Path-45" data-name="Path" d="M0,35.1C13.854,31.082,25.74,15.919,9.1,3.37,8.5,2.928,7.931,2.527,7.389,2.2A7.725,7.725,0,0,1,14.416.173a.224.224,0,0,1,.136.03A.883.883,0,0,1,14.8.268a16.472,16.472,0,0,1,6.089,3.1C37.5,15.919,14.531,32.207,0,35.1Z" transform="translate(151.986 333.957)" fill="#00c29a"/>
    <path id="Path-46" data-name="Path" d="M19.9.911a7.725,7.725,0,0,0-7.027,2.033c-8.453,7.6-8.839,32.892-8.839,32.892H1.788S-3.633,6.392,4.4,1.463h.03c.136-.055.708-.306,1.506-.582h.055A16.007,16.007,0,0,1,9.2.133,33.2,33.2,0,0,1,19.9.911Z" transform="translate(146.529 333.218)" fill="#b2ede0" stroke="#707070" stroke-width="2"/>
    <path id="Path-47" data-name="Path" d="M63.919,0V26.1H5.191A5.185,5.185,0,0,1,0,20.816L.292,5.11A5.185,5.185,0,0,1,5.482.02Z" transform="translate(73.511 420.168)" fill="#b2ede0" stroke="#707070" stroke-width="2"/>
    <path id="Path-48" data-name="Path" d="M93.166,5.2V20.911a5.19,5.19,0,0,1-5.19,5.19H0V0H87.976a5.19,5.19,0,0,1,5.19,5.205Z" transform="translate(137.429 420.148)" fill="#00c29a" stroke="#707070" stroke-width="2"/>
    <path id="Path-49" data-name="Path" d="M65.348,0V53.131H9.075A9.1,9.1,0,0,1,0,44.1V.025Z" transform="translate(80.925 446.249)" fill="#b2ede0" stroke="#707070" stroke-width="2"/>
    <path id="Path-50" data-name="Path" d="M74.218,0V44.071a9.1,9.1,0,0,1-9.075,9.035H0V0Z" transform="translate(146.274 446.249)" fill="#00c29a" stroke="#707070" stroke-width="2"/>
    <path id="Path-51" data-name="Path" d="M19.293,21.723c-8.97,0-25.6-7.323-16.8-17.131A10.25,10.25,0,0,1,5.881,1.936l.07-.045h.03A21.082,21.082,0,0,1,12.647.034,9.768,9.768,0,0,1,14.876.1C13.7.049,12.331.686,10.71,2.237c-.286.261-.592.592-.909.939-8.779,9.788.427,17.759,9.492,18.547Z" transform="translate(125.751 347.056)" fill="#b2ede0" stroke="#707070" stroke-width="2"/>
    <path id="Path-52" data-name="Path" d="M10.892,21.185l-1.4.266S6.174,5.831,0,2.137C1.621.586,3.012-.052,4.166,0a.146.146,0,0,0,.07,0l.5.07.176.04C10.671,1.886,10.892,21.185,10.892,21.185Z" transform="translate(136.461 347.146)" fill="#00c29a"/>
    <g id="Group-6" data-name="Group" transform="translate(73.536 348.947)">
      <path id="Path-53" data-name="Path" d="M13.953,19.33l-.914.181C3.974,18.723-5.241,10.752,3.548.939,3.864.592,4.17.261,4.456,0c6.174,3.709,9.5,19.33,9.5,19.33Z" transform="translate(58.469 0.321)" fill="none"/>
      <path id="Path-54" data-name="Path" d="M.492.461a.109.109,0,0,0-.07.03" transform="translate(57.675 -0.461)" fill="none" stroke="#707070" stroke-width="2"/>
      <g id="Group-7" data-name="Group" transform="translate(0 71.216)">
        <path id="Path-55" data-name="Path" d="M72.733,0H5.472A5.19,5.19,0,0,0,.282,5.1L0,20.806a5.19,5.19,0,0,0,5.19,5.285H151.865a5.19,5.19,0,0,0,5.19-5.2V5.19A5.19,5.19,0,0,0,151.865,0H54.773" fill="none" stroke="#000" stroke-miterlimit="10" stroke-width="2"/>
        <path id="Path-56" data-name="Path" d="M130.491,53.131H9.07A9.1,9.1,0,0,1,0,44.056V0H139.541V44.056a9.105,9.105,0,0,1-9.05,9.075Z" transform="translate(7.39 26.091)" fill="none" stroke="#000" stroke-miterlimit="10" stroke-width="2"/>
      </g>
    </g>
    <path id="Path-57" data-name="Path" d="M60.118,3.348V13.477a3.348,3.348,0,0,1-3.348,3.348H0V0H56.77a3.348,3.348,0,0,1,3.348,3.348Z" transform="translate(142.785 369.055)" fill="#00c29a" stroke="#707070" stroke-width="2"/>
    <path id="Path-58" data-name="Path" d="M41.22,0V16.825H3.348A3.353,3.353,0,0,1,0,13.422L.181,3.278A3.343,3.343,0,0,1,3.529,0Z" transform="translate(101.565 369.055)" fill="#b2ede0" stroke="#707070" stroke-width="2"/>
    <path id="Path-59" data-name="Path" d="M47.891,0V28.435a5.873,5.873,0,0,1-5.868,5.853H0V0Z" transform="translate(148.497 385.88)" fill="#00c29a" stroke="#707070" stroke-width="2"/>
    <path id="Path-60" data-name="Path" d="M42.133,0V34.288H5.853A5.868,5.868,0,0,1,0,28.435V0Z" transform="translate(106.364 385.88)" fill="#b2ede0" stroke="#707070" stroke-width="2"/>
    <g id="Group-8" data-name="Group" transform="translate(64.376 92.771)">
      <g id="Group-9" data-name="Group" transform="translate(37.189 240.425)">
        <path id="Path-61" data-name="Path" d="M.49,0V26.091" transform="translate(35.369 86.966)" fill="none" stroke="#000" stroke-miterlimit="10" stroke-width="2"/>
        <path id="Path-62" data-name="Path" d="M.49,0V53.131" transform="translate(44.214 113.057)" fill="none" stroke="#000" stroke-miterlimit="10" stroke-width="2"/>
        <path id="Path-63" data-name="Path" d="M60.118,3.348V13.477a3.348,3.348,0,0,1-3.348,3.348H0V0H56.77a3.348,3.348,0,0,1,3.348,3.348Z" transform="translate(41.22 35.858)" fill="none" stroke="#000" stroke-miterlimit="10" stroke-width="2"/>
        <path id="Path-64" data-name="Path" d="M41.22,0V16.825H3.348A3.353,3.353,0,0,1,0,13.422L.181,3.278A3.343,3.343,0,0,1,3.529,0Z" transform="translate(0 35.858)" fill="none" stroke="#000" stroke-miterlimit="10" stroke-width="2"/>
        <path id="Path-65" data-name="Path" d="M47.891,0V28.435a5.873,5.873,0,0,1-5.868,5.853H0V0Z" transform="translate(46.932 52.683)" fill="none" stroke="#000" stroke-miterlimit="10" stroke-width="2"/>
        <path id="Path-66" data-name="Path" d="M42.133,0V34.288H5.853A5.868,5.868,0,0,1,0,28.435V0Z" transform="translate(4.799 52.683)" fill="none" stroke="#000" stroke-miterlimit="10" stroke-width="2"/>
        <path id="Path-67" data-name="Path" d="M0,35.089C13.879,31.074,35.237,15.92,18.632,3.371A16.378,16.378,0,0,0,12.544.264.733.733,0,0,0,12.293.2,7.7,7.7,0,0,0,5.13,2.212" transform="translate(52.845 0.764)" fill="none" stroke="#000" stroke-miterlimit="10" stroke-width="2"/>
        <path id="Path-68" data-name="Path" d="M12.877,2.183C4.419,9.783,4.038,35.07,4.038,35.07H1.789S-6.578-10.335,12.877,2.183Z" transform="translate(45.098 0.782)" fill="none" stroke="#000" stroke-miterlimit="10" stroke-width="2"/>
        <path id="Path-69" data-name="Path" d="M1.456,32.887H0S.381,7.6,8.839,0a20.549,20.549,0,0,1,1.712,1.17C27.185,13.718,15.3,28.9,1.456,32.887Z" transform="translate(49.136 2.965)" fill="none" stroke="#000" stroke-miterlimit="10" stroke-width="2"/>
        <path id="Path-70" data-name="Path" d="M0,1.219A21,21,0,0,1,4.548.124a33.309,33.309,0,0,1,11.068.9" transform="translate(49.748)" fill="none" stroke="#000" stroke-miterlimit="10" stroke-width="2"/>
        <path id="Path-71" data-name="Path" d="M18.055,20.565c-9.09-.783-24.179-7.6-15.41-17.4A10.27,10.27,0,0,1,6.043.5.5.5,0,0,1,6.189.43,4.879,4.879,0,0,1,10.872.8" transform="translate(24.22 15.288)" fill="none" stroke="#000" stroke-miterlimit="10" stroke-width="2"/>
        <path id="Path-72" data-name="Path" d="M0,2.137c6.174,3.684,9.482,19.32,9.482,19.32l1.4-.276S10.541-7.993,0,2.137Z" transform="translate(35.066 13.95)" fill="none" stroke="#000" stroke-miterlimit="10" stroke-width="2"/>
        <path id="Path-73" data-name="Path" d="M13.042,19.5l.9-.176S10.638,3.684,4.464,0c-.291.261-.6.587-.919.934-8.784,9.8.427,17.769,9.5,18.562Z" transform="translate(30.602 16.086)" fill="none" stroke="#000" stroke-miterlimit="10" stroke-width="2"/>
        <path id="Path-74" data-name="Path" d="M9.723.158A13.161,13.161,0,0,0,6.766.032,21.047,21.047,0,0,0,0,1.94" transform="translate(30.238 13.845)" fill="none" stroke="#000" stroke-miterlimit="10" stroke-width="2"/>
      </g>
      <path id="Path-75" data-name="Path" d="M72.958.452,74.92,3.965s-2.871,6.385,4.824,7.489S97.568,4.994,97.844,0c11.821,4.568,18.07,16.062,18.18,28.37.2,30.468-39,48.94-65.2,46.179-13.166-1.38-25.6-7.188-35.979-15.385-1.385-1.074-2.716-2.2-4.016-3.368A78.85,78.85,0,0,1,3.45,48.1Q1.682,45.983,0,43.78" transform="translate(301.649 71.725)" fill="none" stroke="#000" stroke-miterlimit="10" stroke-width="2"/>
      <g id="Group-10" data-name="Group">
        <path id="Path-76" data-name="Path" d="M0,0,7.539,14.381" transform="translate(391.407 57.882)" fill="none" stroke="#000" stroke-miterlimit="10" stroke-width="2"/>
        <path id="Path-77" data-name="Path" d="M0,.49H436" transform="translate(0 406.118)" fill="none" stroke="#000" stroke-miterlimit="10" stroke-width="2"/>
        <path id="Path-78" data-name="Path" d="M16,0h-.065A10.789,10.789,0,0,0,9.067,5.376C7.33,8.543,7.13,12.4,6.758,14.039c-.04.186-.08.366-.1.532a3.278,3.278,0,0,0-.1.427l-.065.246A3.313,3.313,0,0,1,.017,13.979l.141-1.144c.045-.412.105-.8.186-1.185a22.588,22.588,0,0,1,.738-3.313,4.6,4.6,0,0,1,.161-.5,4.774,4.774,0,0,1,.246-.758,3.88,3.88,0,0,1,.166-.386" transform="translate(284.822 2.01)" fill="none" stroke="#000" stroke-miterlimit="10" stroke-width="2"/>
        <path id="Path-79" data-name="Path" d="M8.388,10.119A6.5,6.5,0,0,1,4.031,12.3a3.9,3.9,0,0,1-1.7-.386,4.146,4.146,0,0,1-1.32-.939A4.729,4.729,0,0,1,.4,6.075,9.371,9.371,0,0,1,2.139,3.514c.226-.256.447-.5.642-.768A7.3,7.3,0,0,0,4.247.161.36.36,0,0,1,4.272,0" transform="translate(298.597 14.754)" fill="none" stroke="#000" stroke-miterlimit="10" stroke-width="2"/>
        <path id="Path-80" data-name="Path" d="M0,0C.939.176,1.842.392,2.766.6s1.948.5,2.911.8a18.607,18.607,0,0,1,6.1,3.117c4.949,3.659,5.988,9.9,2.419,14.5" transform="translate(295.069 0.605)" fill="none" stroke="#000" stroke-miterlimit="10" stroke-width="2"/>
        <path id="Path-81" data-name="Path" d="M.224,4.031a.3.3,0,0,1-.024.14,3.975,3.975,0,0,1-.07.5L.018,5.818A3.308,3.308,0,0,0,5.078,8.96,3.217,3.217,0,0,0,6.544,6.831c.1-.427.176-.888.286-1.325.4-1.7.552-3.212,1.817-4.518A3.96,3.96,0,0,1,9.9.115,1.917,1.917,0,0,1,10.263,0" transform="translate(291.356 12.019)" fill="none" stroke="#000" stroke-miterlimit="10" stroke-width="2"/>
        <path id="Path-82" data-name="Path" d="M.124,13.048v-.131a19.721,19.721,0,0,1,1.7-6.274,12.97,12.97,0,0,1,2.23-3.388A9.537,9.537,0,0,1,9.576.183C10.193.093,10.8.032,11.423,0A23.09,23.09,0,0,1,17,.6c-1.506.115-4.086,1.727-5.948,3.755A10.451,10.451,0,0,0,9.2,6.964,17.179,17.179,0,0,0,8.517,8.55c-.191.432-.356.868-.5,1.3-.437,1.235-.813,2.455-1.1,3.579-.131.5-.251,1-.346,1.456A3.468,3.468,0,0,1,2.92,17.706a3.3,3.3,0,0,1-2.9-3.629l.1-1.029" transform="translate(278.039)" fill="none" stroke="#000" stroke-miterlimit="10" stroke-width="2"/>
      </g>
      <g id="Group-11" data-name="Group" transform="translate(273.231 82.546)">
        <path id="Path-83" data-name="Path" d="M.987,18.4C.134,16.686-.418,14.809.405,13.172c1.862-3.714,7.85-1.747,11.354-4.016,3.012-1.932,2.7-4.226,4.352-7.087C18.033-1.279,21.5.061,24.142,1.728,27.52,3.841,34.9,11.265,46.73,18.578a96.322,96.322,0,0,1,10.54,7.585c9.3,7.665,32.471,20.946,52.614-14.782" fill="none" stroke="#000" stroke-miterlimit="10" stroke-width="2"/>
        <path id="Path-84" data-name="Path" d="M27.9,15.149c-1.651-1.682-3.448-3.458-5.767-3.88-2.475-.457-4.944.713-7.449.833C8.513,12.383,3.935,6.636.758,1.34.5.914.256.457,0,0" transform="translate(1.007 18.408)" fill="none" stroke="#000" stroke-miterlimit="10" stroke-width="2"/>
        <path id="Path-85" data-name="Path" d="M8.408.09S2.51,3.258,0,0" transform="translate(5.781 25.269)" fill="none" stroke="#000" stroke-miterlimit="10" stroke-width="2"/>
        <path id="Path-86" data-name="Path" d="M0,0S4.794,3.263,8.157.542" transform="translate(2.282 20.636)" fill="none" stroke="#000" stroke-miterlimit="10" stroke-width="2"/>
        <path id="Path-87" data-name="Path" d="M0,0S4.171,2.555,5.963.723" transform="translate(0.059 16.324)" fill="none" stroke="#000" stroke-miterlimit="10" stroke-width="2"/>
      </g>
    </g>
  </g>
</svg>
