<svg xmlns="http://www.w3.org/2000/svg" width="444.91" height="524.942" viewBox="0 0 444.91 524.942">
  <g id="Group_5511" data-name="Group 5511" transform="translate(6315.486 20895.645)">
    <path id="Icon_ionic-md-settings" data-name="Icon ionic-md-settings" d="M139.315,87.1a49.515,49.515,0,0,0,.4-7.918c0-2.772-.4-5.146-.4-7.918l17-13.064a3.636,3.636,0,0,0,.811-5.146l-16.2-27.319a3.943,3.943,0,0,0-4.86-1.585l-20.247,7.918a58.936,58.936,0,0,0-13.765-7.918L99.225,3.166A4.339,4.339,0,0,0,95.175,0H62.781a4.339,4.339,0,0,0-4.049,3.166L55.493,24.148a68.571,68.571,0,0,0-13.769,7.918L21.477,24.148a3.793,3.793,0,0,0-4.86,1.585L.42,53.052A4.782,4.782,0,0,0,1.23,58.2L18.642,71.262c0,2.772-.4,5.146-.4,7.918s.4,5.146.4,7.918l-17,13.064a3.637,3.637,0,0,0-.811,5.146l16.2,27.319a3.944,3.944,0,0,0,4.86,1.585l20.247-7.918A58.929,58.929,0,0,0,55.9,134.212l3.239,20.982a3.925,3.925,0,0,0,4.049,3.166H95.58a4.339,4.339,0,0,0,4.05-3.166l3.243-20.982a68.531,68.531,0,0,0,13.765-7.918l20.247,7.918a3.793,3.793,0,0,0,4.86-1.585l16.2-27.319a4.774,4.774,0,0,0-.811-5.146ZM78.979,106.9c-15.794,0-28.345-12.271-28.345-27.713s12.551-27.72,28.345-27.72,28.345,12.271,28.345,27.713-12.552,27.713-28.345,27.713Z" transform="translate(-6024.854 -20818.938) rotate(15.009)" fill="#f2aa18" stroke="#000" stroke-width="2"/>
    <path id="Icon_ionic-md-settings-2" data-name="Icon ionic-md-settings" d="M80.09,50.071a28.465,28.465,0,0,0,.232-4.552c0-1.594-.232-2.958-.232-4.552l9.775-7.51a2.09,2.09,0,0,0,.466-2.958l-9.311-15.7a2.267,2.267,0,0,0-2.794-.911L66.587,18.435a33.882,33.882,0,0,0-7.913-4.552L57.043,1.82A2.5,2.5,0,0,0,54.715,0H36.092a2.5,2.5,0,0,0-2.328,1.82L31.9,13.882a39.421,39.421,0,0,0-7.916,4.552L12.347,13.882a2.18,2.18,0,0,0-2.794.911L.241,30.5a2.749,2.749,0,0,0,.466,2.958l10.01,7.51c0,1.594-.232,2.958-.232,4.552s.232,2.958.232,4.552L.942,57.582A2.091,2.091,0,0,0,.476,60.54L9.787,76.245a2.267,2.267,0,0,0,2.794.911L24.221,72.6a33.877,33.877,0,0,0,7.913,4.552L34,89.219a2.256,2.256,0,0,0,2.328,1.82h18.62a2.5,2.5,0,0,0,2.328-1.82L59.14,77.157A39.4,39.4,0,0,0,67.053,72.6l11.64,4.552a2.181,2.181,0,0,0,2.794-.911L90.8,60.54a2.745,2.745,0,0,0-.466-2.958ZM45.4,61.451a15.936,15.936,0,1,1,0-31.864,15.936,15.936,0,1,1,0,31.864Z" transform="translate(-6062.316 -20870.828) rotate(-15.009)" fill="#b2ede0" stroke="#000" stroke-width="2"/>
    <g id="Group_5312" data-name="Group 5312" transform="translate(-6315.486 -20862.27)">
      <path id="Path" d="M218.6,76.035a189.638,189.638,0,0,0-11.7-23.519c1.8-9.522,3.025-26.2-.875-33.774-2.883-5.6-14.519-6.444-22.552-6.328A83.054,83.054,0,0,0,172.25,0s-37.342,6.044-45.868,6.094-8.519,4.77-8.519,4.77-5.938,17.905-12.653,26.8-24.776,19.7-50.8,23.858-46.5-.966-51.19-3.576-4.848-.092,3.554,16.447,21.338,28.431,43.065,32.352a95.2,95.2,0,0,0,40.293-1.736s34.379-8.66,44.463-15.265,11.661,2.376,11.661,2.376l-.986,134.91,26.611,5.306,22.989-110.5,24.517,40.994,25.472-10.464c-3-15.739-18.406-57.243-26.26-76.324Z" transform="translate(17.171 242.575)" fill="#001c3d"/>
      <path id="Path-2" data-name="Path" d="M29.953,49.174a20.006,20.006,0,0,1-4.571,10.1,20.488,20.488,0,0,1-6.994,5.719,12.415,12.415,0,0,1-1.989.76c0-2.127-.037-4.291-.153-6.4-.434-7.9-2.025-16.128-7.049-22.2A24.621,24.621,0,0,0,.281,30.41c.1-1.459.214-2.906.306-4.364a34.178,34.178,0,0,0-.037-7.5,25.23,25.23,0,0,1-.55-4.6C.055,12.5-.153,6.976.985,5.78A15.886,15.886,0,0,0,6.976,7.006C11.584,6.97,15.243,4.138,17.709.515A10.606,10.606,0,0,1,20.511,0c2.79.417-5.538,7.938-2.821,7.086-1.768.546-3.06,3.206-3.892,4.726-1.224,2.354-1.934,5.125-.734,7.613,1.175,2.378,3.635,4.426,5.379,6.381a84.133,84.133,0,0,1,6.584,7.828c3.219,4.487,5.568,10,4.926,15.539Z" transform="translate(136.157 89.148)" fill="#00c29a"/>
      <path id="Path-3" data-name="Path" d="M28.673,0A37.11,37.11,0,0,1,41.448,3.129,24.811,24.811,0,0,1,50.416,9.9c5.057,6.11,6.659,14.369,7.1,22.308.117,2.137.172,4.311.154,6.43-.092,18.8-3.222,37.4-8.359,55.585h85.226l1.774-4.441,1.417-3.572H143.7a5.648,5.648,0,0,1,5.211,7.828l-5.057,12.1a23.542,23.542,0,0,1-17.672,14.079l-.536.1-1.411.246c-7.478,1.546-24.2,4.237-40.512,6.738-14.925,2.31-29.523,4.447-36.429,5.438q-3.927.573-8.008.838c-16.12.992-32.764-2.593-37.075-20.941C-.6,100.885.018,88.215.147,75.984" transform="translate(94.74 116.235)" fill="none" stroke="#000" stroke-miterlimit="10" stroke-width="2"/>
      <path id="Path-4" data-name="Path" d="M0,.081C10.435-.4,19.785,1.147,23.8,7.675c2.02,3.3,1.528,14.942-.554,31.177" transform="translate(200.587 255.519)" fill="none" stroke="#000" stroke-miterlimit="10" stroke-width="2"/>
      <path id="Path-5" data-name="Path" d="M0,0A.406.406,0,0,1,.055.092C4.521,9.2,12.375,17.054,22.421,22.554c35.4,19.364,88.644-3.326,107.8-12.768a5.008,5.008,0,0,1,7.219,4.5V159.5L178.4,169.878a4.871,4.871,0,0,0,2.328-9.46L163.06,154.6c.819-5.74,12.806-58.233,22.994-110.573" transform="translate(25.78 320.534)" fill="none" stroke="#000" stroke-miterlimit="10" stroke-width="2"/>
      <path id="Path-6" data-name="Path" d="M62.342,0C72.814,8.869,80.335,22.5,87.376,34.09c17.155,28.227,29.985,58.948,39.952,90.383,3.012,9.5,5.784,19.093,8.4,28.689l20.007-4.108a4.569,4.569,0,1,1,3.024,8.624l-42.9,16.012s-12.553-23.447-30.1-51.12C60.051,81.97,12.541,19.4,0,32.741" transform="translate(126.11 241.964)" fill="none" stroke="#000" stroke-miterlimit="10" stroke-width="2"/>
      <path id="Path-7" data-name="Path" d="M0,60S42.071,57.088,70.911,0c0,0,9.116,6.288,21.824,25.96,0,0-35.652,72.35-91.509,91.443" transform="translate(151.026 43.026)" fill="none" stroke="#000" stroke-miterlimit="10" stroke-width="2"/>
      <path id="Path-8" data-name="Path" d="M0,0,2.434,3.748,3.9,6.028A112.146,112.146,0,0,1,7.821,16.772l.073.259,2.787,10.787a.05.05,0,0,1,0,.037,11.4,11.4,0,0,0,3.767,3.828,5.2,5.2,0,0,1,1.01.721c1.674,1.7-2.739,2.194-3.652,2.755a3.093,3.093,0,0,0-1.321,2.509c-5.24,22.086-1.868,16.285-4.12,21.2,1.954-1.677,6.81-7.008,6.81-7.008a8.533,8.533,0,0,0,1.576-2.2A39.252,39.252,0,0,0,17.983,43.5,32.664,32.664,0,0,0,19.81,23.1C17.3,12.507,11.436,1.9,0,0Z" transform="translate(147.429 36.545)" fill="#00c29a"/>
      <path id="Path-9" data-name="Path" d="M128.228,12.562a12.466,12.466,0,0,1-3.13,6.116,24.708,24.708,0,0,1-5.977,4.791c-4.194,2.5-8.861,4.4-12.385,7.775a19.425,19.425,0,0,0-5.91,12.917c-.246,5.019,1.544,10.216,2.632,14.915,3.45,15.186,2.343,29.78.437,45.064-1.808,14.421-5.657,28.534-13.123,41.088a78.647,78.647,0,0,1-39.535,32.721c-13.529,5.062-39.818,9.551-49.761-4.532-1.716-4.445-1.734-9.532-1.07-14.323,3.9-28.1,25.4-56.946,51.04-68.636,13.738-6.264,36.14-15.889,28.9-35.033C78.04,49.389,74.812,44.179,74.2,37.872c-.055-.573-.111-1.147-.166-1.757C73,21.317,81.591,7.272,95.5,2.2a34,34,0,0,1,28.14,1.85,14.285,14.285,0,0,1,4.022,3.194,1.985,1.985,0,0,1,.209.284,4.693,4.693,0,0,1,.209.672,11,11,0,0,1,.148,4.359Z" transform="translate(18.424 30.282)" fill="#00c29a"/>
      <path id="Path-10" data-name="Path" d="M.991,61.144C8.435,59.426,14.966,54.1,16.833,46.312c1.738-7.212-1.01-14.612-5.268-20.418C7.615,20.535-.611,16.039.036,8.438A11.889,11.889,0,0,1,3.055,1.909C3.628,1.244,4.22.628,4.867,0" transform="translate(151.327 93.452)" fill="none" stroke="#000" stroke-miterlimit="10" stroke-width="2"/>
      <path id="Path-11" data-name="Path" d="M.562,0,.216,25.149" transform="translate(136.408 94.808)" fill="none" stroke="#000" stroke-miterlimit="10" stroke-width="2"/>
      <path id="Path-12" data-name="Path" d="M80.527,55.385c-2.3-6.036-5.546-11.241-6.162-17.536-.062-.579-.117-1.158-.16-1.774C73.163,21.293,81.777,7.268,95.709,2.2a34.2,34.2,0,0,1,28.2,1.848,14.3,14.3,0,0,1,4.017,3.2l.29.351a11.121,11.121,0,0,1,2.36,8.9,12.447,12.447,0,0,1-3.118,6.1,25.089,25.089,0,0,1-6,4.8c-4.2,2.5-8.873,4.379-12.416,7.755a19.362,19.362,0,0,0-5.9,12.935c-.253,5.014,1.547,10.2,2.619,14.906,3.457,15.171,2.354,29.744.444,45.007-1.812,14.407-5.663,28.512-13.155,41.052a78.7,78.7,0,0,1-39.614,32.688c-13.821,5.149-40.92,9.707-50.44-5.365-3.2-5.06-3.41-11.46-2.585-17.385,3.913-28.068,25.46-56.894,51.143-68.566C65.344,84.094,87.791,74.5,80.527,55.385Z" transform="translate(15.405 26.814)" fill="none" stroke="#000" stroke-miterlimit="10" stroke-width="2"/>
      <circle id="Oval" cx="2.505" cy="2.505" r="2.505" transform="translate(146.802 60.341)"/>
      <g id="Group">
        <g id="Group-2" data-name="Group" transform="translate(128.501 34.161)">
          <path id="Path-13" data-name="Path" d="M6.044,0S-2.065,3.656.5,10.764" transform="translate(13.998 20.883)" fill="none" stroke="#000" stroke-miterlimit="10" stroke-width="2"/>
          <path id="Path-14" data-name="Path" d="M27.536,59.41c2.032-.739,4.2-3.077,5.677-4.61a36.708,36.708,0,0,0,4.36-5.668A35.27,35.27,0,0,0,37.234,11.2,25.093,25.093,0,0,0,27.081,1.847,19.38,19.38,0,0,0,15.745.246a34.22,34.22,0,0,1,5.755,6,28.3,28.3,0,0,1,5.148,11.14c.135.708.252,1.409.376,2.123.616,3.8.961,7.656,2.826,10.77a11.561,11.561,0,0,0,3.83,3.859,5.258,5.258,0,0,1,1.022.72c1.693,1.7-2.771,2.185-3.694,2.745-2.371,1.385-1.49,5.361-1.8,7.662a25.545,25.545,0,0,1-2.383,7.73,21.2,21.2,0,0,1-1.447,2.5c-2.463,3.65-6.158,6.505-10.8,6.53a16.016,16.016,0,0,1-6.016-1.231A23.226,23.226,0,0,1,0,54.776" fill="none" stroke="#000" stroke-miterlimit="10" stroke-width="2"/>
          <path id="Path-15" data-name="Path" d="M8,4.142S2.42,7.324,0,0" transform="translate(15.074 42.534)" fill="none" stroke="#000" stroke-miterlimit="10" stroke-width="2"/>
        </g>
        <path id="Path-16" data-name="Path" d="M11.277,54.719l12.8-6.242a9.057,9.057,0,0,0,3.245-2.634l6.5-8.426a4.876,4.876,0,0,0-7.691-5.988l-1.188,1.385,2.506-5.927a3.077,3.077,0,0,0-2.075-4.167l-3.959.523L33.792,6.349c1.755-2.394.049-5.287-2.518-6.105-2.956-.942-5.69,1-7.524,3.157-7.55,8.887-13.27,19.165-18.584,29.5Q2.488,38.119,0,43.418" transform="translate(222.052)" fill="none" stroke="#000" stroke-linejoin="round" stroke-miterlimit="10" stroke-width="2"/>
        <g id="Group-3" data-name="Group" transform="translate(0 23.243)">
          <path id="Path-17" data-name="Path" d="M2.733,0S-5.339,10.038,6.262,9.57" transform="translate(240.74)" fill="none" stroke="#000" stroke-miterlimit="10" stroke-width="2"/>
          <path id="Path-18" data-name="Path" d="M12,0C-6.563,49.957,1.947,99.606,1.947,99.606c28.041,15.6,67.8,14.242,96.279.535,10.074-4.862,20.936-12.186,25.332-22.92,3.227-7.859,6.582-15.657,9.347-23.627" transform="translate(4.008 171.731)" fill="none" stroke="#000" stroke-miterlimit="10" stroke-width="2"/>
          <path id="Path-19" data-name="Path" d="M0,.491H163.377" transform="translate(0 327.11)" fill="none" stroke="#000" stroke-miterlimit="10" stroke-width="2"/>
          <path id="Path-20" data-name="Path" d="M1.761,0,0,5.951" transform="translate(142.441 187.499)" fill="none" stroke="#000" stroke-miterlimit="10" stroke-width="2"/>
          <path id="Path-21" data-name="Path" d="M9.532,21.363S2.34,8.536,0,0" transform="translate(16.49 276.211)" fill="none" stroke="#000" stroke-miterlimit="10" stroke-width="2"/>
        </g>
      </g>
      <g id="Group_5314" data-name="Group 5314" transform="translate(199.92 123.592) rotate(0.974)">
        <path id="Path-22" data-name="Path" d="M74.569,4.988v.673c0,4.642-3.739,5.44-6.968,5.516L5.1,12.619A5.217,5.217,0,0,1,0,7.3V7.174A5.25,5.25,0,0,1,4.858,1.73S39.822.745,66.9,0a7.425,7.425,0,0,0,3.335,3.9,7.688,7.688,0,0,0,4.334,1.091Z" transform="translate(0 66.212)" fill="#fff" stroke="#000" stroke-miterlimit="10" stroke-width="2"/>
        <path id="Path-23" data-name="Path" d="M38.087,5.065a4.858,4.858,0,0,1-.529,2.2L9.625,64.569a5.122,5.122,0,0,1-3.33,2.691A5.07,5.07,0,0,1,.51,60.12l27.947-57.3A5.07,5.07,0,0,1,38.068,5.06Z" transform="translate(69.687)" fill="#fff" stroke="#000" stroke-miterlimit="10" stroke-width="2"/>
      </g>
    </g>
  </g>
</svg>
