<svg xmlns="http://www.w3.org/2000/svg" width="404.86" height="441.788" viewBox="0 0 404.86 441.788">
  <g id="Group_5513" data-name="Group 5513" transform="translate(6759.068 20907.15)">
    <path id="Path_2530" data-name="Path 2530" d="M71.261,70.5c-7.388,6.874-23.38,372.365.932,384.622C124.267,481.371,272.01,404.847,274.16,392.7c2.29-12.926,22.586-322.3.968-362.752-.844-1.577-5.036-4.668-5.994-5.387C250.386,10.559,93.965,49.378,71.261,70.5Z" transform="translate(-6817.214 -20927.752)" fill="#f2aa18" fill-rule="evenodd"/>
    <path id="Path_2531" data-name="Path 2531" d="M270.189,24.146c6.055,4.518,6.36,5.238,7.877,9.282,17.26,47.393,3.223,309.727-1.9,357.754a7.6,7.6,0,0,1-.731,3.37c-8.258,15.227-141.939,82.713-197.517,64.494a40.81,40.81,0,0,1-6.3-2.685C46.755,439.865,63.826,81,71.18,70.734l-.024-.009C92.346,50.066,250.5,9.444,270.189,24.146Zm-17.478-1.171C221.03,23.111,164.6,36.6,132.666,46.093c-13.928,4.148-49.855,15.412-60.6,25.2h0a20.846,20.846,0,0,0-1.541,6.549c-4.72,31.852-7.918,126.21-8.792,161.473-.447,18.6-5.064,205.366,11.328,215.046.444.265,2.278,1.091,3.358,1.514,36.858,14.707,112.619-15.529,148.316-32.777,10.027-4.815,40.9-20.474,47.877-28.985a2.583,2.583,0,0,0,.786-1.644C276,374,294.706,83.055,275.992,33.852a22.121,22.121,0,0,0-1.481-3.243,35.334,35.334,0,0,0-5.639-4.894c-3.608-2.545-11.758-2.74-16.161-2.74ZM71.156,70.725l.024.009h0a1.3,1.3,0,0,1,.094-.115Z" transform="translate(-6817.667 -20928.16)" fill="#212121" fill-rule="evenodd"/>
    <path id="Path_2532" data-name="Path 2532" d="M80.3,73.132c-6.942,6.85-19.416,366.79.877,383.314,20.836,16.964,187.748-50.107,189.768-62.216,2.236-13.385,19.4-347.779-4.728-366.89C248.607,13.392,101.632,52.079,80.3,73.132Z" transform="translate(-6809.472 -20925.76)" fill="#f8f8f9" fill-rule="evenodd"/>
    <path id="Path_2533" data-name="Path 2533" d="M266.225,26.236a8.8,8.8,0,0,1,3.447,3.684c20.123,35.62,6.74,311.178,4.028,352.265-.892,13.489-.918,13.186-2.094,14.679-8.814,10.71-80.574,40.8-130.986,55.1-13.08,3.675-43.608,11.924-56.512,7.586a8.744,8.744,0,0,1-5.978-5.973c-13.285-32.835-7.615-224.532-6.36-260.151C76.3,67.843,80.687,73.483,80.161,73.346,100,52.732,244.552,13.819,266.225,26.236Zm-15.425-.5c-30.027.137-83.531,13.792-113.679,23.326C124.2,53.167,90.869,64.32,81.1,73.874h0c-6.667,7.15-17.823,356.2.676,381.336,4.3,5.6,24.461,2.132,31.39.827,34-6.579,81.774-24.163,113.429-37.846,9.311-4.045,34.469-15.226,42.031-21.975,1.594-1.481,1.471-1.692,1.6-2.891,2.862-27.228,18.2-338.98-3.516-364.136C263.783,25.914,255.317,25.731,250.8,25.731ZM80.166,73.346h.024c.036-.05.055-.074.084-.111Z" transform="translate(-6809.903 -20926.143)" fill="#212121" fill-rule="evenodd"/>
    <path id="Path_2534" data-name="Path 2534" d="M190.966,47.612c20.918-4.333,38.133-5.757,42.891-1.632,18.277,15.849,5.274,293.2,3.582,304.307-1.531,10.044-127.991,65.672-143.776,51.6C78.289,388.19,87.74,89.649,93,83.967c6.148-6.641,28.73-18.229,49.121-23.062,3.425-.813,1.459,8.482,4.3,9.646C155.335,74.2,189.7,60.1,191.114,57.6,191.756,56.445,191.494,52.284,190.966,47.612Z" transform="translate(-6798.663 -20912.119)" fill="#f8f8f9" fill-rule="evenodd"/>
    <path id="Path_2535" data-name="Path 2535" d="M143.159,60.363c3.663.269,1.772,8.876,4.132,9.819,7.737,2.928,33.941-7,41.682-11.165,2.546-1.38,2.007-1.447,2.178-1.447.664-1.325.086-6.934-.048-8.352-.122-1.214-.319-1.675.274-1.856h0c9.744-2.043,31.042-6.138,40.574-3.129a6.8,6.8,0,0,1,4.069,2.939c16.68,26.05,4.98,297.983,3.08,303.994-2.175,6.692-37.647,22.752-44.081,25.644-18.741,8.362-78.416,33.222-97.782,28.24-4.023-1.1-5.179-2.884-6.369-6.492-12.037-36.88-4.132-287.85,1.154-312.717.418-1.978.55-2.153,2.641-3.952,9.139-7.675,27.331-15.4,39.06-19.067a84.377,84.377,0,0,1,9.436-2.459Zm60.622-14.2c-5.177.813-11.282,2.017-11.737,2.12a58.222,58.222,0,0,1,.478,7.706c-.1,2.144-.425,2.449-2,3.425-7.482,4.53-33.448,14.327-42.576,12.407a3.122,3.122,0,0,1-2.569-1.615c-1.212-2.29-.935-7.3-2.007-8.252-.265-.231-.248-.185-2.7.445a152.957,152.957,0,0,0-25.87,9.547c-5.9,2.8-16.116,8.121-20.589,12.844-4.68,9.362-13.761,298.641.651,316.17,1.526,1.726,5.379,2.055,7.557,2.125,25.858.491,88.787-26.256,114.642-39.711,3.231-1.694,18.312-9.653,19.656-13.015,1.31-6.507,15.568-292.39-3.425-304.112-5.845-3.517-22.81-1.12-29.5-.082Z" transform="translate(-6799.178 -20912.373)" fill="#212121" fill-rule="evenodd"/>
    <path id="Path_2536" data-name="Path 2536" d="M215.1,88.961c-.514-.618-.685-2.459-1.043-3.166-1.063-2.075-2.026-4.141-2.891-6.309-.718-1.807-2.9-5.468-1.493-7.869a3.146,3.146,0,0,1,3.781-.885,6.989,6.989,0,0,1,2.493,2.207c.12.158.31.914.418.985.205.134-.156-.581.068-3.9.2-2.93-.089-6.4.8-9.227.217-.7,1.106-2.226,2.111-2.1.892.115,1.685,1.248,2.055,1.988a22.891,22.891,0,0,1,1.42,9.991c0,.122.063.56-.017.664a22.031,22.031,0,0,1,1.656-8.941c.493-1.3.743-2.226,2.17-2.545,3.151-.685,3.362,3.906,2.958,5.922-.608,3.012-.879,5.879-.843,5.567a8.764,8.764,0,0,1,3.939-5.81c.856-.488,2.531-1,3.117.152,1.067,2.1-.075,5.408-.839,7.381A30.251,30.251,0,0,1,227.586,85.5a12.788,12.788,0,0,1-3.767,3.528C223.163,89.315,215.1,88.961,215.1,88.961Z" transform="translate(-6710.359 -20901.311)" fill="#f8f8f9" fill-rule="evenodd"/>
    <path id="Path_2537" data-name="Path 2537" d="M227.816,59.011c3.028.24,3.826,3.743,3.516,6.725,3.04-2.507,6.54-1.971,6.456,2.6a18.556,18.556,0,0,1-1.625,6.184,24.288,24.288,0,0,1-4.208,8,71.2,71.2,0,0,1-5.341,6.185A6.629,6.629,0,0,1,224.3,90.26a86.208,86.208,0,0,1-8.949-.283.526.526,0,0,1-.3-.183c.476-.378.6-.479,0,0a11.422,11.422,0,0,1-1.067-2.988c-.106-.295-1.634-2.939-3.163-6.53-.642-1.485-1.043-2.055-1.6-3.545-.819-2.314-.906-5.137,1.278-6.286a4.668,4.668,0,0,1,4.339.171c.892.553.771.7.783.382.182-4.329-.185-8.989,1.483-11.433,1.747-2.622,4.756-2.13,6.336,2.432.265.784,0,.632.685-.856a3.7,3.7,0,0,1,3.68-2.13Zm-9.7,7.055c-.342,8.22-.279,5.982-.284,6.615,0,1.764.171,1.873-.185,2.411a1.108,1.108,0,0,1-1.185.4,1.338,1.338,0,0,1-.908-.993,3.164,3.164,0,0,0-.171-.488c-1.017-1.317-2-2.32-3.615-2a1.445,1.445,0,0,0-1.219,1.3c-.42,1.9.837,4.3,1.541,6.054,1.911,4.992,2.74,6.3,2.966,6.946.265.8.356,1.736.644,2.522a.589.589,0,0,0,.048.113c1.348.026,6.744.1,8.085-.08a5,5,0,0,0,1.541-1.158c.611-.627,2.978-3.55,3.286-3.939a31.247,31.247,0,0,0,4.827-8.249c.774-2.384,2.62-6.756,1.562-8.776h-.017c-1.647-.274-4.369,2.838-4.67,5.1a1.494,1.494,0,0,1-.267.789,1.271,1.271,0,0,1-1.582.382,1.3,1.3,0,0,1-.6-.622c-.187-.545-.147-.875.389-4.523a13.391,13.391,0,0,0,.457-3.961,3.374,3.374,0,0,0-.813-2.226.962.962,0,0,0-.7-.051.93.93,0,0,0-.769.577,23.861,23.861,0,0,0-1,2.74,16.3,16.3,0,0,0-1.014,5.841c-.024.937.127,1.689-.673,2.17a1.3,1.3,0,0,1-1.944-.877c-.171-1.027.541-5.6-.908-9.59-.536-1.385-1.094-1.933-1.36-2.041-1.2.828-1.385,4.116-1.459,5.614ZM223.914,88.866ZM223.914,88.866Zm0,0h.027ZM217.84,73.928Zm-.209-.068v-.014l.014.033-.014-.029ZM235.073,66.751ZM235.073,66.751ZM235.073,66.751ZM235.073,66.751ZM235.073,66.751Zm0,0h0l-.014-.01Zm0,0h0l-.015-.012Zm0,0h0l-.017-.014ZM235.073,66.751Zm0,0h0v-.014Zm0,0h0l-.015-.014Zm0,0h0l-.017-.019Zm0,0-.015-.015Zm0,0-.015-.019Zm0,0-.015-.019ZM219.661,60.439Z" transform="translate(-6710.723 -20901.822)" fill="#212121" fill-rule="evenodd"/>
    <path id="Path_2538" data-name="Path 2538" d="M170.182,163.483c3.939-.587,7.543-3.747,11.236-5.137a79.261,79.261,0,0,0,38.753-30.912c6.141-9.508,10.188-20.152,14.556-30.506a87.336,87.336,0,0,0,5.119-14.448c.4-1.752.685-6.114,1.923-7.408,1.01-1.053,4.5-.257,5.841-.247,1.264.01,4.706-.606,5.661.257,1.613,1.456.834,5.148.807,6.978-.1,7.105-.647,14.251-1.151,21.336-.986,13.849-1.771,28.991-5.975,42.3-5,15.82-16.868,30.157-29.376,40.414-6.644,5.451-13.946,9.318-21.271,13.756-1.055.639-6.4,4.452-7.535,4-2.247-.906-4.014-8.722-4.9-10.821C179.7,183.167,170.182,163.483,170.182,163.483Z" transform="translate(-6738.166 -20890.029)" fill="#f8f8f9" fill-rule="evenodd"/>
    <path id="Path_2539" data-name="Path 2539" d="M170.319,163.493c3.7-.6,6.954-3.487,10.91-5.149,20.2-7.906,34.186-21.392,43.5-40.327,3.524-7.167,11.316-26.083,12.727-30.34h0c2.165-6.612,1.57-8.014,2.569-11.021,1.183-3.547,3.475-2.952,7.468-2.588,1.149.086,2.966-.32,4.826-.149a3.216,3.216,0,0,1,3.053,2.327,15.1,15.1,0,0,1,.214,5.951c-.063,1.075.015,2.25-.253,7.787-.219,4.514-1.565,24.8-2.349,32.39-1.043,10.03-2.721,20.337-6.591,29.652a90.821,90.821,0,0,1-21.125,29.562c-10.456,9.932-16.647,12.77-28.237,19.644-1.99,1.25-5.749,3.887-7.617,4.11-3.009.226-4.769-7.535-5.836-10.768-1.476-4.386-13.657-30.325-13.691-30.5a.5.5,0,0,1,.2-.464h0l.074-.048a.559.559,0,0,1,.171-.056C170.385,163.911,170.439,164.262,170.319,163.493Zm72.556-87.02c-.964,1.156-1.014,4.666-2.017,8.47-2.122,7.725-11.633,29.467-15.37,36.438a83.531,83.531,0,0,1-7.966,12.364c-15.609,19.882-34.9,25.173-38.188,26.87a33.445,33.445,0,0,1-8.165,3.785c16.543,33.633,13.5,29.083,15.916,35.359a10.059,10.059,0,0,0,2.11,3.7c.4.284,3.892-1.98,4.257-2.216,12.092-7.948,24.795-13.064,39.64-31.917,16.876-21.656,16.924-39.348,19.231-72.155.3-4.343.533-8.391.649-12.626a61.922,61.922,0,0,0,.194-6.644,2.529,2.529,0,0,0-.473-1.3c-.433-.473-4.178.086-5.4-.022a13.983,13.983,0,0,0-4.418-.1Z" transform="translate(-6738.382 -20890.557)" fill="#212121" fill-rule="evenodd"/>
    <path id="Path_2540" data-name="Path 2540" d="M122.114,176c.051-12.6,31.51-45.841,72.457-51,14.023-1.767,49.955-2.757,64.283,26.388,2.6,5.29,5.387,11.191,5.093,17.265-.366,7.5-4.331,13.419-7.948,19.693-9.717,16.846-20.539,29.52-34.935,43.108-11.746,11.092-30.869,16.954-46.739,13.349a128.795,128.795,0,0,1-34.392-14.114c-10.467-6.3-25.194-20.916-27.7-33.748C110.178,186.379,122.092,181.579,122.114,176Z" transform="translate(-6779.619 -20854.598)" fill="#f8f8f9" fill-rule="evenodd"/>
    <path id="Path_2541" data-name="Path 2541" d="M241.726,131.652a45.653,45.653,0,0,1,19.284,21.183,51.466,51.466,0,0,1,3.73,9.537c2.62,10.39-1.855,17.89-7.372,27.167a168.092,168.092,0,0,1-15.534,22.569c-5.343,6.53-17.4,19.6-24.146,24.545-11.417,8.446-28.013,13.015-42.572,9.97a116.4,116.4,0,0,1-21.748-7.466c-12.7-5.7-22.776-12.02-32.225-23.728a47.981,47.981,0,0,1-8.506-14.727c-1.51-4.687-1.574-8.605,1.346-13.051,2.9-4.521,7.816-7.8,7.891-11.152h0c0-5.2,4.738-12.008,7.994-16.054a103.521,103.521,0,0,1,28.069-23.29C189.567,119.064,222.883,120.934,241.726,131.652Zm-48.634-4.795c-21.608,3.1-42.391,14.453-56.823,28.59-4.781,4.7-13.237,14.368-13.357,21.063h0c0,6.1-12.1,10.438-9.549,21.529,2.786,11.145,14.061,22.99,23.329,29.641,9.842,7.086,30.426,15.681,42.223,17.156a53.355,53.355,0,0,0,28.333-4.946c9.55-4.531,14.191-9.487,21.831-17.356,13.34-13.857,19.9-23.675,28.465-38.419,5.052-8.833,7.182-14.953,3.689-24.391a71.926,71.926,0,0,0-5.891-11.963c-12.844-19.7-39.267-24.206-62.245-20.906Z" transform="translate(-6779.895 -20855.096)" fill="#212121" fill-rule="evenodd"/>
    <path id="Path_2542" data-name="Path 2542" d="M213.279,77.362s-18.048,8.285-24.059,26.608c-2.243,6.84-9.59,13.643-16.693,12.022-3.555-.812-4.875-2.632-9.439-2.428-6.523.3-12.39,16.769-.969,18.082a24.569,24.569,0,0,0,5.17-.466,19.149,19.149,0,0,0,4.99,14.835c1.1,1.137,9.807,5.148,10.544,6.483,1.291,2.343-3.939,5.689-4.54,7.549-1.065,3.266,3.353,9.136,5.362,11.054,3.4,3.243,8.182,4.11,11.542.067a9.342,9.342,0,0,0,1.945-8.6c-.613-1.668-3.672-5.471-1.295-7.352.932-.738,3.254.092,4.321.022a33.959,33.959,0,0,0,8.237-1.962c10.747-3.586,19.253-14.359,22.755-24.776,2.716-8.085,4.935-18.485,4.452-26.968-.118-2.055.562-6.388-.7-8.074-1.474-1.978-5.322-2.35-7.374-3.625a51.508,51.508,0,0,1-14.249-12.471Z" transform="translate(-6748.524 -20888.01)" fill="#f8f8f9" fill-rule="evenodd"/>
    <path id="Path_2543" data-name="Path 2543" d="M213.56,77.111c.539-.2.543.1,1.56,1.37a54.922,54.922,0,0,0,13.371,11c1.757.992,4.893,1.423,6.754,2.894,2.192,1.733,1.774,4.817,1.712,8.275a61.61,61.61,0,0,1-.553,12.681,92.044,92.044,0,0,1-4.139,16.993,45.49,45.49,0,0,1-9.129,14.989,34.763,34.763,0,0,1-20.045,11.1,9.148,9.148,0,0,1-3.767.194,5.894,5.894,0,0,0-2.206-.171c-.491.392-.426,1.016-.271,1.622.762,2.74,2.526,3.564,2.466,7.314a10.809,10.809,0,0,1-6.28,9.518c-6.127,2.235-11.626-3.372-14.527-9.247a7.691,7.691,0,0,1-.795-6.182c.95-1.853,4.444-4.521,4.53-5.925.033-.483-2.987-2.1-3.559-2.42-6.507-3.606-6.221-3.262-7.725-5.03a19.556,19.556,0,0,1-4.461-13.294,15.866,15.866,0,0,1-2.981.342c-6.227-.1-9.792-4.747-8.192-11.494.916-3.689,3.475-7.86,7.054-8.84a9.9,9.9,0,0,1,3.149-.134c3.379.342,4.756,1.712,7.518,2.416,6.456,1.541,12.813-4.065,15.428-10.136a55.308,55.308,0,0,1,2.469-6.038,50.5,50.5,0,0,1,21.005-21c.378-.2,1.223-.64,1.613-.812C213.654,77.311,213.75,77.513,213.56,77.111Zm-45.21,53.172h0c.956.584.639,1.132.625,3.016a17.031,17.031,0,0,0,4.11,11.386c.832.949.74.908,5.254,3.338a41.815,41.815,0,0,1,5.408,3.267,2.74,2.74,0,0,1,1.06,2.168c.065,2.8-3.821,5.434-4.738,7.062-.582,1.07.442,3.386,1,4.466,5.367,9.92,12.2,9.619,14.947,3.379,2.327-5.562-1.522-6.507-1.849-10.789a3.607,3.607,0,0,1,1.423-3.2,3.3,3.3,0,0,1,2.132-.541c2.421.116,2.594,1.19,10.893-1.594,10.643-3.644,18.741-14.1,22.356-25.026A74.835,74.835,0,0,0,235.2,101.57c-.046-1.98.514-6.067-.454-7.424-1.1-1.541-4.333-2.076-6.537-3.175a53.644,53.644,0,0,1-14.6-12.727,48.141,48.141,0,0,0-22.4,24.358,24.9,24.9,0,0,1-3.175,6.961c-2.832,4.06-7.045,7.439-11.933,7.9-3.612.291-5.639-1.048-8.191-1.959a8.933,8.933,0,0,0-5.4-.319c-4.639,2-8.3,13.154-1.173,15.173,3.365.937,5.653-.658,7.014-.079Z" transform="translate(-6749.023 -20888.229)" fill="#212121" fill-rule="evenodd"/>
    <path id="Path_2544" data-name="Path 2544" d="M186.969,160.9a23.274,23.274,0,0,1-6.388,1.516,11.247,11.247,0,0,1-2.774.342c-2.8-.159-5.214-1.5-7.877-2.159-11.5-2.856-23.649-7.62-29.585-18.906a46.921,46.921,0,0,1-3.374-10.165,28.237,28.237,0,0,1-1.164-11.248c1.425-8.9,9.516-16.214,10.547-24.939,4.291-36.328,42.469-42.329,70.27-36.637,11.825,2.421,40.233,22.2,34.6,41.971-.267.933-.628,7.535-1.884,7.444-3.278-.231-19.562-10-21.622-16.087,0,0-18.048,8.282-24.059,26.6-2.243,6.84-9.59,13.643-16.693,12.022-3.555-.812-4.875-2.634-9.439-2.428-6.523.3-12.392,16.769-.969,18.082a24.439,24.439,0,0,0,5.168-.466,19.145,19.145,0,0,0,4.992,14.835A1.948,1.948,0,0,0,186.969,160.9Z" transform="translate(-6762.754 -20902.637)" fill="#00c29a" fill-rule="evenodd"/>
    <path id="Path_2545" data-name="Path 2545" d="M182.846,150.446a17.9,17.9,0,0,0,1.521,5.723,16.314,16.314,0,0,0,3.485,4.976.514.514,0,0,1-.194.742l-.031-.058.034.065a16.781,16.781,0,0,1-5.254,1.406c-2.976.45-3.809,1.156-8.093-.228-1.541-.5-1.981-.7-3.372-1.115-1.315-.372-3.355-.743-7.814-2.166-12.566-4.148-21.793-10.5-25.516-23.255-1.428-4.951-3.069-10.544-2.437-15.606,1.312-9.455,9.39-16.227,10.515-25.624,3.458-27.34,26.081-39.339,53.529-39.216,6.451.048,16.763.918,22.745,3.344a58.577,58.577,0,0,1,10.845,5.973c12.177,8.477,23.922,21.791,20.087,36.174-.343,1.62-.483,5.953-1.665,7.581-.7.9-1.461.856-2.492.579-5.177-1.493-18.152-9.9-21.166-15.5a50.761,50.761,0,0,0-18.4,16.782c-3.968,6.29-3.548,8.734-6.143,12.794a19.444,19.444,0,0,1-9.276,7.807c-6.865,2.4-9.616-1.611-14.357-1.983a4.826,4.826,0,0,0-3.918,1.039c-4.9,3.966-7.021,15.085,2.267,15.536,2.026.034,4.081-.685,4.716-.413C183.285,146.607,182.478,146.585,182.846,150.446ZM179.17,61.123c-17.32,4.812-28.444,15.976-31.035,33.655a26.175,26.175,0,0,1-3.745,11.016c-2.61,4.711-5.876,9.46-6.924,14.306a24.317,24.317,0,0,0,.74,11.047c1.325,5.362,2.11,9.018,5,13.345,8.377,12.222,23.172,14.373,30.556,17.063a10.978,10.978,0,0,0,6.482.959,37.752,37.752,0,0,0,6.263-1.247c-.079-.081-.464-.514-.791-.9a19.06,19.06,0,0,1-4.185-13.27,12.844,12.844,0,0,1-5.939.2c-9.489-2.348-5.865-15.825.3-18.859a9.056,9.056,0,0,1,5.242-.342c3.2.659,5.235,2.457,8.532,2.4,5.935-.1,11.525-5.881,13.434-11.657,3.74-11.749,13.558-21.687,23.725-26.961.832-.433,1.712-.976,2.43.108a8.835,8.835,0,0,0,1.712,2.788A55.511,55.511,0,0,0,249.2,107.229c.216.067.171.074.209-.024a63.243,63.243,0,0,0,1.027-6.242,18.153,18.153,0,0,0,.685-4.3c.3-8.145-4.976-15.926-10.737-21.653-7.749-7.751-17.6-13.109-23.168-14.407a83.415,83.415,0,0,0-38.044.52Z" transform="translate(-6763.206 -20903.168)" fill="#212121" fill-rule="evenodd"/>
    <path id="Path_2546" data-name="Path 2546" d="M192.132,153.207a60.672,60.672,0,0,1,7.948-5.437c1.005-.589,2.68-.938,3.344-1.98a13.869,13.869,0,0,0,1.163-4.149c1.1-4.738,1.743-9.771,7.085-11.434,5.48-1.712,11.8-2.569,17.248-.293,3.038,1.264,5.535,6.114,2.726,8.853,1.221-.315,2.064,1.557,2.635,2.44a5,5,0,0,1-1.247,6.763c3.243,1.814,2.226,8.22-.772,10.114a19.2,19.2,0,0,1-10.309,2.024,23.606,23.606,0,0,0-4.281-.428c-1.028.171-1.894,1.425-2.682,2.017-1.988,1.493-7.766,5.694-8.333,5.814C205.861,167.677,192.132,153.207,192.132,153.207Z" transform="translate(-6722.526 -20851.551)" fill="#f8f8f9" fill-rule="evenodd"/>
    <path id="Path_2547" data-name="Path 2547" d="M222.055,127.82c3.094.033,7.437.711,9.694,2.848a7.819,7.819,0,0,1,2.555,6.519c-.394,2.421-.906.606.365,2.372a16.7,16.7,0,0,1,1.5,2.613,6.417,6.417,0,0,1-.9,6.18c-.092.115-.1.06.021.2a7.615,7.615,0,0,1,.954,6.418,7.492,7.492,0,0,1-5.261,5.749,23.581,23.581,0,0,1-9.662,1.041,9.809,9.809,0,0,0-3.452-.334,16.366,16.366,0,0,0-1.784,1.541c-.586.474-6.941,4.966-8.533,5.807a1.293,1.293,0,0,1-1.661-.2c-2.463-1.911-11.66-12.016-13.758-14.33-.219-.217-.33-.342-.289-.646h0a.514.514,0,0,1,.171-.284h0a55.38,55.38,0,0,1,5.858-4.372,23.359,23.359,0,0,1,4.249-2.384,2.387,2.387,0,0,0,1.255-1.832,55.549,55.549,0,0,1,2.521-10.1c2.016-4.137,4.881-4.966,9.3-6.013a30.972,30.972,0,0,1,6.859-.8Zm-14.887,39.3-.024-.012.027.017-.022-.015.026.014-.021-.01Zm11.494-8.172a32.963,32.963,0,0,0,5.85.428,15.306,15.306,0,0,0,7.513-2.031,6.213,6.213,0,0,0,1.353-7.011c-.586-.879-.918-.548-1.332-1.37a1.3,1.3,0,0,1,.473-1.552,3.67,3.67,0,0,0,1.23-4.314,10.313,10.313,0,0,0-1.652-2.557,1.584,1.584,0,0,1-.373.019,1.288,1.288,0,0,1-1.147-1.18c0-1.238,1.062-1.074,1.214-2.8a5.393,5.393,0,0,0-1.587-3.867c-1.668-1.712-5.262-2.314-7.655-2.409a29.968,29.968,0,0,0-8.794,1.091c-2.969.784-4.875,1.5-6.379,5.059-1.163,2.752-2.009,8.006-2.569,9.4a3.673,3.673,0,0,1-2.055,2.173,28.2,28.2,0,0,0-6.679,3.666c-.945.625-1.915,1.3-2.933,2.079,2.307,2.307,11.088,11.059,13.648,13.08.108.084.067.084.183,0,2-1.324,7.162-5.261,7.573-5.588,1.133-.9,1.731-2.352,4.118-2.311Z" transform="translate(-6722.739 -20852.061)" fill="#212121" fill-rule="evenodd"/>
    <path id="Path_2548" data-name="Path 2548" d="M114.842,156.028c-16.142,4.05-10.343,29.323-4.367,39.122" transform="translate(-6785.065 -20831.963)" fill="#f8f8f9" fill-rule="evenodd"/>
    <path id="Path_2549" data-name="Path 2549" d="M115.9,156.11l-.378.635a12.078,12.078,0,0,0-7.174,5.937,19.791,19.791,0,0,0-2.089,8.076,56.977,56.977,0,0,0,4.2,22.149c1.137,2.74,1.106,1.779.839,2.9-.791-.2-.671-.118-.789-.289-8.722-12.381-11.294-36.777,4.757-39.784Z" transform="translate(-6785.619 -20832.174)" fill="#212121" fill-rule="evenodd"/>
    <path id="Path_2550" data-name="Path 2550" d="M112.389,185.554a41.413,41.413,0,0,0,22.572,21.406" transform="translate(-6779.342 -20810.926)" fill="#f8f8f9" fill-rule="evenodd"/>
    <path id="Path_2551" data-name="Path 2551" d="M113.064,185.531a54.725,54.725,0,0,0,22.278,21.13l.31.666-.671.3a32.979,32.979,0,0,1-17.873-12.241,30.87,30.87,0,0,1-5-9.419l.262-.685Z" transform="translate(-6779.541 -20811.117)" fill="#212121" fill-rule="evenodd"/>
    <path id="Path_2552" data-name="Path 2552" d="M139.474,204.413c13.186,6.92,36.781,6.662,47.982-4.615" transform="translate(-6760.044 -20800.777)" fill="#f8f8f9" fill-rule="evenodd"/>
    <path id="Path_2553" data-name="Path 2553" d="M188.011,200.32c-10.691,12.289-34.864,12.993-48.586,4.713l-.221-.7.706-.223c12.8,5.62,33.426,5.309,45.209-2.819,2.8-1.956,1.572-1.7,2.889-1.7Z" transform="translate(-6760.236 -20800.936)" fill="#212121" fill-rule="evenodd"/>
    <path id="Path_2554" data-name="Path 2554" d="M192.427,78.033a21.534,21.534,0,0,1-8.04,19.009" transform="translate(-6728.045 -20887.531)" fill="#fff" fill-rule="evenodd"/>
    <path id="Path_2555" data-name="Path 2555" d="M193.119,78.208a17.955,17.955,0,0,1-1.985,13.279,15.472,15.472,0,0,1-6.259,6.175l-.73-.087c.134-1.016-.1-.437,1.005-1.736a28.869,28.869,0,0,0,5.75-10.832,38.239,38.239,0,0,0,1.173-6.716l.481-.562Z" transform="translate(-6728.217 -20887.75)" fill="#212121" fill-rule="evenodd"/>
    <path id="Path_2556" data-name="Path 2556" d="M190.622,80.322c-.009-.514,2.166,2.86,2.673,3.738a12.672,12.672,0,0,1,.949,10.458" transform="translate(-6723.603 -20885.939)" fill="#fff" fill-rule="evenodd"/>
    <path id="Path_2557" data-name="Path 2557" d="M190.572,80.946l.022.019-.019-.024.024.019-.01-.01.021.014-.01-.009.026.017h0l.033.019h0l.045.019h0l.058.019h.039l-.471-.488v-.033a.468.468,0,0,1,.015-.123.858.858,0,0,1,.031-.094c.163-.295.486-.536,1.1-.055a12.472,12.472,0,0,1,4.928,9.15,9.494,9.494,0,0,1-1.3,5.294c-.159.291,0,.171-.791.558-.536-1.118-.216-.154-.216-2.211a15.663,15.663,0,0,0-.06-1.752,14.928,14.928,0,0,0-2-7.244c-.284-.55-1.187-2.653-1.418-3.038l.012.012Zm.781-.4-.49.473h.033a.476.476,0,0,0,.343-.171l.067-.092h0l.038-.086h0l.021-.07h0v-.056Z" transform="translate(-6723.811 -20886.158)" fill="#212121" fill-rule="evenodd"/>
    <path id="Path_2558" data-name="Path 2558" d="M181.863,96.993c0,1.87-.077,1.875-.091,3.709" transform="translate(-6729.908 -20874.023)" fill="#fff" stroke="#000" stroke-linecap="round" stroke-linejoin="round" stroke-width="2.126" fill-rule="evenodd"/>
    <path id="Path_2559" data-name="Path 2559" d="M197.557,96.338c.026,1.238.019,1.409-.027,2.863" transform="translate(-6718.681 -20874.49)" fill="#fff" stroke="#000" stroke-linecap="round" stroke-linejoin="round" stroke-width="2.126" fill-rule="evenodd"/>
    <path id="Path_2560" data-name="Path 2560" d="M190.092,95.27c.822,3.879,2.111,7.352,3.31,12.237a16.8,16.8,0,0,1-4.381,2.088" transform="translate(-6724.743 -20875.252)" fill="#fff" fill-rule="evenodd"/>
    <path id="Path_2561" data-name="Path 2561" d="M194.162,108.805a12.816,12.816,0,0,1-4.809,1.5l-.628-.378.385-.625a18.118,18.118,0,0,0,3.1-2.04,42.1,42.1,0,0,1-2.415-11.674l.4-.62.622.4a58.877,58.877,0,0,1,3.788,11.1C194.815,107.485,195.1,108.281,194.162,108.805Z" transform="translate(-6724.954 -20875.463)" fill="#212121" fill-rule="evenodd"/>
    <path id="Path_2562" data-name="Path 2562" d="M204.689,106.99s-15.433,2.911-22.947,1.562c-.492,3.685-1.132,7.77,1.1,11.081,2.449,3.627,8.8,4.3,12.429,2.485C200.96,119.279,205.242,113.857,204.689,106.99Z" transform="translate(-6730.271 -20866.902)" fill="#f8f8f9" fill-rule="evenodd"/>
    <path id="Path_2563" data-name="Path 2563" d="M205.482,107.284a14.953,14.953,0,0,1-4.444,12.186,16.587,16.587,0,0,1-7.141,4.411,12.879,12.879,0,0,1-8.129-.795c-4.966-2.4-5.506-7.276-4.795-12.737.259-1.978.221-1.963.5-2.293a.983.983,0,0,1,1-.233c5.651.957,17.01-.236,22.536-1.058h.065C205.29,106.78,205.44,106.845,205.482,107.284Zm-22.54,2.49c-.4,3.295-.766,6.7,1.1,9.475,1.8,2.606,5.822,3.408,8.967,2.9a11.088,11.088,0,0,0,4.7-2.1,14.91,14.91,0,0,0,6.913-10.734,14.176,14.176,0,0,0,.077-1.682c-6.165,1.317-15.515,2.867-21.757,2.141Z" transform="translate(-6730.658 -20867.061)" fill="#212121" fill-rule="evenodd"/>
    <path id="Path_2564" data-name="Path 2564" d="M219.107,111.839a20.241,20.241,0,0,0-8.53-.538c-6.579,1.461-11.987,9.527-8.984,16.031,1.666,3.61,7.8,7.442,13.715,7.139.735-.039,2.252.062,2.7-.616,1.836-2.783.4-8.54.565-11.732C218.745,118.718,219.107,111.839,219.107,111.839Z" transform="translate(-6716.392 -20863.992)" fill="#001c3d" fill-rule="evenodd"/>
    <path id="Path_2565" data-name="Path 2565" d="M213.266,110.58a29.226,29.226,0,0,1,6.454,1.1h0c.608.156.428.223.361,7.79,0,.4-.053,2.826-.043,3.4.123,3.452,1.6,9.023-.526,12.1-.87,1.154-2.488,1.089-4.029,1.132a17.424,17.424,0,0,1-10.908-3.7,10.479,10.479,0,0,1-4.146-5.6C198.291,119.55,204.651,110.58,213.266,110.58Zm-3.082,2.3c-4.8,1.944-8.609,7.627-7.449,12.734a7.377,7.377,0,0,0,2.757,4.225,15.429,15.429,0,0,0,7.35,3.5,14.878,14.878,0,0,0,4.7.089h0c1.415-2.329.342-7.8.6-10.992.945-10.617,1.027-9.761.825-9.8-3.175-.466-5.7-.932-8.773.248ZM217.484,133.505Z" transform="translate(-6716.912 -20864.342)" fill="#001c3d" fill-rule="evenodd"/>
    <path id="Path_2566" data-name="Path 2566" d="M206.362,123.823a23.734,23.734,0,0,0-1.348,7.261,27.409,27.409,0,0,0-.221,6.436c1,5.216,10.275,5.172,13.237,1.918,1.468-1.611.7-6.85.628-8.941-.038-1.027.408-4.966-.4-5.576-.932-.706-2.629-.313-3.685-.281C212.579,124.7,206.362,123.823,206.362,123.823Z" transform="translate(-6713.574 -20854.906)" fill="#001c3d" fill-rule="evenodd"/>
    <path id="Path_2567" data-name="Path 2567" d="M206.933,123.526a69.946,69.946,0,0,0,8.487.342,8.151,8.151,0,0,1,2.973-.082,2.252,2.252,0,0,1,1.858,1.949,13.931,13.931,0,0,1,.2,2.968,20.419,20.419,0,0,0,.12,3.975c.253,3.219.493,6.533-1.557,8.319-3.538,3.082-11.633,3.11-14.19-1.211h0a9.248,9.248,0,0,1-.569-5.977,35.323,35.323,0,0,1,2.127-9.963C206.435,123.853,206.449,123.5,206.933,123.526Zm-.483,6.716c-.043.171-.211,5.264-.207,5.437a4.223,4.223,0,0,0,1.31,3.642,9,9,0,0,0,9.689-.228c1.6-1.331.533-5.747.748-10.141a13.923,13.923,0,0,0-.029-3.023h0a12.52,12.52,0,0,0-3.326-.151c-1.9-.116-5.338-.753-7.417-1.149a21.84,21.84,0,0,0-.769,5.612ZM218.061,126l-.019-.017.043.036-.017-.017.038.031-.068-.057h0ZM218.039,125.981Z" transform="translate(-6714.074 -20855.121)" fill="#001c3d" fill-rule="evenodd"/>
    <path id="Path_2568" data-name="Path 2568" d="M285.959,164.688c-7.466-1.028-29.65-5.751-39.9-7.746-9.1-1.771-33.607-7.561-34.25-8.547-1.053-1.6-.462-10.249-.245-20.233,4.894-2.487,69.749-38.507,70.135-38.421C304.068,94.711,300.318,161.537,285.959,164.688Z" transform="translate(-6708.94 -20879.191)" fill="#001c3d" fill-rule="evenodd"/>
    <path id="Path_2569" data-name="Path 2569" d="M282.368,89.01c7.98,1.824,12.2,10.2,14.286,18.084,4.391,16.176,2.885,47.48-6.7,56.746a6.242,6.242,0,0,1-3.55,1.884v-.015c-.057.319-42.014-7.234-63.112-12.352-11.41-2.791-11.718-3.153-12.159-4.091-1.039-2.314-.582-10.7-.432-14.823.128-6.355.065-5.889.259-6.336.325-.514.281-.38,2.7-1.69C232.716,116.05,281.015,88.967,282.368,89.01Zm-69.052,40.445-.11,5.059h-.014c-.113,2.7-.567,11.176.077,13.57,7.888,3.3,65.482,15.448,73.2,16.6a8.331,8.331,0,0,0,4.437-3.821c5.846-9.076,6.886-28.1,5.869-39.8-.974-10.458-4.346-26.781-14.434-29.468-2.809,1.391-59.932,33.048-69.026,37.86Z" transform="translate(-6709.459 -20879.713)" fill="#001c3d" fill-rule="evenodd"/>
    <path id="Path_2570" data-name="Path 2570" d="M272.252,89.294a61.678,61.678,0,0,1,7.148,3.425c1.038-1.449,3.706-6.024,4.831-7.12a1.673,1.673,0,0,1,1.324-.514,23.377,23.377,0,0,1,7.571,2.428c.933-1.315,1.884-2.856,3.04-4.452,2.911-4.011,3.517-3.848,5.213-3.021a34.726,34.726,0,0,1,6.3,4.11c.171.171.106.027.137.843-1.355.045.159.25-3.471-1.6a39.425,39.425,0,0,0-4.247-1.884,6.355,6.355,0,0,0-.646.752c-3.154,4.266-4.365,8.446-6.346,7.972a45.526,45.526,0,0,0-7.131-2.536c-.185-.019-.116-.058-.312.194-1.712,2.272-4.11,6.567-5.189,7.309-1.3.754-2.439-.608-8.184-3.713-.892,1.2-4.009,6.165-4.781,7.552l-.7.241c-.272-.781-.272-.627-.2-.8.464-1.077,1.635-3.488,2.242-4.713C270.9,89.662,271.284,89.178,272.252,89.294Zm7.727,3.678h-.005ZM279.979,92.972ZM272.579,91.133Zm0,0,.033-.029-.017.014.033-.029-.014.01.019-.021a.519.519,0,0,0-.057.05ZM292.747,87.992ZM292.747,87.982ZM299.874,81.464Zm-.05-.009h.05a.223.223,0,0,1-.075-.01Z" transform="translate(-6669.493 -20886.443)" fill="#001c3d" fill-rule="evenodd"/>
    <path id="Path_2571" data-name="Path 2571" d="M306.924,107.618c1.391.438,6.047,5.927,6.639,7.389l-.243.685c-1.286-.462.06.217-2.48-2.331a47.334,47.334,0,0,0-4.016-3.533c-.343-.253-.267-.224-.444-.149a13.817,13.817,0,0,0-1.808,1.086c-8.609,5.953-5.843,5.968-11.2,1.086a13.5,13.5,0,0,0-2.421-1.827c-1.212.668-3.826,2.625-6.153,4.161-2.178,1.387-2.4,1.125-4.22-1.111-1.445-1.795-2.634-3.425-3.606-4.562-1.325.819-5.79,4.074-7.144,5.151-.171.132,0,.089-.844.048.039-.839-.027-.671.139-.843a79.4,79.4,0,0,1,7.329-6.365,1.2,1.2,0,0,1,1.235-.072c1.2.656,4.519,4.966,5.429,5.872a72.11,72.11,0,0,1,7.27-4.863,1.7,1.7,0,0,1,1.36.1,23.835,23.835,0,0,1,6.045,5.035C299.968,111.2,305.085,107.19,306.924,107.618ZM297.262,112.877ZM297.274,112.877Zm-13.7-.1-.022-.019ZM283.55,112.756Zm22.776-3.254h-.019l.034.015h-.021l.043.017h-.017l.026.009-.072-.034ZM277.385,108.29Zm0,0,.041-.014H277.4l.039-.015h0l.026-.012a.614.614,0,0,0-.1.036Z" transform="translate(-6667.771 -20867.396)" fill="#001c3d" fill-rule="evenodd"/>
    <path id="Path_2572" data-name="Path 2572" d="M275.69,127.561a1.378,1.378,0,0,1,1.027.644c.954,1.235,3.3,5.994,3.66,6.571,2.055-.779,5.932-2.569,7.634-3.029.957-.247,1.387-.128,2.351.706a28.737,28.737,0,0,1,4.264,5.84c1.959-.685,7.167-3.1,9.393-2.961a1.329,1.329,0,0,1,1.067.529,31.1,31.1,0,0,1,4.353,8.133c.045.207.089.072-.36.781-1.062-.685-.18-.05-1.712-2.516a43.182,43.182,0,0,0-3.567-4.911,21.935,21.935,0,0,0-3.894,1.418c-4.923,2.117-6.011,2.993-7.074,1.464a37.548,37.548,0,0,0-4.076-5.73c-.271-.248-.2-.221-.375-.171-1.865.591-6.442,2.658-7.9,3.016a1.511,1.511,0,0,1-1.5-.267c-.894-.88-2.582-5.117-3.767-7.364-1.56.534-6.936,2.862-8.23,3.5l-.711-.2.2-.712C267.466,131.678,274.46,127.549,275.69,127.561ZM294.041,138.466ZM294.055,138.466Zm9.566-1.288H303.6l.031.022-.019-.014.038.027-.015-.01.022.014-.062-.048Zm-22.9-1.844-.019-.024ZM280.7,135.308Zm-5.036-5.725h.012Zm0,0h.075a.4.4,0,0,0-.072,0Z" transform="translate(-6669.699 -20852.244)" fill="#001c3d" fill-rule="evenodd"/>
    <path id="Path_2573" data-name="Path 2573" d="M126.273,173.559c2.13,13.857-.075,36.075,44.1,51.677,51.071,18.036,90.172-59.033,89.34-61.783-.873-2.88-3.981-5.326-5.682-7.706a106.712,106.712,0,0,0-8.22-9.824c-.839-.921-2.271-3.019-3.392-3.464-.983-.389-2.466.706-3.3,1.027-3.038,1.187-6.146,2.055-9.174,3.283-5.891,2.4-11.987,3.916-18,5.915-4.571,1.519-10.3,3.517-15.241,2.3-1.028-.253-6.679-14.715-9.775-18.579" transform="translate(-6769.45 -20845.947)" fill="#f8f8f9" fill-rule="evenodd"/>
    <path id="Path_2574" data-name="Path 2574" d="M246.755,145.126c1.027,1.168,3.836,4.059,6.9,7.946,1.526,1.971,1.7,2.331,2.507,3.264,1.3,1.517,5.309,5.437,5,7.745a35.1,35.1,0,0,1-2.8,6.721,151.653,151.653,0,0,1-14.3,22.392c-17.522,22.706-42.127,41.975-69.92,34.544a107.2,107.2,0,0,1-17.746-7.107c-8.359-4.233-16.313-9.8-21.776-17.317-6.757-9.448-7.271-17.639-8.444-27.862-.243-2.029-.342-1.464.224-2.247.7.514.575.293.685.969,1.255,7.768,1.214,17.93,8.9,28.134,8.134,10.78,22.935,18.051,35.719,22.238a45.021,45.021,0,0,0,25.328,1.007c23.37-5.93,43.355-28.9,55.561-49.581a84.312,84.312,0,0,0,5.876-11.554,3.87,3.87,0,0,0,.185-.62c-.856-2.459-3.372-4.331-5.762-7.646-1.831-2.51-3.583-4.577-5.615-6.893-4.73-5.334-4.028-4.869-5.074-5.56h0a5.7,5.7,0,0,0-1.813.718c-1.767.884-6.386,2.139-9.825,3.507-5.274,2.086-9.91,3.264-15.87,5.074-4.494,1.37-8.775,3.046-13.414,3.285a14.8,14.8,0,0,1-4.785-.514c-1.26-.8-4.187-8.672-7.516-15.135-2.493-4.764-2.3-3.136-2.151-4.466l.726.086c3.007,3.67,8.114,16.167,9.687,18.209a15.863,15.863,0,0,0,5.961.012c2.69-.468,4.012-.824,20.231-6.179,4.942-1.664,5.7-2.137,8.064-3.029,2.213-.82,3.475-1.212,5.461-1.927a18.348,18.348,0,0,0,3.505-1.517C243.429,140.451,244.515,142.558,246.755,145.126Zm-49.46,9.4-.012-.01h0ZM197.3,154.526ZM197.285,154.526Zm44.93-10.813H242.2Zm0,0H242.2Zm0,0H242.2ZM242.215,143.713ZM242.215,143.713Zm-.017,0ZM242.2,143.717ZM242.2,143.717Z" transform="translate(-6769.655 -20846.109)" fill="#212121" fill-rule="evenodd"/>
    <path id="Path_2575" data-name="Path 2575" d="M151.029,77.076c1.884-.978,23.709-15.729,35.717-13.686,2.274.387,4.637.187,6.924.538a11.022,11.022,0,0,0,4.831.241c4.329-1.541,3-10.688,1.356-13.7-5-9.163-14.1-12.643-24.131-13.142a30.951,30.951,0,0,0-12.193,1.163c-6.281,2.1-11.271,6.918-15.162,12.052-3.274,4.317-5.78,9.652-5.127,15.222a27.23,27.23,0,0,0,1.976,6.12C145.9,73.733,148.13,78.581,151.029,77.076Z" transform="translate(-6757.432 -20916.654)" fill="#00c29a" fill-rule="evenodd"/>
    <path id="Path_2576" data-name="Path 2576" d="M172.746,36.451c11.869.079,22.365,3.118,28.273,13.357,2.281,4.041,3.177,12.159-.288,15.183-2.055,1.7-4.266,1.075-6.894.637-1.671-.267-3.516-.217-5.555-.4a20.808,20.808,0,0,0-5.182-.343c-11.922.908-28.667,11.736-31.742,13.3v-.014c-3.064,1.279-5.338-2.81-6.574-5.9-1.37-3.308-2.267-4.98-2.122-8.763.342-7.182,5.223-14.166,10.446-19.147a26.2,26.2,0,0,1,19.639-7.9ZM151.383,78.167l-.026.01v.014C151.7,78.008,151.6,78.064,151.383,78.167Zm20.791-39.152a23.1,23.1,0,0,0-12.515,3.327,38,38,0,0,0-14.08,16.19c-2.454,6.348-.824,9.747.735,13.9.776,2.159,2.6,5.694,4.826,4.7h0a147.259,147.259,0,0,1,18.81-10.6c12.559-5.5,16.455-3.678,19.793-3.555a40.432,40.432,0,0,1,4.35.259c2.409.342,4.016.911,5.2-.276,1.738-1.932,1.288-6.422.661-8.955a10.422,10.422,0,0,0-1.562-3.6C192.657,41.309,182.843,39.015,172.174,39.015Z" transform="translate(-6757.784 -20917.168)" fill="#212121" fill-rule="evenodd"/>
    <path id="Path_2601" data-name="Path 2601" d="M253.664,92.184c-.63.789-2.772,8.792-2.343,22.331.577,18.111,4.031,42.935,5.249,42.983C269.148,158.082,269.2,92.725,253.664,92.184Z" transform="translate(-6680.396 -20877.451)" fill="#f8f8f9" fill-rule="evenodd"/>
    <path id="Path_2602" data-name="Path 2602" d="M254.318,91.891c4.81.243,7.816,6.346,9.338,10.915,3.809,11.432,4.415,27.329,2.74,39.205-.856,5.925-3.041,16.611-9.03,17a1.629,1.629,0,0,1-1.541-.514c-2.041-2.517-6.85-39.507-4.386-57.484.255-1.928,1.214-7.694,2.161-8.92h0C253.837,91.842,254.017,91.876,254.318,91.891ZM253.1,99.058a102.782,102.782,0,0,0-.223,19.089c.56,8.6,2.933,32.6,4.783,38.212,9.557-2.406,10.528-61.4-3.24-63.4l-.084-.01a32.829,32.829,0,0,0-1.236,6.112Z" transform="translate(-6680.76 -20877.666)" fill="#001c3d" fill-rule="evenodd"/>
    <path id="Path_2603" data-name="Path 2603" d="M267.036,101.077l.906,1.178v.012l-.2,1.473c-1.507,1.161-.834.8-2.74,1.31-10.628,2.846-21.988,7.91-35.9,13.863a60.81,60.81,0,0,0-7.078,3.478c-3.981,2.379-2.211,2.1-4.086,1.945l.1-1.094a29.376,29.376,0,0,1,3.021-2.36c4.983-3.4,20.933-10.914,24.9-12.715a129.878,129.878,0,0,1,19.6-7.292Z" transform="translate(-6704.144 -20871.258)" fill="#f8f8f9" fill-rule="evenodd"/>
    <g id="Group_5310" data-name="Group 5310" transform="translate(-6511.956 -20596.352)">
      <ellipse id="Ellipse_624" data-name="Ellipse 624" cx="18.106" cy="17.383" rx="18.106" ry="17.383" transform="translate(0 0)" fill="#2a8c78"/>
      <path id="Icon_awesome-linkedin-in" data-name="Icon awesome-linkedin-in" d="M4.123,18.422H.3V6.123H4.123ZM2.212,4.445A2.222,2.222,0,1,1,4.424,2.212,2.222,2.222,0,0,1,2.212,4.445Zm16.2,13.977H14.606V12.435c0-1.427-.029-3.257-1.986-3.257-1.986,0-2.29,1.55-2.29,3.154v6.09H6.516V6.123h3.663V7.8h.053a4.013,4.013,0,0,1,3.614-1.986c3.865,0,4.576,2.545,4.576,5.851v6.756Z" transform="translate(9.216 8.172)" fill="#fff"/>
    </g>
    <g id="Group_5311" data-name="Group 5311" transform="translate(-6502.169 -20900.383)">
      <g id="Group_5308" data-name="Group 5308">
        <g id="Group_5309" data-name="Group 5309">
          <ellipse id="Ellipse_623" data-name="Ellipse 623" cx="19.57" cy="18.788" rx="19.57" ry="18.788" transform="translate(0 0)" fill="#2a8c78"/>
          <path id="Icon_ionic-logo-google" data-name="Icon ionic-logo-google" d="M20.378,10.634l-.087-.367H12.314v3.376H17.08a4.77,4.77,0,0,1-4.667,3.587,5.581,5.581,0,0,1-3.756-1.5,5.362,5.362,0,0,1-1.6-3.785A5.53,5.53,0,0,1,8.628,8.168a5.343,5.343,0,0,1,3.731-1.459,4.867,4.867,0,0,1,3.174,1.237l2.4-2.387a8.49,8.49,0,0,0-5.652-2.177h0A8.738,8.738,0,0,0,6.1,5.9,8.737,8.737,0,0,0,6,17.91a8.949,8.949,0,0,0,6.452,2.618,7.959,7.959,0,0,0,5.8-2.437,8.559,8.559,0,0,0,2.226-5.928,9.871,9.871,0,0,0-.1-1.529Z" transform="translate(7.308 7.005)" fill="#fff"/>
        </g>
      </g>
      <path id="Icon_ionic-logo-google-2" data-name="Icon ionic-logo-google" d="M20.378,10.634l-.087-.367H12.314v3.376H17.08a4.77,4.77,0,0,1-4.667,3.587,5.581,5.581,0,0,1-3.756-1.5,5.362,5.362,0,0,1-1.6-3.785A5.53,5.53,0,0,1,8.628,8.168a5.343,5.343,0,0,1,3.731-1.459,4.867,4.867,0,0,1,3.174,1.237l2.4-2.387a8.49,8.49,0,0,0-5.652-2.177h0A8.738,8.738,0,0,0,6.1,5.9,8.737,8.737,0,0,0,6,17.91a8.949,8.949,0,0,0,6.452,2.618,7.959,7.959,0,0,0,5.8-2.437,8.559,8.559,0,0,0,2.226-5.928,9.871,9.871,0,0,0-.1-1.529Z" transform="translate(7.309 7.006)" fill="#fff"/>
    </g>
  </g>
</svg>
