<svg xmlns="http://www.w3.org/2000/svg" width="438.026" height="430.553" viewBox="0 0 438.026 430.553">
  <g id="Group_5512" data-name="Group 5512" transform="translate(4178 20882)">
    <g id="Group" transform="translate(-4177 -20881)">
      <g id="Group-2" data-name="Group" transform="translate(13.899 9.29)">
        <path id="Path" d="M19.606,46.439C17.59,40.849,15.347,35.3,12.891,29.9,8,19.16,6.874,8.982,0,0" transform="translate(306.531 35.246)" fill="none" stroke="#b2ede0" stroke-miterlimit="10" stroke-width="2"/>
        <path id="Path-2" data-name="Path" d="M104.578,24.951c-5.915-6.017-11.448-12.484-21.5-17.314C61.835-2.537,34.672-3.568,0,10.82" transform="translate(186.019)" fill="none" stroke="#b2ede0" stroke-miterlimit="10" stroke-width="2"/>
        <path id="Path-3" data-name="Path" d="M40.253,156.094C6.657,108.6-4.21,54.912,1.4,0" transform="translate(0 263.16)" fill="none" stroke="#b2ede0" stroke-miterlimit="10" stroke-width="2"/>
        <path id="Path-4" data-name="Path" d="M37.258,0V.586c-.329,10.658,9.519,54.84,37.453,68.874s47.849,75.64-15.129,99.807S.033,233.791.033,233.791" transform="translate(307.782 185.464)" fill="none" stroke="#b2ede0" stroke-miterlimit="10" stroke-width="2"/>
      </g>
      <path id="Path-5" data-name="Path" d="M199.913,65.725V13.531A13.565,13.565,0,0,0,186.382,0H13.531A13.565,13.565,0,0,0,0,13.531V258.953a13.526,13.526,0,0,0,13.531,13.5H186.382a12.79,12.79,0,0,0,4.893-.94" fill="none" stroke="#000" stroke-linecap="round" stroke-linejoin="round" stroke-miterlimit="10" stroke-width="2"/>
    </g>
    <rect id="Rectangle" width="187.773" height="255.94" rx="24.95" transform="translate(-4170.93 -20872.734)" fill="#b2ede0"/>
    <rect id="Rectangle-2" data-name="Rectangle" width="167.716" height="47.922" rx="12.48" transform="translate(-4159.875 -20852.93)" fill="#00c29a"/>
    <g id="Group-3" data-name="Group" transform="translate(-4102.759 -20842.656)">
      <circle id="Oval" cx="4.956" cy="4.956" r="4.956" transform="translate(20.759 0)" fill="#fff"/>
      <path id="Path-6" data-name="Path" d="M0,13.85a13.85,13.85,0,1,1,27.7,0Z" transform="translate(11.865 13.531)" fill="#fff"/>
      <path id="Shape" d="M7.823,45.593a26.7,26.7,0,1,1,18.891,7.823A26.7,26.7,0,0,1,7.823,45.593Z" transform="translate(0 88.998)" fill="#fff"/>
    </g>
    <g id="Group-4" data-name="Group" transform="translate(-4143.103 -20783.613)">
      <path id="Path-7" data-name="Path" d="M0,.49H130.409" transform="translate(0 -0.49)" fill="none" stroke="#fff" stroke-miterlimit="10" stroke-width="2"/>
      <path id="Path-8" data-name="Path" d="M0,.49H130.409" transform="translate(0 12.343)" fill="none" stroke="#fff" stroke-miterlimit="10" stroke-width="2"/>
      <path id="Path-9" data-name="Path" d="M0,.49H130.409" transform="translate(0 95.005)" fill="none" stroke="#fff" stroke-miterlimit="10" stroke-width="2"/>
      <path id="Path-10" data-name="Path" d="M0,.49H69.824" transform="translate(30.293 107.145)" fill="none" stroke="#fff" stroke-miterlimit="10" stroke-width="2"/>
    </g>
    <path id="Path-11" data-name="Path" d="M0,246.414S23.2,154.2,95.48,131.682l29.377-7.01s4.646-20.749,2.936-22.929-5.222-6.647-11.656-5.678S93.072,97.344,88.814,77.012,100.291,8.351,141.183,1.123s41.847,22.8,41.847,22.8l-30.036,69.6,4.66,56.148.586,83.64Z" transform="translate(-4129.248 -20842.891)" fill="#fff"/>
    <g id="Clipped" transform="translate(-4147.396 -20844.313)">
      <g id="Group_5319" data-name="Group 5319">
        <g id="Group-5" data-name="Group" transform="translate(0.005 1.737)">
          <g id="Group-6" data-name="Group" transform="translate(51.129 2.517)">
            <path id="Path-12" data-name="Path" d="M212.475,37.472c-.484.14-6.666,1.938-9.1,6.22a5.716,5.716,0,0,0-5.174-3.275H125.608a5.7,5.7,0,0,0-5.566,4.423l-14.3,61.3c-.969-.189-1.938-.305-2.945-.4L69.06,97.32a6,6,0,0,0-7.112,3.813,5.687,5.687,0,0,0-.329,1.967,6.012,6.012,0,0,0,5.591,6l15.953,1.027c-15.363,7.226-34.063,21-49.663,33.662-15.183-23.772-.935-47.539,9.781-60.338C41.9,69.344,34.9,36.59,0,37.482,12.024,22.062,27.018,8.846,45.6,0c63.637,70.536,136.44,12.867,137.986,11.627a128.059,128.059,0,0,1,28.893,25.855" transform="translate(4.297 134.88)" fill="#001c3d"/>
            <path id="Path-13" data-name="Path" d="M210.159,89.652v12.189H0V84.575A53.3,53.3,0,0,0,24.634,79.59c9.917-4.515,18.482-11.53,25.807-19.533,7.533-8.284,11.67-19.77,16.471-29.76C74.121,15.255,83.669,4.539,98.823,0l-.969,4.166a5.726,5.726,0,0,0,5.566,7.02h72.958c-1.453,12.6-7.582,81.388,33.781,78.481" transform="translate(0 285.045)" fill="#001c3d"/>
            <path id="Path-14" data-name="Path" d="M111.259,54.132a80.593,80.593,0,0,1-2.529,19.315A16.021,16.021,0,0,1,96.076,85.36,14.377,14.377,0,0,0,91.232,74.7a70.115,70.115,0,0,0-.111-11.181c-.189-2.456-.484-4.748-.794-6.807a25.249,25.249,0,0,0-.8-3.464,12.412,12.412,0,0,0-3.391-2.572c-4.491-2.529-13.734-5.218-30.859-1.264a20.5,20.5,0,0,0-7.722,3.58.581.581,0,0,0-.136.116,23.525,23.525,0,0,1-5.547,4.161c-2.107.969-4.307,1.008-6.153-1.284-.048-.048-.073-.092-.116-.14-.969-1.264-1.894-2.907-3.6-3.231-3.6-.678-5.358,2.907-5.813,5.92a12.437,12.437,0,0,0,1.61,7.584,19.514,19.514,0,0,0,3.876,5.1,9.921,9.921,0,0,1,1.1,1.26,2.451,2.451,0,0,0-.441.121,8.033,8.033,0,0,0-.969.4c-4.36,1.962-7.465,6.879-7.533,12.634,0,.179-7.31.073-8.236,0-3.566-.329-7.078-1.356-9.587-4.045-7.121-7.63-7.087-18.952-4.161-27.807A115.718,115.718,0,0,1,12.77,29.6C22.784,13.24,38.32,1.167,57.989.082a65.178,65.178,0,0,1,14.1.824,53.232,53.232,0,0,1,6.526,1.453c20.051,8.749,32.778,28.583,32.662,51.773" transform="translate(65.153)" fill="#00c29a"/>
          </g>
          <path id="Path-15" data-name="Path" d="M17.662,14.722c-2.369,6.08-8.008,9.558-12.6,7.751S-1.324,14.31,1.04,8.231,9.048-1.332,13.636.479s6.4,8.168,4.026,14.248" transform="translate(198.267 228.489)" fill="#f2aa18"/>
          <g id="Group-7" data-name="Group" transform="translate(81.845 129.176)">
            <path id="Path-16" data-name="Path" d="M39,168.332s-12.867,89.7,38.6,79.755C128.791,238.189,148.164,29.949,0,0" transform="translate(107.269)" fill="none" stroke="#000" stroke-miterlimit="10" stroke-width="2"/>
            <path id="Path-17" data-name="Path" d="M25.77,0S-15.757,35.021,6.62,70.047" transform="translate(0 81.979)" fill="none" stroke="#000" stroke-miterlimit="10" stroke-width="2"/>
            <path id="Path-18" data-name="Path" d="M25.559,9.365a9.1,9.1,0,0,1-2.422-.62Q21.819,8.4,20.526,8A47.476,47.476,0,0,1,6.443.868,4.64,4.64,0,0,0,2.567.185,3.91,3.91,0,0,0,.048,3.271c-.363,2.5,1.4,4.946,3.323,6.55a28.93,28.93,0,0,0,7.417,4.811,51.744,51.744,0,0,0,8.236,2.534c1.274.3,2.568.484,3.832.809" transform="translate(121.648 134.051)" fill="none" stroke="#000" stroke-miterlimit="10" stroke-width="2"/>
            <path id="Path-19" data-name="Path" d="M41.14,0a30.5,30.5,0,0,1,.644,8.434c-.218,2.374-1.071,5.145-3.711,5.721a4.641,4.641,0,0,1-1.541.14C26.592,13.71,18.4,10.275,9.045,3.512S-3.6,12.324,4.942,15.086" transform="translate(122.006 119.15)" fill="none" stroke="#000" stroke-miterlimit="10" stroke-width="2"/>
            <path id="Path-20" data-name="Path" d="M4.559,1.942a7.751,7.751,0,0,1-.659-.6c-4.656-4.869-5.5,4.912-.61,7.79l.63.373c.329.14.683.305,1.032.484.165.044.349.116.518.165a98.721,98.721,0,0,0,13.754,4.442c-4.583-1.5-9.151-2.97-13.754-4.442-.4-.165-.775-.329-1.172-.518a2.035,2.035,0,0,0-.378-.116.518.518,0,0,0-.514.048.717.717,0,0,0-.233.349c-.751,1.8-.14,4.074.819,5.687a11.538,11.538,0,0,0,4.442,3.953,48.252,48.252,0,0,0,15.071,5,10.488,10.488,0,0,0,2.907.189" transform="translate(122.747 143.809)" fill="none" stroke="#000" stroke-miterlimit="10" stroke-width="2"/>
            <path id="Path-21" data-name="Path" d="M25.918,68.055S10.13,41.149,8.371,17.755C7.3,3.275,3.042.208,0,0" transform="translate(164.788 111.598)" fill="none" stroke="#000" stroke-miterlimit="10" stroke-width="2"/>
            <path id="Path-22" data-name="Path" d="M92.753,84.667l3.071-14.151,1.637-7.557L109.6,6.928A5.721,5.721,0,0,0,104.012,0h-72.6a5.707,5.707,0,0,0-5.566,4.423l-14.3,61.3L1.115,110.454l-.969,4.19a5.731,5.731,0,0,0,5.571,7.015H78.67" transform="translate(67.326 48.634)" fill="none" stroke="#000" stroke-miterlimit="10" stroke-width="2"/>
          </g>
          <path id="Path-23" data-name="Path" d="M0,18.651S3.842,2.359,25.535.2s27.13,14.047,27.13,14.047l-.683,1.633S23.462,4.437,7.712,20.768c0,0-5.673,2.572-7.712-2.107" transform="translate(151.914 38.241)" fill="#00c29a"/>
          <g id="Group-8" data-name="Group" transform="translate(0 137.397)">
            <path id="Path-24" data-name="Path" d="M41.157,8.6,7.415.175A5.978,5.978,0,1,0,5.574,11.943l15.953,1.051" transform="translate(116.609 97.131)" fill="none" stroke="#000" stroke-miterlimit="10" stroke-width="2"/>
            <path id="Path-25" data-name="Path" d="M138.005,11.6S64.306,71.306,0,0" transform="translate(100.567)" fill="none" stroke="#000" stroke-miterlimit="10" stroke-width="2"/>
            <path id="Path-26" data-name="Path" d="M43.3,45.988C41.924,31.881,34.934-.9,0,.019" transform="translate(54.951 37.453)" fill="none" stroke="#000" stroke-miterlimit="10" stroke-width="2"/>
            <path id="Path-27" data-name="Path" d="M9.108,0S2.524,1.812,0,6.24" transform="translate(258.352 37.462)" fill="none" stroke="#000" stroke-miterlimit="10" stroke-width="2"/>
            <path id="Path-28" data-name="Path" d="M0,.49H312.911" transform="translate(0 252.242)" fill="none" stroke="#000" stroke-miterlimit="10" stroke-width="2"/>
          </g>
          <path id="Path-29" data-name="Path" d="M9.166,0A14.459,14.459,0,0,1,14.01,11.113c0,7.606-5.285,13.758-11.816,13.758A9.96,9.96,0,0,1,0,24.615C7.606,18.8,9.146,0,9.146,0" transform="translate(198.348 77.238)" fill="#f2aa18" stroke="#707070" stroke-width="2"/>
          <g id="Group-9" data-name="Group" transform="translate(108.338)">
            <path id="Path-30" data-name="Path" d="M13.482,69.7a28.922,28.922,0,0,0,23.738.916c21.4-8.938,20.584-35.282,18.361-49.6a27.13,27.13,0,0,0-.756-3.44C52.369,9.386,45.96,2.715,37.516.821,21.161-2.875,6.206,6.4,0,18.881" transform="translate(42.669 38.238)" fill="none" stroke="#000" stroke-miterlimit="10" stroke-width="2"/>
            <path id="Path-31" data-name="Path" d="M42.3,6.094a2.8,2.8,0,0,0-.208-.257C40.636,4.2,32.221-3.614,7.863,2A20.444,20.444,0,0,0,.145,5.581.61.61,0,0,0,0,5.7" transform="translate(55.401 49.974)" fill="none" stroke="#000" stroke-miterlimit="10" stroke-width="2"/>
            <path id="Path-32" data-name="Path" d="M32.772,95.754H20.724c-8.7,0-15.59-7.964-18.588-15.439C-2.079,69.8.619,59.043,4.412,48.825a103.837,103.837,0,0,1,12.533-24.3C28.843,7.889,46.807-1.538,67.454.206Q70.2.439,72.923.884c27.725,4.5,46.42,27.677,46.279,55.75a80.622,80.622,0,0,1-2.529,19.33,16.069,16.069,0,0,1-12.659,11.913" fill="none" stroke="#000" stroke-miterlimit="10" stroke-width="2"/>
            <path id="Path-33" data-name="Path" d="M6.7,19.946a10.348,10.348,0,0,0-1.1-1.264,19.412,19.412,0,0,1-3.876-5.1A12.437,12.437,0,0,1,.1,6C.547,3.009,2.3-.6,5.915.083c1.71.329,2.621,1.967,3.6,3.231,3.74,4.844,8.89-.024,12.048-2.95" transform="translate(34.037 55.05)" fill="none" stroke="#000" stroke-miterlimit="10" stroke-width="2"/>
            <path id="Path-34" data-name="Path" d="M9.166,0A14.459,14.459,0,0,1,14.01,11.113c0,7.606-5.285,13.758-11.816,13.758A9.96,9.96,0,0,1,0,24.615" transform="translate(90.01 77.238)" fill="none" stroke="#000" stroke-miterlimit="10" stroke-width="2"/>
            <path id="Path-35" data-name="Path" d="M0,22.638c2.645,1.778,9.035,3.236,7.751-2.035C6.211,14.359,4.137,1.017,16.835,0c0,0,5.591.237,8.352,2.136" transform="translate(73.892 63.935)" fill="none" stroke="#000" stroke-miterlimit="10" stroke-width="2"/>
            <path id="Path-36" data-name="Path" d="M9.563,3.367S3.168,6.758,0,0" transform="translate(69.111 93.647)" fill="none" stroke="#000" stroke-miterlimit="10" stroke-width="2"/>
          </g>
          <path id="Path-37" data-name="Path" d="M.043,3.619c-.247,2.146.591,4,1.875,4.152S4.442,6.317,4.694,4.157,4.1.16,2.819.01.29,1.463.043,3.619" transform="translate(174 69.439)"/>
          <path id="Path-38" data-name="Path" d="M.043,3.618C-.2,5.76.634,7.62,1.918,7.77S4.442,6.317,4.689,4.156,4.1.155,2.819.009.29,1.463.043,3.618" transform="translate(194.822 70.704)"/>
          <g id="Group-10" data-name="Group" transform="translate(11.208 62.529)">
            <path id="Path-39" data-name="Path" d="M12.785,2.777S8.87-3.259,0,2.467" transform="translate(158.238)" fill="none" stroke="#000" stroke-miterlimit="10" stroke-width="2"/>
            <path id="Path-40" data-name="Path" d="M.49,0V33.485" transform="translate(177.412 45.927)" fill="none" stroke="#000" stroke-miterlimit="10" stroke-width="2"/>
            <path id="Path-41" data-name="Path" d="M0,65.781S13.8,52.7,31.727,38.168c15.6-12.659,34.318-26.461,49.69-33.689,1.967-.916,3.876-1.734,5.731-2.422a31.363,31.363,0,0,1,13.9-1.938,28.584,28.584,0,0,1,2.945.4" transform="translate(45.521 180.519)" fill="none" stroke="#000" stroke-miterlimit="10" stroke-width="2"/>
            <path id="Path-42" data-name="Path" d="M139.078,186.411c-15.158,4.539-24.707,15.255-31.911,30.3-4.791,9.989-8.938,21.476-16.471,29.76-7.32,8-15.885,15.018-25.8,19.533C46.9,274.191,24.75,273.561,13.06,255.758,5.152,243.683,2.042,228.684.462,214.577c-2.713-24.518,5.852-93.63,43.281-141.566,12.024-15.42,27.023-28.636,45.6-37.482A122.165,122.165,0,0,1,133.817,24.14L138.5,0" transform="translate(0 39.324)" fill="none" stroke="#000" stroke-miterlimit="10" stroke-width="2"/>
            <path id="Path-43" data-name="Path" d="M.49,0V12.1" transform="translate(249.924 315.499)" fill="none" stroke="#000" stroke-miterlimit="10" stroke-width="2"/>
            <path id="Path-44" data-name="Path" d="M.49,0V16.423" transform="translate(39.765 311.178)" fill="none" stroke="#000" stroke-miterlimit="10" stroke-width="2"/>
          </g>
          <path id="Path-45" data-name="Path" d="M19.7,13.758a14.814,14.814,0,0,1-3.624,9.9,10.125,10.125,0,0,1-4.258.935C5.291,24.591,0,18.438,0,10.832A14.781,14.781,0,0,1,3.63.94,10.072,10.072,0,0,1,7.888,0C14.414,0,19.7,6.157,19.7,13.758" transform="translate(144.016 74.593)" fill="#f2aa18"/>
          <ellipse id="Oval-2" data-name="Oval" cx="11.801" cy="13.758" rx="11.801" ry="13.758" transform="translate(140.112 74.593)" fill="none" stroke="#000" stroke-miterlimit="10" stroke-width="2"/>
        </g>
      </g>
    </g>
    <path id="Path-46" data-name="Path" d="M49.317,1.6a38.359,38.359,0,1,0,25.8,47.718A38.359,38.359,0,0,0,49.317,1.6Z" transform="translate(-3904.488 -20876.063)" fill="#b2ede0"/>
    <path id="Path-47" data-name="Path" d="M4,10.981a5.607,5.607,0,1,1,6.976-3.769A5.607,5.607,0,0,1,4,10.981Z" transform="translate(-3878.446 -20820.799)" fill="#fff"/>
    <path id="Path-48" data-name="Path" d="M16.539,15.345q-.121.291-.233.567A125.123,125.123,0,0,1,4.636,38C3.517,39.693.01,38.647,0,36.612A142.713,142.713,0,0,1,1.453,17.719c.562-4.573.126-12.4,3.822-15.919C8.555-1.349,14.742,0,17.658,3.025c3.222,3.357.431,8.633-1.134,12.32Z" transform="translate(-3871.603 -20864.373)" fill="#fff"/>
    <path id="Shape-2" data-name="Shape" d="M1.524,26.682a19.189,19.189,0,1,1,17.83,11.7h-.166a19.187,19.187,0,0,1-17.663-11.7Z" transform="translate(-3834.141 -20660.246)" fill="#00c29a"/>
    <path id="Path-49" data-name="Path" d="M27.214,24.989A15.323,15.323,0,1,0,16.9,30.566a15.323,15.323,0,0,0,10.314-5.577Z" transform="translate(-3780.612 -20833.191)" fill="#00c29a"/>
    <path id="Path-50" data-name="Path" d="M.5.828A2.24,2.24,0,1,1,.148,3.04,2.24,2.24,0,0,1,.5.828Z" transform="translate(-3774.812 -20826.031)" fill="#fff"/>
    <path id="Path-51" data-name="Path" d="M6.742,9.335A66.369,66.369,0,0,1,.12,1.55C-.336.876.6-.257,1.34.053a57.045,57.045,0,0,1,6.777,3.44c1.6.906,4.559,1.938,5.29,3.847.659,1.691-.785,3.769-2.35,4.36-1.933.746-3.173-1.168-4.316-2.393Z" transform="translate(-3769.46 -20821.457)" fill="#fff"/>
    <path id="Path-52" data-name="Path" d="M12.785,74.077c5.406,9.2,5.159,15.759,3.754,26.383a4.84,4.84,0,0,0,7.325,4.748c31.2-17.925,60.329-3.75,97.534-12.538,13.661-3.207,30.695-9.854,42.37-20.541a34.847,34.847,0,0,0,5.944-19.465C169.712,23.6,129.988,0,81,0,49.6,0,22.013,9.689,6.245,24.285l-.044.044A34.674,34.674,0,0,0,0,43.707C-.024,54.137,7.732,65.444,12.785,74.077Z" transform="translate(-3918.493 -20781.254)" fill="#00c29a"/>
    <path id="Path-53" data-name="Path" d="M0,52.678v.736C.174,63.588,5.281,73.069,11.326,81.27c4.05,5.484,8.856,11.578,7.717,18.3-.484,2.965-2.156,5.654-2.572,8.628s1.168,6.685,4.171,6.84c1.909.1,3.532-1.26,5.043-2.422,8.938-6.928,20.555-9.519,31.853-9.975s22.58,1.04,33.882,1.359c16.3.484,32.851-1.57,47.9-7.819,13.487-5.591,25.845-14.766,33.96-27.023,7.974-12.034,3.26-29.508-5.247-39.972-7.974-9.82-19.528-16.1-31.378-20.531-31.872-11.9-68.249-11.627-99.68,1.41-9.33,3.876-18.356,8.914-25.351,16.2C4.811,33.373.073,42.839,0,52.678Z" transform="translate(-3918.377 -20790.227)" fill="none" stroke="#000" stroke-miterlimit="10" stroke-width="2"/>
    <g id="Group-11" data-name="Group" transform="translate(-3879.771 -20750.441)">
      <circle id="Oval-3" data-name="Oval" cx="12.237" cy="12.237" r="12.237" transform="translate(79.929 0)" fill="#fff"/>
      <circle id="Oval-4" data-name="Oval" cx="12.237" cy="12.237" r="12.237" transform="translate(40.35 0)" fill="#fff"/>
      <circle id="Oval-5" data-name="Oval" cx="12.237" cy="12.237" r="12.237" transform="translate(0 0)" fill="#fff"/>
    </g>
  </g>
</svg>
