<svg xmlns="http://www.w3.org/2000/svg" width="438.212" height="537.064" viewBox="0 0 438.212 537.064">
  <g id="Group_5520" data-name="Group 5520" transform="translate(10557.859 22948)">
    <g id="Group_5108" data-name="Group 5108" transform="translate(-10556.647 -22947)">
      <g id="Group" transform="translate(0 76.317)">
        <path id="Path" d="M0,69.351c.8-.208,1.611-.44,2.378-.672,13.675-4,27.142-10.762,36.542-21.672,9.192-10.637,15.221-23.782,25.649-33.4A51.418,51.418,0,0,1,110.3,1.166,112.872,112.872,0,0,1,134.852,9.3a100.332,100.332,0,0,1,32.855,24.252c15.12,16.814,24.377,38.3,28.355,61.335q1.284,7.569,1.819,15.328a164.312,164.312,0,0,1-.059,23.58,170.413,170.413,0,0,1-10.649,47.928,255.547,255.547,0,0,1-14.067,30.513c-2.664,4.9-5.446,9.757-8.36,14.513" transform="translate(237.724)" fill="none" stroke="#b2ede0" stroke-miterlimit="10" stroke-width="2"/>
        <path id="Path-2" data-name="Path" d="M48.873,90.088A69.9,69.9,0,0,1,4.043,0,102,102,0,0,1,18.7,13.425c15.12,16.814,24.377,38.3,28.355,61.335q1.272,7.575,1.819,15.328Z" transform="translate(386.727 20.103)" fill="none" stroke="#b2ede0" stroke-miterlimit="10" stroke-width="2"/>
        <path id="Path-3" data-name="Path" d="M52.173,0S-37.178,77.436,17.98,167.482c10.6,17.3,18.8,31.643,25.126,43.516.4.731.773,1.445,1.153,2.152,25.275,47.934,19.074,54.1,19.074,54.1" transform="translate(0 151.483)" fill="none" stroke="#b2ede0" stroke-miterlimit="10" stroke-width="2"/>
        <path id="Path-4" data-name="Path" d="M33.3,3.6A264.632,264.632,0,0,1,0,0" transform="translate(156.578 70.504)" fill="none" stroke="#b2ede0" stroke-miterlimit="10" stroke-width="2"/>
        <path id="Path-5" data-name="Path" d="M93.227,0V13.08a3,3,0,0,1-2.408,2.931,2.462,2.462,0,0,1-.6.065H0" transform="translate(63.333 402.686)" fill="none" stroke="#b2ede0" stroke-miterlimit="10" stroke-width="2"/>
        <path id="Path-6" data-name="Path" d="M113.46,86.176V7.063A7.028,7.028,0,0,0,106.427,0H2.973A2.973,2.973,0,0,0,0,3.014V107.021" transform="translate(43.1 255.448)" fill="none" stroke="#b2ede0" stroke-miterlimit="10" stroke-width="2"/>
        <path id="Path-7" data-name="Path" d="M113.43,32.083V0H0V52.892" transform="translate(43.106 309.583)" fill="none" stroke="#b2ede0" stroke-miterlimit="10" stroke-width="2"/>
        <path id="Path-8" data-name="Path" d="M98.394.49H0" transform="translate(44.259 364.144)" fill="none" stroke="#b2ede0" stroke-miterlimit="10" stroke-width="2"/>
        <circle id="Oval" cx="8.264" cy="8.264" r="8.264" transform="translate(91.563 328.841)" fill="none" stroke="#b2ede0" stroke-miterlimit="10" stroke-width="2"/>
        <circle id="Oval-2" data-name="Oval" cx="8.264" cy="8.264" r="8.264" transform="translate(91.563 276.014)" fill="none" stroke="#b2ede0" stroke-miterlimit="10" stroke-width="2"/>
        <circle id="Oval-3" data-name="Oval" cx="8.264" cy="8.264" r="8.264" transform="translate(91.563 384.54)" fill="none" stroke="#b2ede0" stroke-miterlimit="10" stroke-width="2"/>
        <path id="Path-9" data-name="Path" d="M176.085,11.493H0V0H181.555" transform="translate(33.325 243.979)" fill="none" stroke="#b2ede0" stroke-miterlimit="10" stroke-width="2"/>
        <path id="Path-10" data-name="Path" d="M45.359.018,40.008,29.906a3.627,3.627,0,0,1-3.567,2.973H8.5a3.621,3.621,0,0,1-3.567-3.038L0,0Z" transform="translate(87.3 210.274)" fill="none" stroke="#b2ede0" stroke-miterlimit="10" stroke-width="2"/>
        <path id="Path-11" data-name="Path" d="M55.435,3.924A3.621,3.621,0,0,1,51.821,7.26H3.631a3.63,3.63,0,1,1,0-7.26h48.2a3.627,3.627,0,0,1,3.6,3.924Z" transform="translate(82.289 203.032)" fill="none" stroke="#b2ede0" stroke-miterlimit="10" stroke-width="2"/>
        <path id="Path-12" data-name="Path" d="M12.89,60.146c0-1.528,3.894-20.607.666-37.523C11.772,13.348,7.872,4.721,0,0" transform="translate(98.638 142.886)" fill="none" stroke="#b2ede0" stroke-miterlimit="10" stroke-width="2"/>
        <path id="Path-13" data-name="Path" d="M0,13.734S.892.886,12,0" transform="translate(112.194 151.775)" fill="none" stroke="#b2ede0" stroke-miterlimit="10" stroke-width="2"/>
        <path id="Path-14" data-name="Path" d="M0,3.142A17.421,17.421,0,0,1,10.821.02" transform="translate(113.347 181.976)" fill="none" stroke="#b2ede0" stroke-miterlimit="10" stroke-width="2"/>
        <path id="Path-15" data-name="Path" d="M20.929,4.909S12.884-4.646,0,2.9" transform="translate(92.419 171.088)" fill="none" stroke="#b2ede0" stroke-miterlimit="10" stroke-width="2"/>
        <path id="Path-16" data-name="Path" d="M21.7,5.9S3.532-10.684,0,11.749c0,0,5.107,3.335,12.664,0S21.7,5.9,21.7,5.9Z" transform="translate(85.998 166.246)" fill="none" stroke="#b2ede0" stroke-miterlimit="10" stroke-width="2"/>
        <path id="Path-17" data-name="Path" d="M.012,10.289s-.66-7.468,8-9.911S21.547,8.154,21.547,8.154,14.893,15.515.012,10.289Z" transform="translate(116.178 145.398)" fill="none" stroke="#b2ede0" stroke-miterlimit="10" stroke-width="2"/>
        <path id="Path-18" data-name="Path" d="M0,6.2S-.3-1.346,9.781.212s11.7,10.149,11.7,10.149S4.983,16.414,0,7" transform="translate(118.192 175.785)" fill="none" stroke="#b2ede0" stroke-miterlimit="10" stroke-width="2"/>
        <path id="Path-19" data-name="Path" d="M18.914,16.431c0,.535-7.581-.678-8.056-.82a13.111,13.111,0,0,1-7.991-7C2.337,7.572-.7,1.722.149.7.149.717,18.17-5.092,18.914,16.431Z" transform="translate(87.145 133.441)" fill="none" stroke="#b2ede0" stroke-miterlimit="10" stroke-width="2"/>
      </g>
      <path id="Path-20" data-name="Path" d="M9.923,4.7S21.464,45.946,0,61.363c.262,1.272,20.477-1.189,20.477-1.189l-1.13,22.237s23.331,9.073,34.175,9.174,21.63-10.3,24.282-15.6,49.438,3.1,45.353,37.8c0,0-29.823,31.238-62.756,21.452,0,0-22.468-8.871-13.568,1.534s59.962,46.548,65.86,118.389c0,0,42.66-25.774,44.824-105.1s-20.685-111.9-44.075-136.7c0,0-17.712-12.438-20.453-8.675S72.311,23.062,66.359,22.051,51.5,21.456,54.283,14.464s4.971-3.787,3.96-9.031S57-.412,50.781.189,9.923,4.7,9.923,4.7Z" transform="translate(253.343 230.043)" fill="#f2aa18"/>
      <g id="Group-2" data-name="Group" transform="translate(82.014 148.086)">
        <path id="Path-21" data-name="Path" d="M79.332.006C73.981,5.22,68.523,10.6,63.124,16.059H8.342a8.033,8.033,0,1,1,0-16.053Z" transform="translate(0 330.916)" fill="#001c3d"/>
        <path id="Path-22" data-name="Path" d="M37.837,35.2a36.726,36.726,0,0,1-.268,4.126v.042l-2.64,9.067V48.5c-5.8,12.414-18.848,18.11-25.673,20.334a43.95,43.95,0,0,1-4.334,1.189,18.517,18.517,0,0,1,2.45-16.731c1.57-2.236,3.877-3.894,5.2-6.279,1.255-2.242,1.379-4.923-.505-6.826A7.509,7.509,0,0,0,9.9,38.658a5.042,5.042,0,0,0-4.459-.107c-.268.149-.523.273-.773.4-2.973-2.075-.922-5.089,0-7.664a7.075,7.075,0,0,0,.273-.945.327.327,0,0,1,0-.083A16.615,16.615,0,0,0,2.014,15.536,10.3,10.3,0,0,1,.9,13.865,7.628,7.628,0,0,1,.546,7.432,12.843,12.843,0,0,1,4.066,2.6h0A10.892,10.892,0,0,1,9.637,0c9.127,1.237,18.782,8.877,19.412,9.4a.054.054,0,0,0,.042,0c5.232,6.023,8.853,14.472,8.746,25.8Z" transform="translate(252.82 3.563)" fill="#00c29a"/>
        <path id="Path-23" data-name="Path" d="M42.553,12.921c-.9-.731-19.662-15.6-29.633-6.8A41.2,41.2,0,0,0,.339,10.43H0S3.08-.124,15.75,0a38.059,38.059,0,0,1,26.8,12.921Z" transform="translate(239.34)" fill="#00c29a"/>
        <path id="Path-24" data-name="Path" d="M28.016,21.469c-1.552,8.568-8.692,16.017-8.377,24.793.3,8.324,3.96,16.4,4.858,24.71a64.6,64.6,0,0,1-.4,12.944v.226C18.907,74.51,5.761,61.192,0,55.6a39.241,39.241,0,0,1,3.246-5.63,80.186,80.186,0,0,0,9.549-16.9c1.552-3.87,3.728-9.57,1.784-13.67a5.089,5.089,0,0,0-1.4-1.843,7.729,7.729,0,0,0-.672-2.426,4.471,4.471,0,0,0-4-2.765,9.84,9.84,0,0,0-3.853.541v-.166a29.948,29.948,0,0,0,2.64-9.067V3.633C10.113.993,15.227-1.9,22.284,1.647a10.849,10.849,0,0,1,5.523,7.135C29.021,12.842,28.7,17.676,28.016,21.469Z" transform="translate(283.415 39.302)" fill="#00c29a"/>
      </g>
      <g id="Group-3" data-name="Group" transform="translate(82.014 86.546)">
        <path id="Path-25" data-name="Path" d="M262.219,97.443a360.2,360.2,0,0,0-51.424-59.7c-4.293-4.019-8.526-7.86-12.67-11.427C189.6,18.9,181.478,12.45,174.236,7a34.829,34.829,0,0,0-43.017.88,33.979,33.979,0,0,0-7.83,9.025L37.636,158.694H8.342a8.033,8.033,0,1,0,0,16.053H63.124c5.4-5.464,10.845-10.845,16.208-16.053,32.106-31.244,62.251-57.209,73.9-67.072" transform="translate(0 233.767)" fill="none" stroke="#000" stroke-miterlimit="10" stroke-width="2"/>
        <path id="Path-26" data-name="Path" d="M.192,54.492A101.325,101.325,0,0,1,12.226,0" transform="translate(190.483 171.416)" fill="none" stroke="#000" stroke-miterlimit="10" stroke-width="2"/>
        <path id="Path-27" data-name="Path" d="M124.2,0C113.032,46.429,76.365,28.688,76.365,28.688L62.173,23.729l-32.148-11.2a16.907,16.907,0,0,0-16.017.916C9.846,16.125.333,27.374,0,38.51" transform="translate(131.225 203.118)" fill="none" stroke="#000" stroke-miterlimit="10" stroke-width="2"/>
        <path id="Path-28" data-name="Path" d="M0,163.492q2.741,7.985,5.654,15.12c43.665,106.777,119.3,80.159,119.3,80.159C191.8,226.338,193.923,103.9,159.587,38.189c-.184-.4-.4-.773-.6-1.189-6.4-11.974-14.864-22.95-26.28-30.067a54.289,54.289,0,0,0-10.3-4.988Q119.3.844,115.981,0" transform="translate(147.576 146.777)" fill="none" stroke="#000" stroke-miterlimit="10" stroke-width="2"/>
        <path id="Path-29" data-name="Path" d="M0,9.632c15.262-4,30.917-6.094,46.673-7.813C54.587.963,63.57.184,72.745,0" transform="translate(155.811 143.673)" fill="none" stroke="#000" stroke-miterlimit="10" stroke-width="2"/>
        <path id="Path-30" data-name="Path" d="M.564,37.492s-2.8-16.243,4.079-22.29c3.062-2.687,3.6-6.189,4.281-9.971.922-5.131,6.356-7.3,9.7-2.741,3.014,4.114,2,11.576,2,16.3" transform="translate(135.014 37.956)" fill="none" stroke="#000" stroke-miterlimit="10" stroke-width="2"/>
        <path id="Path-31" data-name="Path" d="M6.741,56.707s-7.807.25-6.617-16.648v-.042c.2-2.67,2.188-6.956,4.81-7.474l2.033-.4a6.713,6.713,0,0,0,5.4-6.576V6.752A6.665,6.665,0,0,1,17.538.128a6.487,6.487,0,0,1,7.771,6.344l.172,154.075" transform="translate(130.323)" fill="none" stroke="#000" stroke-miterlimit="10" stroke-width="2"/>
        <path id="Path-32" data-name="Path" d="M14.614,23.039C.88,24.668-.167,7.581.017.083V0" transform="translate(120.399 42.485)" fill="none" stroke="#000" stroke-miterlimit="10" stroke-width="2"/>
        <path id="Path-33" data-name="Path" d="M.061,0S-1.586,21.939,12.2,10.577" transform="translate(111.918 50.089)" fill="none" stroke="#000" stroke-miterlimit="10" stroke-width="2"/>
      </g>
      <path id="Path-34" data-name="Path" d="M29.276,38.528a6.944,6.944,0,0,1-10.2.666,20.322,20.322,0,0,0-3.353-2.378C22.575,15.2.589.381,0,0,3.014,1.07,5.886,2.093,8.562,3.1q2.972,1.1,5.654,2.114A26.161,26.161,0,0,1,28.705,18.806C31.036,23.878,33.253,33.795,29.276,38.528Z" transform="translate(315.13 493.985)" fill="#001c3d"/>
      <g id="Group-4" data-name="Group" transform="translate(292.81 148.11)">
        <path id="Path-35" data-name="Path" d="M95.76,0c15.994,22.7,4.067,54.361-12.046,73.476C61.781,99.5,30.019,102.223,0,87.7" transform="translate(0 122.249)" fill="none" stroke="#000" stroke-miterlimit="10" stroke-width="2"/>
        <path id="Path-36" data-name="Path" d="M14.036,54.159c-3.02-4.453-6.51-9.513-7.616-13.08A18.49,18.49,0,0,1,8.881,24.347c1.564-2.236,3.859-3.894,5.2-6.29,1.255-2.241,1.373-4.917-.511-6.826C11.931,9.572,9.28,8.455,6.949,9.6c-1.986.975-3.05,2.051-5.351.458-3.425-2.378-.363-5.946.19-8.687.1-.452.19-.9.309-1.373" transform="translate(40.497 32.47)" fill="none" stroke="#000" stroke-miterlimit="10" stroke-width="2"/>
        <path id="Path-37" data-name="Path" d="M0,0,5.708,29.383l1.171,6.059" transform="translate(14.079 63.197)" fill="none" stroke="#000" stroke-miterlimit="10" stroke-width="2"/>
        <path id="Path-38" data-name="Path" d="M5.051,3.716C.294,8.342-4,14.858,6.46,16.987,20.42,19.829,35.552,5.018,40.219,0" transform="translate(14.314 86.629)" fill="none" stroke="#000" stroke-miterlimit="10" stroke-width="2"/>
        <path id="Path-39" data-name="Path" d="M0,10.418S3.08-.118,15.738,0,51.632,10.317,51.37,38.743,18.4,73.56,18.4,73.56" transform="translate(28.503)" fill="none" stroke="#000" stroke-miterlimit="10" stroke-width="2"/>
      </g>
      <path id="Icon_awesome-globe-africa" data-name="Icon awesome-globe-africa" d="M42.164.563A42.164,42.164,0,1,0,84.328,42.727,42.164,42.164,0,0,0,42.164.563ZM69.367,37.2v1.178a2.634,2.634,0,0,1-1.457,2.356l-2.617,1.309a2.633,2.633,0,0,1-2.64-.165l-3.1-2.064a2.639,2.639,0,0,0-2.3-.308l-.451.15a2.634,2.634,0,0,0-1.358,3.961L57.7,47a2.633,2.633,0,0,0,2.2,1.169h1.4A2.635,2.635,0,0,1,63.926,50.8v1.928a2.638,2.638,0,0,1-.527,1.581L60.213,58.56a2.648,2.648,0,0,0-.481,1.093L59,63.535a2.641,2.641,0,0,1-.809,1.455,27.136,27.136,0,0,0-4.25,4.958l-2.215,3.324a4.718,4.718,0,0,1-8.145-.507,13.415,13.415,0,0,1-1.416-6V61.683a2.635,2.635,0,0,0-2.635-2.635h-4.4a9.288,9.288,0,0,1-9.288-9.288V47.37a9.29,9.29,0,0,1,3.714-7.429l4.69-3.519a9.294,9.294,0,0,1,5.573-1.858h.151a9.269,9.269,0,0,1,4.154.981l2.5,1.251a2.633,2.633,0,0,0,2.011.143l8.043-2.681a2.635,2.635,0,0,0-.833-5.135H54.132a2.634,2.634,0,0,1-1.863-.772l-1.177-1.177a2.634,2.634,0,0,0-1.863-.772H33.918a2.635,2.635,0,0,1-2.635-2.635V23.02a2.637,2.637,0,0,1,2-2.557l2.457-.614a2.64,2.64,0,0,0,1.554-1.095L38.663,16.7a2.633,2.633,0,0,1,2.192-1.173h4.116a2.635,2.635,0,0,0,2.635-2.635V9.2A34.051,34.051,0,0,1,75.135,34.566H72A2.635,2.635,0,0,0,69.367,37.2Z" transform="translate(189.426 2.189)" fill="#00c29a"/>
      <g id="Group-5" data-name="Group" transform="translate(48.683)">
        <path id="Path-40" data-name="Path" d="M33.788,9.607S14.316-6.238,4.107,2.77c0,0-7.634,6.094-2.087,12.979a16.687,16.687,0,0,1,2.9,14.816" transform="translate(281.478 151.43)" fill="none" stroke="#000" stroke-miterlimit="10" stroke-width="2"/>
        <path id="Path-41" data-name="Path" d="M7.438.6c2.557-.838,6.219-1.3,7.854,2.218,1.95,4.126-.232,9.822-1.784,13.675a80.872,80.872,0,0,1-9.549,16.9A39.58,39.58,0,0,0,0,40.616" transform="translate(313.601 199.658)" fill="none" stroke="#000" stroke-miterlimit="10" stroke-width="2"/>
        <path id="Path-42" data-name="Path" d="M16.8,84.167v-.226A65.594,65.594,0,0,0,17.195,71c-.9-8.324-4.566-16.374-4.858-24.71-.315-8.776,6.826-16.226,8.371-24.793,1.189-6.576,1.3-16.374-5.714-19.87S2.83.976,0,3.61" transform="translate(323.697 187.363)" fill="none" stroke="#000" stroke-miterlimit="10" stroke-width="2"/>
        <path id="Path-43" data-name="Path" d="M18.39,57.515c-3.972.547-7.979.666-11.231-.47C.8,54.792-2.7,47.675,2.568,29.136,9.156,5.978,28.087,1,34.49,0a3.217,3.217,0,0,0-1.415.262" transform="translate(251.048 154.262)" fill="none" stroke="#000" stroke-miterlimit="10" stroke-width="2"/>
        <ellipse id="Oval-4" data-name="Oval" cx="10.577" cy="3.579" rx="10.577" ry="3.579" transform="translate(259.401 177.597) rotate(-47.472)" fill="none" stroke="#000" stroke-miterlimit="10" stroke-width="2"/>
        <path id="Path-44" data-name="Path" d="M13,9.8A107.968,107.968,0,0,1,0,0" transform="translate(273.124 173.13)" fill="none" stroke="#000" stroke-miterlimit="10" stroke-width="2"/>
        <path id="Path-45" data-name="Path" d="M.167,6.552c-1.3,8.669,3.752,25.025,58.445,28.254,65.354,3.853,99.292,18.36,110.125,24.972a19.948,19.948,0,0,1,3.347,2.378,6.95,6.95,0,0,0,10.2-.666c3.978-4.756,1.784-14.68-.6-19.728A26.161,26.161,0,0,0,167.2,28.17q-2.67-1.011-5.654-2.117c-2.676-1-5.547-2.027-8.562-3.1-7.973-2.848-16.981-5.946-26.4-8.918-8.419-2.64-17.147-5.214-25.756-7.456-.815-.208-1.587-.422-2.378-.595A243.99,243.99,0,0,0,67.739,0" transform="translate(113.436 470.988)" fill="none" stroke="#000" stroke-miterlimit="10" stroke-width="2"/>
        <path id="Path-46" data-name="Path" d="M0,2.848A93.941,93.941,0,0,1,14.513,0" transform="translate(214.25 474.757)" fill="none" stroke="#000" stroke-miterlimit="10" stroke-width="2"/>
        <path id="Path-47" data-name="Path" d="M16.845,4.542A8.523,8.523,0,0,0,15.787.6C14.741-.892,13.1.755,12.35,1.7,8.236,6.879,6.55,13.526,4.888,19.8A128.943,128.943,0,0,0,1.529,37.326C.144,48.623.144,60.074.043,71.46a309.1,309.1,0,0,0,1.718,38.111c2.194,21.487,10.006,43.034,32.6,49.711,16.422,4.881,35.674,4.649,53.861,2.806" transform="translate(136.914 128.099)" fill="none" stroke="#000" stroke-miterlimit="10" stroke-width="2"/>
        <path id="Path-48" data-name="Path" d="M.006,7.087A6.939,6.939,0,0,1,4.311.374C6.743-.535,10.132.13,10.06,3.288a.684.684,0,0,1,0,.113" transform="translate(153.7 123.205)" fill="none" stroke="#000" stroke-miterlimit="10" stroke-width="2"/>
        <circle id="Oval-5" data-name="Oval" cx="43.272" cy="43.272" r="43.272" transform="translate(139.211 0)" fill="none" stroke="#000" stroke-miterlimit="10" stroke-width="2"/>
        <path id="Path-49" data-name="Path" d="M0,.49H123.954" transform="translate(0 494.554)" fill="none" stroke="#000" stroke-miterlimit="10" stroke-width="2"/>
        <path id="Path-50" data-name="Path" d="M0,.49H81.734" transform="translate(275.008 496.593)" fill="none" stroke="#000" stroke-miterlimit="10" stroke-width="2"/>
        <path id="Path-51" data-name="Path" d="M1.677,0C4.233,2.051,5.654,4.334,5.654,6.7c0,2.848-2.027,5.523-5.654,7.914" transform="translate(231.998 40.145)" fill="none" stroke="#000" stroke-miterlimit="10" stroke-width="2"/>
        <path id="Path-52" data-name="Path" d="M7.2,0C4.875.315,2.444.6,0,.8" transform="translate(196.948 63.303)" fill="none" stroke="#000" stroke-miterlimit="10" stroke-width="2"/>
        <path id="Path-53" data-name="Path" d="M0,.2Q5.351.544,10.976.553c2.806,0,5.571-.065,8.27-.208" transform="translate(171.941 64.153)" fill="none" stroke="#000" stroke-miterlimit="10" stroke-width="2"/>
        <path id="Path-54" data-name="Path" d="M2.557,0A8.005,8.005,0,0,0,0,5.446c0,3.514,3.121,6.76,8.484,9.549,6.344,3.288,15.893,5.839,27.219,7.2" transform="translate(128.217 41.399)" fill="none" stroke="#000" stroke-miterlimit="10" stroke-width="2"/>
      </g>
      <g id="Group-6" data-name="Group" transform="translate(52.173 121.213)">
        <path id="Path-55" data-name="Path" d="M56.888,0a56.888,56.888,0,0,1,56.888,56.888v92.555H0V56.888A56.888,56.888,0,0,1,56.888,0Z" fill="none" stroke="#b2ede0" stroke-miterlimit="10" stroke-width="2"/>
        <path id="Path-56" data-name="Path" d="M.5.49H.456" transform="translate(55.058 126.764)" fill="none" stroke="#b2ede0" stroke-miterlimit="10" stroke-width="2"/>
        <path id="Path-57" data-name="Path" d="M18.473,105.053H0V40a40,40,0,1,1,80,0l0,65.057H44.015" transform="translate(16.897 22.201)" fill="none" stroke="#b2ede0" stroke-miterlimit="10" stroke-width="2"/>
      </g>
    </g>
  </g>
</svg>
